<svg xmlns="http://www.w3.org/2000/svg" width="24" height="24" viewBox="0 0 24 24"><defs><clipPath id="a"><path d="M0 0h24v24H0z"/></clipPath><filter width="100%" x="0" y="0" height="100%" filterUnits="objectBoundingBox" id="b"><feColorMatrix values="0 0 0 0 1 0 0 0 0 1 0 0 0 0 1 0 0 0 1 0" in="SourceGraphic"/></filter></defs><path style="line-height:normal;text-indent:0;text-align:start;text-decoration-line:none;text-decoration-style:solid;text-decoration-color:#000;text-transform:none;isolation:auto;mix-blend-mode:normal" d="M12.271 2.84v7.96L7.65 6.176l-.352-.352-.703.703.351.352 5.12 5.12-5.12 5.12-.351.352.703.703.352-.352 4.622-4.622v7.958l4.477-4.476.352-.352.351-.352-.351-.351L13.472 12 17.1 8.372l.351-.351-.351-.352zm.995 2.402l2.779 2.779-2.779 2.778zm0 7.959l2.779 2.778-2.779 2.779z" color="#000" font-weight="400" font-family="sans-serif" white-space="normal" overflow="visible" fill="#aaa" fill-rule="evenodd" stroke="#aaa" stroke-width=".696" stroke-linecap="square" enable-background="accumulate"/><path style="line-height:normal;text-indent:0;text-align:start;text-decoration-line:none;text-decoration-style:solid;text-decoration-color:#000;text-transform:none;isolation:auto;mix-blend-mode:normal" d="M12.226 3.123v7.959L7.604 6.459l-.352-.351-.703.703.351.352 5.12 5.12 4.683 4.682.352-.351.351-.352-.351-.352-3.628-3.627 3.628-3.628.351-.352-.351-.351zm.995 2.402l2.778 2.778-2.778 2.779z" color="#000" font-weight="400" font-family="sans-serif" white-space="normal" overflow="visible" opacity=".385" fill-rule="evenodd" stroke="#000" stroke-width=".696" stroke-linecap="square" enable-background="accumulate"/><path d="M12.271 2.886v7.958L7.65 6.222l-.352-.352-.703.704.351.351 5.12 5.12 4.683 4.683.352-.352.351-.351-.351-.352-3.628-3.628L17.1 8.418l.351-.352-.351-.352zm.995 2.401l2.779 2.779-2.779 2.778z" style="line-height:normal;text-indent:0;text-align:start;text-decoration-line:none;text-decoration-style:solid;text-decoration-color:#000;text-transform:none;isolation:auto;mix-blend-mode:normal" color="#000" font-weight="400" font-family="sans-serif" white-space="normal" overflow="visible" fill="#aaa" fill-rule="evenodd" stroke="#aaa" stroke-width=".696" stroke-linecap="square" enable-background="accumulate"/></svg>