<?xml version="1.0" encoding="UTF-8" standalone="no"?>
<!-- Created with Inkscape (http://www.inkscape.org/) -->

<svg
   xmlns:dc="http://purl.org/dc/elements/1.1/"
   xmlns:cc="http://creativecommons.org/ns#"
   xmlns:rdf="http://www.w3.org/1999/02/22-rdf-syntax-ns#"
   xmlns:svg="http://www.w3.org/2000/svg"
   xmlns="http://www.w3.org/2000/svg"
   xmlns:xlink="http://www.w3.org/1999/xlink"
   xmlns:sodipodi="http://sodipodi.sourceforge.net/DTD/sodipodi-0.dtd"
   xmlns:inkscape="http://www.inkscape.org/namespaces/inkscape"
   width="64"
   version="1.1"
   height="64"
   id="svg2"
   inkscape:version="0.91 r13725"
   sodipodi:docname="drive-removable-media-usb-pendrive.svg">
  <sodipodi:namedview
     pagecolor="#ffffff"
     bordercolor="#666666"
     borderopacity="1"
     objecttolerance="10"
     gridtolerance="10"
     guidetolerance="10"
     inkscape:pageopacity="0"
     inkscape:pageshadow="2"
     inkscape:window-width="1366"
     inkscape:window-height="700"
     id="namedview37"
     showgrid="false"
     inkscape:zoom="5.2149125"
     inkscape:cx="10.32966"
     inkscape:cy="37.08963"
     inkscape:window-x="0"
     inkscape:window-y="0"
     inkscape:window-maximized="1"
     inkscape:current-layer="layer1" />
  <defs
     id="defs5455">
    <linearGradient
       inkscape:collect="always"
       id="linearGradient4143-8">
      <stop
         style="stop-color:#faae2a"
         id="stop4145-7" />
      <stop
         offset="1"
         style="stop-color:#ffc35a"
         id="stop4147-4" />
    </linearGradient>
    <linearGradient
       y2="528.79791"
       x2="416.96021"
       y1="551.79791"
       x1="416.96021"
       gradientTransform="matrix(0.63587062,0,0,1,144.25118,-30.99993)"
       gradientUnits="userSpaceOnUse"
       id="linearGradient4319"
       xlink:href="#linearGradient4303"
       inkscape:collect="always" />
    <linearGradient
       inkscape:collect="always"
       id="linearGradient4303">
      <stop
         style="stop-color:#c6cdd1;stop-opacity:1"
         offset="0"
         id="stop4305" />
      <stop
         style="stop-color:#e0e5e7;stop-opacity:1"
         offset="1"
         id="stop4307" />
    </linearGradient>
    <linearGradient
       inkscape:collect="always"
       xlink:href="#linearGradient5240"
       id="linearGradient5246"
       x1="422.57144"
       y1="520.79797"
       x2="422.57144"
       y2="575.79797"
       gradientUnits="userSpaceOnUse" />
    <linearGradient
       inkscape:collect="always"
       id="linearGradient5240">
      <stop
         style="stop-color:#52c6f9;stop-opacity:1"
         offset="0"
         id="stop5242" />
      <stop
         style="stop-color:#3c99f3;stop-opacity:1"
         offset="1"
         id="stop5244" />
    </linearGradient>
    <linearGradient
       gradientTransform="matrix(2,0,0,2,-396.57143,-537.79802)"
       gradientUnits="userSpaceOnUse"
       y2="521.79797"
       x2="400.57144"
       y1="521.79797"
       x1="398.57144"
       id="linearGradient4371"
       xlink:href="#linearGradient4143-8"
       inkscape:collect="always" />
    <linearGradient
       gradientTransform="matrix(2,0,0,2,-384.5714,-537.79802)"
       y2="521.79797"
       x2="400.57144"
       y1="521.79797"
       x1="398.57144"
       gradientUnits="userSpaceOnUse"
       id="linearGradient4375"
       xlink:href="#linearGradient4143-8"
       inkscape:collect="always" />
  </defs>
  <metadata
     id="metadata5458">
    <rdf:RDF>
      <cc:Work
         rdf:about="">
        <dc:format>image/svg+xml</dc:format>
        <dc:type
           rdf:resource="http://purl.org/dc/dcmitype/StillImage" />
        <dc:title />
      </cc:Work>
    </rdf:RDF>
  </metadata>
  <g
     inkscape:label="Capa 1"
     inkscape:groupmode="layer"
     id="layer1"
     transform="matrix(1 0 0 1 -376.57144 -491.79797)">
    <g
       transform="matrix(0.81686081,0,0,0.81686081,75.691826,85.717102)"
       id="layer1-7"
       inkscape:label="Capa 1">
      <rect
         style="opacity:1;fill:url(#linearGradient4319);fill-opacity:1;stroke:none"
         id="rect4317"
         width="26"
         height="23.999866"
         x="395.57144"
         y="497.79813"
         ry="0" />
      <rect
         ry="0"
         y="520.79797"
         x="392.57144"
         height="54.000027"
         width="31.999998"
         id="rect4139"
         style="opacity:1;fill:url(#linearGradient5246);fill-opacity:1;stroke:none" />
      <rect
         y="573.79797"
         x="392.57144"
         height="1.0000228"
         width="32"
         id="rect4492"
         style="opacity:0.2;fill:#000000;fill-opacity:1;stroke:none;stroke-width:2.79999995;stroke-miterlimit:4;stroke-dasharray:none;stroke-opacity:0.55026455" />
      <rect
         y="501.79794"
         x="398.57144"
         height="8.0000525"
         width="8.0000525"
         id="rect4359"
         style="opacity:1;fill:#23262c;fill-opacity:1;stroke:none" />
      <rect
         style="opacity:1;fill:#23262c;fill-opacity:1;stroke:none"
         id="rect4361"
         width="8.0000525"
         height="8.0000525"
         x="410.57153"
         y="501.79794" />
      <rect
         y="501.79794"
         x="400.57144"
         height="8"
         width="4.0000238"
         id="rect4363"
         style="opacity:1;fill:url(#linearGradient4371);fill-opacity:1;stroke:none" />
      <rect
         style="opacity:1;fill:url(#linearGradient4375);fill-opacity:1;stroke:none"
         id="rect4373"
         width="4.0000238"
         height="8"
         x="412.57153"
         y="501.79794" />
    </g>
    <g
       id="XMLID_2_"
       transform="matrix(0,-0.2362705,0.21422532,0,319.44967,515.62995)"
       style="fill:#ffffff">
      <path
         d="m -97.029578,447.97561 c 0.3,0.1 0.4,0.3 0.4,0.6 0,0.3 -0.1,0.5 -0.4,0.6 l -7.600002,4.6 c -0.1,0.1 -0.3,0.1 -0.4,0.1 -0.1,0 -0.3,0 -0.4,-0.1 -0.3,-0.2 -0.4,-0.4 -0.4,-0.7 l 0,-3.1 -20.4,0 c 0.6,0.9 1.2,2.2 2,3.9 0.3,0.6 0.4,1 0.6,1.3 0.2,0.3 0.3,0.7 0.6,1.2 0.3,0.5 0.5,0.9 0.6,1.1 0.2,0.3 0.4,0.5 0.6,0.8 0.2,0.3 0.5,0.5 0.8,0.6 0.3,0.1 0.5,0.2 0.8,0.2 l 2.3,0 0,-2.3 c 0,-0.2 0.1,-0.4 0.2,-0.5 0.1,-0.1 0.3,-0.2 0.5,-0.2 l 7.6,0 c 0.2,0 0.4,0.1 0.5,0.2 0.1,0.1 0.2,0.3 0.2,0.5 l 0,7.8 c 0,0.2 -0.1,0.4 -0.2,0.5 -0.1,0.1 -0.3,0.2 -0.5,0.2 l -7.6,0 c -0.2,0 -0.4,-0.1 -0.5,-0.2 -0.1,-0.1 -0.2,-0.3 -0.2,-0.5 l 0,-2.3 -2.3,0 c -0.5,0 -1,-0.1 -1.5,-0.2 -0.5,-0.1 -0.9,-0.3 -1.2,-0.6 -0.4,-0.2 -0.7,-0.5 -1.1,-1 -0.4,-0.5 -0.7,-0.8 -0.9,-1.1 -0.2,-0.3 -0.5,-0.8 -0.8,-1.4 -0.3,-0.6 -0.5,-1.1 -0.7,-1.4 -0.1,-0.3 -0.4,-0.8 -0.7,-1.4 -0.4,-0.8 -0.7,-1.5 -0.9,-1.9 -0.2,-0.5 -0.5,-1 -0.9,-1.6 -0.4,-0.6 -0.7,-1 -1.1,-1.3 -0.4,-0.3 -0.7,-0.4 -1.1,-0.4 l -8.6,0 c -0.4,1.3 -1.1,2.4 -2.2,3.3 -1.1,0.9 -2.3,1.3 -3.7,1.3 -1.7,0 -3.1,-0.6 -4.3,-1.8 -1.2,-1.2 -1.8,-2.6 -1.8,-4.3 0,-1.7 0.6,-3.1 1.8,-4.3 1.2,-1.2 2.6,-1.8 4.3,-1.8 1.4,0 2.6,0.4 3.7,1.3 1.1,0.9 1.8,2 2.2,3.3 l 2.6,0 c 0.4,0 0.8,-0.1 1.1,-0.4 0.4,-0.3 0.7,-0.7 1.1,-1.3 0.4,-0.6 0.6,-1.1 0.9,-1.6 0.2,-0.5 0.5,-1.1 0.9,-1.9 0.3,-0.7 0.5,-1.1 0.7,-1.4 0.1,-0.3 0.4,-0.8 0.7,-1.4 0.3,-0.6 0.6,-1.1 0.8,-1.4 0.2,-0.3 0.5,-0.7 0.9,-1.1 0.4,-0.4 0.7,-0.8 1.1,-1 0.4,-0.2 0.8,-0.4 1.2,-0.6 0.5,-0.2 0.9,-0.2 1.5,-0.2 l 2.6,0 c 0.3,-0.9 0.9,-1.6 1.7,-2.2 0.8,-0.6 1.7,-0.8 2.6,-0.8 1.3,0 2.4,0.4 3.2,1.3 0.9,0.9 1.3,2 1.3,3.2 0,1.2 -0.4,2.4 -1.3,3.2 -0.9,0.8 -2,1.3 -3.2,1.3 -1,0 -1.9,-0.3 -2.6,-0.8 -0.7,-0.5 -1.3,-1.3 -1.7,-2.2 l -2.6,0 c -0.3,0 -0.5,0.1 -0.8,0.2 -0.3,0.1 -0.5,0.3 -0.8,0.6 -0.2,0.3 -0.5,0.6 -0.6,0.8 -0.2,0.3 -0.4,0.6 -0.6,1.1 -0.2,0.5 -0.4,0.9 -0.6,1.2 -0.2,0.3 -0.3,0.7 -0.6,1.3 -0.7,1.7 -1.4,3 -2,3.9 l 26.6,0 0,-3.1 c 0,-0.3 0.1,-0.5 0.4,-0.7 0.3,-0.2 0.5,-0.2 0.8,0 z"
         class="st0"
         id="XMLID_4_"
         inkscape:connector-curvature="0"
         style="fill:#ffffff" />
    </g>
  </g>
</svg>
