/* XPM */
static char * bottom_right_active_xpm[] = {
"24 24 2 1",
" 	c None",
".	c #86ABD9 s active_color_1",
"                   .....",
"                   .....",
"                   .....",
"                   .....",
"                   .....",
"                   .....",
"                   .....",
"                   .....",
"                   .....",
"                   .....",
"                   .....",
"                   .....",
"                   .....",
"                   .....",
"                   .....",
"                   .....",
"                   .....",
"                   .....",
"                   .....",
"........................",
"........................",
"........................",
"........................",
"........................"};
