/* XPM */
static char * bottom_right_active_xpm[] = {
"11 11 7 1",
" 	c None",
".	c #434238",
"+	c #302F27",
"@	c #101010",
"#	c #403F35",
"$	c #35342B",
"%	c #201F19",
"..+@@@@@+..",
"#$@@@@@@@+.",
"+@+@@@@@+@+",
"@@@%@@@%@@@",
"@@@@@@@@@@@",
"@@@@@@@@@@@",
"@@@@@@@@@@@",
"@@@%@@@%@@@",
"+@+@@@@@+@+",
".+@@@@@@@$#",
"..+@@@@@+.."};
