/* XPM */
static char * bottom_left_active_xpm[] = {
"24 24 2 1",
" 	c None",
".	c #EDECEB s active_color_2",
".....                   ",
".....                   ",
".....                   ",
".....                   ",
".....                   ",
".....                   ",
".....                   ",
".....                   ",
".....                   ",
".....                   ",
".....                   ",
".....                   ",
".....                   ",
".....                   ",
".....                   ",
".....                   ",
".....                   ",
".....                   ",
".....                   ",
"........................",
"........................",
"........................",
"........................",
"........................"};
