/* XPM */
static char * close_active_xpm[] = {
"44 38 450 2",
"  	c None",
". 	c #000000",
"+ 	c #505050",
"@ 	c #525252",
"# 	c #696969",
"$ 	c #6C6C6C",
"% 	c #515151",
"& 	c #565656",
"* 	c #4C4C4C",
"= 	c #4E4E4E",
"- 	c #4A4A4A",
"; 	c #494A4A",
"> 	c #434444",
", 	c #3A3D3D",
"' 	c #353535",
") 	c #303030",
"! 	c #494949",
"~ 	c #3F3A3A",
"{ 	c #2F2A2A",
"] 	c #201A1A",
"^ 	c #1C1616",
"/ 	c #171212",
"( 	c #141010",
"_ 	c #464646",
": 	c #484848",
"< 	c #484949",
"[ 	c #404141",
"} 	c #312F2F",
"| 	c #211616",
"1 	c #160404",
"2 	c #130000",
"3 	c #190000",
"4 	c #1B0000",
"5 	c #190101",
"6 	c #180000",
"7 	c #110000",
"8 	c #150404",
"9 	c #444444",
"0 	c #3F4040",
"a 	c #1F2222",
"b 	c #0D0202",
"c 	c #0D0000",
"d 	c #120000",
"e 	c #270000",
"f 	c #3E0101",
"g 	c #4E0605",
"h 	c #520C09",
"i 	c #520B09",
"j 	c #4E0405",
"k 	c #250000",
"l 	c #0F0000",
"m 	c #0B0000",
"n 	c #0C0202",
"o 	c #181A1A",
"p 	c #0A0404",
"q 	c #200000",
"r 	c #430303",
"s 	c #671112",
"t 	c #792B29",
"u 	c #804641",
"v 	c #82534D",
"w 	c #825751",
"x 	c #825651",
"y 	c #81514D",
"z 	c #7F4440",
"A 	c #792929",
"B 	c #661010",
"C 	c #3D0303",
"D 	c #1C0000",
"E 	c #070404",
"F 	c #171A1A",
"G 	c #3F3F3F",
"H 	c #414141",
"I 	c #404040",
"J 	c #1E1E1E",
"K 	c #100404",
"L 	c #3E0302",
"M 	c #73100F",
"N 	c #912E2B",
"O 	c #97403C",
"P 	c #98524E",
"Q 	c #985B54",
"R 	c #985D56",
"S 	c #985C56",
"T 	c #985A54",
"U 	c #98524D",
"V 	c #973F3C",
"W 	c #912D2A",
"X 	c #72110F",
"Y 	c #3C0302",
"Z 	c #170000",
"` 	c #0F0404",
" .	c #1E1D1D",
"..	c #3E3E3E",
"+.	c #2E2D2D",
"@.	c #120707",
"#.	c #140000",
"$.	c #3A0000",
"%.	c #6B100D",
"&.	c #8F2722",
"*.	c #9A3733",
"=.	c #9B423E",
"-.	c #9B4F4A",
";.	c #9B534E",
">.	c #9B544E",
",.	c #9B4E4A",
"'.	c #9B413E",
").	c #9A3834",
"!.	c #902723",
"~.	c #6D100D",
"{.	c #3C0000",
"].	c #110606",
"^.	c #2D2B2B",
"/.	c #383939",
"(.	c #1D1111",
"_.	c #120202",
":.	c #230000",
"<.	c #5F0000",
"[.	c #881613",
"}.	c #982F2B",
"|.	c #9B3733",
"1.	c #9B3632",
"2.	c #9B3430",
"3.	c #9B332F",
"4.	c #9B3833",
"5.	c #9B3834",
"6.	c #982F2C",
"7.	c #8A1714",
"8.	c #600000",
"9.	c #220000",
"0.	c #100202",
"a.	c #1D1010",
"b.	c #393939",
"c.	c #3B3B3B",
"d.	c #383A3A",
"e.	c #272929",
"f.	c #130303",
"g.	c #1A0000",
"h.	c #720000",
"i.	c #8E0D0A",
"j.	c #971D1B",
"k.	c #9A2522",
"l.	c #9B2722",
"m.	c #9B2927",
"n.	c #9B2A28",
"o.	c #9B2B28",
"p.	c #9B2C28",
"q.	c #9B2A27",
"r.	c #9B2824",
"s.	c #9A2523",
"t.	c #8D0D0B",
"u.	c #710000",
"v.	c #380000",
"w.	c #110303",
"x.	c #3A3A3A",
"y.	c #353838",
"z.	c #1B1B1A",
"A.	c #140101",
"B.	c #2A0000",
"C.	c #580000",
"D.	c #7F0000",
"E.	c #910503",
"F.	c #970C0A",
"G.	c #9A1312",
"H.	c #9B1917",
"I.	c #9B1E1B",
"J.	c #9B201E",
"K.	c #9B211E",
"L.	c #9B221F",
"M.	c #9B1F1C",
"N.	c #9B1B18",
"O.	c #9A1513",
"P.	c #970D0D",
"Q.	c #900505",
"R.	c #7B0000",
"S.	c #530000",
"T.	c #280000",
"U.	c #130101",
"V.	c #1A1B1A",
"W.	c #343636",
"X.	c #363636",
"Y.	c #2F3333",
"Z.	c #181515",
"`.	c #1A0101",
" +	c #420000",
".+	c #730000",
"++	c #890000",
"@+	c #940202",
"#+	c #980506",
"$+	c #9A0E0E",
"%+	c #9B1313",
"&+	c #9B1B19",
"*+	c #9B1C1A",
"=+	c #9B1D1B",
"-+	c #9B1A18",
";+	c #9B1614",
">+	c #9A110F",
",+	c #980A0A",
"'+	c #940404",
")+	c #850000",
"!+	c #6E0000",
"~+	c #400000",
"{+	c #171414",
"]+	c #2D3131",
"^+	c #333333",
"/+	c #2F3131",
"(+	c #171313",
"_+	c #1D0000",
":+	c #500000",
"<+	c #8F0000",
"[+	c #980002",
"}+	c #9B0406",
"|+	c #9B0D0D",
"1+	c #9B1211",
"2+	c #9B1716",
"3+	c #9B1816",
"4+	c #9B1412",
"5+	c #9B100F",
"6+	c #9A0A0B",
"7+	c #970404",
"8+	c #8C0000",
"9+	c #7C0000",
"0+	c #4F0000",
"a+	c #161212",
"b+	c #2C2F2F",
"c+	c #151111",
"d+	c #5A0000",
"e+	c #850101",
"f+	c #930304",
"g+	c #9B0708",
"h+	c #9B1413",
"i+	c #9B211F",
"j+	c #9B2221",
"k+	c #9B2322",
"l+	c #9B2422",
"m+	c #9B2121",
"n+	c #9B1C1B",
"o+	c #9B1615",
"p+	c #9B1010",
"q+	c #9A0909",
"r+	c #910403",
"s+	c #830101",
"t+	c #590000",
"u+	c #1F0000",
"v+	c #140F0F",
"w+	c #2B2D2D",
"x+	c #2D2D2D",
"y+	c #2A2D2D",
"z+	c #240000",
"A+	c #570000",
"B+	c #830203",
"C+	c #930809",
"D+	c #9B0F0F",
"E+	c #9B1515",
"F+	c #9B2321",
"G+	c #9B2A29",
"H+	c #9B2B2A",
"I+	c #9B2D2B",
"J+	c #9B2C2A",
"K+	c #9B2423",
"L+	c #9B1616",
"M+	c #9A1010",
"N+	c #900908",
"O+	c #810101",
"P+	c #550000",
"Q+	c #151010",
"R+	c #282B2B",
"S+	c #2C2C2C",
"T+	c #2F2F2F",
"U+	c #2A2C2C",
"V+	c #181414",
"W+	c #450001",
"X+	c #790205",
"Y+	c #910C0C",
"Z+	c #9B1415",
"`+	c #9B1E1C",
" @	c #9B2827",
".@	c #9B2E2D",
"+@	c #9B322F",
"@@	c #9B3330",
"#@	c #9B3531",
"$@	c #9B302E",
"%@	c #9B1E1E",
"&@	c #9A1616",
"*@	c #8E0C0C",
"=@	c #740101",
"-@	c #410000",
";@	c #1C1A1A",
">@	c #160505",
",@	c #2C0103",
"'@	c #5D0204",
")@	c #8B0F0F",
"!@	c #9A1C1C",
"~@	c #9B2928",
"{@	c #9B3432",
"]@	c #9B3835",
"^@	c #9B3936",
"/@	c #9B3A36",
"(@	c #9B3935",
"_@	c #9B3533",
":@	c #9B302F",
"<@	c #9B2E2E",
"[@	c #9B2A2A",
"}@	c #9A1F1F",
"|@	c #870F0F",
"1@	c #570101",
"2@	c #290000",
"3@	c #272727",
"4@	c #2A2A2A",
"5@	c #242424",
"6@	c #181111",
"7@	c #1E0404",
"8@	c #480202",
"9@	c #851312",
"0@	c #9A2423",
"a@	c #9B2F2F",
"b@	c #9B3937",
"c@	c #9B3D3C",
"d@	c #9B403E",
"e@	c #9B413F",
"f@	c #9B423F",
"g@	c #9B3E3C",
"h@	c #9B3939",
"i@	c #9B3636",
"j@	c #9B3232",
"k@	c #9A2726",
"l@	c #821412",
"m@	c #420202",
"n@	c #1C0103",
"o@	c #170F10",
"p@	c #232424",
"q@	c #282828",
"r@	c #1B1818",
"s@	c #160808",
"t@	c #2B0202",
"u@	c #711110",
"v@	c #902323",
"w@	c #993232",
"x@	c #9B4442",
"y@	c #9B4948",
"z@	c #9B4A4B",
"A@	c #9B4B4C",
"B@	c #9B4B4B",
"C@	c #9B4A49",
"D@	c #9B4545",
"E@	c #9B403F",
"F@	c #993635",
"G@	c #902625",
"H@	c #6F1110",
"I@	c #290101",
"J@	c #130506",
"K@	c #1B1718",
"L@	c #262626",
"M@	c #222323",
"N@	c #110C0C",
"O@	c #180404",
"P@	c #3D0607",
"Q@	c #641B1B",
"R@	c #913132",
"S@	c #993F3E",
"T@	c #9A4644",
"U@	c #9A4B4B",
"V@	c #9B4E4F",
"W@	c #9B4F50",
"X@	c #9A4C4C",
"Y@	c #9A4747",
"Z@	c #994140",
"`@	c #913635",
" #	c #641C1B",
".#	c #3C0605",
"+#	c #170303",
"@#	c #100B0B",
"##	c #202020",
"$#	c #232323",
"%#	c #1B1D1D",
"&#	c #0E0A0A",
"*#	c #0B0102",
"=#	c #3E0F0F",
"-#	c #6E2525",
";#	c #843837",
">#	c #8C403F",
",#	c #934B4B",
"'#	c #954E4F",
")#	c #954F50",
"!#	c #93494B",
"~#	c #8C4040",
"{#	c #843939",
"]#	c #6E2726",
"^#	c #3E0F0E",
"/#	c #0A0000",
"(#	c #0D0A0A",
"_#	c #222222",
":#	c #181818",
"<#	c #0F0D0D",
"[#	c #180406",
"}#	c #270809",
"|#	c #411514",
"1#	c #5C2728",
"2#	c #7C3B3C",
"3#	c #874444",
"4#	c #894646",
"5#	c #894546",
"6#	c #864244",
"7#	c #79383B",
"8#	c #5C2425",
"9#	c #401111",
"0#	c #260607",
"a#	c #180304",
"b#	c #1F1F1F",
"c#	c #1F2020",
"d#	c #110C0D",
"e#	c #170B0C",
"f#	c #1F0B0B",
"g#	c #290E0F",
"h#	c #451D1D",
"i#	c #592625",
"j#	c #5C2626",
"k#	c #5C2526",
"l#	c #572325",
"m#	c #441A1C",
"n#	c #280D0D",
"o#	c #1E0808",
"p#	c #160A0B",
"q#	c #110B0C",
"r#	c #1A1A1A",
"s#	c #1C1C1C",
"t#	c #191C1C",
"u#	c #151414",
"v#	c #130E0E",
"w#	c #120909",
"x#	c #211010",
"y#	c #261111",
"z#	c #251011",
"A#	c #251010",
"B#	c #251111",
"C#	c #210E0F",
"D#	c #110909",
"E#	c #130D0D",
"F#	c #141616",
"G#	c #101111",
"H#	c #0E0F0F",
"I#	c #0C0E0D",
"J#	c #0C0E0E",
"K#	c #141414",
"L#	c #171818",
"M#	c #171717",
"N#	c #131313",
"O#	c #161616",
"P#	c #101010",
"Q#	c #0C0C0C",
". . . . . . . . . . . . . . . . . . . . . . . . . . . . . . . . . . . . . . . . . . . . ",
"+ @ @ @ @ @ @ @ @ @ @ @ @ @ @ @ @ @ @ @ @ @ @ @ @ @ @ @ @ @ @ @ @ @ @ @ @ @ @ @ @ @ @ + ",
"# $ $ $ $ $ $ $ $ $ $ $ $ $ $ $ $ $ $ $ $ $ $ $ $ $ $ $ $ $ $ $ $ $ $ $ $ $ $ $ $ $ $ # ",
"% & & & & & & & & & & & & & & & & & & & & & & & & & & & & & & & & & & & & & & & & & & % ",
"+ @ @ @ @ @ @ @ @ @ @ @ @ @ @ @ @ @ @ @ @ @ @ @ @ @ @ @ @ @ @ @ @ @ @ @ @ @ @ @ @ @ @ + ",
"+ + + + + + + + + + + + + + + + + + + + + + + + + + + + + + + + + + + + + + + + + + + + ",
"* = = = = = = = = = = = = = = = = = = = = = = = = = = = = = = = = = = = = = = = = = = * ",
"- * * * * * * * * * * * * * * * * ; > , ' ) ) ' , > ; * * * * * * * * * * * * * * * * - ",
"- - - - - - - - - - - - - - - ! ~ { ] ^ / ( ( / ^ ] { ~ ! - - - - - - - - - - - - - - - ",
"_ : : : : : : : : : : : : < [ } | 1 2 3 4 5 5 4 6 7 8 | } [ < : : : : : : : : : : : : _ ",
"9 _ _ _ _ _ _ _ _ _ _ _ _ 0 a b c d e f g h i j f k l m n a 0 _ _ _ _ _ _ _ _ _ _ _ _ 9 ",
"9 9 9 9 9 9 9 9 9 9 9 9 0 o p q r s t u v w x y z A B C D E F 0 9 9 9 9 9 9 9 9 9 9 9 9 ",
"G H H H H H H H H H H I J K 6 L M N O P Q R S T U V W X Y Z `  .I H H H H H H H H H H G ",
"..I I I I I I I I I I +.@.#.$.%.&.*.=.-.;.;.>.;.,.'.).!.~.{.#.].^.I I I I I I I I I I ..",
"..................../.(._.:.<.[.}.|.1.1.2.3.3.2.1.4.5.6.7.8.9.0.a./.....................",
"b.c.c.c.c.c.c.c.c.d.e.f.g.$.h.i.j.k.l.m.n.o.p.o.q.r.s.j.t.u.v.6 w.e.d.c.c.c.c.c.c.c.c.b.",
"b.b.b.b.b.b.b.b.x.y.z.A.B.C.D.E.F.G.H.I.J.K.L.K.M.N.O.P.Q.R.S.T.U.V.W.b.b.b.b.b.b.b.b.b.",
"' X.X.X.X.X.X.X.X.Y.Z.`. +.+++@+#+$+%+H.&+*+=+*+-+;+>+,+'+)+!+~+5 {+]+X.X.X.X.X.X.X.X.' ",
"^+' ' ' ' ' ' ' ' /+(+_+:+D.<+[+}+|+1+2+H.-+&+-+3+4+5+6+7+8+9+0+D a+b+' ' ' ' ' ' ' ' ^+",
"^+^+^+^+^+^+^+^+^+b+c+q d+e+f+g+|+h+&+i+j+k+l+k+m+n+o+p+q+r+s+t+u+v+w+^+^+^+^+^+^+^+^+^+",
"x+) ) ) ) ) ) ) ) y+a+z+A+B+C+D+E+n+F+m.G+H+I+J+G+K+=+L+M+N+O+P+9.Q+R+) ) ) ) ) ) ) ) x+",
"S+T+T+T+T+T+T+T+T+U+V+9.W+X+Y+Z+`+K+ @.@+@@@#@2.$@n.K+%@&@*@=@-@q a+R+T+T+T+T+T+T+T+T+S+",
"S+S+S+S+S+S+S+S+S+R+;@>@,@'@)@!@~@.@$@{@]@^@/@(@_@:@<@[@}@|@1@2@8 z.R+S+S+S+S+S+S+S+S+S+",
"3@4@4@4@4@4@4@4@4@4@5@6@7@8@9@0@a@_@b@c@d@e@f@'.g@h@i@j@k@l@m@n@o@p@4@4@4@4@4@4@4@4@4@3@",
"3@3@3@3@3@3@3@3@3@3@q@r@s@t@u@v@w@c@x@y@z@A@A@B@C@D@E@F@G@H@I@J@K@3@3@3@3@3@3@3@3@3@3@3@",
"L@L@L@L@L@L@L@L@L@L@L@M@N@O@P@Q@R@S@T@U@V@W@W@V@X@Y@Z@`@ #.#+#@#M@L@L@L@L@L@L@L@L@L@L@L@",
"##$#$#$#$#$#$#$#$#$#$#$#%#&#*#=#-#;#>#,#'#)#)#'#!#~#{#]#^#/#(#%#$#$#$#$#$#$#$#$#$#$#$###",
"########################_#:#<#[#}#|#1#2#3#4#5#6#7#8#9#0#a#<#:#_#########################",
"b#b#b#b#b#b#b#b#b#b#b#b#b#c#:#d#e#f#g#h#i#j#k#l#m#n#o#p#q#:#c#b#b#b#b#b#b#b#b#b#b#b#b#b#",
"r#s#s#s#s#s#s#s#s#s#s#s#s#s#s#t#u#v#w#x#y#z#A#B#C#D#E#u#t#s#s#s#s#s#s#s#s#s#s#s#s#s#s#r#",
"r#r#r#r#r#r#r#r#r#r#r#r#r#r#r#r#r#:#F#G#H#I#J#H#G#F#:#r#r#r#r#r#r#r#r#r#r#r#r#r#r#r#r#r#",
"K#:#:#:#:#:#:#:#:#:#:#:#:#:#:#:#:#:#:#L#M#M#M#M#L#:#:#:#:#:#:#:#:#:#:#:#:#:#:#:#:#:#:#K#",
"N#O#O#O#O#O#O#O#O#O#O#O#O#O#O#O#O#O#O#O#O#O#O#O#O#O#O#O#O#O#O#O#O#O#O#O#O#O#O#O#O#O#O#N#",
"P#N#N#N#N#N#N#N#N#N#N#N#N#N#N#N#N#N#N#N#N#N#N#N#N#N#N#N#N#N#N#N#N#N#N#N#N#N#N#N#N#N#N#P#",
"P#N#N#N#N#N#N#N#N#N#N#N#N#N#N#N#N#N#N#N#N#N#N#N#N#N#N#N#N#N#N#N#N#N#N#N#N#N#N#N#N#N#N#P#",
"_#$#$#$#$#$#$#$#$#$#$#$#$#$#$#$#$#$#$#$#$#$#$#$#$#$#$#$#$#$#$#$#$#$#$#$#$#$#$#$#$#$#$#_#",
"b#_#_#_#_#_#_#_#_#_#_#_#_#_#_#_#_#_#_#_#_#_#_#_#_#_#_#_#_#_#_#_#_#_#_#_#_#_#_#_#_#_#_#b#",
"Q#Q#Q#Q#Q#Q#Q#Q#Q#Q#Q#Q#Q#Q#Q#Q#Q#Q#Q#Q#Q#Q#Q#Q#Q#Q#Q#Q#Q#Q#Q#Q#Q#Q#Q#Q#Q#Q#Q#Q#Q#Q#Q#Q#"};
