/* XPM */
static char * close_pressed_xpm[] = {
"44 38 493 2",
"  	c None",
". 	c #000000",
"+ 	c #505050",
"@ 	c #525252",
"# 	c #696969",
"$ 	c #6C6C6C",
"% 	c #515151",
"& 	c #565656",
"* 	c #4C4C4C",
"= 	c #4E4E4E",
"- 	c #4C4E4E",
"; 	c #4B4C4C",
"> 	c #4A4B4B",
", 	c #4A4A4A",
"' 	c #464848",
") 	c #3E3F3F",
"! 	c #343636",
"~ 	c #2D2F2F",
"{ 	c #272828",
"] 	c #464646",
"^ 	c #3A3333",
"/ 	c #2D2323",
"( 	c #231818",
"_ 	c #221515",
": 	c #211312",
"< 	c #1F1212",
"[ 	c #211213",
"} 	c #211515",
"| 	c #2B2323",
"1 	c #484848",
"2 	c #484949",
"3 	c #3B3D3D",
"4 	c #2C2828",
"5 	c #251313",
"6 	c #240505",
"7 	c #260505",
"8 	c #310909",
"9 	c #390D0C",
"0 	c #3B100F",
"a 	c #3B0F10",
"b 	c #390C0D",
"c 	c #300909",
"d 	c #220505",
"e 	c #231313",
"f 	c #444444",
"g 	c #3A3B3B",
"h 	c #1F1F1F",
"i 	c #1A0707",
"j 	c #240303",
"k 	c #400505",
"l 	c #591212",
"m 	c #6E2422",
"n 	c #7D302D",
"o 	c #803230",
"p 	c #803130",
"q 	c #7C2F2E",
"r 	c #6C2322",
"s 	c #571112",
"t 	c #3D0505",
"u 	c #230303",
"v 	c #1E1F1F",
"w 	c #3A3D3D",
"x 	c #1B1515",
"y 	c #180606",
"z 	c #3B0303",
"A 	c #65100F",
"B 	c #932D2A",
"C 	c #A84946",
"D 	c #B26762",
"E 	c #B5746F",
"F 	c #B77873",
"G 	c #B67873",
"H 	c #B4746F",
"I 	c #B26562",
"J 	c #A84746",
"K 	c #922A28",
"L 	c #600F0D",
"M 	c #360302",
"N 	c #170606",
"O 	c #3F3F3F",
"P 	c #414141",
"Q 	c #1F1B1B",
"R 	c #1B0808",
"S 	c #340304",
"T 	c #611110",
"U 	c #9A2625",
"V 	c #B74A46",
"W 	c #BF5B57",
"X 	c #C16F6A",
"Y 	c #C17771",
"Z 	c #C17973",
"` 	c #C17873",
" .	c #C07671",
"..	c #C06D6A",
"+.	c #BF5957",
"@.	c #B74844",
"#.	c #982824",
"$.	c #5F1110",
"%.	c #330303",
"&.	c #1A0808",
"*.	c #1F1A1A",
"=.	c #3E3E3E",
"-.	c #404040",
";.	c #2D2828",
">.	c #1C080A",
",.	c #280204",
"'.	c #5D0708",
").	c #932422",
"!.	c #B43F3D",
"~.	c #BD4E4A",
"{.	c #C15A55",
"].	c #C16560",
"^.	c #C16861",
"/.	c #C16961",
"(.	c #C06861",
"_.	c #C06460",
":.	c #C15955",
"<.	c #BE4E49",
"[.	c #B6413D",
"}.	c #952523",
"|.	c #5E0707",
"1.	c #270202",
"2.	c #2B2727",
"3.	c #383939",
"4.	c #240203",
"5.	c #420102",
"6.	c #810D0E",
"7.	c #A92726",
"8.	c #B94340",
"9.	c #BE4C47",
"0.	c #BF4A45",
"a.	c #BE4844",
"b.	c #BF4742",
"c.	c #BF4743",
"d.	c #BF4842",
"e.	c #BF4A44",
"f.	c #BE4A45",
"g.	c #BF4C47",
"h.	c #BC4440",
"i.	c #AB2826",
"j.	c #810D0D",
"k.	c #400101",
"l.	c #230101",
"m.	c #1E1212",
"n.	c #393939",
"o.	c #3B3B3B",
"p.	c #383A3A",
"q.	c #252828",
"r.	c #1A0B0B",
"s.	c #300202",
"t.	c #5E0101",
"u.	c #930D0D",
"v.	c #AE1C1B",
"w.	c #B82C2A",
"x.	c #BC3532",
"y.	c #BD3836",
"z.	c #BD3C3A",
"A.	c #BE3F3C",
"B.	c #BF403D",
"C.	c #C0403D",
"D.	c #C0403C",
"E.	c #BF3E3A",
"F.	c #BD3935",
"G.	c #B82D29",
"H.	c #AE1C19",
"I.	c #910C0A",
"J.	c #590101",
"K.	c #2E0101",
"L.	c #190A0A",
"M.	c #252929",
"N.	c #3A3A3A",
"O.	c #333838",
"P.	c #1C1D1D",
"Q.	c #200709",
"R.	c #450102",
"S.	c #7E0102",
"T.	c #A00B0A",
"U.	c #B21313",
"V.	c #B81B1A",
"W.	c #BC2221",
"X.	c #BE2928",
"Y.	c #BE2D2C",
"Z.	c #BF302E",
"`.	c #C0312F",
" +	c #C13230",
".+	c #C1312F",
"++	c #C02F2D",
"@+	c #BC2423",
"#+	c #B91E1D",
"$+	c #B21414",
"%+	c #9C0A0A",
"&+	c #770101",
"*+	c #430101",
"=+	c #1E0507",
"-+	c #1B1C1C",
";+	c #333636",
">+	c #353535",
",+	c #363636",
"'+	c #2F3434",
")+	c #191717",
"!+	c #2A0709",
"~+	c #600204",
"{+	c #980204",
"]+	c #AD0909",
"^+	c #B70F10",
"/+	c #BA1516",
"(+	c #BD1D1D",
"_+	c #C02322",
":+	c #C22726",
"<+	c #C32827",
"[+	c #C32928",
"}+	c #C22B2A",
"|+	c #C22A29",
"1+	c #C22827",
"2+	c #BE1E1E",
"3+	c #BC1A1A",
"4+	c #B61313",
"5+	c #A70A0A",
"6+	c #920202",
"7+	c #5D0202",
"8+	c #270607",
"9+	c #181616",
"0+	c #2D3131",
"a+	c #333333",
"b+	c #2F3131",
"c+	c #181515",
"d+	c #6F0608",
"e+	c #A30608",
"f+	c #B5090C",
"g+	c #BB0E0F",
"h+	c #BE1415",
"i+	c #C11C1C",
"j+	c #C22221",
"k+	c #C42625",
"l+	c #C42727",
"m+	c #C42828",
"n+	c #C42A2A",
"o+	c #C52929",
"p+	c #C52726",
"q+	c #C32322",
"r+	c #C11D1D",
"s+	c #BF1919",
"t+	c #BA1314",
"u+	c #B00B0C",
"v+	c #9F0605",
"w+	c #6D0505",
"x+	c #2E0908",
"y+	c #171414",
"z+	c #2C2F2F",
"A+	c #2C2D2D",
"B+	c #161313",
"C+	c #350B0B",
"D+	c #770A0B",
"E+	c #A90C0C",
"F+	c #B90F10",
"G+	c #BF1314",
"H+	c #C1191A",
"I+	c #C32223",
"J+	c #C42B2B",
"K+	c #C43432",
"L+	c #C43635",
"M+	c #C43736",
"N+	c #C53738",
"O+	c #C63737",
"P+	c #C63535",
"Q+	c #C62E2C",
"R+	c #C32422",
"S+	c #C11D1C",
"T+	c #BE1716",
"U+	c #B71010",
"V+	c #A60C09",
"W+	c #740B09",
"X+	c #340B0A",
"Y+	c #151312",
"Z+	c #2B2D2D",
"`+	c #2D2D2D",
" @	c #303030",
".@	c #2A2B2B",
"+@	c #330D0D",
"@@	c #720F0E",
"#@	c #A71213",
"$@	c #B91415",
"%@	c #C01A1C",
"&@	c #C42C2B",
"*@	c #C53434",
"=@	c #C43D3B",
"-@	c #C44240",
";@	c #C44341",
">@	c #C64342",
",@	c #C64241",
"'@	c #C6413D",
")@	c #C63734",
"!@	c #C52C2A",
"~@	c #C32523",
"{@	c #BE1D1B",
"]@	c #B61514",
"^@	c #A4100F",
"/@	c #700D0D",
"(@	c #320C0C",
"_@	c #151313",
":@	c #282A2B",
"<@	c #2C2C2C",
"[@	c #2F2F2F",
"}@	c #281010",
"|@	c #5D1212",
"1@	c #9C1717",
"2@	c #B71B1C",
"3@	c #C02426",
"4@	c #C33232",
"5@	c #C43A36",
"6@	c #C53E3D",
"7@	c #C44543",
"8@	c #C44C49",
"9@	c #C54E4C",
"0@	c #C74F4C",
"a@	c #C64D4A",
"b@	c #C64944",
"c@	c #C4403D",
"d@	c #C53837",
"e@	c #C43433",
"f@	c #BF2726",
"g@	c #B31A19",
"h@	c #981212",
"i@	c #5C0F0F",
"j@	c #270F0F",
"k@	c #161416",
"l@	c #282A2A",
"m@	c #282B2A",
"n@	c #1C1D1C",
"o@	c #1B1111",
"p@	c #401313",
"q@	c #7F1818",
"r@	c #AF2424",
"s@	c #BF3332",
"t@	c #C34443",
"u@	c #C44A47",
"v@	c #C54A46",
"w@	c #C54F4A",
"x@	c #C55754",
"y@	c #C65C57",
"z@	c #C75E59",
"A@	c #C75C56",
"B@	c #C5514C",
"C@	c #C44B49",
"D@	c #C54A4A",
"E@	c #C44747",
"F@	c #C03736",
"G@	c #AA2322",
"H@	c #781313",
"I@	c #3D1010",
"J@	c #1A1010",
"K@	c #282B2B",
"L@	c #272727",
"M@	c #2A2A2A",
"N@	c #242524",
"O@	c #1A1313",
"P@	c #301314",
"Q@	c #661618",
"R@	c #A72828",
"S@	c #BE3C3C",
"T@	c #C34C4C",
"U@	c #C55352",
"V@	c #C65855",
"W@	c #C6605E",
"X@	c #C66966",
"Y@	c #C66D6A",
"Z@	c #C76E6C",
"`@	c #C66C69",
" #	c #C6625E",
".#	c #C65957",
"+#	c #C65655",
"@#	c #C55050",
"##	c #BF413F",
"$#	c #A22927",
"%#	c #5E1011",
"&#	c #2C0D0E",
"*#	c #191112",
"=#	c #232525",
"-#	c #282828",
";#	c #1B1919",
">#	c #1D1313",
",#	c #3C1314",
"'#	c #8C2526",
")#	c #AE393A",
"!#	c #BF4D4E",
"~#	c #C45D5C",
"{#	c #C66663",
"]#	c #C67271",
"^#	c #C67878",
"/#	c #C67A7A",
"(#	c #C77C7A",
"_#	c #C77A78",
":#	c #C67371",
"<#	c #C66766",
"[#	c #C6615E",
"}#	c #C25350",
"|#	c #AE3D3B",
"1#	c #872624",
"2#	c #381010",
"3#	c #1C0E0F",
"4#	c #1A1818",
"5#	c #262626",
"6#	c #222323",
"7#	c #131312",
"8#	c #201111",
"9#	c #4D1B1D",
"0#	c #813133",
"a#	c #B04B4C",
"b#	c #BE5D5C",
"c#	c #C26665",
"d#	c #C57474",
"e#	c #C57B7B",
"f#	c #C67D7D",
"g#	c #C67B7B",
"h#	c #C57574",
"i#	c #C26867",
"j#	c #C1615E",
"k#	c #B5504D",
"l#	c #7E3330",
"m#	c #4A1A19",
"n#	c #1F1010",
"o#	c #131010",
"p#	c #202020",
"q#	c #232323",
"r#	c #1B1B1B",
"s#	c #101010",
"t#	c #1B1113",
"u#	c #522223",
"v#	c #84393A",
"w#	c #9F5252",
"x#	c #AE6060",
"y#	c #BC7373",
"z#	c #C17A7A",
"A#	c #C37D7D",
"B#	c #C27D7D",
"C#	c #BB7173",
"D#	c #AB6060",
"E#	c #A05354",
"F#	c #863C3B",
"G#	c #512221",
"H#	c #191111",
"I#	c #101111",
"J#	c #1B1D1B",
"K#	c #222222",
"L#	c #1A1A1A",
"M#	c #111010",
"N#	c #1C1212",
"O#	c #361A1A",
"P#	c #592A2B",
"Q#	c #763F40",
"R#	c #9A5C5C",
"S#	c #AA6D6D",
"T#	c #AE7272",
"U#	c #AD7172",
"V#	c #A86B6D",
"W#	c #97585A",
"X#	c #743B3C",
"Y#	c #572526",
"Z#	c #351717",
"`#	c #1A1B1B",
" $	c #171818",
".$	c #121111",
"+$	c #1B1414",
"@$	c #291717",
"#$	c #331C1C",
"$$	c #522F2F",
"%$	c #6B4747",
"&$	c #714C4C",
"*$	c #6F4A4C",
"=$	c #694447",
"-$	c #4F2D2F",
";$	c #321A1B",
">$	c #271515",
",$	c #1A1212",
"'$	c #1C1C1C",
")$	c #191B1B",
"!$	c #131414",
"~$	c #141010",
"{$	c #151010",
"]$	c #2E2020",
"^$	c #302121",
"/$	c #2D1F20",
"($	c #231718",
"_$	c #130F0F",
":$	c #181818",
"<$	c #141616",
"[$	c #0F1010",
"}$	c #0C0D0D",
"|$	c #090B0B",
"1$	c #141414",
"2$	c #131313",
"3$	c #161616",
"4$	c #0C0C0C",
". . . . . . . . . . . . . . . . . . . . . . . . . . . . . . . . . . . . . . . . . . . . ",
"+ @ @ @ @ @ @ @ @ @ @ @ @ @ @ @ @ @ @ @ @ @ @ @ @ @ @ @ @ @ @ @ @ @ @ @ @ @ @ @ @ @ @ + ",
"# $ $ $ $ $ $ $ $ $ $ $ $ $ $ $ $ $ $ $ $ $ $ $ $ $ $ $ $ $ $ $ $ $ $ $ $ $ $ $ $ $ $ # ",
"% & & & & & & & & & & & & & & & & & & & & & & & & & & & & & & & & & & & & & & & & & & % ",
"+ @ @ @ @ @ @ @ @ @ @ @ @ @ @ @ @ @ @ @ @ @ @ @ @ @ @ @ @ @ @ @ @ @ @ @ @ @ @ @ @ @ @ + ",
"+ + + + + + + + + + + + + + + + + + + + + + + + + + + + + + + + + + + + + + + + + + + + ",
"* = = = = = = = = = = = = = = = = = - ; > , , > ; - = = = = = = = = = = = = = = = = = * ",
", * * * * * * * * * * * * * * * * ' ) ! ~ { { ~ ! ) ' * * * * * * * * * * * * * * * * , ",
", , , , , , , , , , , , , , , ] ^ / ( _ : < < [ } ( | ^ ] , , , , , , , , , , , , , , , ",
"] 1 1 1 1 1 1 1 1 1 1 1 1 2 3 4 5 6 7 8 9 0 a b c 6 d e 4 3 2 1 1 1 1 1 1 1 1 1 1 1 1 ] ",
"f ] ] ] ] ] ] ] ] ] ] ] ] g h i j k l m n o p q r s t u i v g ] ] ] ] ] ] ] ] ] ] ] ] f ",
"f f f f f f f f f f f f w x y z A B C D E F G H I J K L M N x w f f f f f f f f f f f f ",
"O P P P P P P P P P P O Q R S T U V W X Y Z `  ...+.@.#.$.%.&.*.O P P P P P P P P P P O ",
"=.-.-.-.-.-.-.-.-.-.-.;.>.,.'.).!.~.{.].^./.^.(._.:.<.[.}.|.1.R 2.-.-.-.-.-.-.-.-.-.-.=.",
"=.=.=.=.=.=.=.=.=.=.3.< 4.5.6.7.8.9.0.a.b.c.c.d.e.f.g.h.i.j.k.l.m.3.=.=.=.=.=.=.=.=.=.=.",
"n.o.o.o.o.o.o.o.o.p.q.r.s.t.u.v.w.x.y.z.A.B.C.D.E.F.x.G.H.I.J.K.L.M.p.o.o.o.o.o.o.o.o.n.",
"n.n.n.n.n.n.n.n.N.O.P.Q.R.S.T.U.V.W.X.Y.Z.`. +.+++X.@+#+$+%+&+*+=+-+;+n.n.n.n.n.n.n.n.n.",
">+,+,+,+,+,+,+,+,+'+)+!+~+{+]+^+/+(+_+:+<+[+}+|+1+_+2+3+4+5+6+7+8+9+0+,+,+,+,+,+,+,+,+>+",
"a+>+>+>+>+>+>+>+>+b+c+8 d+e+f+g+h+i+j+k+l+m+n+o+p+q+r+s+t+u+v+w+x+y+z+>+>+>+>+>+>+>+>+a+",
"a+a+a+a+a+a+a+a+a+A+B+C+D+E+F+G+H+I+J+K+L+M+N+O+P+Q+R+S+T+U+V+W+X+Y+Z+a+a+a+a+a+a+a+a+a+",
"`+ @ @ @ @ @ @ @ @.@y++@@@#@$@%@I+&@*@=@-@;@>@,@'@)@!@~@{@]@^@/@(@_@:@ @ @ @ @ @ @ @ @`+",
"<@[@[@[@[@[@[@[@[@.@c+}@|@1@2@3@4@5@6@7@8@9@0@a@b@c@d@e@f@g@h@i@j@k@l@[@[@[@[@[@[@[@[@<@",
"<@<@<@<@<@<@<@<@<@m@n@o@p@q@r@s@t@u@v@w@x@y@z@A@B@C@D@E@F@G@H@I@J@P.K@<@<@<@<@<@<@<@<@<@",
"L@M@M@M@M@M@M@M@M@M@N@O@P@Q@R@S@T@U@V@W@X@Y@Z@`@ #.#+#@###$#%#&#*#=#M@M@M@M@M@M@M@M@M@L@",
"L@L@L@L@L@L@L@L@L@L@-#;#>#,#'#)#!#~#{#]#^#/#(#_#:#<#[#}#|#1#2#3#4#L@L@L@L@L@L@L@L@L@L@L@",
"5#5#5#5#5#5#5#5#5#5#5#6#7#8#9#0#a#b#c#d#e#f#f#g#h#i#j#k#l#m#n#o#6#5#5#5#5#5#5#5#5#5#5#5#",
"p#q#q#q#q#q#q#q#q#q#q#q#r#s#t#u#v#w#x#y#z#A#B#z#C#D#E#F#G#H#I#J#q#q#q#q#q#q#q#q#q#q#q#p#",
"p#p#p#p#p#p#p#p#p#p#p#p#K#L#M#N#O#P#Q#R#S#T#U#V#W#X#Y#Z#o@M#`#K#p#p#p#p#p#p#p#p#p#p#p#p#",
"h h h h h h h h h h h h h h  $.$+$@$#$$$%$&$*$=$-$;$>$,$.$ $h h h h h h h h h h h h h h ",
"L#'$'$'$'$'$'$'$'$'$'$'$'$'$'$)$!$~${$( ]$^$^$/$(${$_$!$)$'$'$'$'$'$'$'$'$'$'$'$'$'$'$L#",
"L#L#L#L#L#L#L#L#L#L#L#L#L#L#L#L#L#:$<$[$}$|$|$}$[$<$:$L#L#L#L#L#L#L#L#L#L#L#L#L#L#L#L#L#",
"1$:$:$:$:$:$:$:$:$:$:$:$:$:$:$:$:$:$:$:$:$:$:$:$:$:$:$:$:$:$:$:$:$:$:$:$:$:$:$:$:$:$:$1$",
"2$3$3$3$3$3$3$3$3$3$3$3$3$3$3$3$3$3$3$3$3$3$3$3$3$3$3$3$3$3$3$3$3$3$3$3$3$3$3$3$3$3$3$2$",
"s#2$2$2$2$2$2$2$2$2$2$2$2$2$2$2$2$2$2$2$2$2$2$2$2$2$2$2$2$2$2$2$2$2$2$2$2$2$2$2$2$2$2$s#",
"s#2$2$2$2$2$2$2$2$2$2$2$2$2$2$2$2$2$2$2$2$2$2$2$2$2$2$2$2$2$2$2$2$2$2$2$2$2$2$2$2$2$2$s#",
"K#q#q#q#q#q#q#q#q#q#q#q#q#q#q#q#q#q#q#q#q#q#q#q#q#q#q#q#q#q#q#q#q#q#q#q#q#q#q#q#q#q#q#K#",
"h K#K#K#K#K#K#K#K#K#K#K#K#K#K#K#K#K#K#K#K#K#K#K#K#K#K#K#K#K#K#K#K#K#K#K#K#K#K#K#K#K#K#h ",
"4$4$4$4$4$4$4$4$4$4$4$4$4$4$4$4$4$4$4$4$4$4$4$4$4$4$4$4$4$4$4$4$4$4$4$4$4$4$4$4$4$4$4$4$"};
