/* XPM */
static char * close_prelight_xpm[] = {
"44 38 445 2",
"  	c None",
". 	c #000000",
"+ 	c #505050",
"@ 	c #525252",
"# 	c #696969",
"$ 	c #6C6C6C",
"% 	c #515151",
"& 	c #565656",
"* 	c #4C4C4C",
"= 	c #4E4E4E",
"- 	c #4A4A4A",
"; 	c #464646",
"> 	c #3F4040",
", 	c #353636",
"' 	c #2D2F2F",
") 	c #282A2A",
"! 	c #464848",
"~ 	c #393D3D",
"{ 	c #302E2E",
"] 	c #2B2323",
"^ 	c #2F2222",
"/ 	c #2F2121",
"( 	c #2D1F1F",
"_ 	c #312E2E",
": 	c #484848",
"< 	c #3D3D3D",
"[ 	c #302F2F",
"} 	c #312525",
"| 	c #342222",
"1 	c #402424",
"2 	c #582F2F",
"3 	c #633635",
"4 	c #643736",
"5 	c #643637",
"6 	c #633536",
"7 	c #3F2424",
"8 	c #332222",
"9 	c #444444",
"0 	c #221F1F",
"a 	c #241818",
"b 	c #3F1F1F",
"c 	c #713535",
"d 	c #934E4E",
"e 	c #B56C6B",
"f 	c #CA7D7B",
"g 	c #CE817F",
"h 	c #CE807F",
"i 	c #CA7B7B",
"j 	c #B56C6A",
"k 	c #914E4E",
"l 	c #703435",
"m 	c #211F1F",
"n 	c #3B3B3B",
"o 	c #1E1D1D",
"p 	c #221B1B",
"q 	c #692B2B",
"r 	c #A94949",
"s 	c #DD7879",
"t 	c #F49795",
"u 	c #FDB5B2",
"v 	c #FEC6C1",
"w 	c #FECBC5",
"x 	c #FECAC5",
"y 	c #FEC4BF",
"z 	c #FDB4B1",
"A 	c #F49695",
"B 	c #DD7775",
"C 	c #A84847",
"D 	c #672A2A",
"E 	c #1F1B1B",
"F 	c #1D1D1D",
"G 	c #3F3F3F",
"H 	c #414141",
"I 	c #3E3F3F",
"J 	c #252020",
"K 	c #281A1A",
"L 	c #5E2E2E",
"M 	c #A24B4B",
"N 	c #EB7977",
"O 	c #FCA09C",
"P 	c #FEAFAC",
"Q 	c #FFC2BD",
"R 	c #FFCAC4",
"S 	c #FFCDC6",
"T 	c #FFCCC6",
"U 	c #FFC8C3",
"V 	c #FFC0BC",
"W 	c #FEAEAC",
"X 	c #EC7976",
"Y 	c #A24B4A",
"Z 	c #241F1F",
"` 	c #3E3E3E",
" .	c #404040",
"..	c #2F2D2E",
"+.	c #281B1B",
"@.	c #482021",
"#.	c #A44949",
"$.	c #E67675",
"%.	c #FB9792",
"&.	c #FFA4A0",
"*.	c #FFB0AC",
"=.	c #FFBBB6",
"-.	c #FFBDB9",
";.	c #FFBEB9",
">.	c #FFBDB8",
",.	c #FFBAB5",
"'.	c #FFAFAC",
").	c #FC9792",
"!.	c #E87675",
"~.	c #A74A4A",
"{.	c #482020",
"].	c #271B1B",
"^.	c #2E2D2D",
"/.	c #383838",
"(.	c #241D1E",
"_.	c #3D2021",
":.	c #783132",
"<.	c #D15757",
"[.	c #FD817F",
"}.	c #FF9D97",
"|.	c #FFA19D",
"1.	c #FFA09C",
"2.	c #FF9E9A",
"3.	c #FF9D9A",
"4.	c #FF9C97",
"5.	c #FE817F",
"6.	c #773030",
"7.	c #3A2020",
"8.	c #241D1D",
"9.	c #393939",
"0.	c #363838",
"a.	c #272727",
"b.	c #211718",
"c.	c #562728",
"d.	c #A74345",
"e.	c #E65F5F",
"f.	c #FE7472",
"g.	c #FF8580",
"h.	c #FF8C89",
"i.	c #FF8E8D",
"j.	c #FF9391",
"k.	c #FF9693",
"l.	c #FF9793",
"m.	c #FF8F8C",
"n.	c #FF8C88",
"o.	c #FF8581",
"p.	c #E45D5C",
"q.	c #A23F3F",
"r.	c #532525",
"s.	c #201717",
"t.	c #3A3A3A",
"u.	c #333434",
"v.	c #1F1D1D",
"w.	c #371A1B",
"x.	c #7A3436",
"y.	c #D75454",
"z.	c #FA6161",
"A.	c #FF6A6A",
"B.	c #FF7371",
"C.	c #FF7A78",
"D.	c #FF7F7E",
"E.	c #FF8381",
"F.	c #FF8584",
"G.	c #FF8785",
"H.	c #FF8685",
"I.	c #FF8482",
"J.	c #FF7F7C",
"K.	c #FF7977",
"L.	c #FF7472",
"M.	c #FE6D6C",
"N.	c #F25F60",
"O.	c #CE4D4F",
"P.	c #783031",
"Q.	c #361A19",
"R.	c #1E1C1C",
"S.	c #333333",
"T.	c #353535",
"U.	c #363636",
"V.	c #2F2F2F",
"W.	c #1D1818",
"X.	c #4E2021",
"Y.	c #A74446",
"Z.	c #EC5959",
"`.	c #FE6061",
" +	c #FF6667",
".+	c #FF6C6D",
"++	c #FF7373",
"@+	c #FF7C7A",
"#+	c #FF7D7D",
"$+	c #FF7E7E",
"%+	c #FF7573",
"&+	c #FF6F6F",
"*+	c #FE696A",
"=+	c #FC6162",
"-+	c #E85859",
";+	c #A5403F",
">+	c #4F1F1D",
",+	c #1D1717",
"'+	c #2D2D2D",
")+	c #1B1717",
"!+	c #572525",
"~+	c #BC4D4D",
"{+	c #F45D5E",
"]+	c #FF5F60",
"^+	c #FF6466",
"/+	c #FF6A6C",
"(+	c #FF7271",
"_+	c #FF7876",
":+	c #FF7B79",
"<+	c #FF7C7C",
"[+	c #FF7E7D",
"}+	c #FF7877",
"|+	c #FF7473",
"1+	c #FF6E6F",
"2+	c #FF6869",
"3+	c #FF6364",
"4+	c #F35E5E",
"5+	c #B94A47",
"6+	c #572222",
"7+	c #1B1616",
"8+	c #2C2C2C",
"9+	c #1A1616",
"0+	c #5C2827",
"a+	c #C65252",
"b+	c #F86363",
"c+	c #FF6465",
"d+	c #FF686B",
"e+	c #FF6F71",
"f+	c #FF827F",
"g+	c #FF8987",
"h+	c #FF8A89",
"i+	c #FF8B8A",
"j+	c #FF8C8A",
"k+	c #FF8382",
"l+	c #FF7A79",
"m+	c #FF6C6B",
"n+	c #FF6766",
"o+	c #F76361",
"p+	c #C4504D",
"q+	c #5C2624",
"r+	c #181414",
"s+	c #2B2B2B",
"t+	c #303030",
"u+	c #2A2A2A",
"v+	c #572625",
"w+	c #BF5050",
"x+	c #F56364",
"y+	c #FF696A",
"z+	c #FF7072",
"A+	c #FF7979",
"B+	c #FF8380",
"C+	c #FF9290",
"D+	c #FF9795",
"E+	c #FF9995",
"F+	c #FF9895",
"G+	c #FF9492",
"H+	c #FF8C8C",
"I+	c #FF8282",
"J+	c #FF6C69",
"K+	c #F46461",
"L+	c #BC4E4B",
"M+	c #572322",
"N+	c #181514",
"O+	c #282828",
"P+	c #1A1818",
"Q+	c #3F2020",
"R+	c #9D4847",
"S+	c #EB6263",
"T+	c #FF8B87",
"U+	c #FF908C",
"V+	c #FF9591",
"W+	c #FF9998",
"X+	c #FFA3A0",
"Y+	c #FFA4A1",
"Z+	c #FFA39F",
"`+	c #FF9D99",
" @	c #FF9594",
".@	c #FF9090",
"+@	c #FF8C8B",
"@@	c #FF8180",
"#@	c #FF716F",
"$@	c #E96360",
"%@	c #994442",
"&@	c #3F1C1C",
"*@	c #191615",
"=@	c #1C1C1C",
"-@	c #231C1C",
";@	c #663738",
">@	c #CC5E5F",
",@	c #FF7574",
"'@	c #FF8D8B",
")@	c #FF9A97",
"!@	c #FF9F9C",
"~@	c #FFA3A2",
"{@	c #FFACAB",
"]@	c #FFAFAD",
"^@	c #FFB1AD",
"/@	c #FFAFAB",
"(@	c #FFA6A1",
"_@	c #FFA09D",
":@	c #FF9F9F",
"<@	c #FF9D9D",
"[@	c #FF8F8F",
"}@	c #FC7676",
"|@	c #C8595A",
"1@	c #633335",
"2@	c #22191A",
"3@	c #232424",
"4@	c #201A1A",
"5@	c #492B2D",
"6@	c #AB4C4E",
"7@	c #F67A79",
"8@	c #FE9695",
"9@	c #FFA1A0",
"0@	c #FFA8A4",
"a@	c #FFACA8",
"b@	c #FFB4B0",
"c@	c #FFBFBB",
"d@	c #FFC3C1",
"e@	c #FFC4C2",
"f@	c #FFC2BF",
"g@	c #FFB7B3",
"h@	c #FFADAB",
"i@	c #FFA9A9",
"j@	c #FFA4A5",
"k@	c #FE9999",
"l@	c #F27B7A",
"m@	c #A4474A",
"n@	c #46282A",
"o@	c #1E191A",
"p@	c #242323",
"q@	c #1B1B1B",
"r@	c #261C1C",
"s@	c #643030",
"t@	c #D7706F",
"u@	c #F88F8F",
"v@	c #FEA6A6",
"w@	c #FFB4B2",
"x@	c #FFBCB9",
"y@	c #FFC7C5",
"z@	c #FFCDCC",
"A@	c #FFCFCF",
"B@	c #FFD1CF",
"C@	c #FFCFCD",
"D@	c #FFC9C6",
"E@	c #FFBDBC",
"F@	c #FFB5B4",
"G@	c #FEA8A7",
"H@	c #F79190",
"I@	c #D3706F",
"J@	c #5F2E2F",
"K@	c #241A1B",
"L@	c #191A1B",
"M@	c #262626",
"N@	c #222323",
"O@	c #151313",
"P@	c #301D1D",
"Q@	c #7B4849",
"R@	c #D4777A",
"S@	c #F8A2A2",
"T@	c #FEB3B2",
"U@	c #FFBDBB",
"V@	c #FFC9CA",
"W@	c #FFCFD0",
"X@	c #FFD1D2",
"Y@	c #FFD3D2",
"Z@	c #FFD1D0",
"`@	c #FFCBCA",
" #	c #FFBEBD",
".#	c #FEB4B3",
"+#	c #F8A4A3",
"@#	c #D37675",
"##	c #794444",
"$#	c #301C1C",
"%#	c #141313",
"&#	c #222222",
"*#	c #202020",
"=#	c #232323",
"-#	c #121111",
";#	c #291E20",
">#	c #7E5052",
",#	c #D38383",
"'#	c #F2A1A1",
")#	c #FCB2B3",
"!#	c #FEC7C9",
"~#	c #FFCED0",
"{#	c #FFD0D3",
"]#	c #FFD3D3",
"^#	c #FFD0D0",
"/#	c #FEC8C9",
"(#	c #FCB3B2",
"_#	c #F2A2A1",
":#	c #D18180",
"<#	c #7E4E4D",
"[#	c #281C1D",
"}#	c #1A1A1A",
"|#	c #291C1D",
"1#	c #593838",
"2#	c #8D5C5D",
"3#	c #B87F7F",
"4#	c #E6ABAB",
"5#	c #FAC1C1",
"6#	c #FDC6C6",
"7#	c #FCC6C6",
"8#	c #F9C0C1",
"9#	c #E4A8AB",
"0#	c #B47D7D",
"a#	c #8A585A",
"b#	c #583536",
"c#	c #291B1B",
"d#	c #1F1F1F",
"e#	c #171717",
"f#	c #131212",
"g#	c #231A1B",
"h#	c #3C282A",
"i#	c #523637",
"j#	c #926663",
"k#	c #B68987",
"l#	c #BD8F8E",
"m#	c #BC8E8E",
"n#	c #B48587",
"o#	c #8F6063",
"p#	c #4F3536",
"q#	c #3B2728",
"r#	c #221A1A",
"s#	c #191919",
"t#	c #181314",
"u#	c #1D1516",
"v#	c #372928",
"w#	c #4C3C3B",
"x#	c #503F3F",
"y#	c #4F3F3F",
"z#	c #4B3A3B",
"A#	c #372828",
"B#	c #1C1515",
"C#	c #171313",
"D#	c #181818",
"E#	c #131414",
"F#	c #0E0E0E",
"G#	c #0C0C0C",
"H#	c #090909",
"I#	c #141414",
"J#	c #131313",
"K#	c #161616",
"L#	c #101010",
". . . . . . . . . . . . . . . . . . . . . . . . . . . . . . . . . . . . . . . . . . . . ",
"+ @ @ @ @ @ @ @ @ @ @ @ @ @ @ @ @ @ @ @ @ @ @ @ @ @ @ @ @ @ @ @ @ @ @ @ @ @ @ @ @ @ @ + ",
"# $ $ $ $ $ $ $ $ $ $ $ $ $ $ $ $ $ $ $ $ $ $ $ $ $ $ $ $ $ $ $ $ $ $ $ $ $ $ $ $ $ $ # ",
"% & & & & & & & & & & & & & & & & & & & & & & & & & & & & & & & & & & & & & & & & & & % ",
"+ @ @ @ @ @ @ @ @ @ @ @ @ @ @ @ @ @ @ @ @ @ @ @ @ @ @ @ @ @ @ @ @ @ @ @ @ @ @ @ @ @ @ + ",
"+ + + + + + + + + + + + + + + + + + + + + + + + + + + + + + + + + + + + + + + + + + + + ",
"* = = = = = = = = = = = = = = = = = = = = = = = = = = = = = = = = = = = = = = = = = = * ",
"- * * * * * * * * * * * * * * * * ; > , ' ) ) ' , > ; * * * * * * * * * * * * * * * * - ",
"- - - - - - - - - - - - - - - ! ~ { ] ^ / ( ( / ^ ] _ ~ ! - - - - - - - - - - - - - - - ",
"; : : : : : : : : : : : : : < [ } | 1 2 3 4 5 6 2 7 8 } [ < : : : : : : : : : : : : : ; ",
"9 ; ; ; ; ; ; ; ; ; ; ; ; < 0 a b c d e f g h i j k l b a m < ; ; ; ; ; ; ; ; ; ; ; ; 9 ",
"9 9 9 9 9 9 9 9 9 9 9 9 n o p q r s t u v w x y z A B C D E F n 9 9 9 9 9 9 9 9 9 9 9 9 ",
"G H H H H H H H H H H I J K L M N O P Q R S T U V W O X Y L K Z I H H H H H H H H H H G ",
"`  . . . . . . . . . ...+.@.#.$.%.&.*.=.-.;.-.>.,.'.&.).!.~.{.].^. . . . . . . . . . .` ",
"` ` ` ` ` ` ` ` ` ` /.(._.:.<.[.}.|.1.1.2.3.3.2.1.1.|.4.5.<.6.7.8./.` ` ` ` ` ` ` ` ` ` ",
"9.n n n n n n n n 0.a.b.c.d.e.f.g.h.i.j.k.l.l.k.j.m.n.o.f.p.q.r.s.a.0.n n n n n n n n 9.",
"9.9.9.9.9.9.9.9.t.u.v.w.x.y.z.A.B.C.D.E.F.G.G.H.I.J.K.L.M.N.O.P.Q.R.S.9.9.9.9.9.9.9.9.9.",
"T.U.U.U.U.U.U.U.U.V.W.X.Y.Z.`. +.+++C.@+#+$+D.D.#+C.%+&+*+=+-+;+>+,+'+U.U.U.U.U.U.U.U.T.",
"S.T.T.T.T.T.T.T.T.V.)+!+~+{+]+^+/+(+_+:+<+#+[+$+<+}+|+1+2+3+4+5+6+7+8+T.T.T.T.T.T.T.T.S.",
"S.S.S.S.S.S.S.S.S.8+9+0+a+b+c+d+e+C.f+g+h+i+j+j+h+k+l+(+m+n+o+p+q+r+s+S.S.S.S.S.S.S.S.S.",
"'+t+t+t+t+t+t+t+t+u+)+v+w+x+y+z+A+B+n.C+k.D+E+F+G+H+I+:+L.J+K+L+M+N+O+t+t+t+t+t+t+t+t+'+",
"8+V.V.V.V.V.V.V.V.u+P+Q+R+S+1+$+T+U+V+W+|.X+Y+Z+`+ @.@+@@@#@$@%@&@*@O+V.V.V.V.V.V.V.V.8+",
"8+8+8+8+8+8+8+8+8+O+=@-@;@>@,@'@)@2.!@~@{@]@^@/@(@_@:@<@[@}@|@1@2@=@O+8+8+8+8+8+8+8+8+8+",
"a.u+u+u+u+u+u+u+u+u+3@4@5@6@7@8@9@0@a@b@c@d@e@f@g@h@i@j@k@l@m@n@o@p@u+u+u+u+u+u+u+u+u+a.",
"a.a.a.a.a.a.a.a.a.a.O+q@r@s@t@u@v@w@x@y@z@A@B@C@D@E@F@G@H@I@J@K@L@a.a.a.a.a.a.a.a.a.a.a.",
"M@M@M@M@M@M@M@M@M@M@M@N@O@P@Q@R@S@T@U@V@W@X@Y@Z@`@ #.#+#@###$#%#&#M@M@M@M@M@M@M@M@M@M@M@",
"*#=#=#=#=#=#=#=#=#=#=#=#q@-#;#>#,#'#)#!#~#{#]#^#/#(#_#:#<#[#-#q@=#=#=#=#=#=#=#=#=#=#=#*#",
"*#*#*#*#*#*#*#*#*#*#*#*#&#}#-#|#1#2#3#4#5#6#7#8#9#0#a#b#c#-#}#&#*#*#*#*#*#*#*#*#*#*#*#*#",
"d#d#d#d#d#d#d#d#d#d#d#d#d#d#e#f#g#h#i#j#k#l#m#n#o#p#q#r#f#e#d#d#d#d#d#d#d#d#d#d#d#d#d#d#",
"}#=@=@=@=@=@=@=@=@=@=@=@=@=@=@s#%#t#u#v#w#x#y#z#A#B#C#%#s#=@=@=@=@=@=@=@=@=@=@=@=@=@=@}#",
"}#}#}#}#}#}#}#}#}#}#}#}#}#}#}#}#}#D#E#F#G#H#H#G#F#E#D#}#}#}#}#}#}#}#}#}#}#}#}#}#}#}#}#}#",
"I#D#D#D#D#D#D#D#D#D#D#D#D#D#D#D#D#D#D#D#D#D#D#D#D#D#D#D#D#D#D#D#D#D#D#D#D#D#D#D#D#D#D#I#",
"J#K#K#K#K#K#K#K#K#K#K#K#K#K#K#K#K#K#K#K#K#K#K#K#K#K#K#K#K#K#K#K#K#K#K#K#K#K#K#K#K#K#K#J#",
"L#J#J#J#J#J#J#J#J#J#J#J#J#J#J#J#J#J#J#J#J#J#J#J#J#J#J#J#J#J#J#J#J#J#J#J#J#J#J#J#J#J#J#L#",
"L#J#J#J#J#J#J#J#J#J#J#J#J#J#J#J#J#J#J#J#J#J#J#J#J#J#J#J#J#J#J#J#J#J#J#J#J#J#J#J#J#J#J#L#",
"&#=#=#=#=#=#=#=#=#=#=#=#=#=#=#=#=#=#=#=#=#=#=#=#=#=#=#=#=#=#=#=#=#=#=#=#=#=#=#=#=#=#=#&#",
"d#&#&#&#&#&#&#&#&#&#&#&#&#&#&#&#&#&#&#&#&#&#&#&#&#&#&#&#&#&#&#&#&#&#&#&#&#&#&#&#&#&#&#d#",
"G#G#G#G#G#G#G#G#G#G#G#G#G#G#G#G#G#G#G#G#G#G#G#G#G#G#G#G#G#G#G#G#G#G#G#G#G#G#G#G#G#G#G#G#"};
