/* XPM */
static char * hide_active_xpm[] = {
"44 38 463 2",
"  	c None",
". 	c #000000",
"+ 	c #505050",
"@ 	c #525252",
"# 	c #696969",
"$ 	c #6C6C6C",
"% 	c #515151",
"& 	c #565656",
"* 	c #4C4C4C",
"= 	c #4E4E4E",
"- 	c #4A4A4A",
"; 	c #4A494A",
"> 	c #444344",
", 	c #3B3A3D",
"' 	c #353535",
") 	c #303030",
"! 	c #494949",
"~ 	c #3B3D3B",
"{ 	c #2B2D2B",
"] 	c #1D1F1D",
"^ 	c #161916",
"/ 	c #111512",
"( 	c #101310",
"_ 	c #1D1E1D",
": 	c #2B2D2A",
"< 	c #3B3E3B",
"[ 	c #464646",
"} 	c #484848",
"| 	c #414041",
"1 	c #1A1E18",
"2 	c #071205",
"3 	c #030D01",
"4 	c #021000",
"5 	c #021100",
"6 	c #031101",
"7 	c #031001",
"8 	c #020E00",
"9 	c #1A1F18",
"0 	c #444444",
"a 	c #404040",
"b 	c #221F22",
"c 	c #050C02",
"d 	c #010800",
"e 	c #000800",
"f 	c #001600",
"g 	c #0D2902",
"h 	c #193809",
"i 	c #1C3B0E",
"j 	c #1C3A0E",
"k 	c #193609",
"l 	c #0C2702",
"m 	c #001500",
"n 	c #040C02",
"o 	c #403F40",
"p 	c #18181A",
"q 	c #040A04",
"r 	c #000D00",
"s 	c #082102",
"t 	c #1F410B",
"u 	c #355417",
"v 	c #4F6631",
"w 	c #5E724D",
"x 	c #627455",
"y 	c #607455",
"z 	c #5D704D",
"A 	c #4E6531",
"B 	c #325215",
"C 	c #1C3F09",
"D 	c #061F02",
"E 	c #000C00",
"F 	c #3F3E40",
"G 	c #3F3F3F",
"H 	c #414141",
"I 	c #1F1F1E",
"J 	c #040C04",
"K 	c #010D00",
"L 	c #092201",
"M 	c #1F4808",
"N 	c #3D6B19",
"O 	c #4C7722",
"P 	c #5E8039",
"Q 	c #668352",
"R 	c #688459",
"S 	c #678459",
"T 	c #658352",
"U 	c #5C7F37",
"V 	c #4B7722",
"W 	c #3B6A18",
"X 	c #1F4708",
"Y 	c #0A2101",
"Z 	c #050C04",
"` 	c #1E1E1D",
" .	c #3E3E3E",
"..	c #2D2E2B",
"+.	c #0B1107",
"@.	c #020C00",
"#.	c #071F00",
"$.	c #224509",
"%.	c #3B6615",
"&.	c #48771E",
"*.	c #4F7F24",
"=.	c #5B8334",
"-.	c #608544",
";.	c #618648",
">.	c #5F8543",
",.	c #5A8333",
"'.	c #4E7F24",
").	c #244609",
"!.	c #0B2001",
"~.	c #030C00",
"{.	c #091106",
"].	c #393839",
"^.	c #141C12",
"/.	c #030C02",
"(.	c #031200",
"_.	c #173504",
":.	c #2F5510",
"<.	c #436E1A",
"[.	c #4A7A1F",
"}.	c #4C8021",
"|.	c #498120",
"1.	c #478120",
"2.	c #488120",
"3.	c #4B8120",
"4.	c #4D8121",
"5.	c #2F5710",
"6.	c #173704",
"7.	c #020C02",
"8.	c #131C12",
"9.	c #383839",
"0.	c #393939",
"a.	c #3B3B3B",
"b.	c #3A383A",
"c.	c #272529",
"d.	c #090E06",
"e.	c #041E01",
"f.	c #1B3F08",
"g.	c #2E580F",
"h.	c #3C6815",
"i.	c #417219",
"j.	c #42791B",
"k.	c #437A1A",
"l.	c #427A1A",
"m.	c #427B19",
"n.	c #437C19",
"o.	c #437B1A",
"p.	c #43791A",
"q.	c #43751B",
"r.	c #407019",
"s.	c #396815",
"t.	c #2D5A0E",
"u.	c #1B4107",
"v.	c #090F04",
"w.	c #3A3A3A",
"x.	c #363638",
"y.	c #1A1B1A",
"z.	c #050E02",
"A.	c #041900",
"B.	c #0B2F01",
"C.	c #2D5B0E",
"D.	c #326610",
"E.	c #366D10",
"F.	c #3A7113",
"G.	c #3B7115",
"H.	c #3D7316",
"I.	c #3E7417",
"J.	c #3D7417",
"K.	c #3D7416",
"L.	c #3E7215",
"M.	c #3A6E13",
"N.	c #376A10",
"O.	c #32650F",
"P.	c #2C5B0D",
"Q.	c #204908",
"R.	c #0B2F02",
"S.	c #041A00",
"T.	c #020E01",
"U.	c #1A191A",
"V.	c #363436",
"W.	c #363636",
"X.	c #333033",
"Y.	c #151615",
"Z.	c #041000",
"`.	c #0C2700",
" +	c #1A4502",
".+	c #245308",
"++	c #2B5E0C",
"@+	c #2F660D",
"#+	c #336C0D",
"$+	c #376F10",
"%+	c #387013",
"&+	c #3A7014",
"*+	c #3C7115",
"=+	c #3C7114",
"-+	c #3B7013",
";+	c #386D10",
">+	c #34690D",
",+	c #30650D",
"'+	c #2C5D0D",
")+	c #25500B",
"!+	c #1A4205",
"~+	c #092801",
"{+	c #011001",
"]+	c #141614",
"^+	c #302F31",
"/+	c #333333",
"(+	c #312F31",
"_+	c #141513",
":+	c #122C03",
"<+	c #215008",
"[+	c #275C0A",
"}+	c #2B620B",
"|+	c #2E670C",
"1+	c #326C0D",
"2+	c #366F0E",
"3+	c #377012",
"4+	c #397013",
"5+	c #3A7013",
"6+	c #3C7013",
"7+	c #3A7012",
"8+	c #386E0F",
"9+	c #336A0D",
"0+	c #2D5F0D",
"a+	c #28590D",
"b+	c #234D0B",
"c+	c #122E04",
"d+	c #031100",
"e+	c #131512",
"f+	c #2F2D2F",
"g+	c #121311",
"h+	c #050E01",
"i+	c #162D07",
"j+	c #26570B",
"k+	c #2B650B",
"l+	c #316B0B",
"m+	c #346E0C",
"n+	c #37710E",
"o+	c #3A740F",
"p+	c #3D7710",
"q+	c #3F7711",
"r+	c #407711",
"s+	c #3E7611",
"t+	c #3B7311",
"u+	c #376F11",
"v+	c #336C10",
"w+	c #30690C",
"x+	c #2C650B",
"y+	c #28570B",
"z+	c #193007",
"A+	c #061101",
"B+	c #101210",
"C+	c #2D2C2D",
"D+	c #2D2D2D",
"E+	c #2C2B2D",
"F+	c #131412",
"G+	c #061003",
"H+	c #152D07",
"I+	c #26550C",
"J+	c #2E660C",
"K+	c #35710C",
"L+	c #39750C",
"M+	c #3D790E",
"N+	c #407C10",
"O+	c #448011",
"P+	c #478112",
"Q+	c #488113",
"R+	c #478113",
"S+	c #468013",
"T+	c #447D12",
"U+	c #3F7A11",
"V+	c #3B7510",
"W+	c #37730F",
"X+	c #2E670B",
"Y+	c #28560B",
"Z+	c #192F08",
"`+	c #091302",
" @	c #111311",
".@	c #2A282B",
"+@	c #2C2C2C",
"@@	c #2F2F2F",
"#@	c #2B2B2C",
"$@	c #091205",
"%@	c #132A07",
"&@	c #254D0C",
"*@	c #30660E",
"=@	c #38720E",
"-@	c #3E780E",
";@	c #427E0E",
">@	c #478211",
",@	c #4C8315",
"'@	c #518417",
")@	c #528519",
"!@	c #50831A",
"~@	c #4E831A",
"{@	c #4B8216",
"]@	c #467F12",
"^@	c #407A10",
"/@	c #3C770F",
"(@	c #37710C",
"_@	c #31670C",
":@	c #264F0B",
"<@	c #142B08",
"[@	c #0B1404",
"}@	c #141512",
"|@	c #2B282B",
"1@	c #2A2A2B",
"2@	c #0D130C",
"3@	c #111F07",
"4@	c #1E3E09",
"5@	c #32630F",
"6@	c #3D7310",
"7@	c #437A10",
"8@	c #498010",
"9@	c #4E8417",
"0@	c #54841E",
"a@	c #588521",
"b@	c #598624",
"c@	c #598426",
"d@	c #588425",
"e@	c #55841F",
"f@	c #508216",
"g@	c #487E10",
"h@	c #417910",
"i@	c #3B7310",
"j@	c #33640F",
"k@	c #1F3F09",
"l@	c #112007",
"m@	c #0C1309",
"n@	c #1A1A1A",
"o@	c #272727",
"p@	c #2A2A2A",
"q@	c #242424",
"r@	c #131611",
"s@	c #0D1805",
"t@	c #162F03",
"u@	c #33600E",
"v@	c #427412",
"w@	c #487C14",
"x@	c #4E8215",
"y@	c #55861C",
"z@	c #5A8624",
"A@	c #5D8626",
"B@	c #5E8629",
"C@	c #5F862B",
"D@	c #5F862A",
"E@	c #55861B",
"F@	c #4C8214",
"G@	c #477B14",
"H@	c #417414",
"I@	c #33610F",
"J@	c #153003",
"K@	c #0C1905",
"L@	c #232324",
"M@	c #282828",
"N@	c #1A1B18",
"O@	c #0D1208",
"P@	c #0D1E03",
"Q@	c #2D530B",
"R@	c #3D6C11",
"S@	c #467A15",
"T@	c #52811B",
"U@	c #5C8521",
"V@	c #61862A",
"W@	c #63872E",
"X@	c #648730",
"Y@	c #648830",
"Z@	c #63882F",
"`@	c #60862A",
" #	c #51811B",
".#	c #477A15",
"+#	c #3E6D12",
"@#	c #2D540D",
"##	c #0C1208",
"$#	c #191A18",
"%#	c #262626",
"&#	c #232323",
"*#	c #0E100D",
"=#	c #0B1306",
"-#	c #172D06",
";#	c #284A0C",
">#	c #407014",
",#	c #527C1C",
"'#	c #5C8222",
")#	c #62852B",
"!#	c #658831",
"~#	c #5F852C",
"{#	c #588222",
"]#	c #517E1C",
"^#	c #447314",
"/#	c #2C4D0B",
"(#	c #0D0F0C",
"_#	c #232223",
":#	c #202020",
"<#	c #1D1B1D",
"[#	c #0C0E0A",
"}#	c #080B04",
"|#	c #172E06",
"1#	c #2F520D",
"2#	c #48691A",
"3#	c #537220",
"4#	c #5E7E2B",
"5#	c #648330",
"6#	c #658531",
"7#	c #658730",
"8#	c #63842F",
"9#	c #5A7D2C",
"0#	c #4E7120",
"a#	c #466B19",
"b#	c #33580D",
"c#	c #1B3006",
"d#	c #070B04",
"e#	c #0C0E0B",
"f#	c #1B1B1D",
"g#	c #222222",
"h#	c #0F0F0E",
"i#	c #0C1306",
"j#	c #101B05",
"k#	c #1F330A",
"l#	c #324715",
"m#	c #476222",
"n#	c #537027",
"o#	c #567429",
"p#	c #56742A",
"q#	c #537128",
"r#	c #446121",
"s#	c #2F4714",
"t#	c #1F3408",
"u#	c #111F04",
"v#	c #1F1F1F",
"w#	c #201F20",
"x#	c #181818",
"y#	c #10140C",
"z#	c #131A0A",
"A#	c #152009",
"B#	c #24330E",
"C#	c #2C4011",
"D#	c #2E4312",
"E#	c #2E4216",
"F#	c #2C3F15",
"G#	c #23330F",
"H#	c #142008",
"I#	c #131A09",
"J#	c #10140B",
"K#	c #1C1C1C",
"L#	c #1C1B1C",
"M#	c #151514",
"N#	c #0F100E",
"O#	c #0C1009",
"P#	c #13190A",
"Q#	c #151C0B",
"R#	c #151B0B",
"S#	c #151B0C",
"T#	c #0C1109",
"U#	c #141416",
"V#	c #101011",
"W#	c #0F0F0F",
"X#	c #0D0C0E",
"Y#	c #141414",
"Z#	c #171718",
"`#	c #131313",
" $	c #161616",
".$	c #101010",
"+$	c #0C0C0C",
". . . . . . . . . . . . . . . . . . . . . . . . . . . . . . . . . . . . . . . . . . . . ",
"+ @ @ @ @ @ @ @ @ @ @ @ @ @ @ @ @ @ @ @ @ @ @ @ @ @ @ @ @ @ @ @ @ @ @ @ @ @ @ @ @ @ @ + ",
"# $ $ $ $ $ $ $ $ $ $ $ $ $ $ $ $ $ $ $ $ $ $ $ $ $ $ $ $ $ $ $ $ $ $ $ $ $ $ $ $ $ $ # ",
"% & & & & & & & & & & & & & & & & & & & & & & & & & & & & & & & & & & & & & & & & & & % ",
"+ @ @ @ @ @ @ @ @ @ @ @ @ @ @ @ @ @ @ @ @ @ @ @ @ @ @ @ @ @ @ @ @ @ @ @ @ @ @ @ @ @ @ + ",
"+ + + + + + + + + + + + + + + + + + + + + + + + + + + + + + + + + + + + + + + + + + + + ",
"* = = = = = = = = = = = = = = = = = = = = = = = = = = = = = = = = = = = = = = = = = = * ",
"- * * * * * * * * * * * * * * * * ; > , ' ) ) ' , > ; * * * * * * * * * * * * * * * * - ",
"- - - - - - - - - - - - - - - ! ~ { ] ^ / ( ( / ^ _ : < ! - - - - - - - - - - - - - - - ",
"[ } } } } } } } } } } } } ! | ) 1 2 3 4 5 6 7 4 8 3 2 9 ) | ! } } } } } } } } } } } } [ ",
"0 [ [ [ [ [ [ [ [ [ [ [ [ a b c d e f g h i j k l m e d n b a [ [ [ [ [ [ [ [ [ [ [ [ 0 ",
"0 0 0 0 0 0 0 0 0 0 0 0 o p q r s t u v w x y z A B C D E q p F 0 0 0 0 0 0 0 0 0 0 0 0 ",
"G H H H H H H H H H H a I J K L M N O P Q R S T U V W X Y K Z ` a H H H H H H H H H H G ",
" .a a a a a a a a a a ..+.@.#.$.%.&.*.=.-.;.;.>.,.'.&.%.).!.~.{.{ a a a a a a a a a a  .",
" . . . . . . . . . .].^./.(._.:.<.[.}.|.1.1.1.2.3.4.[.<.5.6.(.7.8.9. . . . . . . . . . .",
"0.a.a.a.a.a.a.a.a.b.c.d.4 e.f.g.h.i.j.k.l.m.n.o.p.q.r.s.t.u.e.5 v.c.b.a.a.a.a.a.a.a.a.0.",
"0.0.0.0.0.0.0.0.w.x.y.z.A.B.M C.D.E.F.G.H.I.J.K.L.M.N.O.P.Q.R.S.T.U.V.0.0.0.0.0.0.0.0.0.",
"' W.W.W.W.W.W.W.W.X.Y.Z.`. +.+++@+#+$+%+&+G.*+=+-+;+>+,+'+)+!+~+{+]+^+W.W.W.W.W.W.W.W.' ",
"/+' ' ' ' ' ' ' ' (+_+Z.:+<+[+}+|+1+2+3+4+5+6+6+7+8+9+,+0+a+b+c+d+e+f+' ' ' ' ' ' ' ' /+",
"/+/+/+/+/+/+/+/+/+f+g+h+i+j+k+l+m+n+o+p+q+r+r+r+s+t+u+v+w+x+y+z+A+B+C+/+/+/+/+/+/+/+/+/+",
"D+) ) ) ) ) ) ) ) E+F+G+H+I+J+K+L+M+N+O+P+Q+R+S+T+U+V+W+m+X+Y+Z+`+ @.@) ) ) ) ) ) ) ) D+",
"+@@@@@@@@@@@@@@@@@#@]+$@%@&@*@=@-@;@>@,@'@)@!@~@{@]@^@/@(@_@:@<@[@}@|@@@@@@@@@@@@@@@@@+@",
"+@+@+@+@+@+@+@+@+@1@y.2@3@4@5@6@7@8@9@0@a@b@c@d@e@f@g@h@i@j@k@l@m@n@1@+@+@+@+@+@+@+@+@+@",
"o@p@p@p@p@p@p@p@p@p@q@r@s@t@u@v@w@x@y@z@A@B@C@D@A@E@F@G@H@I@J@K@r@L@p@p@p@p@p@p@p@p@p@o@",
"o@o@o@o@o@o@o@o@o@o@M@N@O@P@Q@R@S@T@U@V@W@X@Y@Z@`@a@ #.#+#@#P@##$#o@o@o@o@o@o@o@o@o@o@o@",
"%#%#%#%#%#%#%#%#%#%#%#&#*#=#-#;#>#,#'#)#Y@!#!#Y@~#{#]#^#/#-#=#(#_#%#%#%#%#%#%#%#%#%#%#%#",
":#&#&#&#&#&#&#&#&#&#&#&#<#[#}#|#1#2#3#4#5#6#7#8#9#0#a#b#c#d#e#f#&#&#&#&#&#&#&#&#&#&#&#:#",
":#:#:#:#:#:#:#:#:#:#:#:#g#n@h#i#j#k#l#m#n#o#p#q#r#s#t#u#i#h#n@g#:#:#:#:#:#:#:#:#:#:#:#:#",
"v#v#v#v#v#v#v#v#v#v#v#v#v#w#x#*#y#z#A#B#C#D#E#F#G#H#I#J#*#x#w#v#v#v#v#v#v#v#v#v#v#v#v#v#",
"n@K#K#K#K#K#K#K#K#K#K#K#K#K#K#L#M#N#O#P#Q#R#S#S#P#T#N#M#L#K#K#K#K#K#K#K#K#K#K#K#K#K#K#n@",
"n@n@n@n@n@n@n@n@n@n@n@n@n@n@n@n@n@x#U#V#W#X#X#W#V#U#x#n@n@n@n@n@n@n@n@n@n@n@n@n@n@n@n@n@",
"Y#x#x#x#x#x#x#x#x#x#x#x#x#x#x#x#x#x#x#x#Z#Z#Z#Z#x#x#x#x#x#x#x#x#x#x#x#x#x#x#x#x#x#x#x#Y#",
"`# $ $ $ $ $ $ $ $ $ $ $ $ $ $ $ $ $ $ $ $ $ $ $ $ $ $ $ $ $ $ $ $ $ $ $ $ $ $ $ $ $ $`#",
".$`#`#`#`#`#`#`#`#`#`#`#`#`#`#`#`#`#`#`#`#`#`#`#`#`#`#`#`#`#`#`#`#`#`#`#`#`#`#`#`#`#`#.$",
".$`#`#`#`#`#`#`#`#`#`#`#`#`#`#`#`#`#`#`#`#`#`#`#`#`#`#`#`#`#`#`#`#`#`#`#`#`#`#`#`#`#`#.$",
"g#&#&#&#&#&#&#&#&#&#&#&#&#&#&#&#&#&#&#&#&#&#&#&#&#&#&#&#&#&#&#&#&#&#&#&#&#&#&#&#&#&#&#g#",
"v#g#g#g#g#g#g#g#g#g#g#g#g#g#g#g#g#g#g#g#g#g#g#g#g#g#g#g#g#g#g#g#g#g#g#g#g#g#g#g#g#g#g#v#",
"+$+$+$+$+$+$+$+$+$+$+$+$+$+$+$+$+$+$+$+$+$+$+$+$+$+$+$+$+$+$+$+$+$+$+$+$+$+$+$+$+$+$+$+$"};
