/* XPM */
static char * hide_prelight_xpm[] = {
"44 38 461 2",
"  	c None",
". 	c #000000",
"+ 	c #505050",
"@ 	c #525252",
"# 	c #696969",
"$ 	c #6C6C6C",
"% 	c #515151",
"& 	c #565656",
"* 	c #4C4C4C",
"= 	c #4E4E4E",
"- 	c #4A4A4A",
"; 	c #484849",
"> 	c #414143",
", 	c #393839",
"' 	c #333133",
") 	c #2C2C2F",
"! 	c #434143",
"~ 	c #494949",
"{ 	c #3F3D3F",
"] 	c #303130",
"^ 	c #262B25",
"/ 	c #252924",
"( 	c #242822",
"_ 	c #22271F",
": 	c #252823",
"< 	c #252A25",
"[ 	c #464646",
"} 	c #484848",
"| 	c #3F3F40",
"1 	c #323232",
"2 	c #262A25",
"3 	c #242A22",
"4 	c #263121",
"5 	c #32432D",
"6 	c #374B31",
"7 	c #384B30",
"8 	c #384A2F",
"9 	c #32412B",
"0 	c #242F21",
"a 	c #272A25",
"b 	c #444444",
"c 	c #3F3F3F",
"d 	c #212121",
"e 	c #191C17",
"f 	c #222D1E",
"g 	c #3B5032",
"h 	c #556E45",
"i 	c #719061",
"j 	c #80A471",
"k 	c #85A974",
"l 	c #86A874",
"m 	c #82A270",
"n 	c #6F8D5F",
"o 	c #526D44",
"p 	c #385031",
"q 	c #202D1E",
"r 	c #181C17",
"s 	c #3D3D3D",
"t 	c #1E1E1E",
"u 	c #1A1E1A",
"v 	c #2C4B29",
"w 	c #517E43",
"x 	c #8FB56C",
"y 	c #B2D284",
"z 	c #C6E3A8",
"A 	c #D1EBBD",
"B 	c #D4EDC4",
"C 	c #D0EABC",
"D 	c #C4E1A5",
"E 	c #AFD082",
"F 	c #88B266",
"G 	c #4D7A3F",
"H 	c #2A4926",
"I 	c #414141",
"J 	c #3F3E3F",
"K 	c #212221",
"L 	c #1B1F1A",
"M 	c #32422C",
"N 	c #557D47",
"O 	c #8FC86E",
"P 	c #C2EE90",
"Q 	c #D4FA9E",
"R 	c #DBFCB3",
"S 	c #DCFDC4",
"T 	c #DDFDC8",
"U 	c #DBFDC3",
"V 	c #D8FCB1",
"W 	c #D1FA9C",
"X 	c #C0ED8E",
"Y 	c #8DC56D",
"Z 	c #557C45",
"` 	c #32442C",
" .	c #1B201A",
"..	c #202220",
"+.	c #3E3E3E",
"@.	c #404040",
"#.	c #2F302F",
"$.	c #1C211B",
"%.	c #273421",
"&.	c #59764C",
"*.	c #91BD71",
"=.	c #B6EB89",
"-.	c #C9FA95",
";.	c #D6FFA0",
">.	c #D9FFAC",
",.	c #D7FFB4",
"'.	c #D6FFB7",
").	c #D6FFB6",
"!.	c #D6FFB4",
"~.	c #D7FFAB",
"{.	c #D4FF9E",
"].	c #C7F995",
"^.	c #B6E98A",
"/.	c #92BD72",
"(.	c #5A794C",
"_.	c #263421",
":.	c #1C211A",
"<.	c #2E2E2E",
"[.	c #383838",
"}.	c #1F221F",
"|.	c #243021",
"1.	c #3E5634",
"2.	c #749960",
"3.	c #A7D780",
"4.	c #BFF391",
"5.	c #C4FB94",
"6.	c #C3FF94",
"7.	c #C1FD91",
"8.	c #BCFB8F",
"9.	c #BBFA8F",
"0.	c #BDFB8F",
"a.	c #C2FD91",
"b.	c #C4FF94",
"c.	c #C5FA94",
"d.	c #BFF191",
"e.	c #A7D781",
"f.	c #749D5F",
"g.	c #3D5734",
"h.	c #393939",
"i.	c #3B3B3B",
"j.	c #383638",
"k.	c #272827",
"l.	c #1A1D18",
"m.	c #2F4128",
"n.	c #57764A",
"o.	c #83AD6A",
"p.	c #9ED479",
"q.	c #ADE581",
"r.	c #B3EE86",
"s.	c #B5F389",
"t.	c #B4F388",
"u.	c #B4F288",
"v.	c #B3F389",
"w.	c #B4F489",
"x.	c #B5F288",
"y.	c #B6EF86",
"z.	c #B4EB85",
"A.	c #ACE482",
"B.	c #9DD379",
"C.	c #83B169",
"D.	c #577948",
"E.	c #2F4227",
"F.	c #1A1D17",
"G.	c #3A3A3A",
"H.	c #333334",
"I.	c #1C1E1C",
"J.	c #20291C",
"K.	c #436237",
"L.	c #739C5F",
"M.	c #8BBC6E",
"N.	c #98D574",
"O.	c #9FE076",
"P.	c #A5E677",
"Q.	c #AAEA7B",
"R.	c #ABEC7E",
"S.	c #ABEE7F",
"T.	c #AEEE7F",
"U.	c #AFEE7F",
"V.	c #ADEC7E",
"W.	c #ABE97A",
"X.	c #A5E377",
"Y.	c #9FDC76",
"Z.	c #98D374",
"`.	c #8CBD6E",
" +	c #739E5E",
".+	c #436037",
"++	c #20281B",
"@+	c #1C1D1B",
"#+	c #333333",
"$+	c #353535",
"%+	c #363636",
"&+	c #2F2F2F",
"*+	c #191A19",
"=+	c #2C3C26",
"-+	c #5F834F",
";+	c #83B569",
">+	c #8EC86F",
",+	c #97D772",
"'+	c #9CDF72",
")+	c #A0E573",
"!+	c #A5E976",
"~+	c #A7EB79",
"{+	c #A8EC7B",
"]+	c #AAEC7C",
"^+	c #ACEC7C",
"/+	c #ACEC7B",
"(+	c #AAEB79",
"_+	c #A6E877",
":+	c #A1E273",
"<+	c #9CDB73",
"[+	c #97D473",
"}+	c #8FC76F",
"|+	c #83B469",
"1+	c #5E8250",
"2+	c #2C3C27",
"3+	c #191A18",
"4+	c #2D2D2D",
"5+	c #181918",
"6+	c #32412D",
"7+	c #6B8E5A",
"8+	c #8AC26C",
"9+	c #91D36F",
"0+	c #98DC70",
"a+	c #9CE271",
"b+	c #9FE572",
"c+	c #A3E974",
"d+	c #A6EC77",
"e+	c #A8EC7A",
"f+	c #AAEC7B",
"g+	c #ABEC7A",
"h+	c #A9EC77",
"i+	c #9CDF73",
"j+	c #98D972",
"k+	c #92D16F",
"l+	c #8BC16C",
"m+	c #6C8E5A",
"n+	c #181917",
"o+	c #2C2C2C",
"p+	c #161716",
"q+	c #354030",
"r+	c #718F5F",
"s+	c #8DCA6E",
"t+	c #95DD6E",
"u+	c #9DE46F",
"v+	c #A2E973",
"w+	c #A6ED76",
"x+	c #AAF077",
"y+	c #AEF17B",
"z+	c #B0F17D",
"A+	c #B1F17D",
"B+	c #B2F17D",
"C+	c #AFF17B",
"D+	c #ABF078",
"E+	c #A1E875",
"F+	c #9CE371",
"G+	c #8FCB6D",
"H+	c #73905F",
"I+	c #374130",
"J+	c #151614",
"K+	c #2B2B2B",
"L+	c #303030",
"M+	c #2A2A2A",
"N+	c #171817",
"O+	c #323D2E",
"P+	c #6D895C",
"Q+	c #8DC96E",
"R+	c #9AE06F",
"S+	c #A2EB70",
"T+	c #AAF074",
"U+	c #AEF678",
"V+	c #B2F87B",
"W+	c #B6F880",
"X+	c #BAF882",
"Y+	c #BBF882",
"Z+	c #B7F680",
"`+	c #B2F57C",
" @	c #ACF279",
".@	c #A6EF76",
"+@	c #A0EA72",
"@@	c #9AE16F",
"#@	c #8FCA6D",
"$@	c #6F8C5C",
"%@	c #343E2D",
"&@	c #151615",
"*@	c #282828",
"=@	c #273126",
"-@	c #5D744F",
";@	c #8BC06B",
">@	c #9BDF71",
",@	c #A6ED74",
"'@	c #B0F376",
")@	c #B5F77A",
"!@	c #BAFB7F",
"~@	c #C1FD87",
"{@	c #C7FD8B",
"]@	c #C5FD8A",
"^@	c #C4FD8A",
"/@	c #C3FD87",
"(@	c #BDF980",
"_@	c #B3F57B",
":@	c #ABF277",
"<@	c #A4ED74",
"[@	c #9DE070",
"}@	c #8DC36A",
"|@	c #5F784F",
"1@	c #263124",
"2@	c #1C1C1C",
"3@	c #1C201D",
"4@	c #435538",
"5@	c #7AA260",
"6@	c #9BD971",
"7@	c #ACED78",
"8@	c #B6F47B",
"9@	c #BCF87E",
"0@	c #C3FC86",
"a@	c #CDFF90",
"b@	c #D2FF95",
"c@	c #D3FF97",
"d@	c #D3FF98",
"e@	c #D2FF96",
"f@	c #CFFF90",
"g@	c #C5FC86",
"h@	c #BBF87F",
"i@	c #B3F37C",
"j@	c #AAEE78",
"k@	c #9EDA70",
"l@	c #7DA65E",
"m@	c #435836",
"n@	c #1B201C",
"o@	c #272727",
"p@	c #242424",
"q@	c #1A1D1A",
"r@	c #303E2A",
"s@	c #62864D",
"t@	c #9AD06E",
"u@	c #B3EB7B",
"v@	c #BDF380",
"w@	c #C3FA83",
"x@	c #CBFF8B",
"y@	c #D3FF95",
"z@	c #D8FF9A",
"A@	c #DCFF9E",
"B@	c #DEFFA2",
"C@	c #DCFF9F",
"D@	c #D6FF98",
"E@	c #CAFF8B",
"F@	c #C2FA83",
"G@	c #BAF480",
"H@	c #B0EE7B",
"I@	c #9CD16E",
"J@	c #66874C",
"K@	c #303F29",
"L@	c #232423",
"M@	c #1B1B1B",
"N@	c #1D221C",
"O@	c #3B502D",
"P@	c #8AB563",
"Q@	c #A8DB77",
"R@	c #BBF080",
"S@	c #C8FA89",
"T@	c #D2FE92",
"U@	c #D8FF9C",
"V@	c #DCFFA1",
"W@	c #DDFFA3",
"X@	c #DEFFA3",
"Y@	c #DDFFA2",
"Z@	c #CDFE90",
"`@	c #C4F988",
" #	c #B8F180",
".#	c #A7DE77",
"+#	c #8CB764",
"@#	c #3C502D",
"##	c #1D221B",
"$#	c #1A1A1A",
"%#	c #262626",
"&#	c #222223",
"*#	c #131413",
"=#	c #212A1B",
"-#	c #536740",
";#	c #85AC65",
">#	c #B1E47C",
",#	c #C6F589",
"'#	c #D1FA92",
")#	c #D9FE9D",
"!#	c #DCFFA2",
"~#	c #D8FE9C",
"{#	c #CCF891",
"]#	c #C1F388",
"^#	c #AFE57C",
"/#	c #88AE66",
"(#	c #536842",
"_#	c #222A1B",
":#	c #222222",
"<#	c #202020",
"[#	c #232323",
"}#	c #111211",
"|#	c #21241E",
"1#	c #556E40",
"2#	c #87AF65",
"3#	c #ADD27C",
"4#	c #C3E58B",
"5#	c #D4F79B",
"6#	c #D7FDA1",
"7#	c #D9FEA3",
"8#	c #D9FEA1",
"9#	c #D8FD9F",
"0#	c #D3F59B",
"a#	c #BEE28B",
"b#	c #ABD27B",
"c#	c #8BB464",
"d#	c #577041",
"e#	c #20251F",
"f#	c #121211",
"g#	c #1D2419",
"h#	c #3A4A2E",
"i#	c #617A4C",
"j#	c #88A467",
"k#	c #B0D084",
"l#	c #C1E291",
"m#	c #C4E593",
"n#	c #C5E594",
"o#	c #AFCE83",
"p#	c #85A165",
"q#	c #617A4B",
"r#	c #3B4B2E",
"s#	c #1E2419",
"t#	c #1F1F1F",
"u#	c #171717",
"v#	c #121312",
"w#	c #1B2019",
"x#	c #2B3625",
"y#	c #3B472F",
"z#	c #62764C",
"A#	c #7D945E",
"B#	c #839A63",
"C#	c #829A64",
"D#	c #7C9461",
"E#	c #5F744B",
"F#	c #3A472C",
"G#	c #2B3623",
"H#	c #191919",
"I#	c #141613",
"J#	c #181A15",
"K#	c #283020",
"L#	c #353F28",
"M#	c #37422A",
"N#	c #37422B",
"O#	c #343F29",
"P#	c #262E20",
"Q#	c #171A14",
"R#	c #141612",
"S#	c #181818",
"T#	c #141414",
"U#	c #0E0E0F",
"V#	c #0B0B0C",
"W#	c #090909",
"X#	c #0B0B0B",
"Y#	c #131313",
"Z#	c #161616",
"`#	c #101010",
" $	c #0C0C0C",
". . . . . . . . . . . . . . . . . . . . . . . . . . . . . . . . . . . . . . . . . . . . ",
"+ @ @ @ @ @ @ @ @ @ @ @ @ @ @ @ @ @ @ @ @ @ @ @ @ @ @ @ @ @ @ @ @ @ @ @ @ @ @ @ @ @ @ + ",
"# $ $ $ $ $ $ $ $ $ $ $ $ $ $ $ $ $ $ $ $ $ $ $ $ $ $ $ $ $ $ $ $ $ $ $ $ $ $ $ $ $ $ # ",
"% & & & & & & & & & & & & & & & & & & & & & & & & & & & & & & & & & & & & & & & & & & % ",
"+ @ @ @ @ @ @ @ @ @ @ @ @ @ @ @ @ @ @ @ @ @ @ @ @ @ @ @ @ @ @ @ @ @ @ @ @ @ @ @ @ @ @ + ",
"+ + + + + + + + + + + + + + + + + + + + + + + + + + + + + + + + + + + + + + + + + + + + ",
"* = = = = = = = = = = = = = = = = = = = = = = = = = = = = = = = = = = = = = = = = = = * ",
"- * * * * * * * * * * * * * * * * ; > , ' ) ) ' , ! ; * * * * * * * * * * * * * * * * - ",
"- - - - - - - - - - - - - - - ~ { ] ^ / ( _ _ ( : < ] { ~ - - - - - - - - - - - - - - - ",
"[ } } } } } } } } } } } } } | 1 2 3 4 5 6 7 7 8 9 0 3 a 1 | } } } } } } } } } } } } } [ ",
"b [ [ [ [ [ [ [ [ [ [ [ [ c d e f g h i j k l m n o p q r d c [ [ [ [ [ [ [ [ [ [ [ [ b ",
"b b b b b b b b b b b b s t u v w x y z A B B C D E F G H u t s b b b b b b b b b b b b ",
"c I I I I I I I I I I J K L M N O P Q R S T T U V W X Y Z `  ...J I I I I I I I I I I c ",
"+.@.@.@.@.@.@.@.@.@.@.#.$.%.&.*.=.-.;.>.,.'.).!.~.{.].^./.(._.:.<.@.@.@.@.@.@.@.@.@.@.+.",
"+.+.+.+.+.+.+.+.+.+.[.}.|.1.2.3.4.5.6.7.8.9.9.0.a.b.c.d.e.f.g.|.}.[.+.+.+.+.+.+.+.+.+.+.",
"h.i.i.i.i.i.i.i.i.j.k.l.m.n.o.p.q.r.s.t.t.u.v.w.x.y.z.A.B.C.D.E.F.k.j.i.i.i.i.i.i.i.i.h.",
"h.h.h.h.h.h.h.h.G.H.I.J.K.L.M.N.O.P.Q.R.S.S.T.U.V.W.X.Y.Z.`. +.+++@+#+h.h.h.h.h.h.h.h.h.",
"$+%+%+%+%+%+%+%+%+&+*+=+-+;+>+,+'+)+!+~+{+]+^+/+(+_+:+<+[+}+|+1+2+3+4+%+%+%+%+%+%+%+%+$+",
"#+$+$+$+$+$+$+$+$+&+5+6+7+8+9+0+a+b+c+d+e+f+/+g+h+!+)+i+j+k+l+m+6+n+o+$+$+$+$+$+$+$+$+#+",
"#+#+#+#+#+#+#+#+#+o+p+q+r+s+t+u+v+w+x+y+z+A+B+A+C+D+d+E+F+t+G+H+I+J+K+#+#+#+#+#+#+#+#+#+",
"4+L+L+L+L+L+L+L+L+M+N+O+P+Q+R+S+T+U+V+W+X+Y+Y+X+Z+`+ @.@+@@@#@$@%@&@*@L+L+L+L+L+L+L+L+4+",
"o+&+&+&+&+&+&+&+&+M+5+=@-@;@>@,@'@)@!@~@{@{@]@^@/@(@_@:@<@[@}@|@1@p+*@&+&+&+&+&+&+&+&+o+",
"o+o+o+o+o+o+o+o+o+*@2@3@4@5@6@7@8@9@0@a@b@c@d@e@f@g@h@i@j@k@l@m@n@2@*@o+o+o+o+o+o+o+o+o+",
"o@M+M+M+M+M+M+M+M+M+p@q@r@s@t@u@v@w@x@y@z@A@B@C@D@E@F@G@H@I@J@K@u L@M+M+M+M+M+M+M+M+M+o@",
"o@o@o@o@o@o@o@o@o@o@*@M@N@O@P@Q@R@S@T@U@V@W@X@Y@U@Z@`@ #.#+#@###$#o@o@o@o@o@o@o@o@o@o@o@",
"%#%#%#%#%#%#%#%#%#%#%#&#*#=#-#;#>#,#'#)#!#W@X@Y@~#{#]#^#/#(#_#*#:#%#%#%#%#%#%#%#%#%#%#%#",
"<#[#[#[#[#[#[#[#[#[#[#[#M@}#|#1#2#3#4#5#6#7#8#9#0#a#b#c#d#e#f#M@[#[#[#[#[#[#[#[#[#[#[#<#",
"<#<#<#<#<#<#<#<#<#<#<#<#:#$#}#g#h#i#j#k#l#m#n#l#o#p#q#r#s#}#$#:#<#<#<#<#<#<#<#<#<#<#<#<#",
"t#t#t#t#t#t#t#t#t#t#t#t#t#t#u#v#w#x#y#z#A#B#C#D#E#F#G#w#v#u#t#t#t#t#t#t#t#t#t#t#t#t#t#t#",
"$#2@2@2@2@2@2@2@2@2@2@2@2@2@2@H#*#I#J#K#L#M#N#O#P#Q#R#*#H#2@2@2@2@2@2@2@2@2@2@2@2@2@2@$#",
"$#$#$#$#$#$#$#$#$#$#$#$#$#$#$#$#$#S#T#U#V#W#W#X#U#T#S#$#$#$#$#$#$#$#$#$#$#$#$#$#$#$#$#$#",
"T#S#S#S#S#S#S#S#S#S#S#S#S#S#S#S#S#S#S#S#S#S#S#S#S#S#S#S#S#S#S#S#S#S#S#S#S#S#S#S#S#S#S#T#",
"Y#Z#Z#Z#Z#Z#Z#Z#Z#Z#Z#Z#Z#Z#Z#Z#Z#Z#Z#Z#Z#Z#Z#Z#Z#Z#Z#Z#Z#Z#Z#Z#Z#Z#Z#Z#Z#Z#Z#Z#Z#Z#Z#Y#",
"`#Y#Y#Y#Y#Y#Y#Y#Y#Y#Y#Y#Y#Y#Y#Y#Y#Y#Y#Y#Y#Y#Y#Y#Y#Y#Y#Y#Y#Y#Y#Y#Y#Y#Y#Y#Y#Y#Y#Y#Y#Y#Y#`#",
"`#Y#Y#Y#Y#Y#Y#Y#Y#Y#Y#Y#Y#Y#Y#Y#Y#Y#Y#Y#Y#Y#Y#Y#Y#Y#Y#Y#Y#Y#Y#Y#Y#Y#Y#Y#Y#Y#Y#Y#Y#Y#Y#`#",
":#[#[#[#[#[#[#[#[#[#[#[#[#[#[#[#[#[#[#[#[#[#[#[#[#[#[#[#[#[#[#[#[#[#[#[#[#[#[#[#[#[#[#:#",
"t#:#:#:#:#:#:#:#:#:#:#:#:#:#:#:#:#:#:#:#:#:#:#:#:#:#:#:#:#:#:#:#:#:#:#:#:#:#:#:#:#:#:#t#",
" $ $ $ $ $ $ $ $ $ $ $ $ $ $ $ $ $ $ $ $ $ $ $ $ $ $ $ $ $ $ $ $ $ $ $ $ $ $ $ $ $ $ $ $"};
