/* XPM */
static char * hide_pressed_xpm[] = {
"44 38 479 2",
"  	c None",
". 	c #000000",
"+ 	c #505050",
"@ 	c #525252",
"# 	c #696969",
"$ 	c #6C6C6C",
"% 	c #515151",
"& 	c #565656",
"* 	c #4C4C4C",
"= 	c #4E4E4E",
"- 	c #4A4A4A",
"; 	c #49494A",
"> 	c #434143",
", 	c #3A3A3A",
"' 	c #333334",
") 	c #2F2F2F",
"! 	c #494949",
"~ 	c #393D39",
"{ 	c #2A2D2A",
"] 	c #20231F",
"^ 	c #1A2018",
"/ 	c #171C16",
"( 	c #161A14",
"_ 	c #161914",
": 	c #171B16",
"< 	c #191F19",
"[ 	c #1F231F",
"} 	c #464646",
"| 	c #484848",
"1 	c #403F40",
"2 	c #2F302F",
"3 	c #171F17",
"4 	c #0D1809",
"5 	c #0E1807",
"6 	c #111F0B",
"7 	c #13220D",
"8 	c #15230E",
"9 	c #15210E",
"0 	c #14200D",
"a 	c #101D0A",
"b 	c #0D1807",
"c 	c #0B1809",
"d 	c #161F17",
"e 	c #444444",
"f 	c #3F3F3F",
"g 	c #221F22",
"h 	c #0A130A",
"i 	c #071504",
"j 	c #081B03",
"k 	c #122E06",
"l 	c #1F4310",
"m 	c #2D511B",
"n 	c #30541D",
"o 	c #30531D",
"p 	c #2D501A",
"q 	c #1F430E",
"r 	c #112E04",
"s 	c #061B03",
"t 	c #061504",
"u 	c #3F3D3F",
"v 	c #1B1C1A",
"w 	c #0D150B",
"x 	c #091D03",
"y 	c #19390A",
"z 	c #3E6A1E",
"A 	c #628736",
"B 	c #759156",
"C 	c #7D986A",
"D 	c #809971",
"E 	c #819971",
"F 	c #7E9869",
"G 	c #729153",
"H 	c #5F8334",
"I 	c #3B671B",
"J 	c #183808",
"K 	c #091C02",
"L 	c #414141",
"M 	c #404040",
"N 	c #1E201E",
"O 	c #0D160A",
"P 	c #0C1D05",
"Q 	c #1C390A",
"R 	c #3A6C1B",
"S 	c #699B39",
"T 	c #7EA848",
"U 	c #88AB5D",
"V 	c #8AAC70",
"W 	c #8AAC75",
"X 	c #88AC70",
"Y 	c #85A95C",
"Z 	c #7BA546",
"` 	c #679936",
" .	c #3A6B19",
"..	c #0D1D05",
"+.	c #1E1F1E",
"@.	c #3E3E3E",
"#.	c #2B2D2B",
"$.	c #0E180C",
"%.	c #0B1805",
"&.	c #143307",
"*.	c #3E651E",
"=.	c #619233",
"-.	c #72A53F",
";.	c #7FAC49",
">.	c #85AD57",
",.	c #84AD60",
"'.	c #83AD63",
").	c #82AD61",
"!.	c #82AC57",
"~.	c #7EAA47",
"{.	c #72A43E",
"].	c #619032",
"^.	c #3E661E",
"/.	c #173308",
"(.	c #0A1806",
"_.	c #0B170B",
":.	c #2B2D2A",
"<.	c #393839",
"[.	c #151B13",
"}.	c #091905",
"|.	c #0C2505",
"1.	c #274D13",
"2.	c #4A7B27",
"3.	c #6C9C3A",
"4.	c #71A63E",
"5.	c #6EA73D",
"6.	c #6BA73B",
"7.	c #67A539",
"8.	c #67A438",
"9.	c #67A439",
"0.	c #68A539",
"a.	c #6BA93B",
"b.	c #6FAA3D",
"c.	c #71A53E",
"d.	c #6C9A3A",
"e.	c #4B7A27",
"f.	c #285013",
"g.	c #0B2505",
"h.	c #071905",
"i.	c #393939",
"j.	c #3B3B3B",
"k.	c #3A393A",
"l.	c #292729",
"m.	c #11150E",
"n.	c #0D1F04",
"o.	c #123506",
"p.	c #305B18",
"q.	c #477C24",
"r.	c #5B8F2C",
"s.	c #609831",
"t.	c #5F9C33",
"u.	c #5E9C32",
"v.	c #5F9D32",
"w.	c #609E32",
"x.	c #619E34",
"y.	c #619E33",
"z.	c #5F9F31",
"A.	c #5E9A31",
"B.	c #5E9630",
"C.	c #588F2C",
"D.	c #457C22",
"E.	c #305E17",
"F.	c #133604",
"G.	c #0E1F03",
"H.	c #11160C",
"I.	c #363538",
"J.	c #1C1D1C",
"K.	c #10160B",
"L.	c #122905",
"M.	c #1B4A08",
"N.	c #346718",
"O.	c #437E1E",
"P.	c #4B8A21",
"Q.	c #509024",
"R.	c #549526",
"S.	c #559728",
"T.	c #579829",
"U.	c #589829",
"V.	c #59982C",
"W.	c #59982B",
"X.	c #589728",
"Y.	c #549225",
"Z.	c #508E23",
"`.	c #4A8820",
" +	c #437D1D",
".+	c #346918",
"++	c #1D4B07",
"@+	c #142905",
"#+	c #10170A",
"$+	c #1B1C1C",
"%+	c #353336",
"&+	c #353535",
"*+	c #363636",
"=+	c #302F33",
"-+	c #171816",
";+	c #101B0A",
">+	c #193B0A",
",+	c #2B6210",
"'+	c #387419",
")+	c #41811B",
"!+	c #47891C",
"~+	c #4B8F1E",
"{+	c #4F9420",
"]+	c #529623",
"^+	c #549625",
"/+	c #559626",
"(+	c #569627",
"_+	c #569626",
":+	c #559423",
"<+	c #519120",
"[+	c #4D8D1E",
"}+	c #47871D",
"|+	c #427F1C",
"1+	c #387219",
"2+	c #2A5F12",
"3+	c #183C0B",
"4+	c #101A0A",
"5+	c #161716",
"6+	c #2F2D31",
"7+	c #333333",
"8+	c #2F2F30",
"9+	c #161715",
"0+	c #111C0D",
"a+	c #224312",
"b+	c #356E18",
"c+	c #3C7E1A",
"d+	c #41871B",
"e+	c #468C1B",
"f+	c #4A911C",
"g+	c #4D941F",
"h+	c #519621",
"i+	c #549624",
"j+	c #559625",
"k+	c #569625",
"l+	c #559422",
"m+	c #51911F",
"n+	c #4D8D1D",
"o+	c #41841C",
"p+	c #3C7A1B",
"q+	c #356B19",
"r+	c #214512",
"s+	c #151614",
"t+	c #2D2C2D",
"u+	c #2C2C2C",
"v+	c #151514",
"w+	c #141C11",
"x+	c #274517",
"y+	c #39761B",
"z+	c #41881A",
"A+	c #48911B",
"B+	c #4D961C",
"C+	c #509720",
"D+	c #549921",
"E+	c #589B24",
"F+	c #5B9B27",
"G+	c #5C9B28",
"H+	c #5C9B27",
"I+	c #5B9B25",
"J+	c #559723",
"K+	c #519421",
"L+	c #4C921D",
"M+	c #478F1B",
"N+	c #41871A",
"O+	c #3A771A",
"P+	c #294817",
"Q+	c #151C11",
"R+	c #131412",
"S+	c #2B2B2C",
"T+	c #2D2D2D",
"U+	c #303030",
"V+	c #2A2A2B",
"W+	c #161615",
"X+	c #161C11",
"Y+	c #264417",
"Z+	c #3A751B",
"`+	c #448B1A",
" @	c #4D971B",
".@	c #549D1E",
"+@	c #589F22",
"@@	c #5CA024",
"#@	c #61A129",
"$@	c #64A12C",
"%@	c #65A12C",
"&@	c #64A12B",
"*@	c #62A12A",
"=@	c #5BA028",
"-@	c #569D24",
";@	c #52981E",
">@	c #4C941B",
",@	c #468B1A",
"'@	c #3C771A",
")@	c #284617",
"!@	c #151C10",
"~@	c #141313",
"{@	c #282828",
"]@	c #171716",
"^@	c #161B11",
"/@	c #243E16",
"(@	c #396E1B",
"_@	c #468A1C",
":@	c #51981D",
"<@	c #599F20",
"[@	c #5FA224",
"}@	c #64A529",
"|@	c #6BA630",
"1@	c #6FA633",
"2@	c #6FA634",
"3@	c #6EA634",
"4@	c #6DA634",
"5@	c #6AA632",
"6@	c #64A52C",
"7@	c #5EA026",
"8@	c #579B20",
"9@	c #50961D",
"0@	c #478B1C",
"a@	c #3B721A",
"b@	c #234015",
"c@	c #28282A",
"d@	c #2A282B",
"e@	c #151811",
"f@	c #203013",
"g@	c #335C19",
"h@	c #47851D",
"i@	c #579721",
"j@	c #609F24",
"k@	c #67A328",
"l@	c #6EA732",
"m@	c #76AA3B",
"n@	c #7CAA3E",
"o@	c #7DAB40",
"p@	c #7CAB42",
"q@	c #7BAA41",
"r@	c #77AA3C",
"s@	c #6EA731",
"t@	c #64A229",
"u@	c #5C9D24",
"v@	c #549721",
"w@	c #48871D",
"x@	c #346018",
"y@	c #203313",
"z@	c #151911",
"A@	c #1B1B1C",
"B@	c #272727",
"C@	c #2A2A2A",
"D@	c #242425",
"E@	c #161812",
"F@	c #1A250F",
"G@	c #2A4D11",
"H@	c #49801D",
"I@	c #5C9724",
"J@	c #679E2A",
"K@	c #6EA42D",
"L@	c #76A937",
"M@	c #7EAD42",
"N@	c #83B046",
"O@	c #85B148",
"P@	c #88B14A",
"Q@	c #85B049",
"R@	c #7FAD43",
"S@	c #75A937",
"T@	c #6CA42E",
"U@	c #649E2A",
"V@	c #5B9724",
"W@	c #4A821D",
"X@	c #2B4F11",
"Y@	c #1A260F",
"Z@	c #161712",
"`@	c #232325",
" #	c #1B1B18",
".#	c #151B10",
"+#	c #1C310F",
"@#	c #43701C",
"##	c #578D23",
"$#	c #659B2A",
"%#	c #71A334",
"&#	c #7BA93C",
"*#	c #84AD48",
"=#	c #86B04B",
"-#	c #88B04C",
";#	c #88B04D",
">#	c #87B04C",
",#	c #82AD46",
"'#	c #77A83B",
")#	c #6EA332",
"!#	c #639C2A",
"~#	c #578F23",
"{#	c #44731C",
"]#	c #1C3210",
"^#	c #1A1A18",
"/#	c #262626",
"(#	c #232323",
"_#	c #111311",
":#	c #151C0F",
"<#	c #2A4316",
"[#	c #43691F",
"}#	c #5F9129",
"|#	c #719F35",
"1#	c #7BA63D",
"2#	c #85AC49",
"3#	c #87AE4C",
"4#	c #88AE4D",
"5#	c #82AC47",
"6#	c #76A53C",
"7#	c #6DA033",
"8#	c #5D9429",
"9#	c #426D20",
"0#	c #2A4619",
"a#	c #151D10",
"b#	c #232223",
"c#	c #202020",
"d#	c #1A1A1A",
"e#	c #111010",
"f#	c #161A11",
"g#	c #2C4617",
"h#	c #487021",
"i#	c #658A31",
"j#	c #73973A",
"k#	c #7FA446",
"l#	c #85A74C",
"m#	c #87A94D",
"n#	c #87AB4C",
"o#	c #85A94A",
"p#	c #7CA346",
"q#	c #6E963A",
"r#	c #628B2F",
"s#	c #4C7422",
"t#	c #2E4818",
"u#	c #151A12",
"v#	c #222222",
"w#	c #18181A",
"x#	c #111210",
"y#	c #223114",
"z#	c #3B511E",
"A#	c #4F6B2B",
"B#	c #688A39",
"C#	c #729440",
"D#	c #759742",
"E#	c #759842",
"F#	c #729540",
"G#	c #648838",
"H#	c #4D6B2A",
"I#	c #3A521E",
"J#	c #243414",
"K#	c #1F1F1F",
"L#	c #161618",
"M#	c #161911",
"N#	c #1C2515",
"O#	c #253117",
"P#	c #364B1E",
"Q#	c #435E23",
"R#	c #456126",
"S#	c #456028",
"T#	c #425C27",
"U#	c #34481E",
"V#	c #243217",
"W#	c #1C2615",
"X#	c #171618",
"Y#	c #1C1C1C",
"Z#	c #1B191B",
"`#	c #131315",
" $	c #10120F",
".$	c #12130F",
"+$	c #192111",
"@$	c #1E2914",
"#$	c #1F2B14",
"$$	c #1F2A15",
"%$	c #1E2815",
"&$	c #192012",
"*$	c #12140F",
"=$	c #181818",
"-$	c #141414",
";$	c #101011",
">$	c #0E0E0E",
",$	c #0D0C0D",
"'$	c #171717",
")$	c #131313",
"!$	c #161616",
"~$	c #101010",
"{$	c #0C0C0C",
". . . . . . . . . . . . . . . . . . . . . . . . . . . . . . . . . . . . . . . . . . . . ",
"+ @ @ @ @ @ @ @ @ @ @ @ @ @ @ @ @ @ @ @ @ @ @ @ @ @ @ @ @ @ @ @ @ @ @ @ @ @ @ @ @ @ @ + ",
"# $ $ $ $ $ $ $ $ $ $ $ $ $ $ $ $ $ $ $ $ $ $ $ $ $ $ $ $ $ $ $ $ $ $ $ $ $ $ $ $ $ $ # ",
"% & & & & & & & & & & & & & & & & & & & & & & & & & & & & & & & & & & & & & & & & & & % ",
"+ @ @ @ @ @ @ @ @ @ @ @ @ @ @ @ @ @ @ @ @ @ @ @ @ @ @ @ @ @ @ @ @ @ @ @ @ @ @ @ @ @ @ + ",
"+ + + + + + + + + + + + + + + + + + + + + + + + + + + + + + + + + + + + + + + + + + + + ",
"* = = = = = = = = = = = = = = = = = = = = = = = = = = = = = = = = = = = = = = = = = = * ",
"- * * * * * * * * * * * * * * * * ; > , ' ) ) ' , > ; * * * * * * * * * * * * * * * * - ",
"- - - - - - - - - - - - - - - ! ~ { ] ^ / ( _ : < [ { ~ ! - - - - - - - - - - - - - - - ",
"} | | | | | | | | | | | | | 1 2 3 4 5 6 7 8 9 0 a b c d 2 1 | | | | | | | | | | | | | } ",
"e } } } } } } } } } } } } f g h i j k l m n o p q r s t h g f } } } } } } } } } } } } e ",
"e e e e e e e e e e e e u v w x y z A B C D E F G H I J K w v u e e e e e e e e e e e e ",
"f L L L L L L L L L L M N O P Q R S T U V W W X Y Z `  .Q ..O +.M L L L L L L L L L L f ",
"@.M M M M M M M M M M #.$.%.&.*.=.-.;.>.,.'.'.).!.~.{.].^./.(._.:.M M M M M M M M M M @.",
"@.@.@.@.@.@.@.@.@.@.<.[.}.|.1.2.3.4.5.6.7.8.9.0.a.b.c.d.e.f.g.h.[.<.@.@.@.@.@.@.@.@.@.@.",
"i.j.j.j.j.j.j.j.j.k.l.m.n.o.p.q.r.s.t.u.v.w.x.y.z.A.B.C.D.E.F.G.H.l.k.j.j.j.j.j.j.j.j.i.",
"i.i.i.i.i.i.i.i., I.J.K.L.M.N.O.P.Q.R.S.T.U.V.W.X.Y.Z.`. +.+++@+#+$+%+i.i.i.i.i.i.i.i.i.",
"&+*+*+*+*+*+*+*+*+=+-+;+>+,+'+)+!+~+{+]+^+/+(+_+:+<+[+}+|+1+2+3+4+5+6+*+*+*+*+*+*+*+*+&+",
"7+&+&+&+&+&+&+&+&+8+9+0+a+b+c+d+e+f+g+h+i+j+_+k+l+m+n+!+o+p+q+r+0+s+t+&+&+&+&+&+&+&+&+7+",
"7+7+7+7+7+7+7+7+7+u+v+w+x+y+z+A+B+C+D+E+F+G+G+H+I+J+K+L+M+N+O+P+Q+R+S+7+7+7+7+7+7+7+7+7+",
"T+U+U+U+U+U+U+U+U+V+W+X+Y+Z+`+ @.@+@@@#@$@%@%@&@*@=@-@;@>@,@'@)@!@~@{@U+U+U+U+U+U+U+U+T+",
"u+) ) ) ) ) ) ) ) V+]@^@/@(@_@:@<@[@}@|@1@2@3@4@5@6@7@8@9@0@a@b@!@v+c@) ) ) ) ) ) ) ) u+",
"u+u+u+u+u+u+u+u+u+d@$+e@f@g@h@i@j@k@l@m@n@o@p@q@r@s@t@u@v@w@x@y@z@A@d@u+u+u+u+u+u+u+u+u+",
"B@C@C@C@C@C@C@C@C@C@D@E@F@G@H@I@J@K@L@M@N@O@P@Q@R@S@T@U@V@W@X@Y@Z@`@C@C@C@C@C@C@C@C@C@B@",
"B@B@B@B@B@B@B@B@B@B@{@ #.#+#@###$#%#&#*#=#-#;#>#,#'#)#!#~#{#]#.#^#B@B@B@B@B@B@B@B@B@B@B@",
"/#/#/#/#/#/#/#/#/#/#/#(#_#:#<#[#}#|#1#2#3#4#4#3#5#6#7#8#9#0#a#_#b#/#/#/#/#/#/#/#/#/#/#/#",
"c#(#(#(#(#(#(#(#(#(#(#(#d#e#f#g#h#i#j#k#l#m#n#o#p#q#r#s#t#u#e#d#(#(#(#(#(#(#(#(#(#(#(#c#",
"c#c#c#c#c#c#c#c#c#c#c#c#v#w#x#w+y#z#A#B#C#D#E#F#G#H#I#J#w+x#w#v#c#c#c#c#c#c#c#c#c#c#c#c#",
"K#K#K#K#K#K#K#K#K#K#K#K#K#K#L#x#M#N#O#P#Q#R#S#T#U#V#W#f#x#X#K#K#K#K#K#K#K#K#K#K#K#K#K#K#",
"d#Y#Y#Y#Y#Y#Y#Y#Y#Y#Y#Y#Y#Y#Y#Z#`# $.$+$@$#$$$%$&$*$ $`#Z#Y#Y#Y#Y#Y#Y#Y#Y#Y#Y#Y#Y#Y#Y#d#",
"d#d#d#d#d#d#d#d#d#d#d#d#d#d#d#d#d#=$-$;$>$,$,$>$;$-$=$d#d#d#d#d#d#d#d#d#d#d#d#d#d#d#d#d#",
"-$=$=$=$=$=$=$=$=$=$=$=$=$=$=$=$=$=$=$'$'$'$'$'$'$=$=$=$=$=$=$=$=$=$=$=$=$=$=$=$=$=$=$-$",
")$!$!$!$!$!$!$!$!$!$!$!$!$!$!$!$!$!$!$!$!$!$!$!$!$!$!$!$!$!$!$!$!$!$!$!$!$!$!$!$!$!$!$)$",
"~$)$)$)$)$)$)$)$)$)$)$)$)$)$)$)$)$)$)$)$)$)$)$)$)$)$)$)$)$)$)$)$)$)$)$)$)$)$)$)$)$)$)$~$",
"~$)$)$)$)$)$)$)$)$)$)$)$)$)$)$)$)$)$)$)$)$)$)$)$)$)$)$)$)$)$)$)$)$)$)$)$)$)$)$)$)$)$)$~$",
"v#(#(#(#(#(#(#(#(#(#(#(#(#(#(#(#(#(#(#(#(#(#(#(#(#(#(#(#(#(#(#(#(#(#(#(#(#(#(#(#(#(#(#v#",
"K#v#v#v#v#v#v#v#v#v#v#v#v#v#v#v#v#v#v#v#v#v#v#v#v#v#v#v#v#v#v#v#v#v#v#v#v#v#v#v#v#v#v#K#",
"{${${${${${${${${${${${${${${${${${${${${${${${${${${${${${${${${${${${${${${${${${${${$"};
