/* XPM */
static char * maximize_active_xpm[] = {
"44 38 444 2",
"  	c None",
". 	c #000000",
"+ 	c #505050",
"@ 	c #525252",
"# 	c #696969",
"$ 	c #6C6C6C",
"% 	c #515151",
"& 	c #565656",
"* 	c #4C4C4C",
"= 	c #4E4E4E",
"- 	c #4A4A4A",
"; 	c #494A4A",
"> 	c #434444",
", 	c #393B3D",
"' 	c #343535",
") 	c #303030",
"! 	c #494949",
"~ 	c #3F3A3B",
"{ 	c #2F2B2B",
"] 	c #211D1D",
"^ 	c #1F1616",
"/ 	c #1D1212",
"( 	c #191010",
"_ 	c #464646",
": 	c #484848",
"< 	c #484949",
"[ 	c #404141",
"} 	c #312F30",
"| 	c #22171A",
"1 	c #1C0505",
"2 	c #180201",
"3 	c #220200",
"4 	c #250301",
"5 	c #240301",
"6 	c #220300",
"7 	c #1C0605",
"8 	c #313030",
"9 	c #444444",
"0 	c #3F4040",
"a 	c #1F2222",
"b 	c #120202",
"c 	c #160000",
"d 	c #210000",
"e 	c #350100",
"f 	c #4D0802",
"g 	c #5E1809",
"h 	c #621C0D",
"i 	c #621B0D",
"j 	c #5E1609",
"k 	c #4C0802",
"l 	c #160100",
"m 	c #120402",
"n 	c #1B1A1A",
"o 	c #0F0404",
"p 	c #2B0000",
"q 	c #4F0A02",
"r 	c #6C250D",
"s 	c #784022",
"t 	c #85573E",
"u 	c #8D6253",
"v 	c #906459",
"w 	c #8E635A",
"x 	c #8A6154",
"y 	c #835740",
"z 	c #7C4123",
"A 	c #6E260F",
"B 	c #4E0B02",
"C 	c #3E4040",
"D 	c #3F3F3F",
"E 	c #414141",
"F 	c #404040",
"G 	c #20201F",
"H 	c #140505",
"I 	c #240000",
"J 	c #490A02",
"K 	c #7A250B",
"L 	c #8C4621",
"M 	c #935A35",
"N 	c #996A4B",
"O 	c #9A725B",
"P 	c #9B745F",
"Q 	c #9A7460",
"R 	c #9A725C",
"S 	c #996C4B",
"T 	c #965A35",
"U 	c #8E4724",
"V 	c #78230C",
"W 	c #150505",
"X 	c #1F1E1E",
"Y 	c #3E3E3E",
"Z 	c #2E2D2D",
"` 	c #160908",
" .	c #1D0100",
"..	c #4F0400",
"+.	c #722209",
"@.	c #8A3D1C",
"#.	c #93532D",
"$.	c #985E38",
"%.	c #9C6A48",
"&.	c #9C6F53",
"*.	c #9C7156",
"=.	c #9C7357",
"-.	c #9C7154",
";.	c #9C6C48",
">.	c #995E38",
",.	c #94522D",
"'.	c #893D1D",
").	c #72220B",
"!.	c #500600",
"~.	c #1F0200",
"{.	c #160808",
"].	c #2D2B2B",
"^.	c #383939",
"/.	c #1D1313",
"(.	c #1B0202",
"_.	c #320200",
":.	c #701300",
"<.	c #8C2C0E",
"[.	c #924423",
"}.	c #965530",
"|.	c #995C34",
"1.	c #9C5B35",
"2.	c #9C5B36",
"3.	c #9C5D36",
"4.	c #9C5F36",
"5.	c #9C5E36",
"6.	c #995A33",
"7.	c #95532E",
"8.	c #914523",
"9.	c #8B2C0F",
"0.	c #711400",
"a.	c #340200",
"b.	c #393939",
"c.	c #3B3B3B",
"d.	c #383A3A",
"e.	c #272929",
"f.	c #160A03",
"g.	c #250100",
"h.	c #4B0300",
"i.	c #7C1500",
"j.	c #902A0D",
"k.	c #963E1D",
"l.	c #9A4926",
"m.	c #9B5029",
"n.	c #9C512D",
"o.	c #9C5330",
"p.	c #9C5431",
"q.	c #9C5631",
"r.	c #9C5530",
"s.	c #9C532E",
"t.	c #9A4E2A",
"u.	c #994826",
"v.	c #7F1600",
"w.	c #4E0300",
"x.	c #170903",
"y.	c #3A3A3A",
"z.	c #343838",
"A.	c #1D1B1B",
"B.	c #1D0201",
"C.	c #370100",
"D.	c #6A0500",
"E.	c #881900",
"F.	c #94290A",
"G.	c #993614",
"H.	c #9B3E1B",
"I.	c #9C4620",
"J.	c #9C4C26",
"K.	c #9C4E28",
"L.	c #9C5029",
"M.	c #9C4F28",
"N.	c #9C4D26",
"O.	c #9C4621",
"P.	c #983614",
"Q.	c #942B0A",
"R.	c #8A1A00",
"S.	c #6C0500",
"T.	c #390100",
"U.	c #1C1A1B",
"V.	c #333636",
"W.	c #353535",
"X.	c #363636",
"Y.	c #2F3333",
"Z.	c #191415",
"`.	c #220101",
" +	c #4C0200",
".+	c #7D0D00",
"++	c #902001",
"@+	c #982B09",
"#+	c #9B3411",
"$+	c #9B3B17",
"%+	c #9C431D",
"&+	c #9C4B22",
"*+	c #9C4C24",
"=+	c #9C4D25",
"-+	c #9C4A22",
";+	c #9C441E",
">+	c #9B3C18",
",+	c #9A3511",
"'+	c #972D09",
")+	c #912001",
"!+	c #7E0D00",
"~+	c #171415",
"{+	c #2D3131",
"]+	c #333333",
"^+	c #2F3131",
"/+	c #171313",
"(+	c #220100",
"_+	c #550C00",
":+	c #841D00",
"<+	c #942704",
"[+	c #9A2E0A",
"}+	c #9C3411",
"|+	c #9C3B16",
"1+	c #9C421D",
"2+	c #9C4A20",
"3+	c #9C4C22",
"4+	c #9C4C23",
"5+	c #9C4920",
"6+	c #9C441D",
"7+	c #9C3C18",
"8+	c #9C3611",
"9+	c #992F0A",
"0+	c #952704",
"a+	c #851D00",
"b+	c #540C00",
"c+	c #210100",
"d+	c #161212",
"e+	c #2C2F2F",
"f+	c #161211",
"g+	c #250300",
"h+	c #5C1101",
"i+	c #872605",
"j+	c #953008",
"k+	c #9C380F",
"l+	c #9C3E15",
"m+	c #9C441B",
"n+	c #9C4E23",
"o+	c #9C5025",
"p+	c #9C5125",
"q+	c #9C4F24",
"r+	c #9C4D22",
"s+	c #9C4A1F",
"t+	c #983008",
"u+	c #892705",
"v+	c #5A1201",
"w+	c #230300",
"x+	c #14100F",
"y+	c #2B2D2D",
"z+	c #2D2D2D",
"A+	c #2A2C2D",
"B+	c #171312",
"C+	c #280600",
"D+	c #591401",
"E+	c #862806",
"F+	c #96380D",
"G+	c #9C4215",
"H+	c #9C471C",
"I+	c #9C4D21",
"J+	c #9C5224",
"K+	c #9C5428",
"L+	c #9C5629",
"M+	c #9C5829",
"N+	c #9C5729",
"O+	c #9C5628",
"P+	c #9C5426",
"Q+	c #9C5123",
"R+	c #9C4D1F",
"S+	c #9C481B",
"T+	c #97370E",
"U+	c #872806",
"V+	c #571401",
"W+	c #270600",
"X+	c #151110",
"Y+	c #282A2B",
"Z+	c #2C2C2C",
"`+	c #2F2F2F",
" @	c #2A2B2D",
".@	c #181414",
"+@	c #240801",
"@@	c #481402",
"#@	c #7E2806",
"$@	c #953B11",
"%@	c #9C471A",
"&@	c #9C582A",
"*@	c #9C5C2E",
"=@	c #9C5E30",
"-@	c #9C5F2F",
";@	c #9C5E2F",
">@	c #9C5929",
",@	c #9C5525",
"'@	c #9C4F20",
")@	c #9C4919",
"!@	c #953C11",
"~@	c #491402",
"{@	c #161313",
"]@	c #180D08",
"^@	c #301203",
"/@	c #642304",
"(@	c #903D13",
"_@	c #9B4A1D",
":@	c #9C5223",
"<@	c #9C5828",
"[@	c #9C5D2E",
"}@	c #9C6133",
"|@	c #9C6335",
"1@	c #9C5E2D",
"2@	c #9C5A28",
"3@	c #9C5422",
"4@	c #9B4D1B",
"5@	c #903E13",
"6@	c #642305",
"7@	c #311304",
"8@	c #180D09",
"9@	c #1B1A1B",
"0@	c #272727",
"a@	c #2A2A2A",
"b@	c #232424",
"c@	c #19140F",
"d@	c #220F02",
"e@	c #4F1C02",
"f@	c #894014",
"g@	c #9B511E",
"h@	c #9C5724",
"i@	c #9C5B29",
"j@	c #9C6231",
"k@	c #9C6636",
"l@	c #9C6738",
"m@	c #9C6839",
"n@	c #9C6639",
"o@	c #9C6638",
"p@	c #9C622F",
"q@	c #9C5F29",
"r@	c #9C5B24",
"s@	c #9B531E",
"t@	c #893F14",
"u@	c #501A02",
"v@	c #231002",
"w@	c #232325",
"x@	c #282828",
"y@	c #1B1A17",
"z@	c #180E06",
"A@	c #753910",
"B@	c #924C1B",
"C@	c #9A5623",
"D@	c #9C5E2A",
"E@	c #9C6B3C",
"F@	c #9C6C3D",
"G@	c #9C6B3D",
"H@	c #9C6230",
"I@	c #9C5F2A",
"J@	c #9B5A23",
"K@	c #934E1B",
"L@	c #763810",
"M@	c #190E06",
"N@	c #262626",
"O@	c #222323",
"P@	c #120F0D",
"Q@	c #1C0E07",
"R@	c #431E06",
"S@	c #6A3710",
"T@	c #92531F",
"U@	c #9B5D29",
"V@	c #9B612F",
"W@	c #9C6D3E",
"X@	c #9C6736",
"Y@	c #9B5E29",
"Z@	c #93561F",
"`@	c #6C3810",
" #	c #441D06",
".#	c #120E0C",
"+#	c #222223",
"@#	c #202020",
"##	c #232323",
"$#	c #1B1B1D",
"%#	c #100D0C",
"&#	c #110A04",
"*#	c #452508",
"=#	c #754214",
"-#	c #885222",
";#	c #8F5828",
">#	c #976232",
",#	c #9B6B3B",
"'#	c #9C6D3D",
")#	c #9C6B3B",
"!#	c #996232",
"~#	c #8F5929",
"{#	c #885223",
"]#	c #754315",
"^#	c #452509",
"/#	c #1A1B1D",
"(#	c #181818",
"_#	c #100F0E",
":#	c #1B0F07",
"<#	c #301704",
"[#	c #4A2708",
"}#	c #643812",
"|#	c #815020",
"1#	c #8E5F2D",
"2#	c #916230",
"3#	c #8F5F2D",
"4#	c #835021",
"5#	c #643913",
"6#	c #301804",
"7#	c #1B1007",
"8#	c #222222",
"9#	c #1F1F1F",
"0#	c #1F2020",
"a#	c #120E0D",
"b#	c #1A110B",
"c#	c #241608",
"d#	c #2E1A07",
"e#	c #4B2C0C",
"f#	c #623B11",
"g#	c #673F12",
"h#	c #674013",
"i#	c #633C12",
"j#	c #4E2D0E",
"k#	c #2F1A07",
"l#	c #19110B",
"m#	c #1A1A1A",
"n#	c #1C1C1C",
"o#	c #191C1C",
"p#	c #151514",
"q#	c #140F0E",
"r#	c #140E08",
"s#	c #251708",
"t#	c #2C1B09",
"u#	c #2E1B09",
"v#	c #2E1C09",
"w#	c #2D1B0A",
"x#	c #26180A",
"y#	c #150E08",
"z#	c #141514",
"A#	c #141416",
"B#	c #101011",
"C#	c #0E0E0F",
"D#	c #0C0D0E",
"E#	c #0F1011",
"F#	c #141414",
"G#	c #171718",
"H#	c #131313",
"I#	c #161616",
"J#	c #101010",
"K#	c #0C0C0C",
". . . . . . . . . . . . . . . . . . . . . . . . . . . . . . . . . . . . . . . . . . . . ",
"+ @ @ @ @ @ @ @ @ @ @ @ @ @ @ @ @ @ @ @ @ @ @ @ @ @ @ @ @ @ @ @ @ @ @ @ @ @ @ @ @ @ @ + ",
"# $ $ $ $ $ $ $ $ $ $ $ $ $ $ $ $ $ $ $ $ $ $ $ $ $ $ $ $ $ $ $ $ $ $ $ $ $ $ $ $ $ $ # ",
"% & & & & & & & & & & & & & & & & & & & & & & & & & & & & & & & & & & & & & & & & & & % ",
"+ @ @ @ @ @ @ @ @ @ @ @ @ @ @ @ @ @ @ @ @ @ @ @ @ @ @ @ @ @ @ @ @ @ @ @ @ @ @ @ @ @ @ + ",
"+ + + + + + + + + + + + + + + + + + + + + + + + + + + + + + + + + + + + + + + + + + + + ",
"* = = = = = = = = = = = = = = = = = = = = = = = = = = = = = = = = = = = = = = = = = = * ",
"- * * * * * * * * * * * * * * * * ; > , ' ) ) ' , > ; * * * * * * * * * * * * * * * * - ",
"- - - - - - - - - - - - - - - ! ~ { ] ^ / ( ( / ^ ] { ~ ! - - - - - - - - - - - - - - - ",
"_ : : : : : : : : : : : : < [ } | 1 2 3 4 5 5 4 6 2 7 | 8 [ < : : : : : : : : : : : : _ ",
"9 _ _ _ _ _ _ _ _ _ _ _ _ 0 a b c d e f g h i j k e d l m a 0 _ _ _ _ _ _ _ _ _ _ _ _ 9 ",
"9 9 9 9 9 9 9 9 9 9 9 9 0 n o p q r s t u v w x y z A B p o n C 9 9 9 9 9 9 9 9 9 9 9 9 ",
"D E E E E E E E E E E F G H I J K L M N O P Q R S T U V J I W X F E E E E E E E E E E D ",
"Y F F F F F F F F F F Z `  ...+.@.#.$.%.&.*.=.-.;.>.,.'.).!.~.{.].F F F F F F F F F F Y ",
"Y Y Y Y Y Y Y Y Y Y ^./.(._.:.<.[.}.|.1.2.3.4.4.5.6.7.8.9.0.a.(./.^.Y Y Y Y Y Y Y Y Y Y ",
"b.c.c.c.c.c.c.c.c.d.e.f.g.h.i.j.k.l.m.n.o.p.q.r.s.t.u.k.j.v.w.g.x.e.d.c.c.c.c.c.c.c.c.b.",
"b.b.b.b.b.b.b.b.y.z.A.B.C.D.E.F.G.H.I.J.K.L.L.M.N.O.H.P.Q.R.S.T.B.U.V.b.b.b.b.b.b.b.b.b.",
"W.X.X.X.X.X.X.X.X.Y.Z.`. +.+++@+#+$+%+&+*+=+=+*+-+;+>+,+'+)+!+ +`.~+{+X.X.X.X.X.X.X.X.W.",
"]+W.W.W.W.W.W.W.W.^+/+(+_+:+<+[+}+|+1+2+3+4+4+&+5+6+7+8+9+0+a+b+c+d+e+W.W.W.W.W.W.W.W.]+",
"]+]+]+]+]+]+]+]+]+e+f+g+h+i+j+k+l+m+2+n+o+p+o+q+r+s+m+l+k+t+u+v+w+x+y+]+]+]+]+]+]+]+]+]+",
"z+) ) ) ) ) ) ) ) A+B+C+D+E+F+G+H+I+J+K+L+M+N+O+P+Q+R+S+G+T+U+V+W+X+Y+) ) ) ) ) ) ) ) z+",
"Z+`+`+`+`+`+`+`+`+ @.@+@@@#@$@%@I+P+&@*@=@=@-@;@*@>@,@'@)@!@#@~@+@{@Y+`+`+`+`+`+`+`+`+Z+",
"Z+Z+Z+Z+Z+Z+Z+Z+Z+Y+U.]@^@/@(@_@:@<@[@}@|@|@|@|@}@1@2@3@4@5@6@7@8@9@Y+Z+Z+Z+Z+Z+Z+Z+Z+Z+",
"0@a@a@a@a@a@a@a@a@a@b@c@d@e@f@g@h@i@j@k@l@m@n@n@o@p@q@r@s@t@u@v@c@w@a@a@a@a@a@a@a@a@a@0@",
"0@0@0@0@0@0@0@0@0@0@x@y@z@^@A@B@C@D@j@l@E@F@G@E@l@H@I@J@K@L@^@M@y@0@0@0@0@0@0@0@0@0@0@0@",
"N@N@N@N@N@N@N@N@N@N@N@O@P@Q@R@S@T@U@V@l@F@W@W@F@X@V@Y@Z@`@ #Q@.#+#N@N@N@N@N@N@N@N@N@N@N@",
"@#######################$#%#&#*#=#-#;#>#,#'#'#)#!#~#{#]#^#&#%#/#######################@#",
"@#@#@#@#@#@#@#@#@#@#@#@#+#(#_#:#<#[#}#|#1#2#2#3#4#5#[#6#7#_#(#8#@#@#@#@#@#@#@#@#@#@#@#@#",
"9#9#9#9#9#9#9#9#9#9#9#9#9#0#(#a#b#c#d#e#f#g#h#i#j#k#c#l#P@(#0#9#9#9#9#9#9#9#9#9#9#9#9#9#",
"m#n#n#n#n#n#n#n#n#n#n#n#n#n#n#o#p#q#r#s#t#u#v#w#x#y#q#z#o#n#n#n#n#n#n#n#n#n#n#n#n#n#n#m#",
"m#m#m#m#m#m#m#m#m#m#m#m#m#m#m#m#m#(#A#B#C#D#D#C#E#A#(#m#m#m#m#m#m#m#m#m#m#m#m#m#m#m#m#m#",
"F#(#(#(#(#(#(#(#(#(#(#(#(#(#(#(#(#(#(#G#G#G#G#G#G#(#(#(#(#(#(#(#(#(#(#(#(#(#(#(#(#(#(#F#",
"H#I#I#I#I#I#I#I#I#I#I#I#I#I#I#I#I#I#I#I#I#I#I#I#I#I#I#I#I#I#I#I#I#I#I#I#I#I#I#I#I#I#I#H#",
"J#H#H#H#H#H#H#H#H#H#H#H#H#H#H#H#H#H#H#H#H#H#H#H#H#H#H#H#H#H#H#H#H#H#H#H#H#H#H#H#H#H#H#J#",
"J#H#H#H#H#H#H#H#H#H#H#H#H#H#H#H#H#H#H#H#H#H#H#H#H#H#H#H#H#H#H#H#H#H#H#H#H#H#H#H#H#H#H#J#",
"8#####################################################################################8#",
"9#8#8#8#8#8#8#8#8#8#8#8#8#8#8#8#8#8#8#8#8#8#8#8#8#8#8#8#8#8#8#8#8#8#8#8#8#8#8#8#8#8#8#9#",
"K#K#K#K#K#K#K#K#K#K#K#K#K#K#K#K#K#K#K#K#K#K#K#K#K#K#K#K#K#K#K#K#K#K#K#K#K#K#K#K#K#K#K#K#"};
