/* XPM */
static char * maximize_inactive_xpm[] = {
"44 38 31 1",
" 	c None",
".	c #050505",
"+	c #2A2A2A",
"@	c #2E2E2E",
"#	c #393939",
"$	c #262626",
"%	c #292929",
"&	c #252525",
"*	c #242424",
"=	c #212121",
"-	c #232323",
";	c #222222",
">	c #202020",
",	c #1F1F1F",
"'	c #1C1C1C",
")	c #1D1D1D",
"!	c #1E1E1E",
"~	c #1B1B1B",
"{	c #1A1A1A",
"]	c #191919",
"^	c #181818",
"/	c #171717",
"(	c #151515",
"_	c #161616",
":	c #121212",
"<	c #131313",
"[	c #111111",
"}	c #101010",
"|	c #0E0E0E",
"1	c #0D0D0D",
"2	c #090909",
"............................................",
"+@@@@@@@@@@@@@@@@@@@@@@@@@@@@@@@@@@@@@@@@@@+",
"############################################",
"$%%%%%%%%%%%%%%%%%%%%%%%%%%%%%%%%%%%%%%%%%%$",
"$$$$$$$$$$$$$$$$$$$$$$$$$$$$$$$$$$$$$$$$$$$$",
"&$$$$$$$$$$$$$$$$$$$$$$$$$$$$$$$$$$$$$$$$$$&",
"&&&&&&&&&&&&&&&&&&&&&&&&&&&&&&&&&&&&&&&&&&&&",
"********************************************",
"=**************-;;;;;;;;;-*****************=",
";;;;;;;;;;;;;;;;;;;;;;;;;;;;========;;;;;;;;",
"============================>=======>=======",
">=======>>==>>=======>=======>>>>>>>>======>",
">>>>>>>>>>>>>>>>>>>>>>>>>>>>>>,,,,,,,>>>>>>>",
",,,,,,,,,,,,,,,,,,,,,,,,,,,,,,,,,,,,,,,,,,,,",
"',,,,,,)),,,,,,)!,,!!,,,,,))!,,!),,,,,,,,,,'",
"))))))))))))))))))))))))))))))))))))))))))))",
"''''''''''''''''''''''''''''''''''''''''''''",
"~''''''~'''''''''''''''''''''''''''''~'''''~",
"~~~~~~~~~{]~~~~~~~~~~~~~~~~~~~~~~~~~~~~~]{~~",
"{{{{{{{{{{{{{{{{{{{{{{{{{{{{{{{{{{{{{{{{{{{{",
"^^^^^^^^]]/^^^^^^^^^^^^^^^^^^^^^]^^^^^]{/^^^",
"^^^^^^^^^/(^^^^^^^^^^^^^^^^^^^^^^(/^^^^/(/^^",
"//////////_//////////////////////_//////////",
"____________________________________________",
"(_________(__________________(_______(_____(",
"((((((((((((((((((((((((((((((((((((((((((((",
":<<<<<<<<<<<<<<<<<<<<<<<<<<<<<<<<<<<<<<<<<<:",
":<<<<<<<<<<<<<<<<<<<<<<<<<<<<<<<<<<<<<<<<<<:",
"::::::::::::::::::::::::::::::::::::::::::::",
"[[[[[[[[[[[[[[[[[[[[[[[[[[[[[[[[[[[[[[[[[[[[",
"}[[[[[[[[[[[[[[[[[[[[[[[[[[[[[[[[[[[[[[[[[[}",
"}}}}}}}}}}}}}}}}}}}}}}}}}}}}}}}}}}}}}}}}}}}}",
"||||||||||||||||||||||||||||||||||||||||||||",
"11111111111111111111111111111111111111111111",
"11111111111111111111111111111111111111111111",
"/^^^^^^^^^^^^^^^^^^^^^^^^^^^^^^^^^^^^^^^^^^/",
"(//////////////////////////////////////////(",
"22222222222222222222222222222222222222222222"};
