/* XPM */
static char * maximize_toggled_pressed_xpm[] = {
"44 38 484 2",
"  	c None",
". 	c #000000",
"+ 	c #505050",
"@ 	c #525252",
"# 	c #696969",
"$ 	c #6C6C6C",
"% 	c #515151",
"& 	c #565656",
"* 	c #4C4C4C",
"= 	c #4E4E4E",
"- 	c #4A4A4A",
"; 	c #49494A",
"> 	c #434345",
", 	c #3A3B3D",
"' 	c #343536",
") 	c #303031",
"! 	c #494A4A",
"~ 	c #494949",
"{ 	c #3F3B3A",
"] 	c #302D2B",
"^ 	c #252020",
"/ 	c #201C1A",
"( 	c #1D1A15",
"_ 	c #1B1814",
": 	c #1B1813",
"< 	c #252120",
"[ 	c #464646",
"} 	c #484848",
"| 	c #484849",
"1 	c #404041",
"2 	c #323031",
"3 	c #251E18",
"4 	c #201306",
"5 	c #1E1404",
"6 	c #221704",
"7 	c #251A07",
"8 	c #241B09",
"9 	c #241B08",
"0 	c #251A05",
"a 	c #221702",
"b 	c #201307",
"c 	c #251C18",
"d 	c #484949",
"e 	c #444444",
"f 	c #3F4040",
"g 	c #212222",
"h 	c #17110A",
"i 	c #1D1002",
"j 	c #2D1200",
"k 	c #3C1C00",
"l 	c #4E2F03",
"m 	c #583F0A",
"n 	c #5A430D",
"o 	c #5A420C",
"p 	c #583E08",
"q 	c #4F2E02",
"r 	c #3C1D00",
"s 	c #2F1000",
"t 	c #1E0E02",
"u 	c #170F0A",
"v 	c #3E3E40",
"w 	c #1D1D1A",
"x 	c #1A1407",
"y 	c #281200",
"z 	c #402602",
"A 	c #685408",
"B 	c #837A14",
"C 	c #918732",
"D 	c #998D50",
"E 	c #9B8E58",
"F 	c #9D8E59",
"G 	c #9C8C50",
"H 	c #958632",
"I 	c #857A14",
"J 	c #6C5408",
"K 	c #422602",
"L 	c #281100",
"M 	c #1D1C1A",
"N 	c #3D3E40",
"O 	c #3F3F3F",
"P 	c #414141",
"Q 	c #404040",
"R 	c #211F1F",
"S 	c #181308",
"T 	c #251600",
"U 	c #452A01",
"V 	c #765505",
"W 	c #998915",
"X 	c #A39D1F",
"Y 	c #A9A237",
"Z 	c #ABA355",
"` 	c #ACA35C",
" .	c #ADA35D",
"..	c #ADA356",
"+.	c #ABA337",
"@.	c #A59E1F",
"#.	c #9A8B14",
"$.	c #755704",
"%.	c #442A01",
"&.	c #251700",
"*.	c #201F1F",
"=.	c #3E3E3E",
"-.	c #2F2D2D",
";.	c #1B140E",
">.	c #1E1303",
",.	c #3C2401",
"'.	c #6F5605",
").	c #98840F",
"!.	c #A59818",
"~.	c #A8A220",
"{.	c #ABA430",
"].	c #ACA343",
"^.	c #ADA348",
"/.	c #AEA349",
"(.	c #AEA544",
"_.	c #ADA632",
":.	c #ABA320",
"<.	c #A79916",
"[.	c #98830C",
"}.	c #6E5605",
"|.	c #3C2501",
"1.	c #1F1403",
"2.	c #1B150E",
"3.	c #2E2B2B",
"4.	c #383939",
"5.	c #1F1913",
"6.	c #211204",
"7.	c #341902",
"8.	c #5A3B04",
"9.	c #856809",
"0.	c #A19112",
"a.	c #A89A18",
"b.	c #A89919",
"c.	c #A89716",
"d.	c #A89514",
"e.	c #A99414",
"f.	c #A99716",
"g.	c #A99B16",
"h.	c #AB9C17",
"i.	c #AC9C19",
"j.	c #AA9A15",
"k.	c #A1900F",
"l.	c #85680A",
"m.	c #5B3C05",
"n.	c #351A02",
"o.	c #231304",
"p.	c #1F1A13",
"q.	c #383839",
"r.	c #393939",
"s.	c #3B3B3B",
"t.	c #383A3A",
"u.	c #27272A",
"v.	c #1A130C",
"w.	c #2B1701",
"x.	c #4A2500",
"y.	c #6D4603",
"z.	c #896505",
"A.	c #9C7F0A",
"B.	c #A38A0D",
"C.	c #A58E0C",
"D.	c #A78D0C",
"E.	c #A88C0E",
"F.	c #A98D0E",
"G.	c #AA910E",
"H.	c #AA920E",
"I.	c #AA900D",
"J.	c #A88A0D",
"K.	c #A4880D",
"L.	c #9C7F0B",
"M.	c #8B6705",
"N.	c #6F4801",
"O.	c #4B2700",
"P.	c #2D1701",
"Q.	c #1A140B",
"R.	c #272829",
"S.	c #3A3A3A",
"T.	c #343538",
"U.	c #1D1B1E",
"V.	c #1B1305",
"W.	c #391E01",
"X.	c #5F3500",
"Y.	c #785000",
"Z.	c #8D6601",
"`.	c #997401",
" +	c #A07E02",
".+	c #A58402",
"++	c #A78703",
"@+	c #A88905",
"#+	c #A98A05",
"$+	c #AB8C05",
"%+	c #AC8B05",
"&+	c #AA8703",
"*+	c #A58102",
"=+	c #A07C02",
"-+	c #9A7502",
";+	c #8F6801",
">+	c #7A5200",
",+	c #613500",
"'+	c #1B1306",
")+	c #1C1B1D",
"!+	c #333436",
"~+	c #353535",
"{+	c #363636",
"]+	c #2F3034",
"^+	c #181818",
"/+	c #1B1404",
"(+	c #3F2801",
"_+	c #6E4700",
":+	c #835A00",
"<+	c #916800",
"[+	c #997300",
"}+	c #A07C00",
"|+	c #A58200",
"1+	c #A98600",
"2+	c #AA8901",
"3+	c #AB8A01",
"4+	c #AE8B01",
"5+	c #AD8A01",
"6+	c #AB8600",
"7+	c #A58000",
"8+	c #A07B00",
"9+	c #9B7400",
"0+	c #936B00",
"a+	c #825A00",
"b+	c #6E4600",
"c+	c #402801",
"d+	c #1B1405",
"e+	c #171718",
"f+	c #2D2F33",
"g+	c #333333",
"h+	c #2F2F31",
"i+	c #171715",
"j+	c #1A1606",
"k+	c #423001",
"l+	c #755300",
"m+	c #896300",
"n+	c #946E00",
"o+	c #9B7700",
"p+	c #A07D00",
"q+	c #AB8700",
"r+	c #AE8A00",
"s+	c #AF8B00",
"t+	c #AC8700",
"u+	c #A78200",
"v+	c #A37D00",
"w+	c #9F7700",
"x+	c #966F00",
"y+	c #8A6300",
"z+	c #765200",
"A+	c #433001",
"B+	c #1B1606",
"C+	c #161615",
"D+	c #2C2C30",
"E+	c #2C2C2F",
"F+	c #151514",
"G+	c #1C1709",
"H+	c #463507",
"I+	c #795A04",
"J+	c #8D6B00",
"K+	c #9B7A00",
"L+	c #A38200",
"M+	c #A88900",
"N+	c #AD8E00",
"O+	c #B29000",
"P+	c #B29300",
"Q+	c #B29200",
"R+	c #B09100",
"S+	c #A98900",
"T+	c #A48100",
"U+	c #9E7900",
"V+	c #916E00",
"W+	c #7B5C04",
"X+	c #1B1609",
"Y+	c #141413",
"Z+	c #2B2B2D",
"`+	c #2D2D2D",
" @	c #303030",
".@	c #2A2A2C",
"+@	c #1C180B",
"@@	c #45350A",
"#@	c #795D06",
"$@	c #947700",
"%@	c #A38400",
"&@	c #AD8D00",
"*@	c #B09300",
"=@	c #B39C00",
"-@	c #B59E01",
";@	c #B59E03",
">@	c #B59D04",
",@	c #B49B03",
"'@	c #B49B02",
")@	c #B39C01",
"!@	c #B39900",
"~@	c #B09400",
"{@	c #AB8D00",
"]@	c #A48600",
"^@	c #957800",
"/@	c #7A5D06",
"(@	c #1C160C",
"_@	c #131314",
":@	c #28282B",
"<@	c #2C2C2C",
"[@	c #2F2F2F",
"}@	c #171716",
"|@	c #1C180D",
"1@	c #42330A",
"2@	c #775D06",
"3@	c #987C00",
"4@	c #AA8A00",
"5@	c #B09200",
"6@	c #B39901",
"7@	c #B5A301",
"8@	c #B7A506",
"9@	c #B7A60E",
"0@	c #B7A60F",
"a@	c #B5A40E",
"b@	c #B4A30A",
"c@	c #B5A404",
"d@	c #B5A201",
"e@	c #B09500",
"f@	c #A88C00",
"g@	c #967B00",
"h@	c #765C06",
"i@	c #43330A",
"j@	c #151515",
"k@	c #1C1C1D",
"l@	c #1A180E",
"m@	c #382D0A",
"n@	c #6C5505",
"o@	c #987D00",
"p@	c #AC8F00",
"q@	c #B19701",
"r@	c #B49F03",
"s@	c #B6A809",
"t@	c #B7AA11",
"u@	c #B7AC17",
"v@	c #B7AD19",
"w@	c #B7AB19",
"x@	c #B6AA17",
"y@	c #B6AA11",
"z@	c #B4A303",
"A@	c #B19C01",
"B@	c #A99200",
"C@	c #937B00",
"D@	c #695205",
"E@	c #392D0A",
"F@	c #1B1B1D",
"G@	c #272727",
"H@	c #2A2A2A",
"I@	c #242425",
"J@	c #1A1710",
"K@	c #2D2407",
"L@	c #584404",
"M@	c #8F7902",
"N@	c #AA9601",
"O@	c #B19F02",
"P@	c #B4A603",
"Q@	c #B6AC0D",
"R@	c #B6B018",
"S@	c #B6B21E",
"T@	c #B6B31F",
"U@	c #B8B21F",
"V@	c #B8B11E",
"W@	c #B7AE18",
"X@	c #B4A905",
"Y@	c #B0A403",
"Z@	c #A79803",
"`@	c #8C7903",
" #	c #564304",
".#	c #191710",
"+#	c #232325",
"@#	c #282828",
"##	c #1C1B18",
"$#	c #1D190A",
"%#	c #352B05",
"&#	c #796B05",
"*#	c #9D8E05",
"=#	c #AD9F05",
"-#	c #B3A705",
";#	c #B5AB0E",
">#	c #B5B017",
",#	c #B5B21E",
"'#	c #B5B31F",
")#	c #B7B21F",
"!#	c #B7B11E",
"~#	c #B7AF17",
"{#	c #B5AB0D",
"]#	c #B3A807",
"^#	c #ADA206",
"/#	c #9C9006",
"(#	c #796C06",
"_#	c #342B05",
":#	c #1A1A17",
"<#	c #262626",
"[#	c #222323",
"}#	c #13120E",
"|#	c #1E1B0C",
"1#	c #483F0A",
"2#	c #716B09",
"3#	c #9F980A",
"4#	c #ACA309",
"5#	c #B0A70E",
"6#	c #B2AE15",
"7#	c #B3B11C",
"8#	c #B3B31F",
"9#	c #B5B21F",
"0#	c #B5B11C",
"a#	c #B4AE15",
"b#	c #B0A70D",
"c#	c #ADA308",
"d#	c #A19808",
"e#	c #756D08",
"f#	c #49410A",
"g#	c #12120E",
"h#	c #222223",
"i#	c #202020",
"j#	c #232323",
"k#	c #1B1B1E",
"l#	c #111010",
"m#	c #1B170D",
"n#	c #4A460B",
"o#	c #75730B",
"p#	c #908C0B",
"q#	c #9E960E",
"r#	c #A8A514",
"s#	c #ACAC1A",
"t#	c #ADAE1B",
"u#	c #ADAE1A",
"v#	c #A8A314",
"w#	c #948D09",
"x#	c #7C7709",
"y#	c #4D4909",
"z#	c #1B190D",
"A#	c #222222",
"B#	c #1A1A1B",
"C#	c #121210",
"D#	c #1D1B0D",
"E#	c #33300B",
"F#	c #554F0C",
"G#	c #6D6611",
"H#	c #898612",
"I#	c #969715",
"J#	c #999B16",
"K#	c #999A14",
"L#	c #969614",
"M#	c #898513",
"N#	c #6D6612",
"O#	c #58500B",
"P#	c #37330B",
"Q#	c #1F1F1F",
"R#	c #161619",
"S#	c #28240D",
"T#	c #322E10",
"U#	c #484710",
"V#	c #5C5E0F",
"W#	c #60630F",
"X#	c #60610E",
"Y#	c #5C5C0E",
"Z#	c #484611",
"`#	c #322E11",
" $	c #28240E",
".$	c #1B190E",
"+$	c #1A1A1A",
"@$	c #1C1C1C",
"#$	c #19191C",
"$$	c #131313",
"%$	c #13120F",
"&$	c #14130D",
"*$	c #20210D",
"=$	c #27290E",
"-$	c #292B0D",
";$	c #292A0D",
">$	c #27280D",
",$	c #201F0E",
"'$	c #14130F",
")$	c #131210",
"!$	c #131213",
"~$	c #141414",
"{$	c #0F0F11",
"]$	c #0D0D0F",
"^$	c #0B0B0E",
"/$	c #161616",
"($	c #101010",
"_$	c #0C0C0C",
". . . . . . . . . . . . . . . . . . . . . . . . . . . . . . . . . . . . . . . . . . . . ",
"+ @ @ @ @ @ @ @ @ @ @ @ @ @ @ @ @ @ @ @ @ @ @ @ @ @ @ @ @ @ @ @ @ @ @ @ @ @ @ @ @ @ @ + ",
"# $ $ $ $ $ $ $ $ $ $ $ $ $ $ $ $ $ $ $ $ $ $ $ $ $ $ $ $ $ $ $ $ $ $ $ $ $ $ $ $ $ $ # ",
"% & & & & & & & & & & & & & & & & & & & & & & & & & & & & & & & & & & & & & & & & & & % ",
"+ @ @ @ @ @ @ @ @ @ @ @ @ @ @ @ @ @ @ @ @ @ @ @ @ @ @ @ @ @ @ @ @ @ @ @ @ @ @ @ @ @ @ + ",
"+ + + + + + + + + + + + + + + + + + + + + + + + + + + + + + + + + + + + + + + + + + + + ",
"* = = = = = = = = = = = = = = = = = = = = = = = = = = = = = = = = = = = = = = = = = = * ",
"- * * * * * * * * * * * * * * * * ; > , ' ) ) ' , > ! * * * * * * * * * * * * * * * * - ",
"- - - - - - - - - - - - - - - ~ { ] ^ / ( _ : ( / < ] { ~ - - - - - - - - - - - - - - - ",
"[ } } } } } } } } } } } } | 1 2 3 4 5 6 7 8 9 0 a 5 b c 2 1 d } } } } } } } } } } } } [ ",
"e [ [ [ [ [ [ [ [ [ [ [ [ f g h i j k l m n o p q r s t u g f [ [ [ [ [ [ [ [ [ [ [ [ e ",
"e e e e e e e e e e e e v w x y z A B C D E F G H I J K L x M N e e e e e e e e e e e e ",
"O P P P P P P P P P P Q R S T U V W X Y Z `  ...+.@.#.$.%.&.S *.f P P P P P P P P P P O ",
"=.Q Q Q Q Q Q Q Q Q Q -.;.>.,.'.).!.~.{.].^./.(._.:.<.[.}.|.1.2.3.Q Q Q Q Q Q Q Q Q Q =.",
"=.=.=.=.=.=.=.=.=.=.4.5.6.7.8.9.0.a.b.c.d.e.f.g.h.i.j.k.l.m.n.o.p.q.=.=.=.=.=.=.=.=.=.=.",
"r.s.s.s.s.s.s.s.s.t.u.v.w.x.y.z.A.B.C.D.E.F.G.H.I.J.K.L.M.N.O.P.Q.R.t.s.s.s.s.s.s.s.s.r.",
"r.r.r.r.r.r.r.r.S.T.U.V.W.X.Y.Z.`. +.+++@+#+$+%+&+*+=+-+;+>+,+W.'+)+!+r.r.r.r.r.r.r.r.r.",
"~+{+{+{+{+{+{+{+{+]+^+/+(+_+:+<+[+}+|+1+2+3+4+5+6+7+8+9+0+a+b+c+d+e+f+{+{+{+{+{+{+{+{+~+",
"g+~+~+~+~+~+~+~+~+h+i+j+k+l+m+n+o+p+|+q+r+s+s+r+t+u+v+w+x+y+z+A+B+C+D+~+~+~+~+~+~+~+~+g+",
"g+g+g+g+g+g+g+g+g+E+F+G+H+I+J+K+L+M+N+O+P+P+Q+Q+R+N+S+T+U+V+W+H+X+Y+Z+g+g+g+g+g+g+g+g+g+",
"`+ @ @ @ @ @ @ @ @.@C++@@@#@$@%@&@*@=@-@;@>@,@'@)@!@~@{@]@^@/@@@(@_@:@ @ @ @ @ @ @ @ @`+",
"<@[@[@[@[@[@[@[@[@.@}@|@1@2@3@4@5@6@7@8@9@0@a@b@c@d@=@e@f@g@h@i@|@j@:@[@[@[@[@[@[@[@[@<@",
"<@<@<@<@<@<@<@<@<@:@k@l@m@n@o@p@q@r@s@t@u@v@w@x@y@s@z@A@B@C@D@E@l@F@:@<@<@<@<@<@<@<@<@<@",
"G@H@H@H@H@H@H@H@H@H@I@J@K@L@M@N@O@P@Q@R@S@T@U@V@W@Q@X@Y@Z@`@ #K@.#+#H@H@H@H@H@H@H@H@H@G@",
"G@G@G@G@G@G@G@G@G@G@@###$#%#&#*#=#-#;#>#,#'#)#!#~#{#]#^#/#(#_#$#:#G@G@G@G@G@G@G@G@G@G@G@",
"<#<#<#<#<#<#<#<#<#<#<#[#}#|#1#2#3#4#5#6#7#8#9#0#a#b#c#d#e#f#|#g#h#<#<#<#<#<#<#<#<#<#<#<#",
"i#j#j#j#j#j#j#j#j#j#j#j#k#l#m#n#o#p#q#r#s#t#u#s#v#q#w#x#y#z#l#F@j#j#j#j#j#j#j#j#j#j#j#i#",
"i#i#i#i#i#i#i#i#i#i#i#i#A#B#C#D#E#F#G#H#I#J#K#L#M#N#O#P#D#C#B#A#i#i#i#i#i#i#i#i#i#i#i#i#",
"Q#Q#Q#Q#Q#Q#Q#Q#Q#Q#Q#Q#Q#Q#R#C#z#S#T#U#V#W#X#Y#Z#`# $.$C#R#Q#Q#Q#Q#Q#Q#Q#Q#Q#Q#Q#Q#Q#Q#",
"+$@$@$@$@$@$@$@$@$@$@$@$@$@$@$#$$$%$&$*$=$-$;$>$,$'$)$!$#$@$@$@$@$@$@$@$@$@$@$@$@$@$@$+$",
"+$+$+$+$+$+$+$+$+$+$+$+$+$+$+$+$+$^+~${$]$^$^$]${$~$^++$+$+$+$+$+$+$+$+$+$+$+$+$+$+$+$+$",
"~$^+^+^+^+^+^+^+^+^+^+^+^+^+^+^+^+^+^+^+e+e+e+e+^+^+^+^+^+^+^+^+^+^+^+^+^+^+^+^+^+^+^+~$",
"$$/$/$/$/$/$/$/$/$/$/$/$/$/$/$/$/$/$/$/$/$/$/$/$/$/$/$/$/$/$/$/$/$/$/$/$/$/$/$/$/$/$/$$$",
"($$$$$$$$$$$$$$$$$$$$$$$$$$$$$$$$$$$$$$$$$$$$$$$$$$$$$$$$$$$$$$$$$$$$$$$$$$$$$$$$$$$$$($",
"($$$$$$$$$$$$$$$$$$$$$$$$$$$$$$$$$$$$$$$$$$$$$$$$$$$$$$$$$$$$$$$$$$$$$$$$$$$$$$$$$$$$$($",
"A#j#j#j#j#j#j#j#j#j#j#j#j#j#j#j#j#j#j#j#j#j#j#j#j#j#j#j#j#j#j#j#j#j#j#j#j#j#j#j#j#j#j#A#",
"Q#A#A#A#A#A#A#A#A#A#A#A#A#A#A#A#A#A#A#A#A#A#A#A#A#A#A#A#A#A#A#A#A#A#A#A#A#A#A#A#A#A#A#Q#",
"_$_$_$_$_$_$_$_$_$_$_$_$_$_$_$_$_$_$_$_$_$_$_$_$_$_$_$_$_$_$_$_$_$_$_$_$_$_$_$_$_$_$_$_$"};
