/* XPM */
static char * maximize_pressed_xpm[] = {
"44 38 485 2",
"  	c None",
". 	c #000000",
"+ 	c #505050",
"@ 	c #525252",
"# 	c #696969",
"$ 	c #6C6C6C",
"% 	c #515151",
"& 	c #565656",
"* 	c #4C4C4C",
"= 	c #4E4E4E",
"- 	c #4A4A4A",
"; 	c #484949",
"> 	c #404343",
", 	c #383A3B",
"' 	c #303333",
") 	c #2B2C2C",
"! 	c #494848",
"~ 	c #3E3838",
"{ 	c #2F2829",
"] 	c #251E1E",
"^ 	c #241818",
"/ 	c #231614",
"( 	c #221514",
"_ 	c #221513",
": 	c #2F2929",
"< 	c #464646",
"[ 	c #484848",
"} 	c #3E403F",
"| 	c #312D2F",
"1 	c #261515",
"2 	c #240706",
"3 	c #250803",
"4 	c #300B06",
"5 	c #380F0A",
"6 	c #39130D",
"7 	c #39130C",
"8 	c #380F09",
"9 	c #300B05",
"0 	c #240906",
"a 	c #261615",
"b 	c #3E3F3F",
"c 	c #444444",
"d 	c #3E3F3E",
"e 	c #212121",
"f 	c #1A0909",
"g 	c #220403",
"h 	c #3B0402",
"i 	c #500D02",
"j 	c #6A1A10",
"k 	c #7C271A",
"l 	c #802B1B",
"m 	c #7C2719",
"n 	c #6A190E",
"o 	c #510E02",
"p 	c #3C0402",
"q 	c #1A0A09",
"r 	c #3E3E3E",
"s 	c #3D3F3F",
"t 	c #1C1818",
"u 	c #190807",
"v 	c #3C0400",
"w 	c #661607",
"x 	c #8D3D1B",
"y 	c #A06137",
"z 	c #AD7759",
"A 	c #B7806B",
"B 	c #BA8271",
"C 	c #B98273",
"D 	c #B7806D",
"E 	c #AE775C",
"F 	c #A56239",
"G 	c #903D1B",
"H 	c #3C0500",
"I 	c #190707",
"J 	c #3B3F3F",
"K 	c #3F3F3F",
"L 	c #414141",
"M 	c #3F4040",
"N 	c #211E1F",
"O 	c #1B0909",
"P 	c #360601",
"Q 	c #621807",
"R 	c #9D3818",
"S 	c #B66737",
"T 	c #BD7E4D",
"U 	c #C28C63",
"V 	c #C58F72",
"W 	c #C59076",
"X 	c #C39177",
"Y 	c #C39073",
"Z 	c #C28C67",
"` 	c #BF7F50",
" .	c #B76839",
"..	c #9B3819",
"+.	c #611907",
"@.	c #1B0A09",
"#.	c #211E1E",
"$.	c #404040",
"%.	c #2F2B2B",
"&.	c #1D0C0C",
"*.	c #2A0702",
"=.	c #660F01",
"-.	c #963619",
";.	c #B45E34",
">.	c #BD7647",
",.	c #C18250",
"'.	c #C38B5F",
").	c #C48B67",
"!.	c #C48B69",
"~.	c #C38C69",
"{.	c #C38C68",
"].	c #C38B61",
"^.	c #C28152",
"/.	c #BD7446",
"(.	c #B35E34",
"_.	c #943819",
":.	c #2B0602",
"<.	c #1D0A0B",
"[.	c #2E2A2A",
"}.	c #383939",
"|.	c #1F1512",
"1.	c #260602",
"2.	c #470700",
"3.	c #881D05",
"4.	c #AF4020",
"5.	c #BA683F",
"6.	c #BE7849",
"7.	c #BF7B4A",
"8.	c #BF7847",
"9.	c #BF7345",
"0.	c #BF7144",
"a.	c #BF7344",
"b.	c #BF7544",
"c.	c #BF7746",
"d.	c #BF7848",
"e.	c #BE7548",
"f.	c #AF4320",
"g.	c #8B1E05",
"h.	c #480600",
"i.	c #260502",
"j.	c #393939",
"k.	c #3B3B3B",
"l.	c #383A3A",
"m.	c #27292A",
"n.	c #1B0E0B",
"o.	c #340601",
"p.	c #650901",
"q.	c #992008",
"r.	c #B03819",
"s.	c #B9522E",
"t.	c #BC6237",
"u.	c #BD683A",
"v.	c #BD683C",
"w.	c #BD673D",
"x.	c #BD673E",
"y.	c #BF6A3E",
"z.	c #BF693D",
"A.	c #BF683B",
"B.	c #BD6439",
"C.	c #BC5F37",
"D.	c #B9552D",
"E.	c #B43C18",
"F.	c #9C2108",
"G.	c #670801",
"H.	c #340501",
"I.	c #1B0E0A",
"J.	c #272929",
"K.	c #3A3A3A",
"L.	c #333838",
"M.	c #1D1C1E",
"N.	c #220B07",
"O.	c #4A0701",
"P.	c #880D01",
"Q.	c #A62409",
"R.	c #B33713",
"S.	c #B9441E",
"T.	c #BB4F26",
"U.	c #BD562A",
"V.	c #BE5B30",
"W.	c #BE5F32",
"X.	c #BE6033",
"Y.	c #C06133",
"Z.	c #C06032",
"`.	c #BF5C30",
" +	c #BD542A",
".+	c #BB4E26",
"++	c #B9461F",
"@+	c #B53914",
"#+	c #A72509",
"$+	c #890D01",
"%+	c #4B0701",
"&+	c #1D1B1D",
"*+	c #333636",
"=+	c #353535",
"-+	c #363636",
";+	c #2F3334",
">+	c #191618",
",+	c #2B0B06",
"'+	c #610C01",
")+	c #9A1501",
"!+	c #AF290A",
"~+	c #B73912",
"{+	c #BB4219",
"]+	c #BB4A1E",
"^+	c #BD5123",
"/+	c #C0572A",
"(+	c #C05C2D",
"_+	c #C05D2E",
":+	c #C25C2E",
"<+	c #C25B2D",
"[+	c #BF582A",
"}+	c #BD5024",
"|+	c #BB4B20",
"1+	c #BB441B",
"2+	c #B63913",
"3+	c #AE290A",
"4+	c #620D01",
"5+	c #2B0C06",
"6+	c #181517",
"7+	c #2D3033",
"8+	c #333333",
"9+	c #2F3031",
"0+	c #181515",
"a+	c #2F0E08",
"b+	c #6D1703",
"c+	c #A12603",
"d+	c #B3320C",
"e+	c #BA3C13",
"f+	c #BE4318",
"g+	c #BF491C",
"h+	c #C05021",
"i+	c #C15728",
"j+	c #C35B2C",
"k+	c #C45C2D",
"l+	c #C45B2D",
"m+	c #C35A2C",
"n+	c #C05022",
"o+	c #BF4B1E",
"p+	c #BE451A",
"q+	c #A22704",
"r+	c #6D1804",
"s+	c #2F1008",
"t+	c #171414",
"u+	c #2C2D2F",
"v+	c #2C2C2F",
"w+	c #161413",
"x+	c #34110A",
"y+	c #741E07",
"z+	c #A43308",
"A+	c #B53D11",
"B+	c #BC4818",
"C+	c #C14F1E",
"D+	c #C45523",
"E+	c #C55A28",
"F+	c #C6602D",
"G+	c #C7622F",
"H+	c #C96230",
"I+	c #C66230",
"J+	c #C5612F",
"K+	c #C55F2D",
"L+	c #C45B28",
"M+	c #C35523",
"N+	c #C24F1E",
"O+	c #BE4617",
"P+	c #B83D10",
"Q+	c #A63308",
"R+	c #721F07",
"S+	c #33110A",
"T+	c #151213",
"U+	c #2B2C2D",
"V+	c #2D2D2D",
"W+	c #303030",
"X+	c #2A2B2C",
"Y+	c #171514",
"Z+	c #33120B",
"`+	c #701F0B",
" @	c #A3360C",
".@	c #B74515",
"+@	c #C0501E",
"@@	c #C45828",
"#@	c #C75F2D",
"$@	c #C86830",
"%@	c #C96A34",
"&@	c #C96C36",
"*@	c #C96C37",
"=@	c #C96B36",
"-@	c #C76934",
";@	c #C6672F",
">@	c #C5612A",
",@	c #C55926",
"'@	c #C1521E",
")@	c #B84715",
"!@	c #A5360D",
"~@	c #6F1F0B",
"{@	c #32120B",
"]@	c #151314",
"^@	c #28282B",
"/@	c #2C2C2C",
"(@	c #2F2F2F",
"_@	c #2A2A2C",
":@	c #181616",
"<@	c #2B120D",
"[@	c #5D1F0C",
"}@	c #9D360E",
"|@	c #B64A18",
"1@	c #C15723",
"2@	c #C45F2D",
"3@	c #C76833",
"4@	c #C97137",
"5@	c #C9773F",
"6@	c #C97942",
"7@	c #C97A43",
"8@	c #CA7842",
"9@	c #CA7841",
"0@	c #C9763D",
"a@	c #C87138",
"b@	c #C66A32",
"c@	c #C5632C",
"d@	c #C15A24",
"e@	c #B64C1A",
"f@	c #9E360E",
"g@	c #611F0C",
"h@	c #29120D",
"i@	c #161415",
"j@	c #282A2B",
"k@	c #1C1B1C",
"l@	c #1B140E",
"m@	c #441E0C",
"n@	c #82330E",
"o@	c #AF4D1B",
"p@	c #C05D26",
"q@	c #C4662F",
"r@	c #C76E36",
"s@	c #C9773D",
"t@	c #C98149",
"u@	c #C9854E",
"v@	c #C9864F",
"w@	c #CA844F",
"x@	c #CA834D",
"y@	c #CA8048",
"z@	c #C9793E",
"A@	c #C77236",
"B@	c #C46B2F",
"C@	c #C06127",
"D@	c #B04E1C",
"E@	c #83330E",
"F@	c #441F0C",
"G@	c #1C140F",
"H@	c #1B1B1C",
"I@	c #272727",
"J@	c #2A2A2A",
"K@	c #232425",
"L@	c #1A1610",
"M@	c #321B09",
"N@	c #692C0B",
"O@	c #A7501E",
"P@	c #BF652A",
"Q@	c #C56D31",
"R@	c #C87437",
"S@	c #C97D43",
"T@	c #C9884F",
"U@	c #C98D54",
"V@	c #C98F56",
"W@	c #CA8C57",
"X@	c #CA8955",
"Y@	c #CA8550",
"Z@	c #CA8043",
"`@	c #C77937",
" #	c #C37231",
".#	c #BE672A",
"+#	c #6A2C0B",
"@#	c #282828",
"##	c #1B1A17",
"$#	c #1F150A",
"%#	c #401E0A",
"&#	c #914B1A",
"*#	c #B46025",
"=#	c #C36D2F",
"-#	c #C77739",
";#	c #C87D43",
">#	c #C8884F",
",#	c #C88D54",
"'#	c #C88E56",
")#	c #CA8D57",
"!#	c #CA8B56",
"~#	c #CA8750",
"{#	c #C97F43",
"]#	c #C67938",
"^#	c #C0712F",
"/#	c #B36226",
"(#	c #924A1A",
"_#	c #411E0A",
":#	c #262626",
"<#	c #222323",
"[#	c #13100E",
"}#	c #23160C",
"|#	c #592F11",
"1#	c #8B4A19",
"2#	c #B86929",
"3#	c #C27639",
"4#	c #C47C41",
"5#	c #C6874E",
"6#	c #C68B54",
"7#	c #C68C56",
"8#	c #C88C57",
"9#	c #C88B54",
"0#	c #C8864E",
"a#	c #C57D41",
"b#	c #C17838",
"c#	c #B56C28",
"d#	c #8C4C1A",
"e#	c #5B2E11",
"f#	c #24160C",
"g#	c #202020",
"h#	c #232323",
"i#	c #1A1A1E",
"j#	c #111110",
"k#	c #22150E",
"l#	c #5D3412",
"m#	c #925420",
"n#	c #AA6930",
"o#	c #B47236",
"p#	c #BD8044",
"q#	c #C18851",
"r#	c #C28A54",
"s#	c #C48B53",
"t#	c #C3894D",
"u#	c #BE8043",
"v#	c #AA6A30",
"w#	c #945620",
"x#	c #5E3413",
"y#	c #21150E",
"z#	c #121110",
"A#	c #1A1A1D",
"B#	c #222223",
"C#	c #18181A",
"D#	c #131110",
"E#	c #23160E",
"F#	c #43270F",
"G#	c #693D14",
"H#	c #87501D",
"I#	c #A4692D",
"J#	c #B0783D",
"K#	c #B37B41",
"L#	c #B47C42",
"M#	c #B1793D",
"N#	c #A66B2E",
"O#	c #874F1E",
"P#	c #6A3D15",
"Q#	c #46270F",
"R#	c #1F1F1F",
"S#	c #161619",
"T#	c #12110F",
"U#	c #1E170E",
"V#	c #311D0E",
"W#	c #412511",
"X#	c #623918",
"Y#	c #7B4B1E",
"Z#	c #804F20",
"`#	c #7F5120",
" $	c #7B4C1F",
".$	c #643919",
"+$	c #1A1A1A",
"@$	c #1C1C1C",
"#$	c #191B1C",
"$$	c #131313",
"%$	c #15100F",
"&$	c #16110D",
"*$	c #281B0F",
"=$	c #372211",
"-$	c #3A2311",
";$	c #3A2511",
">$	c #372311",
",$	c #2A1A10",
"'$	c #17110D",
")$	c #181818",
"!$	c #141414",
"~$	c #101111",
"{$	c #0E0E0F",
"]$	c #0D0D0E",
"^$	c #171717",
"/$	c #161616",
"($	c #101010",
"_$	c #222222",
":$	c #0C0C0C",
". . . . . . . . . . . . . . . . . . . . . . . . . . . . . . . . . . . . . . . . . . . . ",
"+ @ @ @ @ @ @ @ @ @ @ @ @ @ @ @ @ @ @ @ @ @ @ @ @ @ @ @ @ @ @ @ @ @ @ @ @ @ @ @ @ @ @ + ",
"# $ $ $ $ $ $ $ $ $ $ $ $ $ $ $ $ $ $ $ $ $ $ $ $ $ $ $ $ $ $ $ $ $ $ $ $ $ $ $ $ $ $ # ",
"% & & & & & & & & & & & & & & & & & & & & & & & & & & & & & & & & & & & & & & & & & & % ",
"+ @ @ @ @ @ @ @ @ @ @ @ @ @ @ @ @ @ @ @ @ @ @ @ @ @ @ @ @ @ @ @ @ @ @ @ @ @ @ @ @ @ @ + ",
"+ + + + + + + + + + + + + + + + + + + + + + + + + + + + + + + + + + + + + + + + + + + + ",
"* = = = = = = = = = = = = = = = = = = = = = = = = = = = = = = = = = = = = = = = = = = * ",
"- * * * * * * * * * * * * * * * * ; > , ' ) ) ' , > ; * * * * * * * * * * * * * * * * - ",
"- - - - - - - - - - - - - - - ! ~ { ] ^ / ( _ / ^ ] : ~ ! - - - - - - - - - - - - - - - ",
"< [ [ [ [ [ [ [ [ [ [ [ [ ; } | 1 2 3 4 5 6 7 8 9 3 0 a | b ; [ [ [ [ [ [ [ [ [ [ [ [ < ",
"c < < < < < < < < < < < < d e f g h i j k l l m n o p g q e r < < < < < < < < < < < < c ",
"c c c c c c c c c c c c s t u v w x y z A B C D E F G w H I t J c c c c c c c c c c c c ",
"K L L L L L L L L L L M N O P Q R S T U V W X Y Z `  ...+.P @.#.M L L L L L L L L L L K ",
"r $.$.$.$.$.$.$.$.$.$.%.&.*.=.-.;.>.,.'.).!.~.{.].^./.(._.=.:.<.[.$.$.$.$.$.$.$.$.$.$.r ",
"r r r r r r r r r r }.|.1.2.3.4.5.6.7.8.9.0.a.b.c.d.e.5.f.g.h.i.|.}.r r r r r r r r r r ",
"j.k.k.k.k.k.k.k.k.l.m.n.o.p.q.r.s.t.u.v.w.x.y.z.A.B.C.D.E.F.G.H.I.J.l.k.k.k.k.k.k.k.k.j.",
"j.j.j.j.j.j.j.j.K.L.M.N.O.P.Q.R.S.T.U.V.W.X.Y.Z.`. +.+++@+#+$+%+N.&+*+j.j.j.j.j.j.j.j.j.",
"=+-+-+-+-+-+-+-+-+;+>+,+'+)+!+~+{+]+^+/+(+_+:+<+[+}+|+1+2+3+)+4+5+6+7+-+-+-+-+-+-+-+-+=+",
"8+=+=+=+=+=+=+=+=+9+0+a+b+c+d+e+f+g+h+i+j+k+l+m+i+n+o+p+e+d+q+r+s+t+u+=+=+=+=+=+=+=+=+8+",
"8+8+8+8+8+8+8+8+8+v+w+x+y+z+A+B+C+D+E+F+G+H+I+J+K+L+M+N+O+P+Q+R+S+T+U+8+8+8+8+8+8+8+8+8+",
"V+W+W+W+W+W+W+W+W+X+Y+Z+`+ @.@+@@@#@$@%@&@*@*@=@-@;@>@,@'@)@!@~@{@]@^@W+W+W+W+W+W+W+W+V+",
"/@(@(@(@(@(@(@(@(@_@:@<@[@}@|@1@2@3@4@5@6@7@8@9@0@a@b@c@d@e@f@g@h@i@^@(@(@(@(@(@(@(@(@/@",
"/@/@/@/@/@/@/@/@/@j@k@l@m@n@o@p@q@r@s@t@u@v@w@x@y@z@A@B@C@D@E@F@G@H@j@/@/@/@/@/@/@/@/@/@",
"I@J@J@J@J@J@J@J@J@J@K@L@M@N@O@P@Q@R@S@T@U@V@W@X@Y@Z@`@ #.#O@+#M@L@K@J@J@J@J@J@J@J@J@J@I@",
"I@I@I@I@I@I@I@I@I@I@@###$#%#&#*#=#-#;#>#,#'#)#!#~#{#]#^#/#(#_#$###I@I@I@I@I@I@I@I@I@I@I@",
":#:#:#:#:#:#:#:#:#:#:#<#[#}#|#1#2#3#4#5#6#7#8#9#0#a#b#c#d#e#f#[#<#:#:#:#:#:#:#:#:#:#:#:#",
"g#h#h#h#h#h#h#h#h#h#h#h#i#j#k#l#m#n#o#p#q#r#s#t#u#o#v#w#x#y#z#A#h#h#h#h#h#h#h#h#h#h#h#g#",
"g#g#g#g#g#g#g#g#g#g#g#g#B#C#D#E#F#G#H#I#J#K#L#M#N#O#P#Q#E#D#C#B#g#g#g#g#g#g#g#g#g#g#g#g#",
"R#R#R#R#R#R#R#R#R#R#R#R#R#R#S#T#U#V#W#X#Y#Z#`# $.$W#V#U#T#S#R#R#R#R#R#R#R#R#R#R#R#R#R#R#",
"+$@$@$@$@$@$@$@$@$@$@$@$@$@$@$#$$$%$&$*$=$-$;$>$,$'$%$$$#$@$@$@$@$@$@$@$@$@$@$@$@$@$@$+$",
"+$+$+$+$+$+$+$+$+$+$+$+$+$+$+$+$+$)$!$~${$]$]${$~$!$)$+$+$+$+$+$+$+$+$+$+$+$+$+$+$+$+$+$",
"!$)$)$)$)$)$)$)$)$)$)$)$)$)$)$)$)$)$)$^$^$^$^$^$^$)$)$)$)$)$)$)$)$)$)$)$)$)$)$)$)$)$)$!$",
"$$/$/$/$/$/$/$/$/$/$/$/$/$/$/$/$/$/$/$/$/$/$/$/$/$/$/$/$/$/$/$/$/$/$/$/$/$/$/$/$/$/$/$$$",
"($$$$$$$$$$$$$$$$$$$$$$$$$$$$$$$$$$$$$$$$$$$$$$$$$$$$$$$$$$$$$$$$$$$$$$$$$$$$$$$$$$$$$($",
"($$$$$$$$$$$$$$$$$$$$$$$$$$$$$$$$$$$$$$$$$$$$$$$$$$$$$$$$$$$$$$$$$$$$$$$$$$$$$$$$$$$$$($",
"_$h#h#h#h#h#h#h#h#h#h#h#h#h#h#h#h#h#h#h#h#h#h#h#h#h#h#h#h#h#h#h#h#h#h#h#h#h#h#h#h#h#h#_$",
"R#_$_$_$_$_$_$_$_$_$_$_$_$_$_$_$_$_$_$_$_$_$_$_$_$_$_$_$_$_$_$_$_$_$_$_$_$_$_$_$_$_$_$R#",
":$:$:$:$:$:$:$:$:$:$:$:$:$:$:$:$:$:$:$:$:$:$:$:$:$:$:$:$:$:$:$:$:$:$:$:$:$:$:$:$:$:$:$:$"};
