/* XPM */
static char * maximize_toggled_prelight_xpm[] = {
"44 38 422 2",
"  	c None",
". 	c #000000",
"+ 	c #505050",
"@ 	c #525252",
"# 	c #696969",
"$ 	c #6C6C6C",
"% 	c #515151",
"& 	c #565656",
"* 	c #4C4C4C",
"= 	c #4E4E4E",
"- 	c #4A4A4A",
"; 	c #484848",
"> 	c #404041",
", 	c #363839",
"' 	c #303033",
") 	c #2B2B2D",
"! 	c #484949",
"~ 	c #3B3D3E",
"{ 	c #313030",
"] 	c #2B2724",
"^ 	c #2C2722",
"/ 	c #2B261F",
"( 	c #29251D",
"_ 	c #464646",
": 	c #3F3F3F",
"< 	c #323131",
"[ 	c #2F2825",
"} 	c #302820",
"| 	c #392C1F",
"1 	c #4B3B27",
"2 	c #51432B",
"3 	c #50432B",
"4 	c #444444",
"5 	c #222121",
"6 	c #1F1A17",
"7 	c #38281C",
"8 	c #5F472D",
"9 	c #7D633B",
"0 	c #9E8052",
"a 	c #AD9363",
"b 	c #B19867",
"c 	c #B09866",
"d 	c #AC9362",
"e 	c #9E7F51",
"f 	c #5F462D",
"g 	c #38271C",
"h 	c #201A17",
"i 	c #3D3D3D",
"j 	c #1F1E1D",
"k 	c #261E19",
"l 	c #563725",
"m 	c #875F3B",
"n 	c #B7A356",
"o 	c #D3CD65",
"p 	c #E6D984",
"q 	c #EFDFA2",
"r 	c #F1E1AB",
"s 	c #F1E2AC",
"t 	c #EEE0A3",
"u 	c #B9A556",
"v 	c #88623B",
"w 	c #573925",
"x 	c #271E19",
"y 	c #1F1F1D",
"z 	c #414141",
"A 	c #3F3F40",
"B 	c #252421",
"C 	c #241D19",
"D 	c #4C3B28",
"E 	c #88673C",
"F 	c #D1AB58",
"G 	c #EFE26A",
"H 	c #F7F274",
"I 	c #FCF48A",
"J 	c #FDF4A6",
"K 	c #FEF4AE",
"L 	c #FEF5AF",
"M 	c #FDF5A7",
"N 	c #FCF58B",
"O 	c #FAF275",
"P 	c #F0E16A",
"Q 	c #D1AE57",
"R 	c #89693B",
"S 	c #4D3B28",
"T 	c #241E19",
"U 	c #242220",
"V 	c #3E3F3F",
"W 	c #3E3E3E",
"X 	c #404040",
"Y 	c #2F2F2F",
"Z 	c #251F1B",
"` 	c #3C2D20",
" .	c #806845",
"..	c #C5AB58",
"+.	c #EFDB64",
"@.	c #FBEE6D",
"#.	c #FEF675",
"$.	c #FFF685",
"%.	c #FFF692",
"&.	c #FFF497",
"*.	c #FFF698",
"=.	c #FFF794",
"-.	c #FFF786",
";.	c #FFF776",
">.	c #FCED6D",
",.	c #F0DA63",
"'.	c #C4AB58",
").	c #816846",
"!.	c #3D2D20",
"~.	c #261F1A",
"{.	c #2F2E2E",
"].	c #383838",
"^.	c #24201F",
"/.	c #382920",
"(.	c #654A32",
"_.	c #A58752",
":.	c #DFC462",
"<.	c #F7E767",
"[.	c #FDEF6C",
"}.	c #FFF06E",
"|.	c #FFEF6D",
"1.	c #FFEB69",
"2.	c #FFEA69",
"3.	c #FFEC69",
"4.	c #FFF06A",
"5.	c #FFF16D",
"6.	c #FEEE6B",
"7.	c #F8E567",
"8.	c #DFC362",
"9.	c #A88853",
"0.	c #674B33",
"a.	c #3B2B20",
"b.	c #26211F",
"c.	c #393939",
"d.	c #3B3B3B",
"e.	c #363638",
"f.	c #282727",
"g.	c #221D18",
"h.	c #503924",
"i.	c #8B6541",
"j.	c #C09856",
"k.	c #E2BD5C",
"l.	c #F2D460",
"m.	c #F9DF63",
"n.	c #FDE363",
"o.	c #FFE362",
"p.	c #FFE162",
"q.	c #FFE462",
"r.	c #FFE762",
"s.	c #FFE562",
"t.	c #FDDF62",
"u.	c #F9DC61",
"v.	c #F2D560",
"w.	c #E2C05C",
"x.	c #C29A55",
"y.	c #8D663F",
"z.	c #503A24",
"A.	c #3A3A3A",
"B.	c #333334",
"C.	c #1E1D1D",
"D.	c #2E2219",
"E.	c #71502E",
"F.	c #B2854A",
"G.	c #CFA555",
"H.	c #E5BC57",
"I.	c #F0CA57",
"J.	c #F7D457",
"K.	c #FCDA58",
"L.	c #FFDD59",
"M.	c #FFDE59",
"N.	c #FFE059",
"O.	c #FFE159",
"P.	c #FCD658",
"Q.	c #F7D158",
"R.	c #F0CB57",
"S.	c #E5BE56",
"T.	c #D0A753",
"U.	c #B48649",
"V.	c #724F2D",
"W.	c #2D2219",
"X.	c #1D1C1C",
"Y.	c #333333",
"Z.	c #353535",
"`.	c #363636",
" +	c #1C1A18",
".+	c #3B2F20",
"++	c #876A40",
"@+	c #C39B50",
"#+	c #D9AF53",
"$+	c #E7BE54",
"%+	c #F0C954",
"&+	c #F7D253",
"*+	c #FCD854",
"=+	c #FFDC54",
"-+	c #FFDE54",
";+	c #FFDF54",
">+	c #FFE054",
",+	c #FCD554",
"'+	c #F7D054",
")+	c #F0CA54",
"!+	c #E7BE53",
"~+	c #D9B052",
"{+	c #886A41",
"]+	c #1A1917",
"^+	c #2D2D2D",
"/+	c #191917",
"(+	c #3E3425",
"_+	c #8E774A",
":+	c #CAA755",
"<+	c #DFB952",
"[+	c #EBC452",
"}+	c #F2CB52",
"|+	c #F8D252",
"1+	c #FDD852",
"2+	c #FFDD52",
"3+	c #FFDF52",
"4+	c #FFE052",
"5+	c #F9D252",
"6+	c #F3CB52",
"7+	c #EBC352",
"8+	c #3F3425",
"9+	c #191816",
"0+	c #2C2C2C",
"a+	c #171716",
"b+	c #3E3629",
"c+	c #907D50",
"d+	c #CCB05A",
"e+	c #E3C255",
"f+	c #F1CF52",
"g+	c #FBD752",
"h+	c #FEDE52",
"i+	c #FFE352",
"j+	c #FFE753",
"k+	c #FFE754",
"l+	c #FFE855",
"m+	c #FFE452",
"n+	c #FBD652",
"o+	c #F3CE52",
"p+	c #E8C554",
"q+	c #D1B35A",
"r+	c #8E7D50",
"s+	c #3D3628",
"t+	c #161614",
"u+	c #2B2B2B",
"v+	c #303030",
"w+	c #2A2A2A",
"x+	c #181717",
"y+	c #3D3528",
"z+	c #8C794F",
"A+	c #CFB459",
"B+	c #EACE55",
"C+	c #FBD952",
"D+	c #FFE152",
"E+	c #FFE953",
"F+	c #FFF253",
"G+	c #FFF455",
"H+	c #FFF358",
"I+	c #FFF25A",
"J+	c #FFF259",
"K+	c #FFF258",
"L+	c #FFF055",
"M+	c #FFEE53",
"N+	c #FFE853",
"O+	c #FFE252",
"P+	c #FADB52",
"Q+	c #ECCF55",
"R+	c #D0B559",
"S+	c #89794F",
"T+	c #3A3528",
"U+	c #151515",
"V+	c #282828",
"W+	c #191818",
"X+	c #342C25",
"Y+	c #796948",
"Z+	c #CDB355",
"`+	c #EDD053",
" @	c #FEDF52",
".@	c #FFEF55",
"+@	c #FFF857",
"@@	c #FFFB5C",
"#@	c #FFFB62",
"$@	c #FFFB63",
"%@	c #FFFA5C",
"&@	c #FFF557",
"*@	c #FFEA54",
"=@	c #FDE252",
"-@	c #EDD154",
";@	c #CCB355",
">@	c #7A6948",
",@	c #342C26",
"'@	c #171616",
")@	c #1C1C1C",
"!@	c #23201F",
"~@	c #625535",
"{@	c #B69D49",
"]@	c #EBCE51",
"^@	c #FEE355",
"/@	c #FFEB56",
"(@	c #FFF457",
"_@	c #FFFC5D",
":@	c #FFFF67",
"<@	c #FFFF6C",
"[@	c #FFFF6D",
"}@	c #FFFF66",
"|@	c #FFFB5D",
"1@	c #FFF757",
"2@	c #FFF156",
"3@	c #FEE755",
"4@	c #E8CE52",
"5@	c #B59B4A",
"6@	c #635535",
"7@	c #1B1B1B",
"8@	c #272727",
"9@	c #232324",
"0@	c #201E1A",
"a@	c #4A4025",
"b@	c #95823F",
"c@	c #DFCA52",
"d@	c #FEEC57",
"e@	c #FFFB58",
"f@	c #FFFF62",
"g@	c #FFFF6E",
"h@	c #FFFF73",
"i@	c #FFFF74",
"j@	c #FFFE5A",
"k@	c #FFFA59",
"l@	c #FEED59",
"m@	c #DECA53",
"n@	c #95813F",
"o@	c #232323",
"p@	c #1C1C1A",
"q@	c #29261A",
"r@	c #5C522A",
"s@	c #C3B94E",
"t@	c #F2E256",
"u@	c #FDF459",
"v@	c #FFFF65",
"w@	c #FFFE5E",
"x@	c #FDF85C",
"y@	c #F2E458",
"z@	c #C5B94F",
"A@	c #5C5229",
"B@	c #2A251A",
"C@	c #1C1C19",
"D@	c #262626",
"E@	c #222223",
"F@	c #161512",
"G@	c #332E1A",
"H@	c #7D753A",
"I@	c #BEB551",
"J@	c #F2EB5A",
"K@	c #FDFA60",
"L@	c #FEFE65",
"M@	c #FFFF6B",
"N@	c #FFFF71",
"O@	c #FFFF72",
"P@	c #FDFC5F",
"Q@	c #F3EE5B",
"R@	c #C1B753",
"S@	c #151412",
"T@	c #222222",
"U@	c #202020",
"V@	c #1B1B1A",
"W@	c #2F2A1F",
"X@	c #807A39",
"Y@	c #C4C052",
"Z@	c #E3DE5C",
"`@	c #F1EB61",
" #	c #FEFD68",
".#	c #FFFF6F",
"+#	c #FEFD69",
"@#	c #E6E15B",
"##	c #CBC551",
"$#	c #847D38",
"%#	c #2F2A1D",
"&#	c #1A1A1A",
"*#	c #181818",
"=#	c #151413",
"-#	c #302D19",
";#	c #5F5C2F",
">#	c #918A44",
",#	c #B7B056",
"'#	c #DEDC64",
")#	c #ECED6A",
"!#	c #EFF16C",
"~#	c #B7B057",
"{#	c #948D45",
"]#	c #65602E",
"^#	c #312E19",
"/#	c #1F1F1F",
"(#	c #161616",
"_#	c #272419",
":#	c #433F25",
"<#	c #585439",
"[#	c #87844C",
"}#	c #A8AA52",
"|#	c #AFB354",
"1#	c #AFB254",
"2#	c #A8A952",
"3#	c #87834C",
"4#	c #58543A",
"5#	c #433F26",
"6#	c #272519",
"7#	c #191919",
"8#	c #141413",
"9#	c #191814",
"0#	c #1D1B1B",
"a#	c #393A23",
"b#	c #4B4E26",
"c#	c #4F5227",
"d#	c #4F5127",
"e#	c #4B4C26",
"f#	c #393923",
"g#	c #1D1B1C",
"h#	c #141313",
"i#	c #141414",
"j#	c #101010",
"k#	c #0E0E0E",
"l#	c #0D0D0D",
"m#	c #171717",
"n#	c #131313",
"o#	c #0C0C0C",
". . . . . . . . . . . . . . . . . . . . . . . . . . . . . . . . . . . . . . . . . . . . ",
"+ @ @ @ @ @ @ @ @ @ @ @ @ @ @ @ @ @ @ @ @ @ @ @ @ @ @ @ @ @ @ @ @ @ @ @ @ @ @ @ @ @ @ + ",
"# $ $ $ $ $ $ $ $ $ $ $ $ $ $ $ $ $ $ $ $ $ $ $ $ $ $ $ $ $ $ $ $ $ $ $ $ $ $ $ $ $ $ # ",
"% & & & & & & & & & & & & & & & & & & & & & & & & & & & & & & & & & & & & & & & & & & % ",
"+ @ @ @ @ @ @ @ @ @ @ @ @ @ @ @ @ @ @ @ @ @ @ @ @ @ @ @ @ @ @ @ @ @ @ @ @ @ @ @ @ @ @ + ",
"+ + + + + + + + + + + + + + + + + + + + + + + + + + + + + + + + + + + + + + + + + + + + ",
"* = = = = = = = = = = = = = = = = = = = = = = = = = = = = = = = = = = = = = = = = = = * ",
"- * * * * * * * * * * * * * * * * ; > , ' ) ) ' , > ; * * * * * * * * * * * * * * * * - ",
"- - - - - - - - - - - - - - - ! ~ { ] ^ / ( ( / ^ ] { ~ ! - - - - - - - - - - - - - - - ",
"_ ; ; ; ; ; ; ; ; ; ; ; ; ; : < [ } | 1 2 2 2 3 1 | } [ < : ; ; ; ; ; ; ; ; ; ; ; ; ; _ ",
"4 _ _ _ _ _ _ _ _ _ _ _ _ : 5 6 7 8 9 0 a b c d e 9 f g h 5 : _ _ _ _ _ _ _ _ _ _ _ _ 4 ",
"4 4 4 4 4 4 4 4 4 4 4 4 i j k l m n o p q r s t p o u v w x y i 4 4 4 4 4 4 4 4 4 4 4 4 ",
": z z z z z z z z z z A B C D E F G H I J K L M N O P Q R S T U V z z z z z z z z z z : ",
"W X X X X X X X X X X Y Z `  ...+.@.#.$.%.&.*.=.-.;.>.,.'.).!.~.{.X X X X X X X X X X W ",
"W W W W W W W W W W ].^./.(._.:.<.[.}.|.1.2.3.4.5.5.6.7.8.9.0.a.b.].W W W W W W W W W W ",
"c.d.d.d.d.d.d.d.d.e.f.g.h.i.j.k.l.m.n.o.p.q.r.r.s.t.u.v.w.x.y.z.g.f.e.d.d.d.d.d.d.d.d.c.",
"c.c.c.c.c.c.c.c.A.B.C.D.E.F.G.H.I.J.K.L.M.N.O.N.L.P.Q.R.S.T.U.V.W.X.Y.c.c.c.c.c.c.c.c.c.",
"Z.`.`.`.`.`.`.`.`.Y  +.+++@+#+$+%+&+*+=+-+;+>+;+=+,+'+)+!+~+@+{+.+]+^+`.`.`.`.`.`.`.`.Z.",
"Y.Z.Z.Z.Z.Z.Z.Z.Z.Y /+(+_+:+<+[+}+|+1+2+3+4+4+3+2+1+5+6+7+<+:+_+8+9+0+Z.Z.Z.Z.Z.Z.Z.Z.Y.",
"Y.Y.Y.Y.Y.Y.Y.Y.Y.0+a+b+c+d+e+f+g+h+i+j+k+l+k+j+j+m+h+n+o+p+q+r+s+t+u+Y.Y.Y.Y.Y.Y.Y.Y.Y.",
"^+v+v+v+v+v+v+v+v+w+x+y+z+A+B+C+D+E+F+G+H+I+J+K+L+M+N+O+P+Q+R+S+T+U+V+v+v+v+v+v+v+v+v+^+",
"0+Y Y Y Y Y Y Y Y w+W+X+Y+Z+`+ @k+.@+@@@#@$@$@#@%@&@L+*@=@-@;@>@,@'@V+Y Y Y Y Y Y Y Y 0+",
"0+0+0+0+0+0+0+0+0+V+)@!@~@{@]@^@/@(@_@:@<@[@[@<@}@|@1@2@3@4@5@6@^.7@V+0+0+0+0+0+0+0+0+0+",
"8@w+w+w+w+w+w+w+w+w+9@0@a@b@c@d@&@e@f@g@h@i@i@h@[@f@j@k@l@m@n@a@0@o@w+w+w+w+w+w+w+w+w+8@",
"8@8@8@8@8@8@8@8@8@8@V+p@q@r@s@t@u@_@v@[@h@i@i@h@[@v@w@x@y@z@A@B@C@8@8@8@8@8@8@8@8@8@8@8@",
"D@D@D@D@D@D@D@D@D@D@D@E@F@G@H@I@J@K@L@M@N@O@O@N@<@L@P@Q@R@H@G@S@T@D@D@D@D@D@D@D@D@D@D@D@",
"U@o@o@o@o@o@o@o@o@o@o@o@V@S@W@X@Y@Z@`@ #g@.#.#g@+#`@@###$#%#S@&#o@o@o@o@o@o@o@o@o@o@o@U@",
"U@U@U@U@U@U@U@U@U@U@U@U@T@*#=#-#;#>#,#'#)#!#!#)#'#~#{#]#^#S@*#T@U@U@U@U@U@U@U@U@U@U@U@U@",
"/#/#/#/#/#/#/#/#/#/#/#/#/#/#(#S@_#:#<#[#}#|#1#2#3#4#5#6#S@(#/#/#/#/#/#/#/#/#/#/#/#/#/#/#",
"&#)@)@)@)@)@)@)@)@)@)@)@)@)@)@7#8#9#0#a#b#c#d#e#f#g#9#h#7#)@)@)@)@)@)@)@)@)@)@)@)@)@)@&#",
"&#&#&#&#&#&#&#&#&#&#&#&#&#&#&#&#&#*#i#j#k#l#l#k#j#i#*#&#&#&#&#&#&#&#&#&#&#&#&#&#&#&#&#&#",
"i#*#*#*#*#*#*#*#*#*#*#*#*#*#*#*#*#*#*#m#m#m#m#m#m#*#*#*#*#*#*#*#*#*#*#*#*#*#*#*#*#*#*#i#",
"n#(#(#(#(#(#(#(#(#(#(#(#(#(#(#(#(#(#(#(#(#(#(#(#(#(#(#(#(#(#(#(#(#(#(#(#(#(#(#(#(#(#(#n#",
"j#n#n#n#n#n#n#n#n#n#n#n#n#n#n#n#n#n#n#n#n#n#n#n#n#n#n#n#n#n#n#n#n#n#n#n#n#n#n#n#n#n#n#j#",
"j#n#n#n#n#n#n#n#n#n#n#n#n#n#n#n#n#n#n#n#n#n#n#n#n#n#n#n#n#n#n#n#n#n#n#n#n#n#n#n#n#n#n#j#",
"T@o@o@o@o@o@o@o@o@o@o@o@o@o@o@o@o@o@o@o@o@o@o@o@o@o@o@o@o@o@o@o@o@o@o@o@o@o@o@o@o@o@o@T@",
"/#T@T@T@T@T@T@T@T@T@T@T@T@T@T@T@T@T@T@T@T@T@T@T@T@T@T@T@T@T@T@T@T@T@T@T@T@T@T@T@T@T@T@/#",
"o#o#o#o#o#o#o#o#o#o#o#o#o#o#o#o#o#o#o#o#o#o#o#o#o#o#o#o#o#o#o#o#o#o#o#o#o#o#o#o#o#o#o#o#"};
