/* XPM */
static char * maximize_prelight_xpm[] = {
"44 38 443 2",
"  	c None",
". 	c #000000",
"+ 	c #505050",
"@ 	c #525252",
"# 	c #696969",
"$ 	c #6C6C6C",
"% 	c #515151",
"& 	c #565656",
"* 	c #4C4C4C",
"= 	c #4E4E4E",
"- 	c #4A4A4A",
"; 	c #484848",
"> 	c #3F4041",
", 	c #353638",
"' 	c #2D3030",
") 	c #282B2B",
"! 	c #3A3E3E",
"~ 	c #312F2E",
"{ 	c #2C2524",
"] 	c #302321",
"^ 	c #31231F",
"/ 	c #2F211E",
"( 	c #464646",
"_ 	c #3E3E3E",
": 	c #313030",
"< 	c #312525",
"[ 	c #352221",
"} 	c #402321",
"| 	c #5B2F2A",
"1 	c #6B3730",
"2 	c #703830",
"3 	c #5B2F29",
"4 	c #444444",
"5 	c #212121",
"6 	c #241716",
"7 	c #421D1D",
"8 	c #71332E",
"9 	c #924F45",
"0 	c #BA6C5F",
"a 	c #D07E70",
"b 	c #D48375",
"c 	c #D07E71",
"d 	c #BA6C5E",
"e 	c #934F45",
"f 	c #72352E",
"g 	c #42201D",
"h 	c #241816",
"i 	c #3B3D3D",
"j 	c #1E1C1D",
"k 	c #22191B",
"l 	c #6B2624",
"m 	c #B04B3C",
"n 	c #DF8964",
"o 	c #F5B088",
"p 	c #FCC5AC",
"q 	c #FED0BF",
"r 	c #FED3C5",
"s 	c #FED3C6",
"t 	c #FED0C1",
"u 	c #FCC5AE",
"v 	c #F9B088",
"w 	c #E18B66",
"x 	c #AF4D3D",
"y 	c #6B2723",
"z 	c #21191A",
"A 	c #1E1C1C",
"B 	c #3B3B3B",
"C 	c #3F3F3F",
"D 	c #414141",
"E 	c #3E3F3F",
"F 	c #252020",
"G 	c #2A1A19",
"H 	c #622E28",
"I 	c #AB5141",
"J 	c #ED8B6A",
"K 	c #FCC192",
"L 	c #FFD4A5",
"M 	c #FFDEBB",
"N 	c #FFE1C5",
"O 	c #FFE2C9",
"P 	c #FFE2CA",
"Q 	c #FFE1C7",
"R 	c #FFD3A5",
"S 	c #FCC293",
"T 	c #ED8C6B",
"U 	c #A85143",
"V 	c #622F28",
"W 	c #2A1A18",
"X 	c #404040",
"Y 	c #2F2E2E",
"Z 	c #281B1B",
"` 	c #4D231E",
" .	c #AF513F",
"..	c #EA8A6A",
"+.	c #FCB78D",
"@.	c #FFCB9C",
"#.	c #FFD7A7",
"$.	c #FFDEB6",
"%.	c #FFDEBA",
"&.	c #FFDEBE",
"*.	c #FFDFBD",
"=.	c #FFDFB6",
"-.	c #FFD6A7",
";.	c #FFCA9C",
">.	c #E88A6B",
",.	c #B15240",
"'.	c #4E231F",
").	c #281A1A",
"!.	c #2F2D2D",
"~.	c #383838",
"{.	c #251F1E",
"].	c #3F221E",
"^.	c #83372E",
"/.	c #D9684F",
"(.	c #FE9B76",
"_.	c #FFC096",
":.	c #FFCC9D",
"<.	c #FFCE9E",
"[.	c #FFC89A",
"}.	c #FFC799",
"|.	c #FFC99B",
"1.	c #FFCC9E",
"2.	c #FFCC9F",
"3.	c #FFCA9D",
"4.	c #FFC095",
"5.	c #DC684F",
"6.	c #87362E",
"7.	c #3F211F",
"8.	c #261F1E",
"9.	c #393939",
"0.	c #363838",
"a.	c #272727",
"b.	c #231817",
"c.	c #5B2924",
"d.	c #B04A3B",
"e.	c #EC7258",
"f.	c #FE9270",
"g.	c #FFA985",
"h.	c #FFB58B",
"i.	c #FFBB8E",
"j.	c #FFBE91",
"k.	c #FFBE93",
"l.	c #FFBE94",
"m.	c #FFBF94",
"n.	c #FFBD93",
"o.	c #FFB790",
"p.	c #FFB48C",
"q.	c #FFAB84",
"r.	c #FE936F",
"s.	c #EF7258",
"t.	c #B3493B",
"u.	c #5B2923",
"v.	c #282727",
"w.	c #3A3A3A",
"x.	c #333434",
"y.	c #1F1C1D",
"z.	c #391A18",
"A.	c #87352C",
"B.	c #DF5D4B",
"C.	c #FC7B5D",
"D.	c #FF8F6A",
"E.	c #FF9B73",
"F.	c #FFA379",
"G.	c #FFAB7F",
"H.	c #FFB084",
"I.	c #FFB488",
"J.	c #FFB48A",
"K.	c #FFB689",
"L.	c #FFB588",
"M.	c #FFAF84",
"N.	c #FFA880",
"O.	c #FFA37B",
"P.	c #FF9C75",
"Q.	c #FF916B",
"R.	c #FD7B5E",
"S.	c #E05E4B",
"T.	c #391B19",
"U.	c #1E1B1C",
"V.	c #333333",
"W.	c #353535",
"X.	c #363636",
"Y.	c #2F2F2F",
"Z.	c #1D1918",
"`.	c #4E201C",
" +	c #AC473A",
".+	c #EF7256",
"++	c #FF8360",
"@+	c #FF8F69",
"#+	c #FF996E",
"$+	c #FF9F73",
"%+	c #FFA579",
"&+	c #FFAC7F",
"*+	c #FFAF83",
"=+	c #FFB184",
"-+	c #FFB083",
";+	c #FFA47A",
">+	c #FF9F75",
",+	c #FF9A71",
"'+	c #FF9169",
")+	c #EF7156",
"!+	c #AC4C3E",
"~+	c #4F221E",
"{+	c #1D1817",
"]+	c #2D2D2D",
"^+	c #1B1817",
"/+	c #562820",
"(+	c #BA5A45",
"_+	c #F37F5D",
":+	c #FF8C63",
"<+	c #FF9369",
"[+	c #FF9A6D",
"}+	c #FF9F71",
"|+	c #FFA477",
"1+	c #FFAB7E",
"2+	c #FFAE81",
"3+	c #FFAF82",
"4+	c #FFA478",
"5+	c #FF9F74",
"6+	c #FF9A70",
"7+	c #FF8A61",
"8+	c #F37E5C",
"9+	c #BA5D47",
"0+	c #562821",
"a+	c #1B1716",
"b+	c #2C2C2C",
"c+	c #1A1616",
"d+	c #5C2E23",
"e+	c #C2674C",
"f+	c #F68862",
"g+	c #FF9467",
"h+	c #FF9D6E",
"i+	c #FFA676",
"j+	c #FFAC7A",
"k+	c #FFB07E",
"l+	c #FFB484",
"m+	c #FFB686",
"n+	c #FFB786",
"o+	c #FFB787",
"p+	c #FFB383",
"q+	c #FFAC79",
"r+	c #FFA675",
"s+	c #FF9466",
"t+	c #C1674D",
"u+	c #592E24",
"v+	c #181414",
"w+	c #2B2B2B",
"x+	c #303030",
"y+	c #2A2A2A",
"z+	c #1B1717",
"A+	c #582C22",
"B+	c #BC6349",
"C+	c #F48C62",
"D+	c #FF9D6D",
"E+	c #FFA776",
"F+	c #FFAE7D",
"G+	c #FFB681",
"H+	c #FFC086",
"I+	c #FFC28C",
"J+	c #FFC28E",
"K+	c #FFC18E",
"L+	c #FFC08D",
"M+	c #FFC08C",
"N+	c #FFC08A",
"O+	c #FFBE86",
"P+	c #FFB780",
"Q+	c #FFB17B",
"R+	c #FFAB75",
"S+	c #FF9E6D",
"T+	c #F48C63",
"U+	c #BB634A",
"V+	c #552C22",
"W+	c #282828",
"X+	c #1C1817",
"Y+	c #42241C",
"Z+	c #9E563E",
"`+	c #EB8A61",
" @	c #FFA06F",
".@	c #FFB581",
"+@	c #FFBF89",
"@@	c #FFC98F",
"#@	c #FFD096",
"$@	c #FFD099",
"%@	c #FFD19A",
"&@	c #FFCE96",
"*@	c #FFCD95",
"=@	c #FFCC94",
"-@	c #FFC88F",
";@	c #FFC189",
">@	c #FFB981",
",@	c #FFB178",
"'@	c #FFA370",
")@	c #EB8B62",
"!@	c #9E553E",
"~@	c #41231C",
"{@	c #191615",
"]@	c #1C1C1C",
"^@	c #241C18",
"/@	c #69442F",
"(@	c #CE7C54",
"_@	c #FFA16F",
":@	c #FFB27B",
"<@	c #FFBC84",
"[@	c #FFC68D",
"}@	c #FFCF95",
"|@	c #FFD89F",
"1@	c #FFDAA4",
"2@	c #FFDBA5",
"3@	c #FFDAA5",
"4@	c #FFD8A3",
"5@	c #FFD49E",
"6@	c #FFC88D",
"7@	c #FFC084",
"8@	c #FFB57C",
"9@	c #FFA470",
"0@	c #CF7D56",
"a@	c #6A442F",
"b@	c #1B1C1C",
"c@	c #232324",
"d@	c #201A18",
"e@	c #4B3124",
"f@	c #AD6845",
"g@	c #F7A26D",
"h@	c #FEB87F",
"i@	c #FFC287",
"j@	c #FFCA8F",
"k@	c #FFD399",
"l@	c #FFDDA5",
"m@	c #FFE2AB",
"n@	c #FFE3AD",
"o@	c #FFE2AE",
"p@	c #FFDFAC",
"q@	c #FFD598",
"r@	c #FFCE8E",
"s@	c #FFC787",
"t@	c #FEBD7F",
"u@	c #F7A16D",
"v@	c #AF6646",
"w@	c #4C3124",
"x@	c #201A17",
"y@	c #232323",
"z@	c #1B1B1B",
"A@	c #281E1A",
"B@	c #67412B",
"C@	c #DB9563",
"D@	c #F9B079",
"E@	c #FEC186",
"F@	c #FFCC8F",
"G@	c #FFE1AC",
"H@	c #FFD597",
"I@	c #FFCE8F",
"J@	c #FEC686",
"K@	c #F9B479",
"L@	c #DD9362",
"M@	c #6A3F2B",
"N@	c #1A1A1A",
"O@	c #262626",
"P@	c #222223",
"Q@	c #151312",
"R@	c #33241B",
"S@	c #855B3E",
"T@	c #DA9060",
"U@	c #F9BB7F",
"V@	c #FECA8D",
"W@	c #FFD196",
"X@	c #FFDCA4",
"Y@	c #FFE1AB",
"Z@	c #FFE2AC",
"`@	c #FFE1AA",
" #	c #FFDCA3",
".#	c #FFD294",
"+#	c #FFCC8D",
"@#	c #FABE80",
"##	c #DB9260",
"$#	c #865A3B",
"%#	c #35241A",
"&#	c #222222",
"*#	c #202020",
"=#	c #131311",
"-#	c #2F231B",
";#	c #88613F",
">#	c #DA9C66",
",#	c #F6B67C",
"'#	c #FEC388",
")#	c #FFD49B",
"!#	c #FFDCA6",
"~#	c #FFDEA8",
"{#	c #FFDEA7",
"]#	c #FFDDA4",
"^#	c #FFD699",
"/#	c #F7B67D",
"(#	c #DC9B68",
"_#	c #896140",
":#	c #2F231A",
"<#	c #131310",
"[#	c #141312",
"}#	c #2F2219",
"|#	c #68472E",
"1#	c #9A6D49",
"2#	c #C58F5F",
"3#	c #EBB77E",
"4#	c #FCC88F",
"5#	c #FECD93",
"6#	c #FECE94",
"7#	c #FCCA8F",
"8#	c #EDB87E",
"9#	c #C58F60",
"0#	c #9A6D4B",
"a#	c #684630",
"b#	c #2F221A",
"c#	c #1F1F1F",
"d#	c #161616",
"e#	c #141212",
"f#	c #271E19",
"g#	c #443023",
"h#	c #5C412C",
"i#	c #9E6B42",
"j#	c #C18A56",
"k#	c #C8905C",
"l#	c #C8925E",
"m#	c #C18B59",
"n#	c #A06C43",
"o#	c #191919",
"p#	c #141313",
"q#	c #1A1512",
"r#	c #201813",
"s#	c #3B2C1E",
"t#	c #533D25",
"u#	c #584028",
"v#	c #584129",
"w#	c #533E27",
"x#	c #3B2D1F",
"y#	c #171818",
"z#	c #131414",
"A#	c #0E0E0F",
"B#	c #0C0C0E",
"C#	c #0A0A0B",
"D#	c #0C0C0D",
"E#	c #141414",
"F#	c #181818",
"G#	c #171717",
"H#	c #131313",
"I#	c #101010",
"J#	c #0C0C0C",
". . . . . . . . . . . . . . . . . . . . . . . . . . . . . . . . . . . . . . . . . . . . ",
"+ @ @ @ @ @ @ @ @ @ @ @ @ @ @ @ @ @ @ @ @ @ @ @ @ @ @ @ @ @ @ @ @ @ @ @ @ @ @ @ @ @ @ + ",
"# $ $ $ $ $ $ $ $ $ $ $ $ $ $ $ $ $ $ $ $ $ $ $ $ $ $ $ $ $ $ $ $ $ $ $ $ $ $ $ $ $ $ # ",
"% & & & & & & & & & & & & & & & & & & & & & & & & & & & & & & & & & & & & & & & & & & % ",
"+ @ @ @ @ @ @ @ @ @ @ @ @ @ @ @ @ @ @ @ @ @ @ @ @ @ @ @ @ @ @ @ @ @ @ @ @ @ @ @ @ @ @ + ",
"+ + + + + + + + + + + + + + + + + + + + + + + + + + + + + + + + + + + + + + + + + + + + ",
"* = = = = = = = = = = = = = = = = = = = = = = = = = = = = = = = = = = = = = = = = = = * ",
"- * * * * * * * * * * * * * * * * ; > , ' ) ) ' , > ; * * * * * * * * * * * * * * * * - ",
"- - - - - - - - - - - - - - - ; ! ~ { ] ^ / / ^ ] { ~ ! ; - - - - - - - - - - - - - - - ",
"( ; ; ; ; ; ; ; ; ; ; ; ; ; _ : < [ } | 1 2 2 1 3 } [ < : _ ; ; ; ; ; ; ; ; ; ; ; ; ; ( ",
"4 ( ( ( ( ( ( ( ( ( ( ( ( _ 5 6 7 8 9 0 a b b c d e f g h 5 _ ( ( ( ( ( ( ( ( ( ( ( ( 4 ",
"4 4 4 4 4 4 4 4 4 4 4 4 i j k l m n o p q r s t u v w x y z A B 4 4 4 4 4 4 4 4 4 4 4 4 ",
"C D D D D D D D D D D E F G H I J K L M N O P Q M R S T U V W F E D D D D D D D D D D C ",
"_ X X X X X X X X X X Y Z `  ...+.@.#.$.%.M &.*.=.-.;.+.>.,.'.).!.X X X X X X X X X X _ ",
"_ _ _ _ _ _ _ _ _ _ ~.{.].^./.(._.:.<.:.[.}.|.@.1.2.3.4.(.5.6.7.8.~._ _ _ _ _ _ _ _ _ _ ",
"9.B B B B B B B B 0.a.b.c.d.e.f.g.h.i.j.k.l.m.m.n.o.p.q.r.s.t.u.b.v.0.B B B B B B B B 9.",
"9.9.9.9.9.9.9.9.w.x.y.z.A.B.C.D.E.F.G.H.I.J.K.L.M.N.O.P.Q.R.S.6.T.U.V.9.9.9.9.9.9.9.9.9.",
"W.X.X.X.X.X.X.X.X.Y.Z.`. +.+++@+#+$+%+&+*+H.=+-+G.;+>+,+'+++)+!+~+{+]+X.X.X.X.X.X.X.X.W.",
"V.W.W.W.W.W.W.W.W.Y.^+/+(+_+:+<+[+}+|+1+2+3+3+2+1+4+5+6+<+7+8+9+0+a+b+W.W.W.W.W.W.W.W.V.",
"V.V.V.V.V.V.V.V.V.b+c+d+e+f+g+h+i+j+k+l+m+n+o+m+p+k+q+r+h+s+f+t+u+v+w+V.V.V.V.V.V.V.V.V.",
"]+x+x+x+x+x+x+x+x+y+z+A+B+C+D+E+F+G+H+I+J+K+L+M+N+O+P+Q+R+S+T+U+V+v+W+x+x+x+x+x+x+x+x+]+",
"b+Y.Y.Y.Y.Y.Y.Y.Y.y+X+Y+Z+`+ @j+.@+@@@#@$@%@&@*@=@-@;@>@,@'@)@!@~@{@W+Y.Y.Y.Y.Y.Y.Y.Y.b+",
"b+b+b+b+b+b+b+b+b+W+]@^@/@(@_@:@<@[@}@|@1@2@3@4@5@}@6@7@8@9@0@a@^@b@W+b+b+b+b+b+b+b+b+b+",
"a.y+y+y+y+y+y+y+y+y+c@d@e@f@g@h@i@j@k@l@m@n@o@p@2@q@r@s@t@u@v@w@x@y@y+y+y+y+y+y+y+y+y+a.",
"a.a.a.a.a.a.a.a.a.a.W+z@A@B@C@D@E@F@k@l@m@n@o@G@l@H@I@J@K@L@M@A@N@a.a.a.a.a.a.a.a.a.a.a.",
"O@O@O@O@O@O@O@O@O@O@O@P@Q@R@S@T@U@V@W@X@Y@n@Z@`@ #.#+#@###$#%#Q@&#O@O@O@O@O@O@O@O@O@O@O@",
"*#y@y@y@y@y@y@y@y@y@y@y@z@=#-#;#>#,#'#)#!#~#{#]#^#'#/#(#_#:#<#z@y@y@y@y@y@y@y@y@y@y@y@*#",
"*#*#*#*#*#*#*#*#*#*#*#*#&#N@[#}#|#1#2#3#4#5#6#7#8#9#0#a#b#[#N@&#*#*#*#*#*#*#*#*#*#*#*#*#",
"c#c#c#c#c#c#c#c#c#c#c#c#c#c#d#e#f#g#h#i#j#k#l#m#n#h#g#f#e#d#c#c#c#c#c#c#c#c#c#c#c#c#c#c#",
"N@]@]@]@]@]@]@]@]@]@]@]@]@]@]@o#p#q#r#s#t#u#v#w#x#r#q#p#o#]@]@]@]@]@]@]@]@]@]@]@]@]@]@N@",
"N@N@N@N@N@N@N@N@N@N@N@N@N@N@N@N@N@y#z#A#B#C#C#D#A#z#y#N@N@N@N@N@N@N@N@N@N@N@N@N@N@N@N@N@",
"E#F#F#F#F#F#F#F#F#F#F#F#F#F#F#F#F#F#F#F#G#G#G#G#F#F#F#F#F#F#F#F#F#F#F#F#F#F#F#F#F#F#F#E#",
"H#d#d#d#d#d#d#d#d#d#d#d#d#d#d#d#d#d#d#d#d#d#d#d#d#d#d#d#d#d#d#d#d#d#d#d#d#d#d#d#d#d#d#H#",
"I#H#H#H#H#H#H#H#H#H#H#H#H#H#H#H#H#H#H#H#H#H#H#H#H#H#H#H#H#H#H#H#H#H#H#H#H#H#H#H#H#H#H#I#",
"I#H#H#H#H#H#H#H#H#H#H#H#H#H#H#H#H#H#H#H#H#H#H#H#H#H#H#H#H#H#H#H#H#H#H#H#H#H#H#H#H#H#H#I#",
"&#y@y@y@y@y@y@y@y@y@y@y@y@y@y@y@y@y@y@y@y@y@y@y@y@y@y@y@y@y@y@y@y@y@y@y@y@y@y@y@y@y@y@&#",
"c#&#&#&#&#&#&#&#&#&#&#&#&#&#&#&#&#&#&#&#&#&#&#&#&#&#&#&#&#&#&#&#&#&#&#&#&#&#&#&#&#&#&#c#",
"J#J#J#J#J#J#J#J#J#J#J#J#J#J#J#J#J#J#J#J#J#J#J#J#J#J#J#J#J#J#J#J#J#J#J#J#J#J#J#J#J#J#J#J#"};
