/* XPM */
static char * maximize_toggled_active_xpm[] = {
"44 38 479 2",
"  	c None",
". 	c #000000",
"+ 	c #505050",
"@ 	c #525252",
"# 	c #696969",
"$ 	c #6C6C6C",
"% 	c #515151",
"& 	c #565656",
"* 	c #4C4C4C",
"= 	c #4E4E4E",
"- 	c #4B4B4B",
"; 	c #4A4A4A",
"> 	c #494949",
", 	c #4C4C4E",
"' 	c #454546",
") 	c #3D3D3E",
"! 	c #333435",
"~ 	c #2C2C2D",
"{ 	c #282828",
"] 	c #343435",
"^ 	c #3E3E3F",
"/ 	c #464646",
"( 	c #393631",
"_ 	c #2B2623",
": 	c #201E1A",
"< 	c #211B16",
"[ 	c #1E1915",
"} 	c #1D1914",
"| 	c #1C1914",
"1 	c #1D1915",
"2 	c #211E1A",
"3 	c #3A3634",
"4 	c #484848",
"5 	c #3A3A3B",
"6 	c #2B2A28",
"7 	c #251E17",
"8 	c #22170E",
"9 	c #21170E",
"0 	c #291E10",
"a 	c #2C2213",
"b 	c #2C2315",
"c 	c #2B2314",
"d 	c #2B2212",
"e 	c #291C10",
"f 	c #231E18",
"g 	c #2C2B2B",
"h 	c #3B3B3D",
"i 	c #484849",
"j 	c #444444",
"k 	c #39393A",
"l 	c #211D1E",
"m 	c #1A130D",
"n 	c #21160D",
"o 	c #321D0E",
"p 	c #3E2F11",
"q 	c #4F401C",
"r 	c #564B2A",
"s 	c #594D2D",
"t 	c #594C2C",
"u 	c #564929",
"v 	c #4E3E1B",
"w 	c #3D2C11",
"x 	c #20160D",
"y 	c #19130E",
"z 	c #211E1E",
"A 	c #3A3B3B",
"B 	c #39393B",
"C 	c #1B1A16",
"D 	c #1B150C",
"E 	c #2B180B",
"F 	c #442C0F",
"G 	c #5C4E1B",
"H 	c #686323",
"I 	c #767138",
"J 	c #7D7751",
"K 	c #7F7957",
"L 	c #7D7750",
"M 	c #767037",
"N 	c #686022",
"O 	c #5C4C1A",
"P 	c #432C0F",
"Q 	c #2A1A0C",
"R 	c #1A160C",
"S 	c #1B1B17",
"T 	c #3A3A3E",
"U 	c #3F3F3F",
"V 	c #414141",
"W 	c #1F1D1B",
"X 	c #18150F",
"Y 	c #271C0D",
"Z 	c #412F10",
"` 	c #604F18",
" .	c #716923",
"..	c #79722A",
"+.	c #817B3A",
"@.	c #857F4F",
"#.	c #868154",
"$.	c #85804F",
"%.	c #827C3A",
"&.	c #7A7329",
"*.	c #726821",
"=.	c #5F4B16",
"-.	c #3D2D10",
";.	c #251C0E",
">.	c #19150F",
",.	c #201E1D",
"'.	c #3F4040",
").	c #3E3E3E",
"!.	c #404040",
"~.	c #2D2928",
"{.	c #1C1611",
"].	c #20170E",
"^.	c #3B2C13",
"/.	c #5B4A1A",
"(.	c #706320",
"_.	c #786F26",
":.	c #7D762A",
"<.	c #827B34",
"[.	c #857D3D",
"}.	c #857E3F",
"|.	c #858041",
"1.	c #857F3F",
"2.	c #837C34",
"3.	c #7F7529",
"4.	c #796E23",
"5.	c #6F611E",
"6.	c #574719",
"7.	c #372A13",
"8.	c #21160E",
"9.	c #1E1711",
"0.	c #2E2A29",
"a.	c #363639",
"b.	c #1F1A14",
"c.	c #311F0F",
"d.	c #4E3B16",
"e.	c #68541C",
"f.	c #756621",
"g.	c #7B7025",
"h.	c #7F7528",
"i.	c #817425",
"j.	c #837423",
"k.	c #837424",
"l.	c #837725",
"m.	c #837726",
"n.	c #807526",
"o.	c #7B6E23",
"p.	c #74641F",
"q.	c #66521B",
"r.	c #4E3A15",
"s.	c #311E0F",
"t.	c #23180E",
"u.	c #201A14",
"v.	c #383839",
"w.	c #393939",
"x.	c #3B3B3B",
"y.	c #38393A",
"z.	c #252528",
"A.	c #1B160F",
"B.	c #2A1C0C",
"C.	c #422A0D",
"D.	c #594215",
"E.	c #6D5618",
"F.	c #77611B",
"G.	c #7D6A1E",
"H.	c #806F20",
"I.	c #82701F",
"J.	c #83701F",
"K.	c #837020",
"L.	c #837221",
"M.	c #816D1F",
"N.	c #7C671D",
"O.	c #75601B",
"P.	c #6D5518",
"Q.	c #5B4314",
"R.	c #281B0C",
"S.	c #1A160F",
"T.	c #252729",
"U.	c #36393A",
"V.	c #3A3A3A",
"W.	c #333536",
"X.	c #1C1C1C",
"Y.	c #1D170D",
"Z.	c #34210C",
"`.	c #51370F",
" +	c #634A14",
".+	c #715816",
"++	c #785F18",
"@+	c #7C6618",
"#+	c #806B19",
"$+	c #836C1A",
"%+	c #836D1A",
"&+	c #836E1A",
"*+	c #83701A",
"=+	c #836F1A",
"-+	c #816819",
";+	c #7C6418",
">+	c #776018",
",+	c #715716",
"'+	c #624913",
")+	c #51360E",
"!+	c #31200C",
"~+	c #1B160D",
"{+	c #333335",
"]+	c #353535",
"^+	c #363636",
"/+	c #2F2F31",
"(+	c #181817",
"_+	c #1C170E",
":+	c #382910",
"<+	c #5A4313",
"[+	c #695014",
"}+	c #735915",
"|+	c #795F16",
"1+	c #7D6416",
"2+	c #816917",
"3+	c #836C17",
"4+	c #836D18",
"5+	c #846E18",
"6+	c #847018",
"7+	c #836F18",
"8+	c #836D17",
"9+	c #816817",
"0+	c #796016",
"a+	c #725A15",
"b+	c #695013",
"c+	c #5A4212",
"d+	c #36290F",
"e+	c #1B170F",
"f+	c #171717",
"g+	c #2D2D30",
"h+	c #333333",
"i+	c #2F2F2F",
"j+	c #171715",
"k+	c #1B1812",
"l+	c #3B3015",
"m+	c #5E4A17",
"n+	c #6D5515",
"o+	c #755C15",
"p+	c #7A6216",
"q+	c #7F6616",
"r+	c #836A16",
"s+	c #846E16",
"t+	c #867018",
"u+	c #877118",
"v+	c #877018",
"w+	c #866F18",
"x+	c #836D16",
"y+	c #836B16",
"z+	c #806716",
"A+	c #7A6116",
"B+	c #745D15",
"C+	c #6E5616",
"D+	c #382E15",
"E+	c #1A1812",
"F+	c #151515",
"G+	c #2C2C2C",
"H+	c #151514",
"I+	c #1C1913",
"J+	c #3D3417",
"K+	c #5F4E19",
"L+	c #6F5B17",
"M+	c #7B6516",
"N+	c #826C16",
"O+	c #857116",
"P+	c #877417",
"Q+	c #897518",
"R+	c #897619",
"S+	c #897519",
"T+	c #887516",
"U+	c #877316",
"V+	c #836F16",
"W+	c #7F6A16",
"X+	c #7A6516",
"Y+	c #715D17",
"Z+	c #604F19",
"`+	c #3A2F17",
" @	c #1B1813",
".@	c #121213",
"+@	c #2B2B2B",
"@@	c #2D2D2D",
"#@	c #303030",
"$@	c #2A2A2B",
"%@	c #161615",
"&@	c #1E1A13",
"*@	c #3C3317",
"=@	c #605019",
"-@	c #746217",
";@	c #806D16",
">@	c #857216",
",@	c #867617",
"'@	c #887C18",
")@	c #8B7D1A",
"!@	c #8C7D1C",
"~@	c #8B7B1C",
"{@	c #8B7B1B",
"]@	c #8B7C18",
"^@	c #887917",
"/@	c #867516",
"(@	c #5F4F19",
"_@	c #392F17",
":@	c #131314",
"<@	c #171716",
"[@	c #1D1A13",
"}@	c #382F17",
"|@	c #5E4F18",
"1@	c #756317",
"2@	c #877516",
"3@	c #897B18",
"4@	c #8A801B",
"5@	c #8C841F",
"6@	c #8C8322",
"7@	c #8C8323",
"8@	c #8B8323",
"9@	c #8B8222",
"0@	c #8B801D",
"a@	c #8A7D1A",
"b@	c #867816",
"c@	c #817017",
"d@	c #736317",
"e@	c #5B4D18",
"f@	c #352D16",
"g@	c #28282A",
"h@	c #28282B",
"i@	c #1C1C1D",
"j@	c #1B1913",
"k@	c #2E2714",
"l@	c #524515",
"m@	c #756316",
"n@	c #847217",
"o@	c #887919",
"p@	c #8A7E1B",
"q@	c #8B8320",
"r@	c #8C8726",
"s@	c #8C872A",
"t@	c #8C872B",
"u@	c #8B8629",
"v@	c #8B8326",
"w@	c #8B8120",
"x@	c #877D19",
"y@	c #817318",
"z@	c #6F6117",
"A@	c #4E4115",
"B@	c #2D2714",
"C@	c #1A1813",
"D@	c #272727",
"E@	c #2A2A2A",
"F@	c #242425",
"G@	c #1A1912",
"H@	c #252110",
"I@	c #3F3612",
"J@	c #6A5E17",
"K@	c #817519",
"L@	c #877D1A",
"M@	c #8A811C",
"N@	c #8B8422",
"O@	c #8C882A",
"P@	c #8C8A2D",
"Q@	c #8C8B2E",
"R@	c #8D892E",
"S@	c #8D882D",
"T@	c #8A831D",
"U@	c #87811A",
"V@	c #807519",
"W@	c #665B17",
"X@	c #3D3312",
"Y@	c #252010",
"Z@	c #232325",
"`@	c #1B1B19",
" #	c #1B1A10",
".#	c #292610",
"+#	c #575217",
"@#	c #736C19",
"##	c #827B1A",
"$#	c #88801D",
"%#	c #8A8423",
"&#	c #8C8A2E",
"*#	c #8D892D",
"=#	c #8C8729",
"-#	c #8A8323",
";#	c #89821D",
">#	c #837D1A",
",#	c #726A18",
"'#	c #544D16",
")#	c #272210",
"!#	c #1A1910",
"~#	c #1B1A19",
"{#	c #262626",
"]#	c #232323",
"^#	c #131311",
"/#	c #1A1810",
"(#	c #353115",
"_#	c #534F17",
":#	c #75711A",
"<#	c #827C1D",
"[#	c #868123",
"}#	c #898629",
"|#	c #8A882D",
"1#	c #8B892D",
"2#	c #8B882C",
"3#	c #898628",
"4#	c #868022",
"5#	c #827D1D",
"6#	c #777219",
"7#	c #504C17",
"8#	c #312D14",
"9#	c #1A1710",
"0#	c #131211",
"a#	c #232324",
"b#	c #202020",
"c#	c #1B1B1D",
"d#	c #111011",
"e#	c #363414",
"f#	c #535017",
"g#	c #68661B",
"h#	c #757221",
"i#	c #807F27",
"j#	c #848529",
"k#	c #86862A",
"l#	c #85862A",
"m#	c #848429",
"n#	c #7F7E26",
"o#	c #747120",
"p#	c #68671B",
"q#	c #353214",
"r#	c #191711",
"s#	c #1B1D1D",
"t#	c #222222",
"u#	c #1A1A1B",
"v#	c #111110",
"w#	c #191811",
"x#	c #282412",
"y#	c #3E3916",
"z#	c #514D1D",
"A#	c #686623",
"B#	c #737425",
"C#	c #757725",
"D#	c #747625",
"E#	c #717125",
"F#	c #666323",
"G#	c #4F4C1C",
"H#	c #3C3A15",
"I#	c #272512",
"J#	c #1B1B1B",
"K#	c #1F1F1F",
"L#	c #171718",
"M#	c #121211",
"N#	c #232013",
"O#	c #2A2716",
"P#	c #3D3D1A",
"Q#	c #4A4C1B",
"R#	c #4D501A",
"S#	c #4B4D1A",
"T#	c #48491B",
"U#	c #3C3B1A",
"V#	c #282616",
"W#	c #222012",
"X#	c #181711",
"Y#	c #1A1A1A",
"Z#	c #19191B",
"`#	c #131315",
" $	c #141311",
".$	c #161511",
"+$	c #1F1F12",
"@$	c #232413",
"#$	c #242513",
"$$	c #232313",
"%$	c #1F1E12",
"&$	c #151410",
"*$	c #181818",
"=$	c #141414",
"-$	c #0F0F10",
";$	c #0D0D0E",
">$	c #0B0B0D",
",$	c #0D0D0F",
"'$	c #141416",
")$	c #131313",
"!$	c #161616",
"~$	c #101010",
"{$	c #0C0C0C",
". . . . . . . . . . . . . . . . . . . . . . . . . . . . . . . . . . . . . . . . . . . . ",
"+ @ @ @ @ @ @ @ @ @ @ @ @ @ @ @ @ @ @ @ @ @ @ @ @ @ @ @ @ @ @ @ @ @ @ @ @ @ @ @ @ @ @ + ",
"# $ $ $ $ $ $ $ $ $ $ $ $ $ $ $ $ $ $ $ $ $ $ $ $ $ $ $ $ $ $ $ $ $ $ $ $ $ $ $ $ $ $ # ",
"% & & & & & & & & & & & & & & & & & & & & & & & & & & & & & & & & & & & & & & & & & & % ",
"+ @ @ @ @ @ @ @ @ @ @ @ @ @ @ @ @ @ @ @ @ @ @ @ @ @ @ @ @ @ @ @ @ @ @ @ @ @ @ @ @ @ @ + ",
"+ + + + + + + + + + + + + + + + + + + + + + + + + + + + + + + + + + + + + + + + + + + + ",
"* = = = = = = = = = = = = = = = = = * - ; > > ; - , = = = = = = = = = = = = = = = = = * ",
"; * * * * * * * * * * * * * * * * ' ) ! ~ { { ~ ] ^ / * * * * * * * * * * * * * * * * ; ",
"; ; ; ; ; ; ; ; ; ; ; ; ; ; ; / ( _ : < [ } | 1 < 2 _ 3 4 ; ; ; ; ; ; ; ; ; ; ; ; ; ; ; ",
"/ 4 4 4 4 4 4 4 4 4 4 4 4 4 5 6 7 8 9 0 a b c d e 9 8 f g h i 4 4 4 4 4 4 4 4 4 4 4 4 / ",
"j / / / / / / / / / / / / k l m n o p q r s t u v w o x y z A / / / / / / / / / / / / j ",
"j j j j j j j j j j j j B C D E F G H I J K K L M N O P Q R S T j j j j j j j j j j j j ",
"U V V V V V V V V V V U W X Y Z `  ...+.@.#.#.$.%.&.*.=.-.;.>.,.'.V V V V V V V V V V U ",
").!.!.!.!.!.!.!.!.!.!.~.{.].^./.(._.:.<.[.}.|.1.2.3.4.5.6.7.8.9.0.!.!.!.!.!.!.!.!.!.!.).",
").).).).).).).).).).a.b.8 c.d.e.f.g.h.i.j.k.l.l.m.n.o.p.q.r.s.t.u.v.).).).).).).).).).).",
"w.x.x.x.x.x.x.x.x.y.z.A.B.C.D.E.F.G.H.I.J.K.L.L.K.M.N.O.P.Q.C.R.S.T.U.x.x.x.x.x.x.x.x.w.",
"w.w.w.w.w.w.w.w.V.W.X.Y.Z.`. +.+++@+#+$+%+&+*+=+%+-+;+>+,+'+)+!+~+X.{+w.w.w.w.w.w.w.w.w.",
"]+^+^+^+^+^+^+^+^+/+(+_+:+<+[+}+|+1+2+3+4+5+6+7+8+9+1+0+a+b+c+d+e+f+g+^+^+^+^+^+^+^+^+]+",
"h+]+]+]+]+]+]+]+]+i+j+k+l+m+n+o+p+q+r+s+t+u+v+w+x+y+z+A+B+C+m+D+E+F+~ ]+]+]+]+]+]+]+]+h+",
"h+h+h+h+h+h+h+h+h+G+H+I+J+K+L+M+N+O+P+Q+R+R+S+Q+T+U+V+W+X+Y+Z+`+ @.@+@h+h+h+h+h+h+h+h+h+",
"@@#@#@#@#@#@#@#@#@$@%@&@*@=@-@;@>@,@'@)@!@!@~@{@]@^@/@O+;@-@(@_@I+:@{ #@#@#@#@#@#@#@#@@@",
"G+i+i+i+i+i+i+i+i+$@<@[@}@|@1@V+2@3@4@5@6@7@8@9@0@a@3@b@c@d@e@f@I+F+g@i+i+i+i+i+i+i+i+G+",
"G+G+G+G+G+G+G+G+G+h@i@j@k@l@m@n@o@p@q@r@s@t@t@u@v@w@4@x@y@z@A@B@C@i@h@G+G+G+G+G+G+G+G+G+",
"D@E@E@E@E@E@E@E@E@E@F@G@H@I@J@K@L@M@N@O@P@Q@R@S@s@N@T@U@V@W@X@Y@E+Z@E@E@E@E@E@E@E@E@E@D@",
"D@D@D@D@D@D@D@D@D@D@{ `@ #.#+#@###$#%#O@P@&#R@*#=#-#;#>#,#'#)#!#~#D@D@D@D@D@D@D@D@D@D@D@",
"{#{#{#{#{#{#{#{#{#{#{#]#^#/#(#_#:#<#[#}#|#|#1#2#3#4#5#6#7#8#9#0#a#{#{#{#{#{#{#{#{#{#{#{#",
"b#]#]#]#]#]#]#]#]#]#]#]#c#d#k+e#f#g#h#i#j#k#l#m#n#o#p#f#q#r#d#s#]#]#]#]#]#]#]#]#]#]#]#b#",
"b#b#b#b#b#b#b#b#b#b#b#b#t#u#v#w#x#y#z#A#B#C#D#E#F#G#H#I#r#v#J#t#b#b#b#b#b#b#b#b#b#b#b#b#",
"K#K#K#K#K#K#K#K#K#K#K#K#K#K#L#M#w#N#O#P#Q#R#S#T#U#V#W#X#M#L#K#K#K#K#K#K#K#K#K#K#K#K#K#K#",
"Y#X.X.X.X.X.X.X.X.X.X.X.X.X.X.Z#`# $.$+$@$#$@$$$%$&$0#`#Z#X.X.X.X.X.X.X.X.X.X.X.X.X.X.Y#",
"Y#Y#Y#Y#Y#Y#Y#Y#Y#Y#Y#Y#Y#Y#Y#Y#Y#*$=$-$;$>$>$,$-$'$*$Y#Y#Y#Y#Y#Y#Y#Y#Y#Y#Y#Y#Y#Y#Y#Y#Y#",
"=$*$*$*$*$*$*$*$*$*$*$*$*$*$*$*$*$*$*$*$*$*$*$*$*$*$*$*$*$*$*$*$*$*$*$*$*$*$*$*$*$*$*$=$",
")$!$!$!$!$!$!$!$!$!$!$!$!$!$!$!$!$!$!$!$!$!$!$!$!$!$!$!$!$!$!$!$!$!$!$!$!$!$!$!$!$!$!$)$",
"~$)$)$)$)$)$)$)$)$)$)$)$)$)$)$)$)$)$)$)$)$)$)$)$)$)$)$)$)$)$)$)$)$)$)$)$)$)$)$)$)$)$)$~$",
"~$)$)$)$)$)$)$)$)$)$)$)$)$)$)$)$)$)$)$)$)$)$)$)$)$)$)$)$)$)$)$)$)$)$)$)$)$)$)$)$)$)$)$~$",
"t#]#]#]#]#]#]#]#]#]#]#]#]#]#]#]#]#]#]#]#]#]#]#]#]#]#]#]#]#]#]#]#]#]#]#]#]#]#]#]#]#]#]#t#",
"K#t#t#t#t#t#t#t#t#t#t#t#t#t#t#t#t#t#t#t#t#t#t#t#t#t#t#t#t#t#t#t#t#t#t#t#t#t#t#t#t#t#t#K#",
"{${${${${${${${${${${${${${${${${${${${${${${${${${${${${${${${${${${${${${${${${${${${$"};
