/* XPM */
static char * menu_active_xpm[] = {
"44 38 430 2",
"  	c None",
". 	c #000000",
"+ 	c #505050",
"@ 	c #525252",
"# 	c #696969",
"$ 	c #6C6C6C",
"% 	c #515151",
"& 	c #565656",
"* 	c #4C4C4C",
"= 	c #4E4E4E",
"- 	c #4A4A4A",
"; 	c #4A4949",
"> 	c #434141",
", 	c #3A3A3A",
"' 	c #343434",
") 	c #2F2F2F",
"! 	c #494949",
"~ 	c #393A3D",
"{ 	c #26262A",
"] 	c #191818",
"^ 	c #141412",
"/ 	c #101010",
"( 	c #0F0F0F",
"_ 	c #26282A",
": 	c #464646",
"< 	c #484848",
"[ 	c #494849",
"} 	c #403F40",
"| 	c #2D2D2D",
"1 	c #15181E",
"2 	c #01030B",
"3 	c #000003",
"4 	c #000008",
"5 	c #00000A",
"6 	c #444444",
"7 	c #3F3F3F",
"8 	c #211F21",
"9 	c #010101",
"0 	c #000001",
"a 	c #01031C",
"b 	c #040533",
"c 	c #050538",
"d 	c #050637",
"e 	c #040431",
"f 	c #01031B",
"g 	c #010102",
"h 	c #403F3F",
"i 	c #171717",
"j 	c #040304",
"k 	c #000114",
"l 	c #010E3C",
"m 	c #133050",
"n 	c #344A65",
"o 	c #4D5973",
"p 	c #555E76",
"q 	c #555C76",
"r 	c #4C5771",
"s 	c #304861",
"t 	c #102C4E",
"u 	c #010E3B",
"v 	c #000115",
"w 	c #3F3F3E",
"x 	c #414141",
"y 	c #404040",
"z 	c #1E1D1E",
"A 	c #040302",
"B 	c #00031B",
"C 	c #031847",
"D 	c #16386E",
"E 	c #294F7E",
"F 	c #43618A",
"G 	c #566C8F",
"H 	c #5A6E90",
"I 	c #556B90",
"J 	c #3E5F8B",
"K 	c #244A7B",
"L 	c #14356D",
"M 	c #031848",
"N 	c #00031C",
"O 	c #040303",
"P 	c #1D1B1D",
"Q 	c #3E3E3E",
"R 	c #2A2A2B",
"S 	c #06060B",
"T 	c #021749",
"U 	c #123A73",
"V 	c #285084",
"W 	c #30578B",
"X 	c #426392",
"Y 	c #4F6A94",
"Z 	c #526C95",
"` 	c #4E6995",
" .	c #3E6192",
"..	c #2E558B",
"+.	c #274F84",
"@.	c #123A72",
"#.	c #02164A",
"$.	c #00000B",
"%.	c #060609",
"&.	c #29292A",
"*.	c #393938",
"=.	c #090C15",
"-.	c #010103",
";.	c #000033",
">.	c #062765",
",.	c #1B477E",
"'.	c #2C5488",
").	c #31588E",
"!.	c #305793",
"~.	c #2F5795",
"{.	c #2E5696",
"].	c #31588F",
"^.	c #1B467D",
"/.	c #062665",
"(.	c #000036",
"_.	c #090C17",
":.	c #393838",
"<.	c #393939",
"[.	c #3B3B3B",
"}.	c #3A3A39",
"|.	c #282524",
"1.	c #010104",
"2.	c #000110",
"3.	c #000648",
"4.	c #03246A",
"5.	c #0D3A78",
"6.	c #1C4581",
"7.	c #244B87",
"8.	c #244C8B",
"9.	c #244C8C",
"0.	c #234B8E",
"a.	c #244C8F",
"b.	c #254C8E",
"c.	c #234A87",
"d.	c #1B437F",
"e.	c #0D3675",
"f.	c #032167",
"g.	c #00054A",
"h.	c #000113",
"i.	c #010204",
"j.	c #383838",
"k.	c #1A1919",
"l.	c #000228",
"m.	c #000E59",
"n.	c #00216D",
"o.	c #032D76",
"p.	c #0A347D",
"q.	c #123A82",
"r.	c #153C84",
"s.	c #183F86",
"t.	c #194186",
"u.	c #194387",
"v.	c #184286",
"w.	c #153F84",
"x.	c #113B80",
"y.	c #0A347B",
"z.	c #032B74",
"A.	c #00206B",
"B.	c #000C58",
"C.	c #000229",
"D.	c #010000",
"E.	c #1A1917",
"F.	c #363635",
"G.	c #353535",
"H.	c #363636",
"I.	c #333333",
"J.	c #141414",
"K.	c #000020",
"L.	c #00034B",
"M.	c #001366",
"N.	c #002070",
"O.	c #002876",
"P.	c #032E7C",
"Q.	c #093381",
"R.	c #0D3783",
"S.	c #123984",
"T.	c #133C84",
"U.	c #133E84",
"V.	c #123D83",
"W.	c #0E3B81",
"X.	c #09357F",
"Y.	c #03307A",
"Z.	c #002A74",
"`.	c #001464",
" +	c #000349",
".+	c #00001F",
"++	c #141313",
"@+	c #313131",
"#+	c #131313",
"$+	c #00022C",
"%+	c #000A5B",
"&+	c #001A6F",
"*+	c #002175",
"=+	c #002779",
"-+	c #022C7D",
";+	c #063181",
">+	c #0B3684",
",+	c #0F3884",
"'+	c #103A84",
")+	c #103C84",
"!+	c #0F3C83",
"~+	c #0D3A81",
"{+	c #07347F",
"]+	c #022F7B",
"^+	c #002A78",
"/+	c #002474",
"(+	c #001B6E",
"_+	c #00095B",
":+	c #00012C",
"<+	c #121212",
"[+	c #111111",
"}+	c #000431",
"|+	c #001062",
"1+	c #002074",
"2+	c #01297D",
"3+	c #043182",
"4+	c #083685",
"5+	c #0C3B88",
"6+	c #114089",
"7+	c #13418A",
"8+	c #14428A",
"9+	c #14448A",
"0+	c #144389",
"a+	c #124187",
"b+	c #0D3A84",
"c+	c #083583",
"d+	c #042F80",
"e+	c #01297B",
"f+	c #001363",
"g+	c #000531",
"h+	c #303030",
"i+	c #2D2D2C",
"j+	c #121213",
"k+	c #000006",
"l+	c #000430",
"m+	c #001060",
"n+	c #002376",
"o+	c #033183",
"p+	c #083988",
"q+	c #0E3F8B",
"r+	c #13458E",
"s+	c #184B91",
"t+	c #1A4E92",
"u+	c #1B5093",
"v+	c #1C4F93",
"w+	c #1C4D92",
"x+	c #184A8F",
"y+	c #13438B",
"z+	c #0E3C8A",
"A+	c #083587",
"B+	c #032D82",
"C+	c #002477",
"D+	c #001361",
"E+	c #000530",
"F+	c #101011",
"G+	c #2B2B2A",
"H+	c #2C2C2C",
"I+	c #141416",
"J+	c #000226",
"K+	c #000C54",
"L+	c #002575",
"M+	c #063684",
"N+	c #0E408B",
"O+	c #14488E",
"P+	c #1A4D8F",
"Q+	c #225593",
"R+	c #265B96",
"S+	c #275D97",
"T+	c #295C97",
"U+	c #285B96",
"V+	c #215692",
"W+	c #184C8E",
"X+	c #13448D",
"Y+	c #063283",
"Z+	c #002676",
"`+	c #000F55",
" @	c #131215",
".@	c #2B2B2B",
"+@	c #19191A",
"@@	c #00000D",
"#@	c #000638",
"$@	c #00266E",
"%@	c #093C84",
"&@	c #12498C",
"*@	c #19508F",
"=@	c #215490",
"-@	c #2C5C94",
";@	c #316297",
">@	c #326398",
",@	c #346398",
"'@	c #336297",
")@	c #2C5E93",
"!@	c #205590",
"~@	c #194E8E",
"{@	c #13458B",
"]@	c #093A84",
"^@	c #00276E",
"/@	c #000639",
"(@	c #00000E",
"_@	c #272727",
":@	c #2A2A2A",
"<@	c #242424",
"[@	c #090D11",
"}@	c #010106",
"|@	c #000622",
"1@	c #002969",
"2@	c #0D4386",
"3@	c #18508D",
"4@	c #1F5690",
"5@	c #275A92",
"6@	c #306195",
"7@	c #366697",
"8@	c #376797",
"9@	c #386796",
"0@	c #376695",
"a@	c #346293",
"b@	c #265B92",
"c@	c #1F5390",
"d@	c #194C8D",
"e@	c #0F4186",
"f@	c #002A69",
"g@	c #000722",
"h@	c #242323",
"i@	c #282828",
"j@	c #141519",
"k@	c #060607",
"l@	c #000310",
"m@	c #001C4F",
"n@	c #093A77",
"o@	c #174D8A",
"p@	c #24598F",
"q@	c #2A6291",
"r@	c #336895",
"s@	c #3C6B97",
"t@	c #3F6B97",
"u@	c #3E6B96",
"v@	c #3C6A95",
"w@	c #346694",
"x@	c #295D91",
"y@	c #23568F",
"z@	c #184A8A",
"A@	c #0B3977",
"B@	c #001E50",
"C@	c #000410",
"D@	c #050507",
"E@	c #141418",
"F@	c #262626",
"G@	c #242423",
"H@	c #0C0C0B",
"I@	c #020309",
"J@	c #000421",
"K@	c #021D48",
"L@	c #13407C",
"M@	c #24588B",
"N@	c #2A628E",
"O@	c #346A93",
"P@	c #3E6C95",
"Q@	c #416C97",
"R@	c #406C96",
"S@	c #3D6B95",
"T@	c #336693",
"U@	c #285C8E",
"V@	c #23558B",
"W@	c #12427C",
"X@	c #021E4A",
"Y@	c #000423",
"Z@	c #03030B",
"`@	c #0B0B0B",
" #	c #202020",
".#	c #232323",
"+#	c #1D1D1D",
"@#	c #090909",
"##	c #000623",
"$#	c #062753",
"%#	c #194871",
"&#	c #21557B",
"*#	c #31648A",
"=#	c #3C6991",
"-#	c #406B93",
";#	c #3F6B95",
">#	c #396992",
",#	c #2E608A",
"'#	c #21507A",
")#	c #1A4670",
"!#	c #082B54",
"~#	c #000826",
"{#	c #0A0A0B",
"]#	c #222222",
"^#	c #181818",
"/#	c #0D0D0D",
"(#	c #010205",
"_#	c #00030C",
":#	c #021124",
"<#	c #042642",
"[#	c #194267",
"}#	c #2B567B",
"|#	c #2F5A7F",
"1#	c #2E5A80",
"2#	c #2A567C",
"3#	c #184067",
"4#	c #052341",
"5#	c #021123",
"6#	c #1F1F1F",
"7#	c #0B0B0A",
"8#	c #07090B",
"9#	c #01040D",
"0#	c #000514",
"a#	c #031931",
"b#	c #0B233F",
"c#	c #0D2841",
"d#	c #0D2840",
"e#	c #0B233E",
"f#	c #031831",
"g#	c #000414",
"h#	c #1A1A1A",
"i#	c #1C1C1C",
"j#	c #111415",
"k#	c #070A0F",
"l#	c #040408",
"m#	c #030A14",
"n#	c #040C16",
"o#	c #040814",
"p#	c #07090F",
"q#	c #111315",
"r#	c #161616",
"s#	c #111110",
"t#	c #0F0F0E",
"u#	c #0E0E0D",
"v#	c #181817",
"w#	c #0C0C0C",
". . . . . . . . . . . . . . . . . . . . . . . . . . . . . . . . . . . . . . . . . . . . ",
"+ @ @ @ @ @ @ @ @ @ @ @ @ @ @ @ @ @ @ @ @ @ @ @ @ @ @ @ @ @ @ @ @ @ @ @ @ @ @ @ @ @ @ + ",
"# $ $ $ $ $ $ $ $ $ $ $ $ $ $ $ $ $ $ $ $ $ $ $ $ $ $ $ $ $ $ $ $ $ $ $ $ $ $ $ $ $ $ # ",
"% & & & & & & & & & & & & & & & & & & & & & & & & & & & & & & & & & & & & & & & & & & % ",
"+ @ @ @ @ @ @ @ @ @ @ @ @ @ @ @ @ @ @ @ @ @ @ @ @ @ @ @ @ @ @ @ @ @ @ @ @ @ @ @ @ @ @ + ",
"+ + + + + + + + + + + + + + + + + + + + + + + + + + + + + + + + + + + + + + + + + + + + ",
"* = = = = = = = = = = = = = = = = = = = = = = = = = = = = = = = = = = = = = = = = = = * ",
"- * * * * * * * * * * * * * * * * ; > , ' ) ) ' , > ; * * * * * * * * * * * * * * * * - ",
"- - - - - - - - - - - - - - - ! ~ { ] ^ / ( ( / ^ ] _ ~ ! - - - - - - - - - - - - - - - ",
": < < < < < < < < < < < < [ } | 1 2 . 3 4 5 5 4 3 . 2 1 | } [ < < < < < < < < < < < < : ",
"6 : : : : : : : : : : : : 7 8 9 . 0 0 a b c d e f 0 0 . g 8 7 : : : : : : : : : : : : 6 ",
"6 6 6 6 6 6 6 6 6 6 6 6 h i j . k l m n o p q r s t u v 0 j i w 6 6 6 6 6 6 6 6 6 6 6 6 ",
"7 x x x x x x x x x x y z A . B C D E F G H H I J K L M N . O P y x x x x x x x x x x 7 ",
"Q y y y y y y y y y y R S 0 5 T U V W X Y Z Z `  ...+.@.#.$.0 %.&.y y y y y y y y y y Q ",
"Q Q Q Q Q Q Q Q Q Q *.=.-.5 ;.>.,.'.).!.~.{.{.~.!.].'.^./.(.$.-._.:.Q Q Q Q Q Q Q Q Q Q ",
"<.[.[.[.[.[.[.[.[.}.|.1.. 2.3.4.5.6.7.8.9.0.a.b.9.c.d.e.f.g.h.0 i.|.}.[.[.[.[.[.[.[.[.<.",
"<.<.<.<.<.<.<.<., j.k.9 5 l.m.n.o.p.q.r.s.t.u.v.w.x.y.z.A.B.C.5 D.E.F.<.<.<.<.<.<.<.<.<.",
"G.H.H.H.H.H.H.H.H.I.J.9 K.L.M.N.O.P.Q.R.S.T.U.V.W.X.Y.Z.N.`. +.+D.++@+H.H.H.H.H.H.H.H.G.",
"I.G.G.G.G.G.G.G.G.@+#+. $+%+&+*+=+-+;+>+,+'+)+!+~+{+]+^+/+(+_+:+. <+) G.G.G.G.G.G.G.G.I.",
"I.I.I.I.I.I.I.I.I.) [+. }+|+1+2+3+4+5+6+7+8+9+0+a+b+c+d+e+*+f+g+. ( | I.I.I.I.I.I.I.I.I.",
"| h+h+h+h+h+h+h+h+i+j+k+l+m+n+o+p+q+r+s+t+u+v+w+x+y+z+A+B+C+D+E+k+F+G+h+h+h+h+h+h+h+h+| ",
"H+) ) ) ) ) ) ) ) H+I+4 J+K+L+M+N+O+P+Q+R+S+T+U+V+W+X+z+Y+Z+`+l.4  @.@) ) ) ) ) ) ) ) H+",
"H+H+H+H+H+H+H+H+H+G++@9 @@#@$@%@&@*@=@-@;@>@,@'@)@!@~@{@]@^@/@(@9 +@G+H+H+H+H+H+H+H+H+H+",
"_@:@:@:@:@:@:@:@:@:@<@[@}@|@1@2@3@4@5@6@7@8@9@0@a@b@c@d@e@f@g@}@[@h@:@:@:@:@:@:@:@:@:@_@",
"_@_@_@_@_@_@_@_@_@_@i@j@k@l@m@n@o@p@q@r@s@t@u@v@w@x@y@z@A@B@C@D@E@_@_@_@_@_@_@_@_@_@_@_@",
"F@F@F@F@F@F@F@F@F@F@F@G@H@I@J@K@L@M@N@O@P@Q@R@S@T@U@V@W@X@Y@Z@`@h@F@F@F@F@F@F@F@F@F@F@F@",
" #.#.#.#.#.#.#.#.#.#.#.#+#@#. ##$#%#&#*#=#-#;#>#,#'#)#!#~#. {#+#.#.#.#.#.#.#.#.#.#.#.# #",
" # # # # # # # # # # # #]#^#/#(#_#:#<#[#}#|#1#2#3#4#5#_#(#/#^#]# # # # # # # # # # # # #",
"6#6#6#6#6#6#6#6#6#6#6#6#6# #^#7#8#9#0#a#b#c#d#e#f#g#9#8#7#^# #6#6#6#6#6#6#6#6#6#6#6#6#6#",
"h#i#i#i#i#i#i#i#i#i#i#i#i#i#i#i#j#k#l#m#n#o#o#n#m#l#p#q#i#i#i#i#i#i#i#i#i#i#i#i#i#i#i#h#",
"h#h#h#h#h#h#h#h#h#h#h#h#h#h#h#h#h#^#r#s#t#u#u#t#s#r#^#h#h#h#h#h#h#h#h#h#h#h#h#h#h#h#h#h#",
"J.^#^#^#^#^#^#^#^#^#^#^#^#^#^#^#^#^#^#v#v#v#v#v#v#^#^#^#^#^#^#^#^#^#^#^#^#^#^#^#^#^#^#J.",
"#+r#r#r#r#r#r#r#r#r#r#r#r#r#r#r#r#r#r#r#r#r#r#r#r#r#r#r#r#r#r#r#r#r#r#r#r#r#r#r#r#r#r##+",
"/ #+#+#+#+#+#+#+#+#+#+#+#+#+#+#+#+#+#+#+#+#+#+#+#+#+#+#+#+#+#+#+#+#+#+#+#+#+#+#+#+#+#+/ ",
"/ #+#+#+#+#+#+#+#+#+#+#+#+#+#+#+#+#+#+#+#+#+#+#+#+#+#+#+#+#+#+#+#+#+#+#+#+#+#+#+#+#+#+/ ",
"]#.#.#.#.#.#.#.#.#.#.#.#.#.#.#.#.#.#.#.#.#.#.#.#.#.#.#.#.#.#.#.#.#.#.#.#.#.#.#.#.#.#.#]#",
"6#]#]#]#]#]#]#]#]#]#]#]#]#]#]#]#]#]#]#]#]#]#]#]#]#]#]#]#]#]#]#]#]#]#]#]#]#]#]#]#]#]#]#6#",
"w#w#w#w#w#w#w#w#w#w#w#w#w#w#w#w#w#w#w#w#w#w#w#w#w#w#w#w#w#w#w#w#w#w#w#w#w#w#w#w#w#w#w#w#"};
