/* XPM */
static char * menu_pressed_xpm[] = {
"44 38 483 2",
"  	c None",
". 	c #000000",
"+ 	c #505050",
"@ 	c #525252",
"# 	c #696969",
"$ 	c #6C6C6C",
"% 	c #515151",
"& 	c #565656",
"* 	c #4C4C4C",
"= 	c #4E4E4E",
"- 	c #4A4A4A",
"; 	c #4A4A49",
"> 	c #444343",
", 	c #3D3B3A",
"' 	c #353534",
") 	c #30302F",
"! 	c #303030",
"~ 	c #3D3B3B",
"{ 	c #494949",
"] 	c #3A3A3D",
"^ 	c #2D2D2E",
"/ 	c #202023",
"( 	c #1A1B20",
"_ 	c #16181E",
": 	c #15161C",
"< 	c #15161B",
"[ 	c #16181D",
"} 	c #1A1A20",
"| 	c #1F2023",
"1 	c #464646",
"2 	c #484848",
"3 	c #494948",
"4 	c #404040",
"5 	c #302F31",
"6 	c #16171F",
"7 	c #090E18",
"8 	c #091019",
"9 	c #0C1322",
"0 	c #0F1527",
"a 	c #101628",
"b 	c #101627",
"c 	c #0D1626",
"d 	c #0B1221",
"e 	c #090F19",
"f 	c #090D18",
"g 	c #171820",
"h 	c #444444",
"i 	c #3F3F3F",
"j 	c #22221F",
"k 	c #0A0B13",
"l 	c #040715",
"m 	c #03091E",
"n 	c #0B1533",
"o 	c #14234D",
"p 	c #21325D",
"q 	c #243661",
"r 	c #233660",
"s 	c #1F325B",
"t 	c #13234B",
"u 	c #0A1334",
"v 	c #030920",
"w 	c #040717",
"x 	c #0A0A15",
"y 	c #3F3F3D",
"z 	c #1A1B1D",
"A 	c #0B0E16",
"B 	c #050B20",
"C 	c #111F3F",
"D 	c #2E4B76",
"E 	c #527494",
"F 	c #6B7E9B",
"G 	c #75809E",
"H 	c #7A829E",
"I 	c #7A839E",
"J 	c #75819E",
"K 	c #687B9B",
"L 	c #4D6E93",
"M 	c #2B4976",
"N 	c #101D40",
"O 	c #040A22",
"P 	c #0B0E15",
"Q 	c #1A1B1C",
"R 	c #414141",
"S 	c #1E1E20",
"T 	c #0A0D17",
"U 	c #050E22",
"V 	c #122242",
"W 	c #2C4678",
"X 	c #557BA7",
"Y 	c #698FB3",
"Z 	c #7A92B4",
"` 	c #7F91B3",
" .	c #8091B1",
"..	c #7F92B1",
"+.	c #7892B2",
"@.	c #668CB2",
"#.	c #4F78A6",
"$.	c #28457A",
"%.	c #112243",
"&.	c #050F23",
"*.	c #0A0E17",
"=.	c #1E1D1F",
"-.	c #40403F",
";.	c #3E3E3E",
">.	c #2B2B2E",
",.	c #0C0E18",
"'.	c #050B1A",
").	c #09193E",
"!.	c #2B4876",
"~.	c #4A6F9E",
"{.	c #5D83AF",
"].	c #6A90B6",
"^.	c #7491B6",
"/.	c #778FB5",
"(.	c #788DB3",
"_.	c #778EB3",
":.	c #7390B5",
"<.	c #688EB6",
"[.	c #5B81AE",
"}.	c #486F9E",
"|.	c #2B4978",
"1.	c #091C41",
"2.	c #050C1D",
"3.	c #0B0D18",
"4.	c #2A2A2D",
"5.	c #393938",
"6.	c #12151D",
"7.	c #05091C",
"8.	c #050F2B",
"9.	c #172F5F",
"0.	c #34568D",
"a.	c #527AA7",
"b.	c #5B80AE",
"c.	c #5A7EB0",
"d.	c #597CB0",
"e.	c #577AAF",
"f.	c #5679AE",
"g.	c #577AB1",
"h.	c #597CB1",
"i.	c #5A7EB1",
"j.	c #527AA6",
"k.	c #34568F",
"l.	c #172E61",
"m.	c #050E2D",
"n.	c #15171D",
"o.	c #393939",
"p.	c #3B3B3B",
"q.	c #3A3A38",
"r.	c #292927",
"s.	c #0E1116",
"t.	c #071740",
"u.	c #1C396F",
"v.	c #2F518D",
"w.	c #40659B",
"x.	c #496CA2",
"y.	c #4C6CA5",
"z.	c #4E6EA6",
"A.	c #4E70A7",
"B.	c #4E71A8",
"C.	c #4E71A9",
"D.	c #4E71AA",
"E.	c #4C6FA8",
"F.	c #4A6CA4",
"G.	c #486AA0",
"H.	c #406498",
"I.	c #2F4F8C",
"J.	c #1C3671",
"K.	c #061743",
"L.	c #040F24",
"M.	c #0E1016",
"N.	c #292827",
"O.	c #3A3A3A",
"P.	c #383635",
"Q.	c #1C1C1D",
"R.	c #0A1018",
"S.	c #071531",
"T.	c #0B225B",
"U.	c #1F3D7C",
"V.	c #2B4C8E",
"W.	c #325596",
"X.	c #375C9B",
"Y.	c #3C619E",
"Z.	c #4063A0",
"`.	c #4466A2",
" +	c #4567A3",
".+	c #4467A3",
"++	c #3F65A0",
"@+	c #375C99",
"#+	c #325593",
"$+	c #2C4B8D",
"%+	c #1F3B7D",
"&+	c #0B215C",
"*+	c #061532",
"=+	c #1B1B1C",
"-+	c #363533",
";+	c #353535",
">+	c #363636",
",+	c #33302F",
"'+	c #161718",
")+	c #0B101F",
"!+	c #0D1E47",
"~+	c #143274",
"{+	c #214187",
"]+	c #2B4B90",
"^+	c #305296",
"/+	c #33579A",
"(+	c #355C9D",
"_+	c #395F9F",
":+	c #3F61A0",
"<+	c #4062A1",
"[+	c #4064A1",
"}+	c #3F63A0",
"|+	c #3A619E",
"1+	c #365D9D",
"2+	c #335898",
"3+	c #305394",
"4+	c #2A4B8F",
"5+	c #153074",
"6+	c #0E1A46",
"7+	c #0B101E",
"8+	c #151617",
"9+	c #302F2D",
"0+	c #333333",
"a+	c #302F2F",
"b+	c #0D1124",
"c+	c #142554",
"d+	c #1F3C7F",
"e+	c #23468F",
"f+	c #2B4C96",
"g+	c #315299",
"h+	c #32569B",
"i+	c #335A9D",
"j+	c #375E9F",
"k+	c #3D60A0",
"l+	c #3E61A0",
"m+	c #3E63A0",
"n+	c #3D629F",
"o+	c #38609E",
"p+	c #345C9D",
"q+	c #33579B",
"r+	c #305398",
"s+	c #294F94",
"t+	c #234890",
"u+	c #1E3D80",
"v+	c #142452",
"w+	c #0D1122",
"x+	c #141516",
"y+	c #2D2D2C",
"z+	c #2D2C2C",
"A+	c #131516",
"B+	c #0E1427",
"C+	c #17285A",
"D+	c #244185",
"E+	c #294C95",
"F+	c #30549D",
"G+	c #345AA1",
"H+	c #375EA2",
"I+	c #3962A3",
"J+	c #3E67A5",
"K+	c #4168A6",
"L+	c #4269A6",
"M+	c #426BA6",
"N+	c #416AA6",
"O+	c #3963A3",
"P+	c #375EA1",
"Q+	c #3459A0",
"R+	c #2F539C",
"S+	c #284C97",
"T+	c #234387",
"U+	c #162C59",
"V+	c #0E1525",
"W+	c #111314",
"X+	c #2C2B2B",
"Y+	c #2D2D2D",
"Z+	c #2B2A2A",
"`+	c #141617",
" @	c #0F1626",
".@	c #172855",
"+@	c #244183",
"@@	c #2E4E96",
"#@	c #355AA1",
"$@	c #3862A5",
"%@	c #3B66A9",
"&@	c #3F6BAA",
"*@	c #4570AB",
"=@	c #4772AC",
"-@	c #4873AC",
";@	c #4874AC",
">@	c #4773AC",
",@	c #4570AC",
"'@	c #3F6AAA",
")@	c #3B64A5",
"!@	c #385EA2",
"~@	c #32589E",
"{@	c #2C5097",
"]@	c #244386",
"^@	c #162A55",
"/@	c #0F1525",
"(@	c #121415",
"_@	c #282828",
":@	c #2C2C2C",
"<@	c #2F2F2F",
"[@	c #171718",
"}@	c #10161F",
"|@	c #152646",
"1@	c #233F7C",
"2@	c #2F5095",
"3@	c #3C68A6",
"4@	c #3F6EAB",
"5@	c #4774B0",
"6@	c #4F7BB0",
"7@	c #517DB1",
"8@	c #517FB1",
"9@	c #527EB1",
"0@	c #4E7CB1",
"a@	c #4574B0",
"b@	c #3F6BA9",
"c@	c #3B64A4",
"d@	c #355C9F",
"e@	c #2E5196",
"f@	c #23427F",
"g@	c #162548",
"h@	c #111520",
"i@	c #151516",
"j@	c #2A2828",
"k@	c #2B2A28",
"l@	c #1D1C1C",
"m@	c #111619",
"n@	c #132135",
"o@	c #1B3666",
"p@	c #2E5190",
"q@	c #3963A1",
"r@	c #406EA7",
"s@	c #4776AC",
"t@	c #4F7DB1",
"u@	c #5985B4",
"v@	c #5F89B5",
"w@	c #618BB5",
"x@	c #648DB5",
"y@	c #628CB5",
"z@	c #5B87B3",
"A@	c #4E7DB1",
"B@	c #4674AB",
"C@	c #406BA7",
"D@	c #3961A0",
"E@	c #2F5191",
"F@	c #1B3767",
"G@	c #132035",
"H@	c #111518",
"I@	c #272727",
"J@	c #2A2A2A",
"K@	c #252424",
"L@	c #131619",
"M@	c #111B26",
"N@	c #152C51",
"O@	c #2C538A",
"P@	c #3B69A1",
"Q@	c #4573A9",
"R@	c #4D7BAD",
"S@	c #5483B1",
"T@	c #608CB6",
"U@	c #6791B8",
"V@	c #6B95B9",
"W@	c #6E97B8",
"X@	c #6C95B7",
"Y@	c #638FB5",
"Z@	c #5484B1",
"`@	c #4C7BAD",
" #	c #4672A9",
".#	c #3E67A1",
"+#	c #30538A",
"@#	c #152C53",
"##	c #101C27",
"$#	c #121719",
"%#	c #252323",
"&#	c #191B1B",
"*#	c #10151B",
"=#	c #121D30",
"-#	c #274976",
";#	c #366094",
">#	c #4370A5",
",#	c #5080AC",
"'#	c #5989B1",
")#	c #6591B6",
"!#	c #6C96B8",
"~#	c #6F97B9",
"{#	c #6691B6",
"]#	c #5985B1",
"^#	c #507CAC",
"/#	c #4470A5",
"(#	c #395F95",
"_#	c #2A4A77",
":#	c #121E31",
"<#	c #10161A",
"[#	c #181A1A",
"}#	c #262626",
"|#	c #232323",
"1#	c #111213",
"2#	c #11151C",
"3#	c #182840",
"4#	c #28446C",
"5#	c #3C6798",
"6#	c #4F7EA7",
"7#	c #5888AF",
"8#	c #6591B3",
"9#	c #6D96B6",
"0#	c #6F97B7",
"a#	c #6590B5",
"b#	c #5883AF",
"c#	c #4F7AA7",
"d#	c #3D6999",
"e#	c #29486F",
"f#	c #192A41",
"g#	c #11161C",
"h#	c #232322",
"i#	c #202020",
"j#	c #1B1B1B",
"k#	c #101010",
"l#	c #101518",
"m#	c #1C2C43",
"n#	c #2C4A6F",
"o#	c #426A8C",
"p#	c #4F7A9B",
"q#	c #5E8CAA",
"r#	c #6992AF",
"s#	c #6D93B2",
"t#	c #6C93B4",
"u#	c #6991B3",
"v#	c #5E88AD",
"w#	c #4E769B",
"x#	c #42678B",
"y#	c #2C4D6E",
"z#	c #1B2E44",
"A#	c #101418",
"B#	c #222222",
"C#	c #1B1A1B",
"D#	c #101011",
"E#	c #13202C",
"F#	c #1E364A",
"G#	c #304B68",
"H#	c #44698A",
"I#	c #537897",
"J#	c #577C9A",
"K#	c #446688",
"L#	c #2F4968",
"M#	c #1F344A",
"N#	c #15202C",
"O#	c #1F1F1F",
"P#	c #191817",
"Q#	c #111212",
"R#	c #111618",
"S#	c #141922",
"T#	c #16202C",
"U#	c #203448",
"V#	c #28425B",
"W#	c #2B475E",
"X#	c #2D475D",
"Y#	c #2B4258",
"Z#	c #203144",
"`#	c #161F2C",
" $	c #121518",
".$	c #1A1A1A",
"+$	c #1C1C1C",
"@$	c #1B1B19",
"#$	c #151213",
"$$	c #0F1011",
"%$	c #0F1114",
"&$	c #12191F",
"*$	c #151D26",
"=$	c #161F28",
"-$	c #171F27",
";$	c #161D25",
">$	c #12171E",
",$	c #141213",
"'$	c #181818",
")$	c #161414",
"!$	c #10100F",
"~$	c #0E0D0C",
"{$	c #0C0B0A",
"]$	c #141414",
"^$	c #131313",
"/$	c #161616",
"($	c #0C0C0C",
". . . . . . . . . . . . . . . . . . . . . . . . . . . . . . . . . . . . . . . . . . . . ",
"+ @ @ @ @ @ @ @ @ @ @ @ @ @ @ @ @ @ @ @ @ @ @ @ @ @ @ @ @ @ @ @ @ @ @ @ @ @ @ @ @ @ @ + ",
"# $ $ $ $ $ $ $ $ $ $ $ $ $ $ $ $ $ $ $ $ $ $ $ $ $ $ $ $ $ $ $ $ $ $ $ $ $ $ $ $ $ $ # ",
"% & & & & & & & & & & & & & & & & & & & & & & & & & & & & & & & & & & & & & & & & & & % ",
"+ @ @ @ @ @ @ @ @ @ @ @ @ @ @ @ @ @ @ @ @ @ @ @ @ @ @ @ @ @ @ @ @ @ @ @ @ @ @ @ @ @ @ + ",
"+ + + + + + + + + + + + + + + + + + + + + + + + + + + + + + + + + + + + + + + + + + + + ",
"* = = = = = = = = = = = = = = = = = = = = = = = = = = = = = = = = = = = = = = = = = = * ",
"- * * * * * * * * * * * * * * * * ; > , ' ) ! ' ~ > ; * * * * * * * * * * * * * * * * - ",
"- - - - - - - - - - - - - - - { ] ^ / ( _ : < [ } | ^ ] { - - - - - - - - - - - - - - - ",
"1 2 2 2 2 2 2 2 2 2 2 2 2 3 4 5 6 7 8 9 0 a b c d e f g 5 4 3 2 2 2 2 2 2 2 2 2 2 2 2 1 ",
"h 1 1 1 1 1 1 1 1 1 1 1 1 i j k l m n o p q r s t u v w x j i 1 1 1 1 1 1 1 1 1 1 1 1 h ",
"h h h h h h h h h h h h y z A B C D E F G H I J K L M N O P Q y h h h h h h h h h h h h ",
"i R R R R R R R R R R 4 S T U V W X Y Z `  . ...+.@.#.$.%.&.*.=.-.R R R R R R R R R R i ",
";.4 4 4 4 4 4 4 4 4 4 >.,.'.).!.~.{.].^./.(.(._.:.<.[.}.|.1.2.3.4.4 4 4 4 4 4 4 4 4 4 ;.",
";.;.;.;.;.;.;.;.;.;.5.6.7.8.9.0.a.b.c.d.e.f.f.g.h.i.b.j.k.l.m.7.n.5.;.;.;.;.;.;.;.;.;.;.",
"o.p.p.p.p.p.p.p.p.q.r.s.&.t.u.v.w.x.y.z.A.B.C.D.E.F.G.H.I.J.K.L.M.N.q.p.p.p.p.p.p.p.p.o.",
"o.o.o.o.o.o.o.o.O.P.Q.R.S.T.U.V.W.X.Y.Z.`. + +.+++Y.@+#+$+%+&+*+R.=+-+o.o.o.o.o.o.o.o.o.",
";+>+>+>+>+>+>+>+>+,+'+)+!+~+{+]+^+/+(+_+:+<+[+}+|+1+2+3+4+{+5+6+7+8+9+>+>+>+>+>+>+>+>+;+",
"0+;+;+;+;+;+;+;+;+a+8+b+c+d+e+f+g+h+i+j+k+l+m+n+o+p+q+r+s+t+u+v+w+x+y+;+;+;+;+;+;+;+;+0+",
"0+0+0+0+0+0+0+0+0+z+A+B+C+D+E+F+G+H+I+J+K+L+M+N+J+O+P+Q+R+S+T+U+V+W+X+0+0+0+0+0+0+0+0+0+",
"Y+! ! ! ! ! ! ! ! Z+`+ @.@+@@@#@$@%@&@*@=@-@;@>@,@'@)@!@~@{@]@^@/@(@_@! ! ! ! ! ! ! ! Y+",
":@<@<@<@<@<@<@<@<@Z+[@}@|@1@2@P+3@4@5@6@7@8@9@7@0@a@b@c@d@e@f@g@h@i@j@<@<@<@<@<@<@<@<@:@",
":@:@:@:@:@:@:@:@:@k@l@m@n@o@p@q@r@s@t@u@v@w@x@y@z@A@B@C@D@E@F@G@H@l@k@:@:@:@:@:@:@:@:@:@",
"I@J@J@J@J@J@J@J@J@J@K@L@M@N@O@P@Q@R@S@T@U@V@W@X@Y@Z@`@ #.#+#@###$#%#J@J@J@J@J@J@J@J@J@I@",
"I@I@I@I@I@I@I@I@I@I@_@&#*#=#-#;#>#,#'#)#!#~#W@!#{#]#^#/#(#_#:#<#[#I@I@I@I@I@I@I@I@I@I@I@",
"}#}#}#}#}#}#}#}#}#}#}#|#1#2#3#4#5#6#7#8#9#0#W@X@a#b#c#d#e#f#g#1#h#}#}#}#}#}#}#}#}#}#}#}#",
"i#|#|#|#|#|#|#|#|#|#|#|#j#k#l#m#n#o#p#q#r#s#t#u#v#w#x#y#z#A#k#j#|#|#|#|#|#|#|#|#|#|#|#i#",
"i#i#i#i#i#i#i#i#i#i#i#i#B#C#D#A#E#F#G#H#I#J#J#I#K#L#M#N#A#D#C#B#i#i#i#i#i#i#i#i#i#i#i#i#",
"O#O#O#O#O#O#O#O#O#O#O#O#O#O#P#Q#R#S#T#U#V#W#X#Y#Z#`#S# $Q#P#O#O#O#O#O#O#O#O#O#O#O#O#O#O#",
".$+$+$+$+$+$+$+$+$+$+$+$+$+$+$@$#$$$%$&$*$=$-$;$>$%$$$,$@$+$+$+$+$+$+$+$+$+$+$+$+$+$+$.$",
".$.$.$.$.$.$.$.$.$.$.$.$.$.$.$.$.$'$)$!$~${${$~$!$)$'$.$.$.$.$.$.$.$.$.$.$.$.$.$.$.$.$.$",
"]$'$'$'$'$'$'$'$'$'$'$'$'$'$'$'$'$'$'$'$'$'$'$'$'$'$'$'$'$'$'$'$'$'$'$'$'$'$'$'$'$'$'$]$",
"^$/$/$/$/$/$/$/$/$/$/$/$/$/$/$/$/$/$/$/$/$/$/$/$/$/$/$/$/$/$/$/$/$/$/$/$/$/$/$/$/$/$/$^$",
"k#^$^$^$^$^$^$^$^$^$^$^$^$^$^$^$^$^$^$^$^$^$^$^$^$^$^$^$^$^$^$^$^$^$^$^$^$^$^$^$^$^$^$k#",
"k#^$^$^$^$^$^$^$^$^$^$^$^$^$^$^$^$^$^$^$^$^$^$^$^$^$^$^$^$^$^$^$^$^$^$^$^$^$^$^$^$^$^$k#",
"B#|#|#|#|#|#|#|#|#|#|#|#|#|#|#|#|#|#|#|#|#|#|#|#|#|#|#|#|#|#|#|#|#|#|#|#|#|#|#|#|#|#|#B#",
"O#B#B#B#B#B#B#B#B#B#B#B#B#B#B#B#B#B#B#B#B#B#B#B#B#B#B#B#B#B#B#B#B#B#B#B#B#B#B#B#B#B#B#O#",
"($($($($($($($($($($($($($($($($($($($($($($($($($($($($($($($($($($($($($($($($($($($($"};
