/* XPM */
static char * menu_prelight_xpm[] = {
"44 38 466 2",
"  	c None",
". 	c #000000",
"+ 	c #505050",
"@ 	c #525252",
"# 	c #696969",
"$ 	c #6C6C6C",
"% 	c #515151",
"& 	c #565656",
"* 	c #4C4C4C",
"= 	c #4E4E4E",
"- 	c #4B4B4A",
"; 	c #464646",
"> 	c #444444",
", 	c #434343",
"' 	c #4A4A4A",
") 	c #4B4B4B",
"! 	c #3A3A3A",
"~ 	c #303131",
"{ 	c #2B2B2C",
"] 	c #282A2A",
"^ 	c #363535",
"/ 	c #29292B",
"( 	c #212126",
"_ 	c #222630",
": 	c #232731",
"< 	c #21252F",
"[ 	c #232631",
"} 	c #222530",
"| 	c #363534",
"1 	c #484848",
"2 	c #363635",
"3 	c #272828",
"4 	c #23252C",
"5 	c #262934",
"6 	c #2D3446",
"7 	c #3F4A63",
"8 	c #485473",
"9 	c #4A5576",
"0 	c #4A5575",
"a 	c #485371",
"b 	c #3E4863",
"c 	c #2D3347",
"d 	c #23252D",
"e 	c #27282B",
"f 	c #464545",
"g 	c #353535",
"h 	c #212123",
"i 	c #1B1E28",
"j 	c #282F44",
"k 	c #475877",
"l 	c #687D9C",
"m 	c #889ABB",
"n 	c #9AA8CD",
"o 	c #9EACD1",
"p 	c #9EACD0",
"q 	c #9AA8CB",
"r 	c #8798BA",
"s 	c #677B9D",
"t 	c #435577",
"u 	c #272D46",
"v 	c #1B1D2A",
"w 	c #454545",
"x 	c #383838",
"y 	c #1C1C1D",
"z 	c #1D1E26",
"A 	c #344063",
"B 	c #5B70A5",
"C 	c #8DAED7",
"D 	c #A9CBEB",
"E 	c #C3D9F3",
"F 	c #D0DFF4",
"G 	c #D3E0F4",
"H 	c #C2D8F2",
"I 	c #A5C9EB",
"J 	c #88ABD7",
"K 	c #566AA5",
"L 	c #313A64",
"M 	c #1E1E24",
"N 	c #1C1C1E",
"O 	c #363638",
"P 	c #3F3F3F",
"Q 	c #414141",
"R 	c #3E3E3D",
"S 	c #1F2022",
"T 	c #1B1E26",
"U 	c #38425D",
"V 	c #5C719A",
"W 	c #8BADE4",
"X 	c #ADD4FC",
"Y 	c #BBE1FE",
"Z 	c #CBE3FE",
"` 	c #D2E4FE",
" .	c #D3E4FE",
"..	c #D0E4FE",
"+.	c #C8E3FE",
"@.	c #B7DFFE",
"#.	c #AAD2FC",
"$.	c #8BACE5",
"%.	c #5B709B",
"&.	c #384460",
"*.	c #1B1F27",
"=.	c #1E2022",
"-.	c #3E3E3E",
";.	c #404040",
">.	c #2B2B2D",
",.	c #1C1E25",
"'.	c #252D40",
").	c #516590",
"!.	c #86A6D8",
"~.	c #A5CBF8",
"{.	c #B1D6FF",
"].	c #BADFFF",
"^.	c #C1E0FF",
"/.	c #C2DDFF",
"(.	c #C2DCFF",
"_.	c #C1DBFF",
":.	c #C0E0FF",
"<.	c #B7DDFF",
"[.	c #B0D6FF",
"}.	c #86A7DA",
"|.	c #526897",
"1.	c #252D41",
"2.	c #1C1F25",
"3.	c #2A2A2D",
"4.	c #363636",
"5.	c #1E1E22",
"6.	c #222635",
"7.	c #384465",
"8.	c #667FB4",
"9.	c #8DB0E6",
"0.	c #A5CCF8",
"a.	c #ADD2FE",
"b.	c #AFD0FF",
"c.	c #ABD0FF",
"d.	c #A9CDFF",
"e.	c #A9CBFF",
"f.	c #A9CCFF",
"g.	c #ABCDFF",
"h.	c #ADCFFF",
"i.	c #AFD0FE",
"j.	c #ADD2FD",
"k.	c #A5CBF9",
"l.	c #8DB0E7",
"m.	c #657EB8",
"n.	c #384467",
"o.	c #222636",
"p.	c #393939",
"q.	c #3B3B3B",
"r.	c #383836",
"s.	c #252527",
"t.	c #181A1F",
"u.	c #2B334C",
"v.	c #4F5E8F",
"w.	c #718CC7",
"x.	c #84A8E3",
"y.	c #90B4ED",
"z.	c #99BBF5",
"A.	c #9FC0FA",
"B.	c #A0C4FB",
"C.	c #A1C4FB",
"D.	c #A2C4FB",
"E.	c #A2C5FC",
"F.	c #A2C3FB",
"G.	c #9EBFF7",
"H.	c #98BBF3",
"I.	c #8FB4ED",
"J.	c #84A5E2",
"K.	c #6F89C8",
"L.	c #4C5D91",
"M.	c #2A344C",
"N.	c #343333",
"O.	c #1C1D1E",
"P.	c #1E2534",
"Q.	c #3B4B70",
"R.	c #647BB7",
"S.	c #7693D6",
"T.	c #81A2E4",
"U.	c #86A8EB",
"V.	c #8CAEEF",
"W.	c #91B3F4",
"X.	c #95B8F6",
"Y.	c #97BAF8",
"Z.	c #98BBF8",
"`.	c #98BDF7",
" +	c #97BCF7",
".+	c #95B9F7",
"++	c #91B4F2",
"@+	c #8CAFEE",
"#+	c #86AAE8",
"$+	c #7FA1E2",
"%+	c #7491D4",
"&+	c #6279B7",
"*+	c #3E4A71",
"=+	c #1E2233",
"-+	c #1B1C1D",
";+	c #333333",
">+	c #2F2F2F",
",+	c #191A1C",
"'+	c #263144",
")+	c #516893",
"!+	c #6D8BCD",
"~+	c #7797E0",
"{+	c #7FA1E7",
"]+	c #85A6EC",
"^+	c #89ABEF",
"/+	c #8BAFF3",
"(+	c #8FB3F5",
"_+	c #92B6F6",
":+	c #93B8F6",
"<+	c #93BAF6",
"[+	c #91B7F5",
"}+	c #8CB2F2",
"|+	c #89ADEE",
"1+	c #84A9E9",
"2+	c #7FA1E3",
"3+	c #7697DC",
"4+	c #6D8ACA",
"5+	c #546293",
"6+	c #282C45",
"7+	c #18191A",
"8+	c #2D2D2D",
"9+	c #2B344C",
"0+	c #5B70A0",
"a+	c #7492D5",
"b+	c #799BE5",
"c+	c #80A2ED",
"d+	c #85A7EF",
"e+	c #88ABF2",
"f+	c #8AAFF4",
"g+	c #8EB3F7",
"h+	c #91B6F7",
"i+	c #92B8F7",
"j+	c #92BAF7",
"k+	c #90B7F6",
"l+	c #8BB1F4",
"m+	c #88ADF0",
"n+	c #84A9EE",
"o+	c #7FA3EA",
"p+	c #799DE4",
"q+	c #7493D4",
"r+	c #5C709F",
"s+	c #2C344B",
"t+	c #171819",
"u+	c #2C2C2C",
"v+	c #161619",
"w+	c #2D3550",
"x+	c #5F72A5",
"y+	c #7994D9",
"z+	c #80A0E9",
"A+	c #86ABF1",
"B+	c #8AB1F5",
"C+	c #8DB5F8",
"D+	c #91B9FB",
"E+	c #95BEFD",
"F+	c #97BFFD",
"G+	c #97C1FD",
"H+	c #97C2FD",
"I+	c #95BEFC",
"J+	c #91B8FA",
"K+	c #8DB3F8",
"L+	c #89AEF5",
"M+	c #84A8F1",
"N+	c #7EA1EA",
"O+	c #7897DA",
"P+	c #5F76A4",
"Q+	c #2D384D",
"R+	c #141517",
"S+	c #2B2B2B",
"T+	c #303030",
"U+	c #2A2A2A",
"V+	c #17171A",
"W+	c #2A324A",
"X+	c #5B6D9D",
"Y+	c #7A94D7",
"Z+	c #85A4EC",
"`+	c #8DB9FC",
" @	c #92BDFE",
".@	c #97C1FF",
"+@	c #9BC7FF",
"@@	c #9DC9FF",
"#@	c #9ECAFF",
"$@	c #9BC5FF",
"%@	c #96C0FF",
"&@	c #92B8FC",
"*@	c #8DB3F9",
"=@	c #87ADF5",
"-@	c #83A5ED",
";@	c #7897D8",
">@	c #5B719C",
",@	c #2A3448",
"'@	c #151517",
")@	c #282828",
"!@	c #18181A",
"~@	c #202634",
"{@	c #4B5D80",
"]@	c #7791CD",
"^@	c #85A6EB",
"/@	c #8CB5F8",
"(@	c #92C0FE",
"_@	c #97C6FF",
":@	c #9FCAFF",
"<@	c #A5CFFF",
"[@	c #A8D5FF",
"}@	c #AAD6FF",
"|@	c #AAD5FF",
"1@	c #A9D4FF",
"2@	c #A5D2FF",
"3@	c #9DCAFF",
"4@	c #97C0FE",
"5@	c #92B9FC",
"6@	c #8CB2F5",
"7@	c #83A7EC",
"8@	c #7494CF",
"9@	c #4B5F81",
"0@	c #1F2635",
"a@	c #161618",
"b@	c #1A1C20",
"c@	c #364459",
"d@	c #657FAA",
"e@	c #82A6E3",
"f@	c #8FBAF9",
"g@	c #96C5FE",
"h@	c #9CCDFF",
"i@	c #A4D2FF",
"j@	c #AFDAFF",
"k@	c #B5DEFF",
"l@	c #B9E1FF",
"m@	c #BBE3FF",
"n@	c #B9E2FF",
"o@	c #B1DEFF",
"p@	c #A4D3FF",
"q@	c #9CCBFF",
"r@	c #90B8F5",
"s@	c #83A8E4",
"t@	c #6481AE",
"u@	c #35435B",
"v@	c #191C21",
"w@	c #1C1C1C",
"x@	c #272727",
"y@	c #242424",
"z@	c #1A1B1D",
"A@	c #293240",
"B@	c #51668A",
"C@	c #7EA4DA",
"D@	c #91BEF8",
"E@	c #9AC9FE",
"F@	c #A1D2FF",
"G@	c #A9D8FF",
"H@	c #B4E1FF",
"I@	c #BCE5FF",
"J@	c #C2EAFF",
"K@	c #C5EDFF",
"L@	c #C2EBFF",
"M@	c #B8E5FF",
"N@	c #A9D9FF",
"O@	c #A1D1FF",
"P@	c #9BC8FE",
"Q@	c #93BEF7",
"R@	c #82A7DA",
"S@	c #54698B",
"T@	c #283242",
"U@	c #191B1E",
"V@	c #232324",
"W@	c #1B1B1B",
"X@	c #1C1E22",
"Y@	c #313E53",
"Z@	c #6F92BE",
"`@	c #89B2E6",
" #	c #9AC7FB",
".#	c #A6D4FF",
"+#	c #ADDDFF",
"@#	c #BBE6FF",
"##	c #C3ECFF",
"$#	c #BCE6FF",
"%#	c #ADDAFF",
"&#	c #9BC6FB",
"*#	c #8AB2E7",
"=#	c #7494BE",
"-#	c #323F54",
";#	c #1A1E23",
">#	c #1A1B1A",
",#	c #262626",
"'#	c #232222",
")#	c #131414",
"!#	c #1C232C",
"~#	c #42556D",
"{#	c #6F8DB4",
"]#	c #95BEEF",
"^#	c #A4D1FC",
"/#	c #ADDCFD",
"(#	c #BCE7FF",
"_#	c #BBE5FF",
":#	c #ACD8FD",
"<#	c #A4CFFC",
"[#	c #96BEEF",
"}#	c #6F8EB5",
"|#	c #43556E",
"1#	c #1C232D",
"2#	c #222222",
"3#	c #202020",
"4#	c #232323",
"5#	c #111212",
"6#	c #1C2125",
"7#	c #495C75",
"8#	c #7795BB",
"9#	c #92B9DF",
"0#	c #A3CDEF",
"a#	c #B7E2FD",
"b#	c #BFE9FF",
"c#	c #C1EAFF",
"d#	c #C3EAFF",
"e#	c #C0E7FF",
"f#	c #B5E0FD",
"g#	c #A2C9EF",
"h#	c #93B8DF",
"i#	c #7897BB",
"j#	c #495D76",
"k#	c #1C2028",
"l#	c #111213",
"m#	c #1A1A1A",
"n#	c #1C2127",
"o#	c #354252",
"p#	c #556B84",
"q#	c #7491AE",
"r#	c #98BEDB",
"s#	c #AAD1ED",
"t#	c #AED5F1",
"u#	c #AFD5F1",
"v#	c #ABD0ED",
"w#	c #97BBDB",
"x#	c #738FAE",
"y#	c #566A84",
"z#	c #354352",
"A#	c #1B2127",
"B#	c #1F1F1F",
"C#	c #161616",
"D#	c #121313",
"E#	c #1A1D23",
"F#	c #272F3B",
"G#	c #34404F",
"H#	c #536C85",
"I#	c #6F8CA7",
"J#	c #7593AE",
"K#	c #7692AF",
"L#	c #708BA8",
"M#	c #546985",
"N#	c #282F3B",
"O#	c #191919",
"P#	c #131314",
"Q#	c #131517",
"R#	c #15171C",
"S#	c #252E36",
"T#	c #313E49",
"U#	c #34424D",
"V#	c #35414D",
"W#	c #323E49",
"X#	c #252D35",
"Y#	c #181818",
"Z#	c #141413",
"`#	c #0F0E0E",
" $	c #0C0C0C",
".$	c #0A0A0A",
"+$	c #141414",
"@$	c #171717",
"#$	c #131313",
"$$	c #101010",
". . . . . . . . . . . . . . . . . . . . . . . . . . . . . . . . . . . . . . . . . . . . ",
"+ @ @ @ @ @ @ @ @ @ @ @ @ @ @ @ @ @ @ @ @ @ @ @ @ @ @ @ @ @ @ @ @ @ @ @ @ @ @ @ @ @ @ + ",
"# $ $ $ $ $ $ $ $ $ $ $ $ $ $ $ $ $ $ $ $ $ $ $ $ $ $ $ $ $ $ $ $ $ $ $ $ $ $ $ $ $ $ # ",
"% & & & & & & & & & & & & & & & & & & & & & & & & & & & & & & & & & & & & & & & & & & % ",
"+ @ @ @ @ @ @ @ @ @ @ @ @ @ @ @ @ @ @ @ @ @ @ @ @ @ @ @ @ @ @ @ @ @ @ @ @ @ @ @ @ @ @ + ",
"+ + + + + + + + + + + + + + + + + + + + + + + + + + + + + + + + + + + + + + + + + + + + ",
"* = = = = = = = = = = = = = = = = * - ; > , , > ; - * = = = = = = = = = = = = = = = = * ",
"' * * * * * * * * * * * * * * * ) , ! ~ { ] ] { ~ ! , ) * * * * * * * * * * * * * * * ' ",
"' ' ' ' ' ' ' ' ' ' ' ' ' ' ' > ^ / ( _ : < < [ } ( / | > ' ' ' ' ' ' ' ' ' ' ' ' ' ' ' ",
"; 1 1 1 1 1 1 1 1 1 1 1 1 ; 2 3 4 5 6 7 8 9 0 a b c 5 d e 2 ; 1 1 1 1 1 1 1 1 1 1 1 1 ; ",
"> ; ; ; ; ; ; ; ; ; ; ; f g h i j k l m n o p q r s t u v h g w ; ; ; ; ; ; ; ; ; ; ; > ",
"> > > > > > > > > > > > x y z A B C D E F G G F H I J K L M N O > > > > > > > > > > > > ",
"P Q Q Q Q Q Q Q Q Q Q R S T U V W X Y Z `  .` ..+.@.#.$.%.&.*.=.R Q Q Q Q Q Q Q Q Q Q P ",
"-.;.;.;.;.;.;.;.;.;.;.>.,.'.).!.~.{.].^./.(._./.:.<.[.~.}.|.1.2.3.;.;.;.;.;.;.;.;.;.;.-.",
"-.-.-.-.-.-.-.-.-.-.4.5.6.7.8.9.0.a.b.c.d.e.f.g.h.i.j.k.l.m.n.o.5.4.-.-.-.-.-.-.-.-.-.-.",
"p.q.q.q.q.q.q.q.q.r.s.t.u.v.w.x.y.z.A.B.C.D.E.E.F.G.H.I.J.K.L.M.t.s.r.q.q.q.q.q.q.q.q.p.",
"p.p.p.p.p.p.p.p.! N.O.P.Q.R.S.T.U.V.W.X.Y.Z.`. +.+++@+#+$+%+&+*+=+-+;+p.p.p.p.p.p.p.p.p.",
"g 4.4.4.4.4.4.4.4.>+,+'+)+!+~+{+]+^+/+(+_+:+<+<+[+}+|+1+2+3+4+5+6+7+8+4.4.4.4.4.4.4.4.g ",
";+g g g g g g g g >+7+9+0+a+b+c+d+e+f+g+h+i+j+j+k+l+m+n+o+p+q+r+s+t+u+g g g g g g g g ;+",
";+;+;+;+;+;+;+;+;+u+v+w+x+y+z+A+B+C+D+E+F+G+H+G+I+J+K+L+M+N+O+P+Q+R+S+;+;+;+;+;+;+;+;+;+",
"8+T+T+T+T+T+T+T+T+U+V+W+X+Y+Z+B+`+ @.@+@@@#@#@@@$@%@&@*@=@-@;@>@,@'@)@T+T+T+T+T+T+T+T+8+",
"u+>+>+>+>+>+>+>+>+U+!@~@{@]@^@/@(@_@:@<@[@}@|@1@2@3@4@5@6@7@8@9@0@a@)@>+>+>+>+>+>+>+>+u+",
"u+u+u+u+u+u+u+u+u+)@y b@c@d@e@f@g@h@i@j@k@l@m@n@o@p@q@H+r@s@t@u@v@w@)@u+u+u+u+u+u+u+u+u+",
"x@U+U+U+U+U+U+U+U+U+y@z@A@B@C@D@E@F@G@H@I@J@K@L@M@N@O@P@Q@R@S@T@U@V@U+U+U+U+U+U+U+U+U+x@",
"x@x@x@x@x@x@x@x@x@x@)@W@X@Y@Z@`@ #.#+#@#L@K@K@##$#%#2@&#*#=#-#;#>#x@x@x@x@x@x@x@x@x@x@x@",
",#,#,#,#,#,#,#,#,#,#,#'#)#!#~#{#]#^#/#(###K@K@##_#:#<#[#}#|#1#)#2#,#,#,#,#,#,#,#,#,#,#,#",
"3#4#4#4#4#4#4#4#4#4#4#4#W@5#6#7#8#9#0#a#b#c#d#e#f#g#h#i#j#k#l#W@4#4#4#4#4#4#4#4#4#4#4#3#",
"3#3#3#3#3#3#3#3#3#3#3#3#2#m#5#n#o#p#q#r#s#t#u#v#w#x#y#z#A#l#m#2#3#3#3#3#3#3#3#3#3#3#3#3#",
"B#B#B#B#B#B#B#B#B#B#B#B#B#B#C#D#E#F#G#H#I#J#K#L#M#G#N#E#D#C#B#B#B#B#B#B#B#B#B#B#B#B#B#B#",
"m#w@w@w@w@w@w@w@w@w@w@w@w@w@w@O#P#Q#R#S#T#U#V#W#X#R#Q#P#O#w@w@w@w@w@w@w@w@w@w@w@w@w@w@m#",
"m#m#m#m#m#m#m#m#m#m#m#m#m#m#m#m#m#Y#Z#`# $.$.$ $`#Z#Y#m#m#m#m#m#m#m#m#m#m#m#m#m#m#m#m#m#",
"+$Y#Y#Y#Y#Y#Y#Y#Y#Y#Y#Y#Y#Y#Y#Y#Y#Y#Y#@$@$@$@$@$@$Y#Y#Y#Y#Y#Y#Y#Y#Y#Y#Y#Y#Y#Y#Y#Y#Y#Y#+$",
"#$C#C#C#C#C#C#C#C#C#C#C#C#C#C#C#C#C#C#C#C#C#C#C#C#C#C#C#C#C#C#C#C#C#C#C#C#C#C#C#C#C#C##$",
"$$#$#$#$#$#$#$#$#$#$#$#$#$#$#$#$#$#$#$#$#$#$#$#$#$#$#$#$#$#$#$#$#$#$#$#$#$#$#$#$#$#$#$$$",
"$$#$#$#$#$#$#$#$#$#$#$#$#$#$#$#$#$#$#$#$#$#$#$#$#$#$#$#$#$#$#$#$#$#$#$#$#$#$#$#$#$#$#$$$",
"2#4#4#4#4#4#4#4#4#4#4#4#4#4#4#4#4#4#4#4#4#4#4#4#4#4#4#4#4#4#4#4#4#4#4#4#4#4#4#4#4#4#4#2#",
"B#2#2#2#2#2#2#2#2#2#2#2#2#2#2#2#2#2#2#2#2#2#2#2#2#2#2#2#2#2#2#2#2#2#2#2#2#2#2#2#2#2#2#B#",
" $ $ $ $ $ $ $ $ $ $ $ $ $ $ $ $ $ $ $ $ $ $ $ $ $ $ $ $ $ $ $ $ $ $ $ $ $ $ $ $ $ $ $ $"};
