/* XPM */
static char * shade_toggled_active_xpm[] = {
"44 38 385 2",
"  	c None",
". 	c #000000",
"+ 	c #505050",
"@ 	c #525252",
"# 	c #696969",
"$ 	c #6C6C6C",
"% 	c #515151",
"& 	c #565656",
"* 	c #4C4C4C",
"= 	c #4E4E4E",
"- 	c #4A4A4A",
"; 	c #484949",
"> 	c #414143",
", 	c #393A3A",
"' 	c #333434",
") 	c #2F2F2F",
"! 	c #494949",
"~ 	c #3E3B3A",
"{ 	c #302A29",
"] 	c #231F1E",
"^ 	c #1D1919",
"/ 	c #1A1416",
"( 	c #181214",
"_ 	c #464646",
": 	c #484848",
"< 	c #3F3F40",
"[ 	c #30302F",
"} 	c #221E1B",
"| 	c #1A0F0D",
"1 	c #170D0C",
"2 	c #1B0E0E",
"3 	c #1D0C10",
"4 	c #190F0D",
"5 	c #444444",
"6 	c #3F3F3F",
"7 	c #1F1F22",
"8 	c #140D0B",
"9 	c #14090B",
"0 	c #17080E",
"a 	c #240E14",
"b 	c #381621",
"c 	c #471C28",
"d 	c #4A1D2B",
"e 	c #491D2B",
"f 	c #451C28",
"g 	c #381620",
"h 	c #16080E",
"i 	c #3D3F3F",
"j 	c #1D1A1A",
"k 	c #180C0C",
"l 	c #2B1119",
"m 	c #4D1F2D",
"n 	c #67283C",
"o 	c #7C3149",
"p 	c #87364F",
"q 	c #8A3751",
"r 	c #2C1119",
"s 	c #180C0D",
"t 	c #1C1A1A",
"u 	c #3D3E3F",
"v 	c #414141",
"w 	c #404040",
"x 	c #211E1E",
"y 	c #150E0D",
"z 	c #190C0D",
"A 	c #2C1118",
"B 	c #51202F",
"C 	c #762F45",
"D 	c #83354D",
"E 	c #913A55",
"F 	c #973C58",
"G 	c #993D59",
"H 	c #983C58",
"I 	c #923A56",
"J 	c #84354E",
"K 	c #522030",
"L 	c #160E0D",
"M 	c #201E1E",
"N 	c #3F4040",
"O 	c #3E3E3E",
"P 	c #2F2D2B",
"Q 	c #17110E",
"R 	c #160B0C",
"S 	c #290F19",
"T 	c #4F1F2E",
"U 	c #702D41",
"V 	c #82334B",
"W 	c #923B55",
"X 	c #963C57",
"Y 	c #983D58",
"Z 	c #943B57",
"` 	c #8B3851",
" .	c #81344C",
"..	c #6F2D41",
"+.	c #4F1F2D",
"@.	c #291018",
"#.	c #170B0C",
"$.	c #18110F",
"%.	c #2F2B2B",
"&.	c #383839",
"*.	c #1F1914",
"=.	c #170B0D",
"-.	c #1F0B12",
";.	c #401A26",
">.	c #612637",
",.	c #793046",
"'.	c #85344D",
").	c #8B3751",
"!.	c #8A3851",
"~.	c #8E3953",
"{.	c #8D3953",
"].	c #8C3851",
"^.	c #84354D",
"/.	c #773046",
"(.	c #612638",
"_.	c #421B26",
":.	c #200B13",
"<.	c #190C0E",
"[.	c #211A14",
"}.	c #393939",
"|.	c #3B3B3B",
"1.	c #38393A",
"2.	c #272529",
"3.	c #19110C",
"4.	c #1D0E0F",
"5.	c #2D111A",
"6.	c #4C1F2C",
"7.	c #65293B",
"8.	c #752F45",
"9.	c #7F334A",
"0.	c #85354D",
"a.	c #86354D",
"b.	c #87354E",
"c.	c #893650",
"d.	c #873750",
"e.	c #7E3249",
"f.	c #742E43",
"g.	c #65293C",
"h.	c #50202F",
"i.	c #2E111A",
"j.	c #36393A",
"k.	c #3A3A3A",
"l.	c #343538",
"m.	c #1D1A1C",
"n.	c #170C0B",
"o.	c #241013",
"p.	c #3C1824",
"q.	c #562233",
"r.	c #682A3C",
"s.	c #722E42",
"t.	c #7A3048",
"u.	c #80324B",
"v.	c #83344C",
"w.	c #7E324A",
"x.	c #732D42",
"y.	c #682A3D",
"z.	c #582334",
"A.	c #3D1824",
"B.	c #170D0B",
"C.	c #1C1A1B",
"D.	c #333436",
"E.	c #353535",
"F.	c #363636",
"G.	c #2F3131",
"H.	c #181516",
"I.	c #170A0B",
"J.	c #2B1219",
"K.	c #4D1E2C",
"L.	c #5E2536",
"M.	c #6A2A3E",
"N.	c #712D42",
"O.	c #793047",
"P.	c #82344C",
"Q.	c #82344B",
"R.	c #7D3249",
"S.	c #783046",
"T.	c #6B2A3E",
"U.	c #5F2537",
"V.	c #4D1E2D",
"W.	c #2D1219",
"X.	c #171516",
"Y.	c #2D3030",
"Z.	c #333333",
"`.	c #2F3030",
" +	c #171415",
".+	c #160A0D",
"++	c #31131D",
"@+	c #562131",
"#+	c #642739",
"$+	c #6D2B40",
"%+	c #732E43",
"&+	c #85354E",
"*+	c #7A3147",
"=+	c #742F44",
"-+	c #6E2C40",
";+	c #66283A",
">+	c #572232",
",+	c #32141C",
"'+	c #160A0E",
")+	c #161414",
"!+	c #2C2F2D",
"~+	c #2C2D2D",
"{+	c #151313",
"]+	c #170B0F",
"^+	c #5A2435",
"/+	c #6A293E",
"(+	c #7E3349",
"_+	c #84354C",
":+	c #88364F",
"<+	c #8A3750",
"[+	c #8B3852",
"}+	c #8C3852",
"|+	c #893751",
"1+	c #88364E",
"2+	c #772F45",
"3+	c #6D2B3F",
"4+	c #5E2637",
"5+	c #371620",
"6+	c #141111",
"7+	c #2B2C2C",
"8+	c #2D2D2D",
"9+	c #303030",
"0+	c #2A2B2B",
"a+	c #1A0D0F",
"b+	c #38161F",
"c+	c #5D2436",
"d+	c #712D43",
"e+	c #80334B",
"f+	c #86364D",
"g+	c #8B3850",
"h+	c #913A54",
"i+	c #943A56",
"j+	c #933B56",
"k+	c #923A54",
"l+	c #81334B",
"m+	c #752E44",
"n+	c #5E2537",
"o+	c #37161F",
"p+	c #190D0F",
"q+	c #131212",
"r+	c #282828",
"s+	c #2C2C2C",
"t+	c #2A2B2C",
"u+	c #171615",
"v+	c #1A110F",
"w+	c #34161D",
"x+	c #5C2335",
"y+	c #752F44",
"z+	c #84344C",
"A+	c #903A53",
"B+	c #953C57",
"C+	c #9A3D59",
"D+	c #983D59",
"E+	c #973C57",
"F+	c #903A55",
"G+	c #86354E",
"H+	c #762E45",
"I+	c #5D2336",
"J+	c #35161D",
"K+	c #151414",
"L+	c #28282A",
"M+	c #282A2B",
"N+	c #1C1B1B",
"O+	c #19130F",
"P+	c #2C1519",
"Q+	c #4F1E2E",
"R+	c #8D3852",
"S+	c #933B55",
"T+	c #9C3F5B",
"U+	c #9E3F5C",
"V+	c #9D3F5C",
"W+	c #953B57",
"X+	c #4E1E2D",
"Y+	c #2C1619",
"Z+	c #1B1B1B",
"`+	c #28282B",
" @	c #272727",
".@	c #2A2A2A",
"+@	c #242424",
"@@	c #191611",
"#@	c #231314",
"$@	c #3D1623",
"%@	c #6F2C41",
"&@	c #983C59",
"*@	c #9B3E5A",
"=@	c #A0405D",
"-@	c #A2415F",
";@	c #A3415F",
">@	c #A2405E",
",@	c #A1405D",
"'@	c #9E405C",
")@	c #6F2C40",
"!@	c #3C1624",
"~@	c #231514",
"{@	c #1A1711",
"]@	c #232424",
"^@	c #1B1B18",
"/@	c #1B1210",
"(@	c #281315",
"_@	c #5F2638",
":@	c #A1405E",
"<@	c #9F405C",
"[@	c #5F2637",
"}@	c #281314",
"|@	c #1B1310",
"1@	c #1B1B17",
"2@	c #262626",
"3@	c #222323",
"4@	c #13120F",
"5@	c #1A1110",
"6@	c #3A1920",
"7@	c #5C2436",
"8@	c #923A55",
"9@	c #9E405B",
"0@	c #A0405E",
"a@	c #87354F",
"b@	c #5D2537",
"c@	c #391820",
"d@	c #1B110F",
"e@	c #13110F",
"f@	c #222223",
"g@	c #202020",
"h@	c #232323",
"i@	c #1A1A1B",
"j@	c #10100F",
"k@	c #18100E",
"l@	c #3B1822",
"m@	c #602739",
"n@	c #883650",
"o@	c #963B57",
"p@	c #9A3E5A",
"q@	c #9B3E5B",
"r@	c #953B56",
"s@	c #7C3248",
"t@	c #63283A",
"u@	c #3D1922",
"v@	c #17100E",
"w@	c #11100F",
"x@	c #222222",
"y@	c #181A1A",
"z@	c #12100F",
"A@	c #1A120F",
"B@	c #291516",
"C@	c #441929",
"D@	c #8D3851",
"E@	c #792F47",
"F@	c #461928",
"G@	c #2C1517",
"H@	c #1F1F1F",
"I@	c #161818",
"J@	c #1A1311",
"K@	c #241516",
"L@	c #2D1919",
"M@	c #452525",
"N@	c #5A2834",
"O@	c #5F2736",
"P@	c #5C2534",
"Q@	c #562630",
"R@	c #442425",
"S@	c #251516",
"T@	c #1A1312",
"U@	c #121010",
"V@	c #1A1A1A",
"W@	c #1C1C1C",
"X@	c #19191C",
"Y@	c #141615",
"Z@	c #14140F",
"`@	c #15120D",
" #	c #221913",
".#	c #291918",
"+#	c #2A161A",
"@#	c #291619",
"##	c #281818",
"$#	c #211813",
"%#	c #141614",
"&#	c #181818",
"*#	c #141414",
"=#	c #101011",
"-#	c #0E0E0E",
";#	c #0C0D0D",
">#	c #171717",
",#	c #131313",
"'#	c #161616",
")#	c #101010",
"!#	c #0C0C0C",
". . . . . . . . . . . . . . . . . . . . . . . . . . . . . . . . . . . . . . . . . . . . ",
"+ @ @ @ @ @ @ @ @ @ @ @ @ @ @ @ @ @ @ @ @ @ @ @ @ @ @ @ @ @ @ @ @ @ @ @ @ @ @ @ @ @ @ + ",
"# $ $ $ $ $ $ $ $ $ $ $ $ $ $ $ $ $ $ $ $ $ $ $ $ $ $ $ $ $ $ $ $ $ $ $ $ $ $ $ $ $ $ # ",
"% & & & & & & & & & & & & & & & & & & & & & & & & & & & & & & & & & & & & & & & & & & % ",
"+ @ @ @ @ @ @ @ @ @ @ @ @ @ @ @ @ @ @ @ @ @ @ @ @ @ @ @ @ @ @ @ @ @ @ @ @ @ @ @ @ @ @ + ",
"+ + + + + + + + + + + + + + + + + + + + + + + + + + + + + + + + + + + + + + + + + + + + ",
"* = = = = = = = = = = = = = = = = = = = = = = = = = = = = = = = = = = = = = = = = = = * ",
"- * * * * * * * * * * * * * * * * ; > , ' ) ) ' , > ; * * * * * * * * * * * * * * * * - ",
"- - - - - - - - - - - - - - - ! ~ { ] ^ / ( ( / ^ ] { ~ ! - - - - - - - - - - - - - - - ",
"_ : : : : : : : : : : : : : < [ } | 1 2 3 3 3 3 2 1 4 } [ < : : : : : : : : : : : : : _ ",
"5 _ _ _ _ _ _ _ _ _ _ _ _ 6 7 8 9 0 a b c d e f g a h 9 8 7 6 _ _ _ _ _ _ _ _ _ _ _ _ 5 ",
"5 5 5 5 5 5 5 5 5 5 5 5 i j 8 k l m n o p q q p o n m r s 8 t u 5 5 5 5 5 5 5 5 5 5 5 5 ",
"6 v v v v v v v v v v w x y z A B C D E F G G H I J C K r z L M N v v v v v v v v v v 6 ",
"O w w w w w w w w w w P Q R S T U V q W X Y G H Z `  ...+.@.#.$.%.w w w w w w w w w w O ",
"O O O O O O O O O O &.*.=.-.;.>.,.'.).!.!.` ~.~.{.].^./.(._.:.<.[.&.O O O O O O O O O O ",
"}.|.|.|.|.|.|.|.|.1.2.3.4.5.6.7.8.9.0.a.a.b.c.c.d.^.e.f.g.h.i.4.3.2.j.|.|.|.|.|.|.|.|.}.",
"}.}.}.}.}.}.}.}.k.l.m.n.o.p.q.r.s.t.u.v.D ^.a.0.v.w.,.x.y.z.A.o.B.C.D.}.}.}.}.}.}.}.}.}.",
"E.F.F.F.F.F.F.F.F.G.H.I.J.K.L.M.N.O.w.P.D ^.0.^.Q.R.S.x.T.U.V.W.=.X.Y.F.F.F.F.F.F.F.F.E.",
"Z.E.E.E.E.E.E.E.E.`. +.+++@+#+$+%+,.e.P.J &+&+J P.9.*+=+-+;+>+,+'+)+!+E.E.E.E.E.E.E.E.Z.",
"Z.Z.Z.Z.Z.Z.Z.Z.Z.~+{+]+g ^+/+C (+_+:+<+[+}+).q |+1+P.R.2+3+4+5+]+6+7+Z.Z.Z.Z.Z.Z.Z.Z.Z.",
"8+9+9+9+9+9+9+9+9+0+)+a+b+c+d+e+f+g+h+i+j+j+E h+k+~.!.&+l+m+n+o+p+q+r+9+9+9+9+9+9+9+9+8+",
"s+) ) ) ) ) ) ) ) t+u+v+w+x+y+z+<+A+B+G C+C+D+Y E+j+F+].G+H+I+J+v+K+L+) ) ) ) ) ) ) ) s+",
"s+s+s+s+s+s+s+s+s+M+N+O+P+Q+y+a.R+S+D+T+U+U+V+T+C+F W+h+:+f.X+Y+O+Z+`+s+s+s+s+s+s+s+s+s+",
" @.@.@.@.@.@.@.@.@.@+@@@#@$@%@c.j+&@*@=@-@;@>@,@'@*@C+X <+)@!@~@{@]@.@.@.@.@.@.@.@.@.@ @",
" @ @ @ @ @ @ @ @ @ @r+^@/@(@_@l+h+F *@=@-@-@>@:@<@*@G S+V [@}@|@1@ @ @ @ @ @ @ @ @ @ @ @",
"2@2@2@2@2@2@2@2@2@2@2@3@4@5@6@7@'.8@&@9@=@=@0@0@9@&@j+a@b@c@d@e@f@2@2@2@2@2@2@2@2@2@2@2@",
"g@h@h@h@h@h@h@h@h@h@h@h@i@j@k@l@m@*+n@o@p@T+V+q@r@n@s@t@u@v@w@i@h@h@h@h@h@h@h@h@h@h@h@g@",
"g@g@g@g@g@g@g@g@g@g@g@g@x@y@z@A@B@C@c+t.c.R+D@:+E@c+F@G@/@z@y@x@g@g@g@g@g@g@g@g@g@g@g@g@",
"H@H@H@H@H@H@H@H@H@H@H@H@H@H@I@z@J@K@L@M@N@O@P@Q@R@L@S@T@U@I@H@H@H@H@H@H@H@H@H@H@H@H@H@H@",
"V@W@W@W@W@W@W@W@W@W@W@W@W@W@W@X@Y@Z@`@ #.#+#@###$#`@Z@%#X@W@W@W@W@W@W@W@W@W@W@W@W@W@W@V@",
"V@V@V@V@V@V@V@V@V@V@V@V@V@V@V@V@V@&#*#=#-#;#;#-#=#*#&#V@V@V@V@V@V@V@V@V@V@V@V@V@V@V@V@V@",
"*#&#&#&#&#&#&#&#&#&#&#&#&#&#&#&#&#&#&#>#>#>#>#>#>#&#&#&#&#&#&#&#&#&#&#&#&#&#&#&#&#&#&#*#",
",#'#'#'#'#'#'#'#'#'#'#'#'#'#'#'#'#'#'#'#'#'#'#'#'#'#'#'#'#'#'#'#'#'#'#'#'#'#'#'#'#'#'#,#",
")#,#,#,#,#,#,#,#,#,#,#,#,#,#,#,#,#,#,#,#,#,#,#,#,#,#,#,#,#,#,#,#,#,#,#,#,#,#,#,#,#,#,#)#",
")#,#,#,#,#,#,#,#,#,#,#,#,#,#,#,#,#,#,#,#,#,#,#,#,#,#,#,#,#,#,#,#,#,#,#,#,#,#,#,#,#,#,#)#",
"x@h@h@h@h@h@h@h@h@h@h@h@h@h@h@h@h@h@h@h@h@h@h@h@h@h@h@h@h@h@h@h@h@h@h@h@h@h@h@h@h@h@h@x@",
"H@x@x@x@x@x@x@x@x@x@x@x@x@x@x@x@x@x@x@x@x@x@x@x@x@x@x@x@x@x@x@x@x@x@x@x@x@x@x@x@x@x@x@H@",
"!#!#!#!#!#!#!#!#!#!#!#!#!#!#!#!#!#!#!#!#!#!#!#!#!#!#!#!#!#!#!#!#!#!#!#!#!#!#!#!#!#!#!#!#"};
