/* XPM */
static char * shade_pressed_xpm[] = {
"44 38 418 2",
"  	c None",
". 	c #000000",
"+ 	c #505050",
"@ 	c #525252",
"# 	c #696969",
"$ 	c #6C6C6C",
"% 	c #515151",
"& 	c #565656",
"* 	c #4C4C4C",
"= 	c #4E4E4E",
"- 	c #4A4A4A",
"; 	c #494A4B",
"> 	c #454546",
", 	c #3E3F3F",
"' 	c #393939",
") 	c #353535",
"! 	c #413F3E",
"~ 	c #343030",
"{ 	c #252325",
"] 	c #201D21",
"^ 	c #1B191E",
"/ 	c #19171C",
"( 	c #201D22",
"_ 	c #464646",
": 	c #484848",
"< 	c #434343",
"[ 	c #25201E",
"} 	c #1A1415",
"| 	c #171016",
"1 	c #19131D",
"2 	c #1A1423",
"3 	c #1A1424",
"4 	c #1A1323",
"5 	c #1A1322",
"6 	c #19121D",
"7 	c #1A1314",
"8 	c #444444",
"9 	c #414141",
"0 	c #212123",
"a 	c #141012",
"b 	c #140F15",
"c 	c #16111F",
"d 	c #1F182A",
"e 	c #2F2443",
"f 	c #3E2F58",
"g 	c #42315D",
"h 	c #41305C",
"i 	c #3D2E57",
"j 	c #2E2342",
"k 	c #1F182B",
"l 	c #16111E",
"m 	c #3F4040",
"n 	c #1E1D1F",
"o 	c #151115",
"p 	c #17121B",
"q 	c #281E38",
"r 	c #47366A",
"s 	c #61478F",
"t 	c #7B61A2",
"u 	c #8973AC",
"v 	c #8C77AE",
"w 	c #8873AB",
"x 	c #7A61A1",
"y 	c #61468E",
"z 	c #48366C",
"A 	c #291F39",
"B 	c #18131C",
"C 	c #151215",
"D 	c #3F3F40",
"E 	c #3F3F3F",
"F 	c #404040",
"G 	c #222021",
"H 	c #151116",
"I 	c #18121D",
"J 	c #4F3973",
"K 	c #785CA3",
"L 	c #8970B1",
"M 	c #9883BC",
"N 	c #A08CC0",
"O 	c #A38FC2",
"P 	c #A390C3",
"Q 	c #A18DC2",
"R 	c #9A84BC",
"S 	c #8A72B2",
"T 	c #785CA4",
"U 	c #503974",
"V 	c #2A203B",
"W 	c #212020",
"X 	c #3E3E3E",
"Y 	c #302E2E",
"Z 	c #171415",
"` 	c #161119",
" .	c #291F3A",
"..	c #4E3A6E",
"+.	c #72569D",
"@.	c #876CB0",
"#.	c #9179B7",
"$.	c #9B87BE",
"%.	c #A18DC1",
"&.	c #A38FC3",
"*.	c #A491C4",
"=.	c #9E89BF",
"-.	c #927BB8",
";.	c #876DB1",
">.	c #71559D",
",.	c #4E3B6E",
"'.	c #171019",
").	c #181416",
"!.	c #2F2E2E",
"~.	c #383839",
"{.	c #1F1917",
"].	c #171218",
"^.	c #1E172C",
"/.	c #41315B",
"(.	c #63498C",
"_.	c #7D62A8",
":.	c #8A72B3",
"<.	c #937CB8",
"[.	c #947EB9",
"}.	c #9781BB",
"|.	c #977FBB",
"1.	c #7C60A8",
"2.	c #624A8B",
"3.	c #1F172E",
"4.	c #191319",
"5.	c #211A17",
"6.	c #3B3B3B",
"7.	c #38393A",
"8.	c #27272A",
"9.	c #191214",
"0.	c #1C1522",
"a.	c #2C2240",
"b.	c #4E3A6C",
"c.	c #674D92",
"d.	c #795EA6",
"e.	c #856AB0",
"f.	c #8C73B4",
"g.	c #8D74B3",
"h.	c #8E76B5",
"i.	c #907AB7",
"j.	c #9079B7",
"k.	c #8F77B5",
"l.	c #8B73B3",
"m.	c #8369AE",
"n.	c #775BA5",
"o.	c #684E93",
"p.	c #513D71",
"q.	c #2D2242",
"r.	c #1D1523",
"s.	c #36393A",
"t.	c #3A3A3A",
"u.	c #343536",
"v.	c #1D1C1E",
"w.	c #171115",
"x.	c #241B2F",
"y.	c #3D2E55",
"z.	c #58437C",
"A.	c #6A5095",
"B.	c #755AA3",
"C.	c #7E62AB",
"D.	c #856CB0",
"E.	c #8A71B3",
"F.	c #8B72B3",
"G.	c #8D74B4",
"H.	c #8A70B2",
"I.	c #846AAE",
"J.	c #7E62AA",
"K.	c #765AA4",
"L.	c #6B5096",
"M.	c #59437D",
"N.	c #3D2F57",
"O.	c #241A2F",
"P.	c #181115",
"Q.	c #1C1B1D",
"R.	c #333435",
"S.	c #363636",
"T.	c #2F3030",
"U.	c #191719",
"V.	c #171119",
"W.	c #2C213C",
"X.	c #4E3B6C",
"Y.	c #604987",
"Z.	c #6D5298",
"`.	c #7559A3",
" +	c #7D61AA",
".+	c #8469AF",
"++	c #886FB1",
"@+	c #8970B3",
"#+	c #8C73B3",
"$+	c #896FB1",
"%+	c #8368AD",
"&+	c #7D61A9",
"*+	c #6E5299",
"=+	c #614988",
"-+	c #4F3B6E",
";+	c #2F223F",
">+	c #18121A",
",+	c #181718",
"'+	c #2D2F2D",
")+	c #333333",
"!+	c #2F2F2F",
"~+	c #171617",
"{+	c #16121B",
"]+	c #322547",
"^+	c #57427A",
"/+	c #674E8F",
"(+	c #71549D",
"_+	c #775AA4",
":+	c #8C74B4",
"<+	c #846AAF",
"[+	c #7F63AB",
"}+	c #795CA7",
"|+	c #70559E",
"1+	c #684E92",
"2+	c #59427D",
"3+	c #342748",
"4+	c #17131C",
"5+	c #161516",
"6+	c #2C2D2C",
"7+	c #2C2C2C",
"8+	c #151415",
"9+	c #17131E",
"0+	c #392B50",
"a+	c #5D4684",
"b+	c #6D5398",
"c+	c #7A5DA7",
"d+	c #8269AD",
"e+	c #8971B2",
"f+	c #9179B6",
"g+	c #937DB8",
"h+	c #917AB8",
"i+	c #9078B7",
"j+	c #8E75B5",
"k+	c #896FB2",
"l+	c #8268AD",
"m+	c #795EA7",
"n+	c #70549C",
"o+	c #614788",
"p+	c #382A4E",
"q+	c #17141D",
"r+	c #141314",
"s+	c #2B2B2B",
"t+	c #2D2D2D",
"u+	c #303030",
"v+	c #2A2A2A",
"w+	c #1A151E",
"x+	c #392A4F",
"y+	c #5F4688",
"z+	c #7659A4",
"A+	c #856AAF",
"B+	c #8D75B4",
"C+	c #947CB9",
"D+	c #9984BD",
"E+	c #9C86BE",
"F+	c #9D87BE",
"G+	c #9C87BE",
"H+	c #9A84BD",
"I+	c #9983BD",
"J+	c #9680BB",
"K+	c #927AB7",
"L+	c #785CA6",
"M+	c #604789",
"N+	c #382A4D",
"O+	c #18151D",
"P+	c #131413",
"Q+	c #282828",
"R+	c #171717",
"S+	c #1A161D",
"T+	c #352849",
"U+	c #5E4587",
"V+	c #785BA7",
"W+	c #9982BC",
"X+	c #A08BC0",
"Y+	c #A48FC2",
"Z+	c #A490C3",
"`+	c #A491C3",
" @	c #A28FC2",
".@	c #9F8BC0",
"+@	c #9D87BF",
"@@	c #9983BC",
"#@	c #957DB9",
"$@	c #795DA8",
"%@	c #5D4587",
"&@	c #36294A",
"*@	c #1A151C",
"=@	c #151515",
"-@	c #28282B",
";@	c #1C1C1D",
">@	c #191618",
",@	c #2C2139",
"'@	c #4F3A76",
")@	c #8D73B4",
"!@	c #967FBA",
"~@	c #9E88BE",
"{@	c #A795C5",
"]@	c #AA97C7",
"^@	c #AA98C7",
"/@	c #A997C6",
"(@	c #A895C6",
"_@	c #A592C3",
":@	c #A28EC2",
"<@	c #9F8AC0",
"[@	c #9B85BD",
"}@	c #775BA6",
"|@	c #4E3B76",
"1@	c #2D223B",
"2@	c #1A1518",
"3@	c #1B1B1C",
"4@	c #272727",
"5@	c #242424",
"6@	c #191815",
"7@	c #231C29",
"8@	c #3D2D5E",
"9@	c #A693C4",
"0@	c #AA99C8",
"a@	c #AE9CCA",
"b@	c #AF9DCA",
"c@	c #AD9BCA",
"d@	c #AA98C8",
"e@	c #A693C5",
"f@	c #A490C4",
"g@	c #9F8BC1",
"h@	c #917AB7",
"i@	c #71569D",
"j@	c #3E2E5F",
"k@	c #241D2A",
"l@	c #1A1915",
"m@	c #232324",
"n@	c #1B1B18",
"o@	c #1A161A",
"p@	c #291E36",
"q@	c #604986",
"r@	c #A592C4",
"s@	c #A592C5",
"t@	c #9C86BF",
"u@	c #604885",
"v@	c #291F37",
"w@	c #1A161B",
"x@	c #262626",
"y@	c #222323",
"z@	c #131213",
"A@	c #392A4E",
"B@	c #5C4588",
"C@	c #886AB1",
"D@	c #9A85BD",
"E@	c #A18EC2",
"F@	c #A996C6",
"G@	c #AB99C8",
"H@	c #AC9AC8",
"I@	c #AC9BC8",
"J@	c #8C6EB4",
"K@	c #5D4689",
"L@	c #382A4C",
"M@	c #1A161E",
"N@	c #222223",
"O@	c #202020",
"P@	c #232323",
"Q@	c #1B1B1B",
"R@	c #100F11",
"S@	c #191318",
"T@	c #3B2C4F",
"U@	c #5D4589",
"V@	c #7C60A7",
"W@	c #8D75B3",
"X@	c #9D89BF",
"Y@	c #A894C5",
"Z@	c #7E63A9",
"`@	c #62478D",
" #	c #3D2E52",
".#	c #181318",
"+#	c #110F11",
"@#	c #222222",
"##	c #1A1A1A",
"$#	c #111111",
"%#	c #18151A",
"&#	c #271F37",
"*#	c #422F5F",
"=#	c #5C467E",
"-#	c #7A5EA6",
";#	c #8D74B5",
">#	c #927AB8",
",#	c #8C72B4",
"'#	c #795CA5",
")#	c #433060",
"!#	c #2A2039",
"~#	c #1F1F1F",
"{#	c #171817",
"]#	c #121112",
"^#	c #191619",
"/#	c #231D25",
"(#	c #2A2234",
"_#	c #42355E",
":#	c #56407A",
"<#	c #5B427F",
"[#	c #58407D",
"}#	c #533F76",
"|#	c #41345D",
"1#	c #1C1C1C",
"2#	c #19191B",
"3#	c #131412",
"4#	c #131210",
"5#	c #141313",
"6#	c #201C22",
"7#	c #271F32",
"8#	c #281F35",
"9#	c #271F33",
"0#	c #251F2F",
"a#	c #1F1B22",
"b#	c #131312",
"c#	c #181818",
"d#	c #141414",
"e#	c #0F100F",
"f#	c #0D0D0C",
"g#	c #0B0C09",
"h#	c #131313",
"i#	c #161616",
"j#	c #101010",
"k#	c #0C0C0C",
". . . . . . . . . . . . . . . . . . . . . . . . . . . . . . . . . . . . . . . . . . . . ",
"+ @ @ @ @ @ @ @ @ @ @ @ @ @ @ @ @ @ @ @ @ @ @ @ @ @ @ @ @ @ @ @ @ @ @ @ @ @ @ @ @ @ @ + ",
"# $ $ $ $ $ $ $ $ $ $ $ $ $ $ $ $ $ $ $ $ $ $ $ $ $ $ $ $ $ $ $ $ $ $ $ $ $ $ $ $ $ $ # ",
"% & & & & & & & & & & & & & & & & & & & & & & & & & & & & & & & & & & & & & & & & & & % ",
"+ @ @ @ @ @ @ @ @ @ @ @ @ @ @ @ @ @ @ @ @ @ @ @ @ @ @ @ @ @ @ @ @ @ @ @ @ @ @ @ @ @ @ + ",
"+ + + + + + + + + + + + + + + + + + + + + + + + + + + + + + + + + + + + + + + + + + + + ",
"* = = = = = = = = = = = = = = = = = = = = = = = = = = = = = = = = = = = = = = = = = = * ",
"- * * * * * * * * * * * * * * * * ; > , ' ) ) ' , > ; * * * * * * * * * * * * * * * * - ",
"- - - - - - - - - - - - - - - - ! ~ { ] ^ / / ^ ( { ~ ! - - - - - - - - - - - - - - - - ",
"_ : : : : : : : : : : : : : < ) [ } | 1 2 3 4 5 6 | 7 [ ) < : : : : : : : : : : : : : _ ",
"8 _ _ _ _ _ _ _ _ _ _ _ _ 9 0 a b c d e f g h i j k l b a 0 9 _ _ _ _ _ _ _ _ _ _ _ _ 8 ",
"8 8 8 8 8 8 8 8 8 8 8 8 m n o p q r s t u v v w x y z A B C n D 8 8 8 8 8 8 8 8 8 8 8 8 ",
"E 9 9 9 9 9 9 9 9 9 9 F G H I A J K L M N O P Q R S T U V 1 H W m 9 9 9 9 9 9 9 9 9 9 E ",
"X F F F F F F F F F F Y Z `  ...+.@.#.$.%.&.*.&.=.-.;.>.,. .'.).!.F F F F F F F F F F X ",
"X X X X X X X X X X ~.{.].^./.(._.:.-.<.<.[.}.}.|.<.:.1.2.g 3.4.5.~.X X X X X X X X X X ",
"' 6.6.6.6.6.6.6.6.7.8.9.0.a.b.c.d.e.f.f.g.h.i.j.k.l.m.n.o.p.q.r.9.8.s.6.6.6.6.6.6.6.6.' ",
"' ' ' ' ' ' ' ' t.u.v.w.x.y.z.A.B.C.D.L E.F.G.f.H.I.J.K.L.M.N.O.P.Q.R.' ' ' ' ' ' ' ' ' ",
") S.S.S.S.S.S.S.S.T.U.V.W.X.Y.Z.`. +.+++@+E.#+F.$+%+&+K.*+=+-+;+>+,+'+S.S.S.S.S.S.S.S.) ",
")+) ) ) ) ) ) ) ) !+~+{+]+^+/+(+_+ +m.$+l.:+:+l.L <+[+}+|+1+2+3+4+5+6+) ) ) ) ) ) ) ) )+",
")+)+)+)+)+)+)+)+)+7+8+9+0+a+b+c+d+e+h.f+<.g+-.h+i+j+k+l+m+n+o+p+q+r+s+)+)+)+)+)+)+)+)+)+",
"t+u+u+u+u+u+u+u+u+v+5+w+x+y+z+A+B+C+D+E+F+G+H+I+I+J+K+G.@.L+M+N+O+P+Q+u+u+u+u+u+u+u+u+t+",
"7+!+!+!+!+!+!+!+!+v+R+S+T+U+V+H.K+W+X+Y+Z+`+ @%..@+@@@#@g.$@%@&@*@=@Q+!+!+!+!+!+!+!+!+7+",
"7+7+7+7+7+7+7+7+7+-@;@>@,@'@V+)@!@~@O {@]@^@/@(@_@:@<@[@k.}@|@1@2@3@-@7+7+7+7+7+7+7+7+7+",
"4@v+v+v+v+v+v+v+v+v+5@6@7@8@+.i++@:@9@0@a@b@a@c@d@e@f@g@h@i@j@k@l@m@v+v+v+v+v+v+v+v+v+4@",
"4@4@4@4@4@4@4@4@4@4@Q+n@o@p@q@.+W+%.r@0@c@a@a@c@d@s@&.t@A+u@v@w@n@4@4@4@4@4@4@4@4@4@4@4@",
"x@x@x@x@x@x@x@x@x@x@x@y@z@w+A@B@C@D@E@F@G@H@I@H@F@E@F+J@K@L@M@z@N@x@x@x@x@x@x@x@x@x@x@x@",
"O@P@P@P@P@P@P@P@P@P@P@P@Q@R@S@T@U@V@W@X@r@{@Y@r@+@W@Z@`@ #.#+#Q@P@P@P@P@P@P@P@P@P@P@P@O@",
"O@O@O@O@O@O@O@O@O@O@O@O@@###$#%#&#*#=#-#;#>##.,#'#=#)#!#w@$###@#O@O@O@O@O@O@O@O@O@O@O@O@",
"~#~#~#~#~#~#~#~#~#~#~#~#~#~#{#]#^#/#(#_#:#<#[#}#|#(#/#U.]#{#~#~#~#~#~#~#~#~#~#~#~#~#~#~#",
"##1#1#1#1#1#1#1#1#1#1#1#1#1#1#2#3#4#5#6#7#8#9#0#a#5#4#b#2#1#1#1#1#1#1#1#1#1#1#1#1#1#1###",
"##################################c#d#e#f#g#g#f#e#d#c###################################",
"d#c#c#c#c#c#c#c#c#c#c#c#c#c#c#c#c#c#c#c#c#c#c#c#c#c#c#c#c#c#c#c#c#c#c#c#c#c#c#c#c#c#c#d#",
"h#i#i#i#i#i#i#i#i#i#i#i#i#i#i#i#i#i#i#i#i#i#i#i#i#i#i#i#i#i#i#i#i#i#i#i#i#i#i#i#i#i#i#h#",
"j#h#h#h#h#h#h#h#h#h#h#h#h#h#h#h#h#h#h#h#h#h#h#h#h#h#h#h#h#h#h#h#h#h#h#h#h#h#h#h#h#h#h#j#",
"j#h#h#h#h#h#h#h#h#h#h#h#h#h#h#h#h#h#h#h#h#h#h#h#h#h#h#h#h#h#h#h#h#h#h#h#h#h#h#h#h#h#h#j#",
"@#P@P@P@P@P@P@P@P@P@P@P@P@P@P@P@P@P@P@P@P@P@P@P@P@P@P@P@P@P@P@P@P@P@P@P@P@P@P@P@P@P@P@@#",
"~#@#@#@#@#@#@#@#@#@#@#@#@#@#@#@#@#@#@#@#@#@#@#@#@#@#@#@#@#@#@#@#@#@#@#@#@#@#@#@#@#@#@#~#",
"k#k#k#k#k#k#k#k#k#k#k#k#k#k#k#k#k#k#k#k#k#k#k#k#k#k#k#k#k#k#k#k#k#k#k#k#k#k#k#k#k#k#k#k#"};
