/* XPM */
static char * shade_toggled_prelight_xpm[] = {
"44 38 448 2",
"  	c None",
". 	c #000000",
"+ 	c #505050",
"@ 	c #525252",
"# 	c #696969",
"$ 	c #6C6C6C",
"% 	c #515151",
"& 	c #565656",
"* 	c #4C4C4C",
"= 	c #4E4E4E",
"- 	c #4A4A4A",
"; 	c #494A4A",
"> 	c #444445",
", 	c #3B3E3E",
"' 	c #343839",
") 	c #303434",
"! 	c #403E3D",
"~ 	c #332F2E",
"{ 	c #282323",
"] 	c #251C1F",
"^ 	c #24181B",
"/ 	c #211619",
"( 	c #24181A",
"_ 	c #332E2E",
": 	c #464646",
"< 	c #484848",
"[ 	c #414143",
"} 	c #353333",
"| 	c #27201D",
"1 	c #231312",
"2 	c #221111",
"3 	c #2D1317",
"4 	c #33141B",
"5 	c #33131C",
"6 	c #33141A",
"7 	c #2C1317",
"8 	c #231211",
"9 	c #444444",
"0 	c #404040",
"a 	c #222122",
"b 	c #1A100F",
"c 	c #1F0F11",
"d 	c #2A1119",
"e 	c #3B1822",
"f 	c #5E2436",
"g 	c #792F45",
"h 	c #7F3249",
"i 	c #7F3149",
"j 	c #772E45",
"k 	c #5B2435",
"l 	c #3C1822",
"m 	c #2A1018",
"n 	c #1F0F10",
"o 	c #3E3F40",
"p 	c #1F1C1D",
"q 	c #1C1111",
"r 	c #261216",
"s 	c #501E2C",
"t 	c #90364F",
"u 	c #AE5670",
"v 	c #C1798F",
"w 	c #CC8FA1",
"x 	c #CF95A7",
"y 	c #CF95A6",
"z 	c #CC90A2",
"A 	c #C17990",
"B 	c #AE5570",
"C 	c #923650",
"D 	c #541F2C",
"E 	c #271317",
"F 	c #1C1112",
"G 	c #1F1D1D",
"H 	c #3E3E40",
"I 	c #3F3F3F",
"J 	c #414141",
"K 	c #3F4040",
"L 	c #22201F",
"M 	c #1A1112",
"N 	c #2C1217",
"O 	c #501F2E",
"P 	c #983A57",
"Q 	c #C46986",
"R 	c #D18A9F",
"S 	c #DAA2B3",
"T 	c #DFAFBD",
"U 	c #E1B3C0",
"V 	c #E1B3C1",
"W 	c #DFB0BF",
"X 	c #DBA5B6",
"Y 	c #D08BA1",
"Z 	c #C46A86",
"` 	c #9A3B56",
" .	c #1B1113",
"..	c #221F1F",
"+.	c #3E3E3E",
"@.	c #302E2D",
"#.	c #1D1412",
"$.	c #241113",
"%.	c #4E1F2D",
"&.	c #923B55",
"*.	c #C06281",
"=.	c #CF859B",
"-.	c #D696A9",
";.	c #DBA7B7",
">.	c #E0B2C0",
",.	c #E1B4C1",
"'.	c #E0B1C0",
").	c #DDAABA",
"!.	c #D698AB",
"~.	c #CF859C",
"{.	c #C0617F",
"].	c #923A54",
"^.	c #4D1F2D",
"/.	c #261114",
"(.	c #1E1413",
"_.	c #2F2D2D",
":.	c #383839",
"<.	c #211915",
"[.	c #231214",
"}.	c #3C1622",
"|.	c #793046",
"1.	c #B24D6B",
"2.	c #C8718E",
"3.	c #D18CA0",
"4.	c #D697AA",
"5.	c #D699AC",
"6.	c #D698AC",
"7.	c #D79AAD",
"8.	c #D99FB1",
"9.	c #D99EAF",
"0.	c #D799AC",
"a.	c #D18BA1",
"b.	c #C8708D",
"c.	c #B24E6A",
"d.	c #7B3148",
"e.	c #3E1723",
"f.	c #251315",
"g.	c #241A15",
"h.	c #393939",
"i.	c #3B3B3B",
"j.	c #36393A",
"k.	c #27272A",
"l.	c #1D1210",
"m.	c #31151A",
"n.	c #552132",
"o.	c #8E3953",
"p.	c #B85271",
"q.	c #C56D8A",
"r.	c #CC8299",
"s.	c #D28DA2",
"t.	c #D38EA2",
"u.	c #D38FA3",
"v.	c #D392A5",
"w.	c #D595A9",
"x.	c #D594A8",
"y.	c #D392A6",
"z.	c #D18CA2",
"A.	c #CC8097",
"B.	c #C56B88",
"C.	c #B95372",
"D.	c #953B57",
"E.	c #582232",
"F.	c #31161A",
"G.	c #28272A",
"H.	c #3A3A3A",
"I.	c #333536",
"J.	c #1D1C1D",
"K.	c #1E1011",
"L.	c #411A24",
"M.	c #722D42",
"N.	c #A2405D",
"O.	c #BB5575",
"P.	c #C36985",
"Q.	c #CA7891",
"R.	c #CE829A",
"S.	c #D0899E",
"T.	c #D08BA0",
"U.	c #D18CA1",
"V.	c #D28EA3",
"W.	c #D08A9F",
"X.	c #CD8098",
"Y.	c #C8778F",
"Z.	c #C46A85",
"`.	c #BB5675",
" +	c #A64160",
".+	c #762E42",
"++	c #411B24",
"@+	c #1E1111",
"#+	c #1D1B1D",
"$+	c #333435",
"%+	c #353535",
"&+	c #363636",
"*+	c #2F3030",
"=+	c #181618",
"-+	c #201014",
";+	c #51202E",
">+	c #933851",
",+	c #B14766",
"'+	c #BD5979",
")+	c #C36884",
"!+	c #C9758F",
"~+	c #CD7F97",
"{+	c #CF889D",
"]+	c #D18BA0",
"^+	c #CC7E96",
"/+	c #C8758E",
"(+	c #BD5A79",
"_+	c #B24867",
":+	c #953953",
"<+	c #542130",
"[+	c #221115",
"}+	c #181617",
"|+	c #2D2F2F",
"1+	c #333333",
"2+	c #2F2F2F",
"3+	c #171517",
"4+	c #221117",
"5+	c #5E2435",
"6+	c #A3405C",
"7+	c #B94E6F",
"8+	c #BF607F",
"9+	c #C46C88",
"0+	c #C87690",
"a+	c #CC7F96",
"b+	c #CF889E",
"c+	c #D18DA2",
"d+	c #CF889F",
"e+	c #CD8399",
"f+	c #C97A92",
"g+	c #C56F88",
"h+	c #C06180",
"i+	c #BA5171",
"j+	c #A5415F",
"k+	c #622436",
"l+	c #241217",
"m+	c #171515",
"n+	c #2C2D2C",
"o+	c #2C2C2C",
"p+	c #161415",
"q+	c #261319",
"r+	c #6F283B",
"s+	c #AA4564",
"t+	c #BE5877",
"u+	c #C66F8A",
"v+	c #CD8198",
"w+	c #D69AAD",
"x+	c #D594A9",
"y+	c #D391A5",
"z+	c #D0899F",
"A+	c #CB7E95",
"B+	c #C6718B",
"C+	c #C0607C",
"D+	c #AD4668",
"E+	c #6F283C",
"F+	c #251318",
"G+	c #151313",
"H+	c #2B2B2B",
"I+	c #2D2D2D",
"J+	c #303030",
"K+	c #2A2A2A",
"L+	c #171516",
"M+	c #261419",
"N+	c #6D283A",
"O+	c #AC4766",
"P+	c #CD8199",
"Q+	c #DBA4B5",
"R+	c #DCA7B7",
"S+	c #DCA8B8",
"T+	c #DBA5B5",
"U+	c #DBA4B4",
"V+	c #DBA3B4",
"W+	c #D99EB1",
"X+	c #D597AA",
"Y+	c #D28FA3",
"Z+	c #CD869B",
"`+	c #C56E89",
" @	c #AD4868",
".@	c #6C283B",
"+@	c #261418",
"@@	c #141414",
"#@	c #282828",
"$@	c #2A2A2B",
"%@	c #181717",
"&@	c #251517",
"*@	c #612637",
"=@	c #AA4664",
"-@	c #C66E89",
";@	c #D08AA0",
">@	c #D596AA",
",@	c #DEADBC",
"'@	c #E1B4C2",
")@	c #DFB1BE",
"!@	c #DDA9B9",
"~@	c #DBA3B3",
"{@	c #D89BAE",
"]@	c #D28EA4",
"^@	c #C6708B",
"/@	c #AA4765",
"(@	c #602737",
"_@	c #251518",
":@	c #161515",
"<@	c #28282B",
"[@	c #1C1C1D",
"}@	c #1F1614",
"|@	c #4D202B",
"1@	c #963C56",
"2@	c #C66E88",
"3@	c #D99DB0",
"4@	c #DCA9B9",
"5@	c #E0B3C1",
"6@	c #E4BAC7",
"7@	c #E4BCC9",
"8@	c #E5BDC9",
"9@	c #E4BCC8",
"0@	c #E3BAC6",
"a@	c #E1B5C3",
"b@	c #DFB1BF",
"c@	c #DEACBB",
"d@	c #DBA4B6",
"e@	c #D491A7",
"f@	c #C56B87",
"g@	c #963C54",
"h@	c #50202C",
"i@	c #1F1515",
"j@	c #272727",
"k@	c #232425",
"l@	c #1C1812",
"m@	c #391B20",
"n@	c #7E2E44",
"o@	c #C1617D",
"p@	c #D592A7",
"q@	c #DDA7B8",
"r@	c #E0B0BF",
"s@	c #E2B7C4",
"t@	c #E5BFCB",
"u@	c #E7C4CF",
"v@	c #E8C5D0",
"w@	c #E7C3CE",
"x@	c #E6C2CD",
"y@	c #E5BFCA",
"z@	c #D695A9",
"A@	c #C1607E",
"B@	c #7E2F43",
"C@	c #3A1D20",
"D@	c #1D1912",
"E@	c #232325",
"F@	c #1B1B18",
"G@	c #211616",
"H@	c #4E1E28",
"I@	c #AE4867",
"J@	c #CD7E97",
"K@	c #DAA0B3",
"L@	c #DFAEBD",
"M@	c #E2B6C3",
"N@	c #E5BECB",
"O@	c #E8C4CF",
"P@	c #E7C2CD",
"Q@	c #DCA5B6",
"R@	c #CE8098",
"S@	c #AC4867",
"T@	c #4E1E27",
"U@	c #221716",
"V@	c #262626",
"W@	c #222323",
"X@	c #141211",
"Y@	c #281519",
"Z@	c #68293B",
"`@	c #A94B65",
" #	c #D07F9B",
".#	c #DAA4B4",
"+#	c #E4BBC8",
"@#	c #E6BFCA",
"##	c #E6C0CB",
"$#	c #E7C1CD",
"%#	c #E6C0CC",
"&#	c #E4BCC7",
"*#	c #DFAFBE",
"=#	c #D384A1",
"-#	c #AB4D66",
";#	c #642939",
">#	c #281518",
",#	c #202020",
"'#	c #232323",
")#	c #1B1B1B",
"!#	c #110F11",
"~#	c #221314",
"{#	c #6A283C",
"]#	c #AB4866",
"^#	c #C5748C",
"/#	c #D18FA3",
"(#	c #DDAAB9",
"_#	c #E2B5C3",
":#	c #E3B9C5",
"<#	c #E3B9C6",
"[#	c #DCA7B8",
"}#	c #D190A3",
"|#	c #C6768F",
"1#	c #AF4D6A",
"2#	c #6F2A3E",
"3#	c #211314",
"4#	c #120F10",
"5#	c #222222",
"6#	c #1A1A1A",
"7#	c #121111",
"8#	c #231516",
"9#	c #4B1F28",
"0#	c #783047",
"a#	c #A24763",
"b#	c #C76E8A",
"c#	c #D38EA4",
"d#	c #D38CA1",
"e#	c #C66C89",
"f#	c #793148",
"g#	c #4E1F28",
"h#	c #251516",
"i#	c #1F1F1F",
"j#	c #171817",
"k#	c #131111",
"l#	c #1F1617",
"m#	c #341D1D",
"n#	c #472028",
"o#	c #7C3842",
"p#	c #97465B",
"q#	c #9C4862",
"r#	c #9A4760",
"s#	c #934457",
"t#	c #7B3741",
"u#	c #351D1E",
"v#	c #201617",
"w#	c #1C1C1C",
"x#	c #19191B",
"y#	c #131413",
"z#	c #16120F",
"A#	c #191211",
"B#	c #2E1B1C",
"C#	c #421E26",
"D#	c #461E28",
"E#	c #451E28",
"F#	c #3F1E25",
"G#	c #2D1A1C",
"H#	c #181818",
"I#	c #0E1010",
"J#	c #0C0D0D",
"K#	c #090C0A",
"L#	c #131313",
"M#	c #161616",
"N#	c #101010",
"O#	c #0C0C0C",
". . . . . . . . . . . . . . . . . . . . . . . . . . . . . . . . . . . . . . . . . . . . ",
"+ @ @ @ @ @ @ @ @ @ @ @ @ @ @ @ @ @ @ @ @ @ @ @ @ @ @ @ @ @ @ @ @ @ @ @ @ @ @ @ @ @ @ + ",
"# $ $ $ $ $ $ $ $ $ $ $ $ $ $ $ $ $ $ $ $ $ $ $ $ $ $ $ $ $ $ $ $ $ $ $ $ $ $ $ $ $ $ # ",
"% & & & & & & & & & & & & & & & & & & & & & & & & & & & & & & & & & & & & & & & & & & % ",
"+ @ @ @ @ @ @ @ @ @ @ @ @ @ @ @ @ @ @ @ @ @ @ @ @ @ @ @ @ @ @ @ @ @ @ @ @ @ @ @ @ @ @ + ",
"+ + + + + + + + + + + + + + + + + + + + + + + + + + + + + + + + + + + + + + + + + + + + ",
"* = = = = = = = = = = = = = = = = = = = = = = = = = = = = = = = = = = = = = = = = = = * ",
"- * * * * * * * * * * * * * * * * ; > , ' ) ) ' , > ; * * * * * * * * * * * * * * * * - ",
"- - - - - - - - - - - - - - - - ! ~ { ] ^ / / ( ] { _ ! - - - - - - - - - - - - - - - - ",
": < < < < < < < < < < < < < [ } | 1 2 3 4 5 5 6 7 2 8 | } [ < < < < < < < < < < < < < : ",
"9 : : : : : : : : : : : : 0 a b c d e f g h i j k l m n b a 0 : : : : : : : : : : : : 9 ",
"9 9 9 9 9 9 9 9 9 9 9 9 o p q r s t u v w x y z A B C D E F G H 9 9 9 9 9 9 9 9 9 9 9 9 ",
"I J J J J J J J J J J K L M N O P Q R S T U V W X Y Z ` O 7  ...K J J J J J J J J J J I ",
"+.0 0 0 0 0 0 0 0 0 0 @.#.$.%.&.*.=.-.;.T >.,.'.).!.~.{.].^./.(._.0 0 0 0 0 0 0 0 0 0 +.",
"+.+.+.+.+.+.+.+.+.+.:.<.[.}.|.1.2.3.4.5.6.7.8.8.9.0.a.b.c.d.e.f.g.:.+.+.+.+.+.+.+.+.+.+.",
"h.i.i.i.i.i.i.i.i.j.k.l.m.n.o.p.q.r.s.t.u.v.w.x.y.z.A.B.C.D.E.F.l.G.j.i.i.i.i.i.i.i.i.h.",
"h.h.h.h.h.h.h.h.H.I.J.K.L.M.N.O.P.Q.R.S.T.U.V.s.W.X.Y.Z.`. +.+++@+#+$+h.h.h.h.h.h.h.h.h.",
"%+&+&+&+&+&+&+&+&+*+=+-+;+>+,+'+)+!+~+{+W.]+s.U.{+^+/+Z.(+_+:+<+[+}+|+&+&+&+&+&+&+&+&+%+",
"1+%+%+%+%+%+%+%+%+2+3+4+5+6+7+8+9+0+a+b+c+V.V.c+d+e+f+g+h+i+j+k+l+m+n+%+%+%+%+%+%+%+%+1+",
"1+1+1+1+1+1+1+1+1+o+p+q+r+s+t+u+v+]+y.-.5.w+!.4.x+y+z+A+B+C+D+E+F+G+H+1+1+1+1+1+1+1+1+1+",
"I+J+J+J+J+J+J+J+J+K+L+M+N+O+Z.P+V.0.Q+R+S+S+T+U+V+W+X+Y+Z+`+ @.@+@@@#@J+J+J+J+J+J+J+J+I+",
"o+2+2+2+2+2+2+2+2+$@%@&@*@=@-@;@>@S ,@V '@'@U )@,@!@~@{@]@^@/@(@_@:@#@2+2+2+2+2+2+2+2+o+",
"o+o+o+o+o+o+o+o+o+<@[@}@|@1@2@V.3@4@5@6@7@8@9@0@a@b@c@d@e@f@g@h@i@[@<@o+o+o+o+o+o+o+o+o+",
"j@K+K+K+K+K+K+K+K+K+k@l@m@n@o@p@q@r@s@t@u@v@w@x@y@s@V c@z@A@B@C@D@E@K+K+K+K+K+K+K+K+K+j@",
"j@j@j@j@j@j@j@j@j@j@#@F@G@H@I@J@K@L@M@N@w@O@w@P@y@M@'.Q@R@S@T@U@F@j@j@j@j@j@j@j@j@j@j@j@",
"V@V@V@V@V@V@V@V@V@V@V@W@X@Y@Z@`@ #.#T +#@###$#%#&#*#R+=#-#;#>#X@W@V@V@V@V@V@V@V@V@V@V@V@",
",#'#'#'#'#'#'#'#'#'#'#'#)#!#~#{#]#^#/#(#_#:#<#_#[#}#|#1#2#3#4#)#'#'#'#'#'#'#'#'#'#'#'#,#",
",#,#,#,#,#,#,#,#,#,#,#,#5#6#7#8#9#0#a#b#c#-.w.d#e#a#f#g#h#7#6#5#,#,#,#,#,#,#,#,#,#,#,#,#",
"i#i#i#i#i#i#i#i#i#i#i#i#i#i#j#k#l#m#n#o#p#q#r#s#t#n#u#v#k#j#i#i#i#i#i#i#i#i#i#i#i#i#i#i#",
"6#w#w#w#w#w#w#w#w#w#w#w#w#w#w#x#y#z#A#B#C#D#E#F#G#A#z#y#x#w#w#w#w#w#w#w#w#w#w#w#w#w#w#6#",
"6#6#6#6#6#6#6#6#6#6#6#6#6#6#6#6#6#H#@@I#J#K#K#J#I#@@H#6#6#6#6#6#6#6#6#6#6#6#6#6#6#6#6#6#",
"@@H#H#H#H#H#H#H#H#H#H#H#H#H#H#H#H#H#H#H#H#H#H#H#H#H#H#H#H#H#H#H#H#H#H#H#H#H#H#H#H#H#H#@@",
"L#M#M#M#M#M#M#M#M#M#M#M#M#M#M#M#M#M#M#M#M#M#M#M#M#M#M#M#M#M#M#M#M#M#M#M#M#M#M#M#M#M#M#L#",
"N#L#L#L#L#L#L#L#L#L#L#L#L#L#L#L#L#L#L#L#L#L#L#L#L#L#L#L#L#L#L#L#L#L#L#L#L#L#L#L#L#L#L#N#",
"N#L#L#L#L#L#L#L#L#L#L#L#L#L#L#L#L#L#L#L#L#L#L#L#L#L#L#L#L#L#L#L#L#L#L#L#L#L#L#L#L#L#L#N#",
"5#'#'#'#'#'#'#'#'#'#'#'#'#'#'#'#'#'#'#'#'#'#'#'#'#'#'#'#'#'#'#'#'#'#'#'#'#'#'#'#'#'#'#5#",
"i#5#5#5#5#5#5#5#5#5#5#5#5#5#5#5#5#5#5#5#5#5#5#5#5#5#5#5#5#5#5#5#5#5#5#5#5#5#5#5#5#5#5#i#",
"O#O#O#O#O#O#O#O#O#O#O#O#O#O#O#O#O#O#O#O#O#O#O#O#O#O#O#O#O#O#O#O#O#O#O#O#O#O#O#O#O#O#O#O#"};
