/* XPM */
static char * shade_toggled_pressed_xpm[] = {
"44 38 412 2",
"  	c None",
". 	c #000000",
"+ 	c #505050",
"@ 	c #525252",
"# 	c #696969",
"$ 	c #6C6C6C",
"% 	c #515151",
"& 	c #565656",
"* 	c #4C4C4C",
"= 	c #4E4E4E",
"- 	c #4A4A4A",
"; 	c #484949",
"> 	c #414143",
", 	c #393A3A",
"' 	c #333334",
") 	c #2F2F2F",
"! 	c #494949",
"~ 	c #3E3B3A",
"{ 	c #312B2A",
"] 	c #241F1F",
"^ 	c #211B1B",
"/ 	c #1E1819",
"( 	c #1C1617",
"_ 	c #302A2A",
": 	c #464646",
"< 	c #484848",
"[ 	c #484849",
"} 	c #3F3F40",
"| 	c #313030",
"1 	c #231E1B",
"2 	c #1D1311",
"3 	c #1C1211",
"4 	c #231517",
"5 	c #28171B",
"6 	c #27181C",
"7 	c #27171C",
"8 	c #27181B",
"9 	c #1C1311",
"0 	c #231E1C",
"a 	c #444444",
"b 	c #3F3F3F",
"c 	c #211F22",
"d 	c #17100E",
"e 	c #18100F",
"f 	c #201318",
"g 	c #311D24",
"h 	c #4B2F38",
"i 	c #5E3A46",
"j 	c #623E49",
"k 	c #623E48",
"l 	c #5D3A44",
"m 	c #492D37",
"n 	c #321E24",
"o 	c #1F1318",
"p 	c #3D3E3F",
"q 	c #1D1B1B",
"r 	c #171110",
"s 	c #1E1314",
"t 	c #39232A",
"u 	c #6B3F4B",
"v 	c #8E5264",
"w 	c #A06C7D",
"x 	c #AB7B8A",
"y 	c #AD7F8D",
"z 	c #AD808D",
"A 	c #AA7C8A",
"B 	c #A06A7C",
"C 	c #6C404C",
"D 	c #3A242C",
"E 	c #1F1316",
"F 	c #3D3D3F",
"G 	c #414141",
"H 	c #404040",
"I 	c #201E1E",
"J 	c #171211",
"K 	c #201415",
"L 	c #3B242B",
"M 	c #70404F",
"N 	c #9E6274",
"O 	c #AA7586",
"P 	c #B58694",
"Q 	c #BA8F9C",
"R 	c #BC929E",
"S 	c #BD939F",
"T 	c #BB919D",
"U 	c #B68896",
"V 	c #AB7787",
"W 	c #9E6476",
"X 	c #71404F",
"Y 	c #3C242C",
"Z 	c #211416",
"` 	c #181211",
" .	c #211E1E",
"..	c #3F4040",
"+.	c #3E3E3E",
"@.	c #2F2D2B",
"#.	c #191412",
"$.	c #1A1212",
"%.	c #392329",
"&.	c #6A414E",
"*.	c #965D6E",
"=.	c #A87182",
"-.	c #AF7D8C",
";.	c #B68996",
">.	c #B98E9B",
",.	c #BB909D",
"'.	c #BC929F",
").	c #B88B98",
"!.	c #B07E8D",
"~.	c #A97182",
"{.	c #955C6E",
"].	c #6B404D",
"^.	c #39222A",
"/.	c #1D1213",
"(.	c #1B1412",
"_.	c #2F2B2B",
":.	c #383839",
"<.	c #1F1915",
"[.	c #1C1313",
"}.	c #291A1F",
"|.	c #573640",
"1.	c #834F5F",
"2.	c #9F6778",
"3.	c #AA7685",
"4.	c #B17F8E",
"5.	c #B38291",
"6.	c #AB7585",
"7.	c #9E6578",
"8.	c #844F5F",
"9.	c #593641",
"0.	c #2B1B20",
"a.	c #1E1413",
"b.	c #211A15",
"c.	c #393939",
"d.	c #3B3B3B",
"e.	c #38393A",
"f.	c #272729",
"g.	c #1A130F",
"h.	c #251719",
"i.	c #3D252D",
"j.	c #663F4B",
"k.	c #885364",
"l.	c #9D6273",
"m.	c #A56F7F",
"n.	c #AB7786",
"o.	c #AC7686",
"p.	c #AC7888",
"q.	c #AD7A89",
"r.	c #AF7C8B",
"s.	c #AF7B8B",
"t.	c #AD7A8A",
"u.	c #AB7686",
"v.	c #A56D7D",
"w.	c #9C6173",
"x.	c #895464",
"y.	c #6B414F",
"z.	c #3E252E",
"A.	c #1B130F",
"B.	c #272529",
"C.	c #36393A",
"D.	c #3A3A3A",
"E.	c #333536",
"F.	c #1D1B1C",
"G.	c #1A1110",
"H.	c #2F1D20",
"I.	c #51323C",
"J.	c #754756",
"K.	c #8C5667",
"L.	c #9A5F70",
"M.	c #A26779",
"N.	c #A77080",
"O.	c #A97383",
"P.	c #A97585",
"Q.	c #AA7686",
"R.	c #AC7788",
"S.	c #AC7687",
"T.	c #AA7484",
"U.	c #A66D7E",
"V.	c #A16679",
"W.	c #9A5F71",
"X.	c #8C5767",
"Y.	c #764856",
"Z.	c #52323C",
"`.	c #301D21",
" +	c #1A1210",
".+	c #1C1B1C",
"++	c #333435",
"@+	c #353535",
"#+	c #363636",
"$+	c #2F3031",
"%+	c #181717",
"&+	c #1A1112",
"*+	c #3A2329",
"=+	c #7E4E5C",
"-+	c #8F5869",
";+	c #A16678",
">+	c #A87283",
",+	c #A97484",
"'+	c #AA7585",
")+	c #AB7687",
"!+	c #AB7586",
"~+	c #A56C7D",
"{+	c #A16578",
"]+	c #8F5969",
"^+	c #804E5D",
"/+	c #68404C",
"(+	c #3D252B",
"_+	c #1B1314",
":+	c #171617",
"<+	c #2D2F2F",
"[+	c #333333",
"}+	c #171616",
"|+	c #1B1215",
"1+	c #432830",
"2+	c #734653",
"3+	c #865362",
"4+	c #935A6C",
"5+	c #9B6072",
"6+	c #A56D7E",
"7+	c #A97384",
"8+	c #AC7787",
"9+	c #A66E7F",
"0+	c #9D6173",
"a+	c #945B6D",
"b+	c #895465",
"c+	c #442931",
"d+	c #1C1416",
"e+	c #161515",
"f+	c #2C2C2C",
"g+	c #151515",
"h+	c #1C1417",
"i+	c #4B2F37",
"j+	c #7B4B59",
"k+	c #8E5868",
"l+	c #9D6275",
"m+	c #AD7989",
"n+	c #AF7C8C",
"o+	c #B17E8E",
"p+	c #AA7383",
"q+	c #A46B7D",
"r+	c #9E6375",
"s+	c #925A6C",
"t+	c #7F4D5D",
"u+	c #4A2D36",
"v+	c #141313",
"w+	c #2B2B2B",
"x+	c #2D2D2D",
"y+	c #303030",
"z+	c #2A2A2A",
"A+	c #161616",
"B+	c #1F1717",
"C+	c #4B2E37",
"D+	c #7E4B5B",
"E+	c #A66F7F",
"F+	c #B58794",
"G+	c #B78997",
"H+	c #B78A97",
"I+	c #B68795",
"J+	c #B48594",
"K+	c #B28391",
"L+	c #AF7D8D",
"M+	c #A77081",
"N+	c #804C5C",
"O+	c #492D35",
"P+	c #1D1516",
"Q+	c #131414",
"R+	c #282828",
"S+	c #2A2A2B",
"T+	c #171717",
"U+	c #1E1716",
"V+	c #462B31",
"W+	c #7E4A5A",
"X+	c #AA7485",
"Y+	c #B98D9A",
"Z+	c #BB929E",
"`+	c #B88D9A",
" @	c #B17F8F",
".@	c #AB7788",
"+@	c #7E4A59",
"@@	c #1D1615",
"#@	c #28282B",
"$@	c #1C1C1C",
"%@	c #1B1613",
"&@	c #392528",
"*@	c #6F3E4D",
"=@	c #B28190",
"-@	c #B78A98",
";@	c #BB919E",
">@	c #BE96A2",
",@	c #C098A4",
"'@	c #BF97A3",
")@	c #BC939F",
"!@	c #B88B99",
"~@	c #B58695",
"{@	c #6E3E4C",
"]@	c #3A2528",
"^@	c #1B1B1C",
"/@	c #272727",
"(@	c #242424",
"_@	c #1B1811",
":@	c #2B1E1D",
"<@	c #58323D",
"[@	c #955D6D",
"}@	c #AE7B8B",
"|@	c #B78897",
"1@	c #BB8F9D",
"2@	c #BD94A1",
"3@	c #C19AA5",
"4@	c #C39DA9",
"5@	c #C49EAA",
"6@	c #C29CA8",
"7@	c #BE95A1",
"8@	c #AF7E8C",
"9@	c #945D6D",
"0@	c #2D1F1E",
"a@	c #1B1812",
"b@	c #232325",
"c@	c #1C1B17",
"d@	c #1E1815",
"e@	c #382225",
"f@	c #80505F",
"g@	c #A77082",
"h@	c #B58595",
"i@	c #BA8E9C",
"j@	c #BD94A0",
"k@	c #B68997",
"l@	c #804F5E",
"m@	c #1E1715",
"n@	c #262626",
"o@	c #222323",
"p@	c #141210",
"q@	c #211818",
"r@	c #51313A",
"s@	c #844C5B",
"t@	c #AA7284",
"u@	c #BF99A4",
"v@	c #C09AA6",
"w@	c #C19BA7",
"x@	c #C39DA7",
"y@	c #C29BA7",
"z@	c #BF98A4",
"A@	c #BA919D",
"B@	c #B78B99",
"C@	c #AD7589",
"D@	c #854E5D",
"E@	c #4F3039",
"F@	c #221817",
"G@	c #131110",
"H@	c #222223",
"I@	c #202020",
"J@	c #232323",
"K@	c #1A1A1B",
"L@	c #121111",
"M@	c #1E1514",
"N@	c #51323B",
"O@	c #874D5F",
"P@	c #A3697C",
"Q@	c #AE7D8C",
"R@	c #BA8D9A",
"S@	c #BE95A2",
"T@	c #A46C7D",
"U@	c #8B5263",
"V@	c #54353D",
"W@	c #1D1514",
"X@	c #131111",
"Y@	c #1A1A1A",
"Z@	c #222222",
"`@	c #181818",
" #	c #201717",
".#	c #3D2327",
"+#	c #623746",
"@#	c #7F505F",
"##	c #A3697B",
"$#	c #B07D8D",
"%#	c #B28291",
"&#	c #A2687A",
"*#	c #643947",
"=#	c #402529",
"-#	c #211917",
";#	c #1F1F1F",
">#	c #161617",
",#	c #1D1816",
"'#	c #2D201F",
")#	c #3C272A",
"!#	c #633C41",
"~#	c #7D4958",
"{#	c #824E5E",
"]#	c #7B4753",
"^#	c #623C40",
"/#	c #3D272A",
"(#	c #2E201F",
"_#	c #1D1817",
":#	c #121211",
"<#	c #19191B",
"[#	c #141412",
"}#	c #16130F",
"|#	c #161310",
"1#	c #29201C",
"2#	c #362527",
"3#	c #39252A",
"4#	c #382429",
"5#	c #342426",
"6#	c #28201C",
"7#	c #15130F",
"8#	c #141312",
"9#	c #141414",
"0#	c #101011",
"a#	c #0E0E0E",
"b#	c #0D0D0D",
"c#	c #131313",
"d#	c #101010",
"e#	c #0C0C0C",
". . . . . . . . . . . . . . . . . . . . . . . . . . . . . . . . . . . . . . . . . . . . ",
"+ @ @ @ @ @ @ @ @ @ @ @ @ @ @ @ @ @ @ @ @ @ @ @ @ @ @ @ @ @ @ @ @ @ @ @ @ @ @ @ @ @ @ + ",
"# $ $ $ $ $ $ $ $ $ $ $ $ $ $ $ $ $ $ $ $ $ $ $ $ $ $ $ $ $ $ $ $ $ $ $ $ $ $ $ $ $ $ # ",
"% & & & & & & & & & & & & & & & & & & & & & & & & & & & & & & & & & & & & & & & & & & % ",
"+ @ @ @ @ @ @ @ @ @ @ @ @ @ @ @ @ @ @ @ @ @ @ @ @ @ @ @ @ @ @ @ @ @ @ @ @ @ @ @ @ @ @ + ",
"+ + + + + + + + + + + + + + + + + + + + + + + + + + + + + + + + + + + + + + + + + + + + ",
"* = = = = = = = = = = = = = = = = = = = = = = = = = = = = = = = = = = = = = = = = = = * ",
"- * * * * * * * * * * * * * * * * ; > , ' ) ) ' , > ; * * * * * * * * * * * * * * * * - ",
"- - - - - - - - - - - - - - - ! ~ { ] ^ / ( ( / ^ ] _ ~ ! - - - - - - - - - - - - - - - ",
": < < < < < < < < < < < < [ } | 1 2 3 4 5 6 7 8 4 3 9 0 | } [ < < < < < < < < < < < < : ",
"a : : : : : : : : : : : : b c d e f g h i j k l m n o e d c b : : : : : : : : : : : : a ",
"a a a a a a a a a a a a p q r s t u v w x y z A B v C D E r q F a a a a a a a a a a a a ",
"b G G G G G G G G G G H I J K L M N O P Q R S T U V W X Y Z `  ...G G G G G G G G G G b ",
"+.H H H H H H H H H H @.#.$.%.&.*.=.-.;.>.,.'.,.).!.~.{.].^./.(._.H H H H H H H H H H +.",
"+.+.+.+.+.+.+.+.+.+.:.<.[.}.|.1.2.3.!.!.!.4.5.5.5.4.6.7.8.9.0.a.b.:.+.+.+.+.+.+.+.+.+.+.",
"c.d.d.d.d.d.d.d.d.e.f.g.h.i.j.k.l.m.n.o.p.q.r.s.t.u.v.w.x.y.z.h.A.B.C.d.d.d.d.d.d.d.d.c.",
"c.c.c.c.c.c.c.c.D.E.F.G.H.I.J.K.L.M.N.O.P.Q.R.S.T.U.V.W.X.Y.Z.`. +.+++c.c.c.c.c.c.c.c.c.",
"@+#+#+#+#+#+#+#+#+$+%+&+*+j.=+-+L.;+U.>+,+'+)+!+O.~+{+W.]+^+/+(+_+:+<+#+#+#+#+#+#+#+#+@+",
"[+@+@+@+@+@+@+@+@+) }+|+1+2+3+4+5+;+6+7+u.8+8+u.7+9+M.0+a+b+J.c+d+e+f+@+@+@+@+@+@+@+@+[+",
"[+[+[+[+[+[+[+[+[+f+g+h+i+j+k+l+v.T.m+n+o+4.!.-.s.m+p+q+r+s+t+u+d+v+w+[+[+[+[+[+[+[+[+[+",
"x+y+y+y+y+y+y+y+y+z+A+B+C+D+W.E+R.4.F+G+G+H+I+P J+K+L+S.M+w.N+O+P+Q+R+y+y+y+y+y+y+y+y+x+",
"f+) ) ) ) ) ) ) ) S+T+U+V+W+0+X+L+J+Y+Z+'.'.,.Q `+H+J+ @.@N +@V+@@g+R+) ) ) ) ) ) ) ) f+",
"f+f+f+f+f+f+f+f+f+#@$@%@&@*@0+R.=@-@;@>@,@,@'@>@)@Q !@~@t.w.{@]@%@^@#@f+f+f+f+f+f+f+f+f+",
"/@z+z+z+z+z+z+z+z+z+(@_@:@<@[@}@|@1@2@3@4@5@4@6@3@7@'.`+8@9@<@0@a@b@z+z+z+z+z+z+z+z+z+/@",
"/@/@/@/@/@/@/@/@/@/@R+c@d@e@f@g@h@i@j@3@6@4@4@6@3@j@;@k@=.l@e@m@c@/@/@/@/@/@/@/@/@/@/@/@",
"n@n@n@n@n@n@n@n@n@n@n@o@p@q@r@s@t@;.T u@v@w@x@y@z@A@B@C@D@E@F@G@H@n@n@n@n@n@n@n@n@n@n@n@",
"I@J@J@J@J@J@J@J@J@J@J@J@K@L@M@N@O@P@Q@R@7@'@z@S@R@Q@T@U@V@W@X@Y@J@J@J@J@J@J@J@J@J@J@J@I@",
"I@I@I@I@I@I@I@I@I@I@I@I@Z@`@X@ #.#+#@###$#5.%#r.&#f@*#=#-#X@`@Z@I@I@I@I@I@I@I@I@I@I@I@I@",
";#;#;#;#;#;#;#;#;#;#;#;#;#;#>#L@,#'#)#!#~#{#N+]#^#/#(#_#:#>#;#;#;#;#;#;#;#;#;#;#;#;#;#;#",
"Y@$@$@$@$@$@$@$@$@$@$@$@$@$@$@<#[#}#|#1#2#3#4#5#6#|#7#8#<#$@$@$@$@$@$@$@$@$@$@$@$@$@$@Y@",
"Y@Y@Y@Y@Y@Y@Y@Y@Y@Y@Y@Y@Y@Y@Y@Y@Y@`@9#0#a#b#b#a#0#9#`@Y@Y@Y@Y@Y@Y@Y@Y@Y@Y@Y@Y@Y@Y@Y@Y@Y@",
"9#`@`@`@`@`@`@`@`@`@`@`@`@`@`@`@`@`@`@T+T+T+T+T+T+`@`@`@`@`@`@`@`@`@`@`@`@`@`@`@`@`@`@9#",
"c#A+A+A+A+A+A+A+A+A+A+A+A+A+A+A+A+A+A+A+A+A+A+A+A+A+A+A+A+A+A+A+A+A+A+A+A+A+A+A+A+A+A+c#",
"d#c#c#c#c#c#c#c#c#c#c#c#c#c#c#c#c#c#c#c#c#c#c#c#c#c#c#c#c#c#c#c#c#c#c#c#c#c#c#c#c#c#c#d#",
"d#c#c#c#c#c#c#c#c#c#c#c#c#c#c#c#c#c#c#c#c#c#c#c#c#c#c#c#c#c#c#c#c#c#c#c#c#c#c#c#c#c#c#d#",
"Z@J@J@J@J@J@J@J@J@J@J@J@J@J@J@J@J@J@J@J@J@J@J@J@J@J@J@J@J@J@J@J@J@J@J@J@J@J@J@J@J@J@J@Z@",
";#Z@Z@Z@Z@Z@Z@Z@Z@Z@Z@Z@Z@Z@Z@Z@Z@Z@Z@Z@Z@Z@Z@Z@Z@Z@Z@Z@Z@Z@Z@Z@Z@Z@Z@Z@Z@Z@Z@Z@Z@Z@Z@;#",
"e#e#e#e#e#e#e#e#e#e#e#e#e#e#e#e#e#e#e#e#e#e#e#e#e#e#e#e#e#e#e#e#e#e#e#e#e#e#e#e#e#e#e#e#"};
