/* XPM */
static char * shade_prelight_xpm[] = {
"44 38 439 2",
"  	c None",
". 	c #000000",
"+ 	c #505050",
"@ 	c #525252",
"# 	c #696969",
"$ 	c #6C6C6C",
"% 	c #515151",
"& 	c #565656",
"* 	c #4C4C4C",
"= 	c #4E4E4E",
"- 	c #4A4A4A",
"; 	c #484949",
"> 	c #414143",
", 	c #393A3A",
"' 	c #333431",
") 	c #2F2F2C",
"! 	c #494949",
"~ 	c #3E3B3A",
"{ 	c #2F2A2D",
"] 	c #211E24",
"^ 	c #1D1922",
"/ 	c #191422",
"( 	c #171221",
"_ 	c #464646",
": 	c #484848",
"< 	c #3F3F40",
"[ 	c #303030",
"} 	c #221E1E",
"| 	c #180F19",
"1 	c #160D1D",
"2 	c #1A0E2B",
"3 	c #1C0C35",
"4 	c #1C0C37",
"5 	c #1B0C37",
"6 	c #1B0C35",
"7 	c #190E2A",
"8 	c #160D1E",
"9 	c #180F18",
"0 	c #444444",
"a 	c #3F3F3F",
"b 	c #1F1F22",
"c 	c #140D16",
"d 	c #13091D",
"e 	c #15082F",
"f 	c #220E45",
"g 	c #351665",
"h 	c #441E7E",
"i 	c #472084",
"j 	c #462084",
"k 	c #421E7C",
"l 	c #341663",
"m 	c #210E45",
"n 	c #150830",
"o 	c #3E3E3E",
"p 	c #1C1A1F",
"q 	c #130D19",
"r 	c #170C25",
"s 	c #28114E",
"t 	c #481F96",
"u 	c #6027C2",
"v 	c #7940CC",
"w 	c #875AD5",
"x 	c #8C5FD7",
"y 	c #7942CC",
"z 	c #5F26C2",
"A 	c #491F99",
"B 	c #291150",
"C 	c #170C27",
"D 	c #140D18",
"E 	c #1D1A1E",
"F 	c #3D3E3E",
"G 	c #414141",
"H 	c #3F4040",
"I 	c #211D20",
"J 	c #140E1A",
"K 	c #180C2A",
"L 	c #291251",
"M 	c #4C1F9B",
"N 	c #7034CE",
"O 	c #824AD8",
"P 	c #9263DD",
"Q 	c #9B70DF",
"R 	c #9D74E0",
"S 	c #9B71DF",
"T 	c #9466DD",
"U 	c #844BD8",
"V 	c #7134CE",
"W 	c #4B209C",
"X 	c #2A1252",
"Y 	c #150E1A",
"Z 	c #201D20",
"` 	c #404040",
" .	c #2F2B2B",
"..	c #171118",
"+.	c #150B20",
"@.	c #28104D",
"#.	c #4A1F92",
"$.	c #6A31C7",
"%.	c #7E47D7",
"&.	c #8957DA",
"*.	c #9466DE",
"=.	c #996EDF",
"-.	c #9B71E0",
";.	c #9C73E0",
">.	c #9A71DF",
",.	c #966ADE",
"'.	c #8A59DB",
").	c #6A30C7",
"!.	c #491F92",
"~.	c #27104D",
"{.	c #160B22",
"].	c #17111A",
"^.	c #383839",
"/.	c #1F1919",
"(.	c #160B1E",
"_.	c #1D0B3B",
":.	c #3D1B76",
"<.	c #5A25B2",
"[.	c #7336D0",
"}.	c #824DD8",
"|.	c #8A58DA",
"1.	c #8A58DB",
"2.	c #8B5ADB",
"3.	c #8E5FDC",
"4.	c #8E5DDC",
"5.	c #7335CF",
"6.	c #5A25B3",
"7.	c #3F1B78",
"8.	c #1D0B3D",
"9.	c #180C20",
"0.	c #211A1A",
"a.	c #393939",
"b.	c #3B3B3B",
"c.	c #38393A",
"d.	c #27252A",
"e.	c #181117",
"f.	c #1C0E2D",
"g.	c #2A1154",
"h.	c #481F8A",
"i.	c #5E28B8",
"j.	c #6F33CF",
"k.	c #7B42D6",
"l.	c #834ED8",
"m.	c #844ED8",
"n.	c #8450D8",
"o.	c #8552D8",
"p.	c #8855D9",
"q.	c #8653DA",
"r.	c #824CD8",
"s.	c #783FD5",
"t.	c #6D32CE",
"u.	c #6029BA",
"v.	c #4B2090",
"w.	c #2B1155",
"x.	c #181118",
"y.	c #272529",
"z.	c #36393A",
"A.	c #3A3A3A",
"B.	c #343535",
"C.	c #160C1A",
"D.	c #22103D",
"E.	c #39186E",
"F.	c #52239D",
"G.	c #6129BC",
"H.	c #6C30CE",
"I.	c #7439D3",
"J.	c #7C44D5",
"K.	c #804AD7",
"L.	c #814CD8",
"M.	c #844FD8",
"N.	c #814BD7",
"O.	c #7A41D5",
"P.	c #7438D3",
"Q.	c #6C2FCE",
"R.	c #6229BE",
"S.	c #52239F",
"T.	c #3A1970",
"U.	c #22113E",
"V.	c #160D1A",
"W.	c #1C1A1D",
"X.	c #333434",
"Y.	c #353535",
"Z.	c #363636",
"`.	c #303130",
" +	c #181519",
".+	c #160A1D",
"++	c #28124E",
"@+	c #491E89",
"#+	c #5925AA",
"$+	c #642AC1",
"%+	c #6B2FCE",
"&+	c #7337D3",
"*+	c #7F49D7",
"=+	c #814BD8",
"-+	c #8049D7",
";+	c #793FD5",
">+	c #6429C3",
",+	c #5925AB",
"'+	c #491F8B",
")+	c #2A1351",
"!+	c #160B1F",
"~+	c #171518",
"{+	c #2D302D",
"]+	c #333333",
"^+	c #2F302F",
"/+	c #171417",
"(+	c #160A21",
"_+	c #2F135B",
":+	c #51219B",
"<+	c #5F27B5",
"[+	c #672CC8",
"}+	c #6E31CF",
"|+	c #834FD8",
"1+	c #7C43D6",
"2+	c #763BD4",
"3+	c #6E32D0",
"4+	c #682CC9",
"5+	c #6028B7",
"6+	c #52229D",
"7+	c #2F145C",
"8+	c #160A22",
"9+	c #161416",
"0+	c #2C2F2C",
"a+	c #2C2D2C",
"b+	c #151316",
"c+	c #170B25",
"d+	c #351766",
"e+	c #5525A8",
"f+	c #642BBF",
"g+	c #7135D0",
"h+	c #7B41D6",
"i+	c #814DD8",
"j+	c #8654D9",
"k+	c #8958DA",
"l+	c #8C5BDB",
"m+	c #8B5ADA",
"n+	c #8A59DA",
"o+	c #8856DA",
"p+	c #8653D9",
"q+	c #814CD7",
"r+	c #7941D5",
"s+	c #7136D2",
"t+	c #672CC5",
"u+	c #5825AC",
"v+	c #331664",
"w+	c #160B24",
"x+	c #131114",
"y+	c #2B2C2B",
"z+	c #2D2D2D",
"A+	c #2A2B2A",
"B+	c #161417",
"C+	c #180D24",
"D+	c #341764",
"E+	c #5624AD",
"F+	c #7D42D6",
"G+	c #854FD9",
"H+	c #8C5ADB",
"I+	c #9264DD",
"J+	c #9567DE",
"K+	c #9568DE",
"L+	c #9668DE",
"M+	c #9366DD",
"N+	c #8F5FDC",
"O+	c #844FD9",
"P+	c #7E43D6",
"Q+	c #6F31D0",
"R+	c #5725AE",
"S+	c #331662",
"T+	c #131215",
"U+	c #282828",
"V+	c #2C2C2C",
"W+	c #2F2F2F",
"X+	c #171618",
"Y+	c #191121",
"Z+	c #31165B",
"`+	c #5522AC",
" @	c #6E30D2",
".@	c #8249D8",
"+@	c #8A57DA",
"@@	c #9161DD",
"#@	c #996CDF",
"$@	c #9D73E0",
"%@	c #9E74E0",
"&@	c #9C72DF",
"*@	c #996DDF",
"=@	c #9669DE",
"-@	c #9262DD",
";@	c #8D5CDB",
">@	c #844ED9",
",@	c #7032D2",
"'@	c #5423AC",
")@	c #32165C",
"!@	c #151416",
"~@	c #282A2B",
"{@	c #1C1C1D",
"]@	c #18131A",
"^@	c #291549",
"/@	c #471C9A",
"(@	c #6E30D1",
"_@	c #8F5EDB",
":@	c #9C71E0",
"<@	c #A17AE2",
"[@	c #A47CE2",
"}@	c #A47DE2",
"|@	c #A37BE2",
"1@	c #A279E2",
"2@	c #9F75E0",
"3@	c #986CDE",
"4@	c #9365DD",
"5@	c #8753DA",
"6@	c #471D9A",
"7@	c #2A164A",
"8@	c #19131A",
"9@	c #1C1B1D",
"0@	c #28282B",
"a@	c #272727",
"b@	c #2A2A2A",
"c@	c #242424",
"d@	c #191717",
"e@	c #211333",
"f@	c #38167F",
"g@	c #682DC6",
"h@	c #8754D8",
"i@	c #9F76E1",
"j@	c #A47EE3",
"k@	c #A883E4",
"l@	c #A984E4",
"m@	c #A782E4",
"n@	c #A57EE2",
"o@	c #A077E1",
"p@	c #986CDF",
"q@	c #8B57DA",
"r@	c #39167F",
"s@	c #221534",
"t@	c #1A1717",
"u@	c #232424",
"v@	c #1B1B19",
"w@	c #19121F",
"x@	c #261349",
"y@	c #5926AB",
"z@	c #7B42D3",
"A@	c #9260DD",
"B@	c #9A6EDF",
"C@	c #9F75E1",
"D@	c #A57DE2",
"E@	c #9C72E0",
"F@	c #9465DE",
"G@	c #7D44D4",
"H@	c #5825A9",
"I@	c #1A121F",
"J@	c #262626",
"K@	c #222322",
"L@	c #121213",
"M@	c #191126",
"N@	c #361866",
"O@	c #5523B4",
"P@	c #7F40D6",
"Q@	c #9461DD",
"R@	c #9C6FDF",
"S@	c #A37BE3",
"T@	c #A57EE3",
"U@	c #A67FE3",
"V@	c #A681E3",
"W@	c #A580E3",
"X@	c #A27AE2",
"Y@	c #9665DE",
"Z@	c #8247D7",
"`@	c #5725B5",
" #	c #1A1126",
".#	c #131113",
"+#	c #222222",
"@#	c #202020",
"##	c #232323",
"$#	c #1B1B1B",
"%#	c #101012",
"&#	c #18101F",
"*#	c #371866",
"=#	c #5625B3",
"-#	c #7437D2",
";#	c #8653D7",
">#	c #986BDE",
",#	c #A178E2",
"'#	c #A179E2",
")#	c #9769DE",
"!#	c #763BD3",
"~#	c #5A27B7",
"{#	c #39196B",
"]#	c #17101E",
"^#	c #111012",
"/#	c #1A1A1A",
"(#	c #121012",
"_#	c #181221",
":#	c #26144E",
"<#	c #3D177E",
"[#	c #5726A3",
"}#	c #733ACF",
"|#	c #874FDB",
"1#	c #8C58DD",
"2#	c #8B57DC",
"3#	c #854CDA",
"4#	c #7238CE",
"5#	c #3F187F",
"6#	c #281552",
"7#	c #1A1222",
"8#	c #1F1F1F",
"9#	c #161816",
"0#	c #1A131E",
"a#	c #231531",
"b#	c #291947",
"c#	c #402586",
"d#	c #512CA1",
"e#	c #562BA6",
"f#	c #5429A4",
"g#	c #4D299F",
"h#	c #3F2485",
"i#	c #231532",
"j#	c #1A131F",
"k#	c #1C1C1C",
"l#	c #191919",
"m#	c #141613",
"n#	c #141410",
"o#	c #141216",
"p#	c #20182A",
"q#	c #261941",
"r#	c #271547",
"s#	c #261545",
"t#	c #25173F",
"u#	c #1F1729",
"v#	c #141612",
"w#	c #181818",
"x#	c #141414",
"y#	c #0F100F",
"z#	c #0E0F0C",
"A#	c #0B0D0A",
"B#	c #171717",
"C#	c #131313",
"D#	c #161616",
"E#	c #101010",
"F#	c #0C0C0C",
". . . . . . . . . . . . . . . . . . . . . . . . . . . . . . . . . . . . . . . . . . . . ",
"+ @ @ @ @ @ @ @ @ @ @ @ @ @ @ @ @ @ @ @ @ @ @ @ @ @ @ @ @ @ @ @ @ @ @ @ @ @ @ @ @ @ @ + ",
"# $ $ $ $ $ $ $ $ $ $ $ $ $ $ $ $ $ $ $ $ $ $ $ $ $ $ $ $ $ $ $ $ $ $ $ $ $ $ $ $ $ $ # ",
"% & & & & & & & & & & & & & & & & & & & & & & & & & & & & & & & & & & & & & & & & & & % ",
"+ @ @ @ @ @ @ @ @ @ @ @ @ @ @ @ @ @ @ @ @ @ @ @ @ @ @ @ @ @ @ @ @ @ @ @ @ @ @ @ @ @ @ + ",
"+ + + + + + + + + + + + + + + + + + + + + + + + + + + + + + + + + + + + + + + + + + + + ",
"* = = = = = = = = = = = = = = = = = = = = = = = = = = = = = = = = = = = = = = = = = = * ",
"- * * * * * * * * * * * * * * * * ; > , ' ) ) ' , > ; * * * * * * * * * * * * * * * * - ",
"- - - - - - - - - - - - - - - ! ~ { ] ^ / ( ( / ^ ] { ~ ! - - - - - - - - - - - - - - - ",
"_ : : : : : : : : : : : : : < [ } | 1 2 3 4 5 6 7 8 9 } [ < : : : : : : : : : : : : : _ ",
"0 _ _ _ _ _ _ _ _ _ _ _ _ a b c d e f g h i j k l m n d c b a _ _ _ _ _ _ _ _ _ _ _ _ 0 ",
"0 0 0 0 0 0 0 0 0 0 0 0 o p q r s t u v w x x w y z A B C D E F 0 0 0 0 0 0 0 0 0 0 0 0 ",
"a G G G G G G G G G G H I J K L M N O P Q R R S T U V W X K Y Z H G G G G G G G G G G a ",
"o ` ` ` ` ` ` ` ` ` `  ...+.@.#.$.%.&.*.=.-.;.>.,.'.%.).!.~.{.]. .` ` ` ` ` ` ` ` ` ` o ",
"o o o o o o o o o o ^./.(._.:.<.[.}.|.'.1.2.3.3.4.2.}.5.6.7.8.9.0.^.o o o o o o o o o o ",
"a.b.b.b.b.b.b.b.b.c.d.e.f.g.h.i.j.k.l.m.n.o.p.p.q.r.s.t.u.v.w.f.x.y.z.b.b.b.b.b.b.b.b.a.",
"a.a.a.a.a.a.a.a.A.B.E C.D.E.F.G.H.I.J.K.L.}.M.l.N.O.P.Q.R.S.T.U.V.W.X.a.a.a.a.a.a.a.a.a.",
"Y.Z.Z.Z.Z.Z.Z.Z.Z.`. +.+++@+#+$+%+&+O.*+=+r.l.}.-+;+&+Q.>+,+'+)+!+~+{+Z.Z.Z.Z.Z.Z.Z.Z.Y.",
"]+Y.Y.Y.Y.Y.Y.Y.Y.^+/+(+_+:+<+[+}+P.O.K.|+n.M.l.K.1+2+3+4+5+6+7+8+9+0+Y.Y.Y.Y.Y.Y.Y.Y.]+",
"]+]+]+]+]+]+]+]+]+a+b+c+d+e+f+g+h+i+j+k+2.l+m+n+o+p+q+r+s+t+u+v+w+x+y+]+]+]+]+]+]+]+]+]+",
"z+[ [ [ [ [ [ [ [ A+B+C+D+E+Q.F+G+H+I+J+K+L+M+I+P N+1.O+P+Q+R+S+C+T+U+[ [ [ [ [ [ [ [ z+",
"V+W+W+W+W+W+W+W+W+A+X+Y+Z+`+ @.@+@@@#@$@%@%@&@Q *@=@-@;@>@,@'@)@Y+!@U+W+W+W+W+W+W+W+W+V+",
"V+V+V+V+V+V+V+V+V+~@{@]@^@/@(@m._@L+:@<@[@}@|@1@2@S 3@4@5@(@6@7@8@9@0@V+V+V+V+V+V+V+V+V+",
"a@b@b@b@b@b@b@b@b@b@c@d@e@f@g@h@L+Q i@j@k@l@k@m@n@o@$@p@q@g@r@s@t@u@b@b@b@b@b@b@b@b@b@a@",
"a@a@a@a@a@a@a@a@a@a@U+v@w@x@y@z@A@B@C@j@m@k@k@m@D@i@E@F@G@H@x@I@v@a@a@a@a@a@a@a@a@a@a@a@",
"J@J@J@J@J@J@J@J@J@J@J@K@L@M@N@O@P@Q@R@S@T@U@V@W@X@Q Y@Z@`@D+ #.#+#J@J@J@J@J@J@J@J@J@J@J@",
"@#######################$#%#&#*#=#-#;#>#C@,#'#C@)#;#!#~#{#]#^#$#######################@#",
"@#@#@#@#@#@#@#@#@#@#@#@#+#/#(#_#:#<#[#}#|#1#2#3#4#[#5#6#7#^#/#+#@#@#@#@#@#@#@#@#@#@#@#@#",
"8#8#8#8#8#8#8#8#8#8#8#8#8#8#9#^#0#a#b#c#d#e#f#g#h#b#i#j#(#9#8#8#8#8#8#8#8#8#8#8#8#8#8#8#",
"/#k#k#k#k#k#k#k#k#k#k#k#k#k#k#l#m#n#o#p#q#r#s#t#u#o#n#v#l#k#k#k#k#k#k#k#k#k#k#k#k#k#k#/#",
"/#/#/#/#/#/#/#/#/#/#/#/#/#/#/#/#/#w#x#y#z#A#A#z#y#x#w#/#/#/#/#/#/#/#/#/#/#/#/#/#/#/#/#/#",
"x#w#w#w#w#w#w#w#w#w#w#w#w#w#w#w#w#w#w#w#B#B#B#B#w#w#w#w#w#w#w#w#w#w#w#w#w#w#w#w#w#w#w#x#",
"C#D#D#D#D#D#D#D#D#D#D#D#D#D#D#D#D#D#D#D#D#D#D#D#D#D#D#D#D#D#D#D#D#D#D#D#D#D#D#D#D#D#D#C#",
"E#C#C#C#C#C#C#C#C#C#C#C#C#C#C#C#C#C#C#C#C#C#C#C#C#C#C#C#C#C#C#C#C#C#C#C#C#C#C#C#C#C#C#E#",
"E#C#C#C#C#C#C#C#C#C#C#C#C#C#C#C#C#C#C#C#C#C#C#C#C#C#C#C#C#C#C#C#C#C#C#C#C#C#C#C#C#C#C#E#",
"+#####################################################################################+#",
"8#+#+#+#+#+#+#+#+#+#+#+#+#+#+#+#+#+#+#+#+#+#+#+#+#+#+#+#+#+#+#+#+#+#+#+#+#+#+#+#+#+#+#8#",
"F#F#F#F#F#F#F#F#F#F#F#F#F#F#F#F#F#F#F#F#F#F#F#F#F#F#F#F#F#F#F#F#F#F#F#F#F#F#F#F#F#F#F#F#"};
