/* XPM */
static char * shade_active_xpm[] = {
"44 38 417 2",
"  	c None",
". 	c #000000",
"+ 	c #505050",
"@ 	c #525252",
"# 	c #696969",
"$ 	c #6C6C6C",
"% 	c #515151",
"& 	c #565656",
"* 	c #4C4C4C",
"= 	c #4E4E4E",
"- 	c #4A4A4A",
"; 	c #464849",
"> 	c #404041",
", 	c #363839",
"' 	c #303031",
") 	c #2B2B2B",
"! 	c #303133",
"~ 	c #383839",
"{ 	c #484949",
"] 	c #484848",
"^ 	c #3D3A38",
"/ 	c #2E2828",
"( 	c #1F1C1D",
"_ 	c #1A161A",
": 	c #151219",
"< 	c #121018",
"[ 	c #121017",
"} 	c #161219",
"| 	c #1F1C1E",
"1 	c #2E2928",
"2 	c #3D3A39",
"3 	c #494949",
"4 	c #464646",
"5 	c #3E3E3E",
"6 	c #2F2C2C",
"7 	c #201C1B",
"8 	c #160E12",
"9 	c #120A12",
"0 	c #130A1A",
"a 	c #130820",
"b 	c #110721",
"c 	c #110720",
"d 	c #13081E",
"e 	c #130A19",
"f 	c #150D11",
"g 	c #302F2F",
"h 	c #3E3E3F",
"i 	c #444444",
"j 	c #3D3D3D",
"k 	c #1D1D1F",
"l 	c #110B0F",
"m 	c #0D0611",
"n 	c #0C051D",
"o 	c #150A2B",
"p 	c #210D41",
"q 	c #29114F",
"r 	c #2B1253",
"s 	c #2A1252",
"t 	c #28104E",
"u 	c #200E3F",
"v 	c #14092B",
"w 	c #0C051A",
"x 	c #0D0711",
"y 	c #120C0F",
"z 	c #1E1E21",
"A 	c #3F3F3F",
"B 	c #3D3D3E",
"C 	c #1A171A",
"D 	c #100C10",
"E 	c #100717",
"F 	c #180A2F",
"G 	c #2D1356",
"H 	c #3A1970",
"I 	c #451D85",
"J 	c #4B2090",
"K 	c #4D2193",
"L 	c #4D2092",
"M 	c #4A1F8F",
"N 	c #441D85",
"O 	c #38196E",
"P 	c #2B1254",
"Q 	c #17092D",
"R 	c #110817",
"S 	c #110C10",
"T 	c #1B181C",
"U 	c #414141",
"V 	c #3F4040",
"W 	c #1F1E1D",
"X 	c #110C11",
"Y 	c #110819",
"Z 	c #190A30",
"` 	c #2E1358",
" .	c #411B7C",
"..	c #481F8B",
"+.	c #4F2198",
"@.	c #52239E",
"#.	c #5324A0",
"$.	c #5324A1",
"%.	c #52249E",
"&.	c #502198",
"*.	c #481F8A",
"=.	c #2C1356",
"-.	c #180A2E",
";.	c #110818",
">.	c #120D12",
",.	c #201F1E",
"'.	c #404040",
").	c #2E2B2A",
"!.	c #141012",
"~.	c #0F0714",
"{.	c #170A2E",
"].	c #2C1355",
"^.	c #3E1B76",
"/.	c #461E87",
"(.	c #52229C",
"_.	c #52239D",
":.	c #52239F",
"<.	c #502299",
"[.	c #3C1A74",
"}.	c #2A1251",
"|.	c #15092B",
"1.	c #110813",
"2.	c #151112",
"3.	c #2F2B2D",
"4.	c #1E1914",
"5.	c #100813",
"6.	c #0F0622",
"7.	c #231045",
"8.	c #351666",
"9.	c #421C7E",
"0.	c #4B2091",
"a.	c #4D2194",
"b.	c #4C2091",
"c.	c #471F89",
"d.	c #401C7C",
"e.	c #341663",
"f.	c #230F43",
"g.	c #100621",
"h.	c #140914",
"i.	c #201A15",
"j.	c #38383A",
"k.	c #393939",
"l.	c #3B3B3B",
"m.	c #38393A",
"n.	c #252529",
"o.	c #16100F",
"p.	c #140A1A",
"q.	c #170931",
"r.	c #2A1250",
"s.	c #37186A",
"t.	c #401B7A",
"u.	c #451D84",
"v.	c #481E8B",
"w.	c #481F8C",
"x.	c #491F8D",
"y.	c #4A1F8D",
"z.	c #481E8A",
"A.	c #441D82",
"B.	c #3E1B78",
"C.	c #371869",
"D.	c #291151",
"E.	c #16092F",
"F.	c #150A19",
"G.	c #27272A",
"H.	c #3A3A3A",
"I.	c #343636",
"J.	c #1B1A1C",
"K.	c #130B10",
"L.	c #160A22",
"M.	c #200D40",
"N.	c #30145B",
"O.	c #39186D",
"P.	c #3E1A77",
"Q.	c #421C7F",
"R.	c #461D85",
"S.	c #471E88",
"T.	c #481E89",
"U.	c #461E89",
"V.	c #441D84",
"W.	c #411C7E",
"X.	c #39186C",
"Y.	c #2F1359",
"Z.	c #1F0D3E",
"`.	c #160B21",
" +	c #130C10",
".+	c #1B1A1D",
"++	c #333435",
"@+	c #353535",
"#+	c #363636",
"$+	c #303131",
"%+	c #161518",
"&+	c #180A2C",
"*+	c #291250",
"=+	c #331662",
"-+	c #3A186F",
";+	c #3E1A76",
">+	c #471E87",
",+	c #461E88",
"'+	c #441D83",
")+	c #331561",
"!+	c #29114E",
"~+	c #190B2C",
"{+	c #100814",
"]+	c #161517",
"^+	c #2F302F",
"/+	c #333333",
"(+	c #30302F",
"_+	c #151417",
":+	c #0D0616",
"<+	c #1C0B33",
"[+	c #2F1459",
"}+	c #351769",
"|+	c #3B1A73",
"1+	c #3E1B79",
"2+	c #411B7F",
"3+	c #3F1B79",
"4+	c #3C1973",
"5+	c #361769",
"6+	c #2F1458",
"7+	c #1B0A31",
"8+	c #0E0616",
"9+	c #141314",
"0+	c #2D2F2C",
"a+	c #2D2D2C",
"b+	c #131215",
"c+	c #0E0718",
"d+	c #1E0D3A",
"e+	c #32165F",
"f+	c #3A196F",
"g+	c #411B7B",
"h+	c #471E8A",
"i+	c #491F8E",
"j+	c #4A1F90",
"k+	c #4C2192",
"l+	c #4B1F8F",
"m+	c #4A1F8C",
"n+	c #431C82",
"o+	c #401A7C",
"p+	c #3A1871",
"q+	c #32155F",
"r+	c #1B0C34",
"s+	c #0F0716",
"t+	c #111013",
"u+	c #2C2D2B",
"v+	c #2D2D2D",
"w+	c #303030",
"x+	c #2A2C2A",
"y+	c #141316",
"z+	c #120918",
"A+	c #1F0F39",
"B+	c #331661",
"C+	c #3F1B77",
"D+	c #461E86",
"E+	c #49208C",
"F+	c #4C2092",
"G+	c #4E2197",
"H+	c #50229A",
"I+	c #4F2197",
"J+	c #4B208F",
"K+	c #491F8B",
"L+	c #3F1A78",
"M+	c #31155F",
"N+	c #1D0E35",
"O+	c #110A16",
"P+	c #121113",
"Q+	c #282A28",
"R+	c #2C2C2C",
"S+	c #2F2F2F",
"T+	c #2A2B2B",
"U+	c #150F17",
"V+	c #1E0F34",
"W+	c #321460",
"X+	c #4E2196",
"Y+	c #51229C",
"Z+	c #53239F",
"`+	c #5423A1",
" @	c #52239C",
".@	c #3F1A79",
"+@	c #2F145C",
"@@	c #1E0F32",
"#@	c #140F15",
"$@	c #151415",
"%@	c #282828",
"&@	c #282A2B",
"*@	c #1C1B1C",
"=@	c #171214",
"-@	c #1B0F2A",
";@	c #291153",
">@	c #3F1A7A",
",@	c #481E8C",
"'@	c #4D2094",
")@	c #5524A3",
"!@	c #5624A5",
"~@	c #5524A4",
"{@	c #5424A3",
"]@	c #5424A0",
"^@	c #50229B",
"/@	c #3E1976",
"(@	c #1B0F28",
"_@	c #161213",
":@	c #1C1C1D",
"<@	c #28282B",
"[@	c #272727",
"}@	c #2A2A2A",
"|@	c #242424",
"1@	c #191612",
"2@	c #191020",
"3@	c #1F0C41",
"4@	c #53239E",
"5@	c #5424A2",
"6@	c #5625A7",
"7@	c #5825A9",
"8@	c #5825AA",
"9@	c #5825A8",
"0@	c #5625A5",
"a@	c #5323A0",
"b@	c #51229B",
"c@	c #1E0C3D",
"d@	c #19111E",
"e@	c #191711",
"f@	c #232425",
"g@	c #1B1B18",
"h@	c #161015",
"i@	c #180D28",
"j@	c #331564",
"k@	c #461D87",
"l@	c #5424A1",
"m@	c #4F2199",
"n@	c #31145F",
"o@	c #180D24",
"p@	c #151115",
"q@	c #1C1B18",
"r@	c #262626",
"s@	c #222323",
"t@	c #111010",
"u@	c #140F19",
"v@	c #220F3C",
"w@	c #321561",
"x@	c #491E8B",
"y@	c #5725A7",
"z@	c #5525A4",
"A@	c #52229E",
"B@	c #50219A",
"C@	c #491E8C",
"D@	c #31145E",
"E@	c #1F0F38",
"F@	c #140F17",
"G@	c #121110",
"H@	c #232323",
"I@	c #202020",
"J@	c #1A1B1B",
"K@	c #100F11",
"L@	c #150E15",
"M@	c #22103E",
"N@	c #431D81",
"O@	c #4A208F",
"P@	c #52229D",
"Q@	c #4A1F8E",
"R@	c #421C81",
"S@	c #351665",
"T@	c #21103D",
"U@	c #120E13",
"V@	c #110F10",
"W@	c #1B1B1B",
"X@	c #222222",
"Y@	c #181818",
"Z@	c #111011",
"`@	c #151017",
" #	c #1B0E2A",
".#	c #250E4B",
"+#	c #431B82",
"@#	c #4C2093",
"##	c #411A7F",
"$#	c #230E4A",
"%#	c #1B1029",
"&#	c #151117",
"*#	c #101011",
"=#	c #1A1A1A",
"-#	c #1F1F1F",
";#	c #171816",
">#	c #111111",
",#	c #161117",
"'#	c #1A1120",
")#	c #1F132D",
"!#	c #2D1B45",
"~#	c #351C5E",
"{#	c #341863",
"]#	c #331861",
"^#	c #321B5A",
"/#	c #2B1A42",
"(#	c #1E132B",
"_#	c #111211",
":#	c #171817",
"<#	c #1C1C1C",
"[#	c #191B1B",
"}#	c #171612",
"|#	c #15140F",
"1#	c #141411",
"2#	c #1B1A1E",
"3#	c #1D1729",
"4#	c #1B112C",
"5#	c #1B122B",
"6#	c #1C1727",
"7#	c #1B191B",
"8#	c #131310",
"9#	c #16140F",
"0#	c #171613",
"a#	c #19191B",
"b#	c #141414",
"c#	c #111110",
"d#	c #0F0F0E",
"e#	c #0D0E0D",
"f#	c #171717",
"g#	c #131313",
"h#	c #161616",
"i#	c #101010",
"j#	c #0C0C0C",
". . . . . . . . . . . . . . . . . . . . . . . . . . . . . . . . . . . . . . . . . . . . ",
"+ @ @ @ @ @ @ @ @ @ @ @ @ @ @ @ @ @ @ @ @ @ @ @ @ @ @ @ @ @ @ @ @ @ @ @ @ @ @ @ @ @ @ + ",
"# $ $ $ $ $ $ $ $ $ $ $ $ $ $ $ $ $ $ $ $ $ $ $ $ $ $ $ $ $ $ $ $ $ $ $ $ $ $ $ $ $ $ # ",
"% & & & & & & & & & & & & & & & & & & & & & & & & & & & & & & & & & & & & & & & & & & % ",
"+ @ @ @ @ @ @ @ @ @ @ @ @ @ @ @ @ @ @ @ @ @ @ @ @ @ @ @ @ @ @ @ @ @ @ @ @ @ @ @ @ @ @ + ",
"+ + + + + + + + + + + + + + + + + + + + + + + + + + + + + + + + + + + + + + + + + + + + ",
"* = = = = = = = = = = = = = = = = = = = = = = = = = = = = = = = = = = = = = = = = = = * ",
"- * * * * * * * * * * * * * * * * ; > , ' ) ) ! ~ > { * * * * * * * * * * * * * * * * - ",
"- - - - - - - - - - - - - - - ] ^ / ( _ : < [ } _ | 1 2 3 - - - - - - - - - - - - - - - ",
"4 ] ] ] ] ] ] ] ] ] ] ] ] ] 5 6 7 8 9 0 a b c d e 9 f 7 g h 3 ] ] ] ] ] ] ] ] ] ] ] ] 4 ",
"i 4 4 4 4 4 4 4 4 4 4 4 4 j k l m n o p q r s t u v w x y z A 4 4 4 4 4 4 4 4 4 4 4 4 i ",
"i i i i i i i i i i i i B C D E F G H I J K L M N O P Q R S T h i i i i i i i i i i i i ",
"A U U U U U U U U U U V W X Y Z `  ...+.@.#.$.%.&.*. .=.-.;.>.,.> U U U U U U U U U U A ",
"5 '.'.'.'.'.'.'.'.'.'.).!.~.{.].^./.J &.(._.:.@.<.J /.[.}.|.1.2.3.'.'.'.'.'.'.'.'.'.'.5 ",
"5 5 5 5 5 5 5 5 5 5 ~ 4.5.6.7.8.9.*.J J J 0.a.a.a.b.c.d.e.f.g.h.i.j.5 5 5 5 5 5 5 5 5 5 ",
"k.l.l.l.l.l.l.l.l.m.n.o.p.q.r.s.t.u.v.w.w.x.M M y.z.A.B.C.D.E.F.o.G.m.l.l.l.l.l.l.l.l.k.",
"k.k.k.k.k.k.k.k.H.I.J.K.L.M.N.O.P.Q.R.S.T.z.w...U.V.W.P.X.Y.Z.`. +.+++k.k.k.k.k.k.k.k.k.",
"@+#+#+#+#+#+#+#+#+$+%+~.&+*+=+-+;+W.u.>+T.z...*.,+'+W.P.-+)+!+~+{+]+^+#+#+#+#+#+#+#+#+@+",
"/+@+@+@+@+@+@+@+@+(+_+:+<+[+}+|+1+2+V.,+*.....*.S.u.Q.3+4+5+6+7+8+9+0+@+@+@+@+@+@+@+@+/+",
"/+/+/+/+/+/+/+/+/+a+b+c+d+e+f+g+V.h+i+j+b.k+0.J l+m+,+n+o+p+q+r+s+t+u+/+/+/+/+/+/+/+/+/+",
"v+w+w+w+w+w+w+w+w+x+y+z+A+B+C+D+E+F+G+<.H+H++.I+I+a.J+K+D+L+M+N+O+P+Q+w+w+w+w+w+w+w+w+v+",
"R+S+S+S+S+S+S+S+S+T+]+U+V+W+t.c.J X+Y+Z+`+`+:.@. @H+X+L K+.@+@@@#@$@%@S+S+S+S+S+S+S+S+R+",
"R+R+R+R+R+R+R+R+R+&@*@=@-@;@>@,@'@H+Z+)@!@!@~@{@]@@.^@I+y./@t (@_@:@<@R+R+R+R+R+R+R+R+R+",
"[@}@}@}@}@}@}@}@}@}@|@1@2@3@[.M <.4@5@6@7@8@7@9@0@5@a@b@J+-+c@d@e@f@}@}@}@}@}@}@}@}@}@[@",
"[@[@[@[@[@[@[@[@[@[@%@g@h@i@j@k@I+_.5@6@7@7@7@9@0@l@Z+m@I n@o@p@q@[@[@[@[@[@[@[@[@[@[@[@",
"r@r@r@r@r@r@r@r@r@r@r@s@t@u@v@w@x@+.@.0@6@y@y@6@z@A@B@C@D@E@F@G@H@r@r@r@r@r@r@r@r@r@r@r@",
"I@H@H@H@H@H@H@H@H@H@H@H@J@K@L@M@8.N@O@P@{@~@~@l@b@Q@R@S@T@U@V@W@H@H@H@H@H@H@H@H@H@H@H@I@",
"I@I@I@I@I@I@I@I@I@I@I@I@X@Y@Z@`@ #.#j@+#0.K @#i+##w@$#%#&#*#=#X@I@I@I@I@I@I@I@I@I@I@I@I@",
"-#-#-#-#-#-#-#-#-#-#-#-#-#-#;#>#,#'#)#!#~#{#]#^#/#(#'#,#_#:#-#-#-#-#-#-#-#-#-#-#-#-#-#-#",
"=#<#<#<#<#<#<#<#<#<#<#<#<#<#<#[#}#|#1#2#3#4#5#6#7#8#9#0#a#<#<#<#<#<#<#<#<#<#<#<#<#<#<#=#",
"=#=#=#=#=#=#=#=#=#=#=#=#=#=#=#=#=#Y@b#c#d#e#e#d#>#b#Y@=#=#=#=#=#=#=#=#=#=#=#=#=#=#=#=#=#",
"b#Y@Y@Y@Y@Y@Y@Y@Y@Y@Y@Y@Y@Y@Y@Y@Y@Y@Y@f#f#f#f#f#f#Y@Y@Y@Y@Y@Y@Y@Y@Y@Y@Y@Y@Y@Y@Y@Y@Y@Y@b#",
"g#h#h#h#h#h#h#h#h#h#h#h#h#h#h#h#h#h#h#h#h#h#h#h#h#h#h#h#h#h#h#h#h#h#h#h#h#h#h#h#h#h#h#g#",
"i#g#g#g#g#g#g#g#g#g#g#g#g#g#g#g#g#g#g#g#g#g#g#g#g#g#g#g#g#g#g#g#g#g#g#g#g#g#g#g#g#g#g#i#",
"i#g#g#g#g#g#g#g#g#g#g#g#g#g#g#g#g#g#g#g#g#g#g#g#g#g#g#g#g#g#g#g#g#g#g#g#g#g#g#g#g#g#g#i#",
"X@H@H@H@H@H@H@H@H@H@H@H@H@H@H@H@H@H@H@H@H@H@H@H@H@H@H@H@H@H@H@H@H@H@H@H@H@H@H@H@H@H@H@X@",
"-#X@X@X@X@X@X@X@X@X@X@X@X@X@X@X@X@X@X@X@X@X@X@X@X@X@X@X@X@X@X@X@X@X@X@X@X@X@X@X@X@X@X@-#",
"j#j#j#j#j#j#j#j#j#j#j#j#j#j#j#j#j#j#j#j#j#j#j#j#j#j#j#j#j#j#j#j#j#j#j#j#j#j#j#j#j#j#j#j#"};
