/* XPM */
static char * stick_active_xpm[] = {
"44 38 318 2",
"  	c None",
". 	c #000000",
"+ 	c #505050",
"@ 	c #525252",
"# 	c #696969",
"$ 	c #6C6C6C",
"% 	c #515151",
"& 	c #565656",
"* 	c #4C4C4C",
"= 	c #4E4E4E",
"- 	c #4A4A4A",
"; 	c #484849",
"> 	c #404041",
", 	c #383839",
"' 	c #313031",
") 	c #2B2B2B",
"! 	c #484848",
"~ 	c #3D3A36",
"{ 	c #2D2926",
"] 	c #1F1D1C",
"^ 	c #181918",
"/ 	c #121616",
"( 	c #0F1414",
"_ 	c #0E1413",
": 	c #111615",
"< 	c #2D2826",
"[ 	c #3D3A38",
"} 	c #464646",
"| 	c #3E3E3E",
"1 	c #2F2C2C",
"2 	c #1F1D18",
"3 	c #13120E",
"4 	c #09110E",
"5 	c #081411",
"6 	c #071615",
"7 	c #041616",
"8 	c #041615",
"9 	c #061614",
"0 	c #081311",
"a 	c #1F1D1A",
"b 	c #444444",
"c 	c #3D3D3D",
"d 	c #1E1E1F",
"e 	c #0E0F0C",
"f 	c #040E0D",
"g 	c #021111",
"h 	c #031C1C",
"i 	c #062B2B",
"j 	c #083535",
"k 	c #083737",
"l 	c #083738",
"m 	c #083435",
"n 	c #3D3D3E",
"o 	c #181818",
"p 	c #0D0F0B",
"q 	c #04110F",
"r 	c #041E1F",
"s 	c #083838",
"t 	c #0B4A4A",
"u 	c #0D5959",
"v 	c #0E6161",
"w 	c #0E6363",
"x 	c #093939",
"y 	c #051F20",
"z 	c #031210",
"A 	c #0D100C",
"B 	c #3D3B3E",
"C 	c #3F3F3F",
"D 	c #414141",
"E 	c #404040",
"F 	c #1F1E1D",
"G 	c #0D100E",
"H 	c #041210",
"I 	c #051F1F",
"J 	c #073B3B",
"K 	c #0C5353",
"L 	c #0E5D5D",
"M 	c #0F6666",
"N 	c #106A6A",
"O 	c #106B6B",
"P 	c #0E5F5F",
"Q 	c #0D5555",
"R 	c #083A3B",
"S 	c #042020",
"T 	c #041311",
"U 	c #3F4040",
"V 	c #2E2B2A",
"W 	c #131310",
"X 	c #05100D",
"Y 	c #041E1E",
"Z 	c #0B4F4F",
"` 	c #0D5B5B",
" .	c #0F6868",
"..	c #0F6A6A",
"+.	c #0F6767",
"@.	c #05100E",
"#.	c #2D2A2A",
"$.	c #1D1913",
"%.	c #091110",
"&.	c #021616",
"*.	c #062E2D",
"=.	c #0A4444",
"-.	c #0C5454",
";.	c #0D5D5D",
">.	c #0E6060",
",.	c #0F6363",
"'.	c #0F6262",
").	c #0D5C5C",
"!.	c #062F2F",
"~.	c #021717",
"{.	c #0C1210",
"].	c #1F1A13",
"^.	c #393939",
"/.	c #3B3B3B",
"(.	c #38393A",
"_.	c #252729",
":.	c #14120C",
"<.	c #071512",
"[.	c #042121",
"}.	c #0B4747",
"|.	c #0C5252",
"1.	c #0C5858",
"2.	c #0E5E5E",
"3.	c #0C5757",
"4.	c #0C5050",
"5.	c #0B4848",
"6.	c #15120C",
"7.	c #252528",
"8.	c #3A3A3A",
"9.	c #353538",
"0.	c #1B1B1C",
"a.	c #100F0C",
"b.	c #071917",
"c.	c #052B2C",
"d.	c #093D3D",
"e.	c #0C4F4F",
"f.	c #0C5656",
"g.	c #0D5A5A",
"h.	c #0E5C5C",
"i.	c #0D5858",
"j.	c #0B4949",
"k.	c #052C2C",
"l.	c #071A18",
"m.	c #10110D",
"n.	c #1A1A1B",
"o.	c #343435",
"p.	c #353535",
"q.	c #363636",
"r.	c #313131",
"s.	c #161617",
"t.	c #080F0D",
"u.	c #071E1D",
"v.	c #073636",
"w.	c #094242",
"x.	c #0B4B4B",
"y.	c #071F1F",
"z.	c #08110F",
"A.	c #151616",
"B.	c #302F30",
"C.	c #333333",
"D.	c #312F2F",
"E.	c #141515",
"F.	c #04100F",
"G.	c #062222",
"H.	c #093C3C",
"I.	c #0A4646",
"J.	c #0B4D4D",
"K.	c #0B5151",
"L.	c #0C5555",
"M.	c #0B4C4C",
"N.	c #0A4747",
"O.	c #041110",
"P.	c #131514",
"Q.	c #2F2D2D",
"R.	c #121414",
"S.	c #041211",
"T.	c #062727",
"U.	c #094040",
"V.	c #0D5353",
"W.	c #0E5858",
"X.	c #0E6262",
"Y.	c #0D5757",
"Z.	c #0D5252",
"`.	c #062525",
" +	c #101212",
".+	c #2D2B2C",
"++	c #2D2D2D",
"@+	c #303030",
"#+	c #2B2A2B",
"$+	c #091312",
"%+	c #072626",
"&+	c #094141",
"*+	c #0E5959",
"=+	c #0F6565",
"-+	c #106767",
";+	c #0E6565",
">+	c #0E5B5B",
",+	c #0C5151",
"'+	c #072525",
")+	c #121313",
"!+	c #2A2828",
"~+	c #2C2C2C",
"{+	c #2F2F2F",
"]+	c #171716",
"^+	c #111511",
"/+	c #0A2422",
"(+	c #0E6464",
"_+	c #106868",
":+	c #106C6C",
"<+	c #0F6B6B",
"[+	c #106969",
"}+	c #0B2423",
"|+	c #111411",
"1+	c #151514",
"2+	c #28282A",
"3+	c #28282B",
"4+	c #1C1C1C",
"5+	c #141610",
"6+	c #0C1F1C",
"7+	c #106E6E",
"8+	c #106D6D",
"9+	c #0D201C",
"0+	c #151510",
"a+	c #1B1C1C",
"b+	c #272727",
"c+	c #2A2A2A",
"d+	c #242424",
"e+	c #181810",
"f+	c #0E1B16",
"g+	c #05292A",
"h+	c #106F6F",
"i+	c #107171",
"j+	c #117272",
"k+	c #117171",
"l+	c #107070",
"m+	c #0F6161",
"n+	c #0E1C17",
"o+	c #191910",
"p+	c #242324",
"q+	c #282828",
"r+	c #1B1B17",
"s+	c #111611",
"t+	c #081C19",
"u+	c #094343",
"v+	c #0F6969",
"w+	c #0D5A5B",
"x+	c #084242",
"y+	c #111711",
"z+	c #262626",
"A+	c #222323",
"B+	c #12120F",
"C+	c #0E1513",
"D+	c #0B2827",
"E+	c #0A4140",
"F+	c #0C5B5C",
"G+	c #117070",
"H+	c #0C5F5F",
"I+	c #0A4040",
"J+	c #092826",
"K+	c #13120F",
"L+	c #222223",
"M+	c #202020",
"N+	c #232323",
"O+	c #1B1B1B",
"P+	c #101010",
"Q+	c #10130F",
"R+	c #092A29",
"S+	c #0D5556",
"T+	c #094544",
"U+	c #092B2A",
"V+	c #0E130F",
"W+	c #222222",
"X+	c #1A181A",
"Y+	c #101110",
"Z+	c #0F1512",
"`+	c #0A1E1A",
" @	c #062F30",
".@	c #084141",
"+@	c #0B5555",
"@@	c #0D6060",
"#@	c #0D6262",
"$@	c #0B5454",
"%@	c #0B1F1B",
"&@	c #111612",
"*@	c #1F1F1F",
"=@	c #181718",
"-@	c #111110",
";@	c #111613",
">@	c #111D17",
",@	c #10221E",
"'@	c #14342C",
")@	c #133F3D",
"!@	c #0D4241",
"~@	c #0D403F",
"{@	c #123E3B",
"]@	c #14332B",
"^@	c #121110",
"/@	c #1A1A1A",
"(@	c #1B191C",
"_@	c #171514",
":@	c #16130F",
"<@	c #14130F",
"[@	c #171D16",
"}@	c #15201D",
"|@	c #0D1F1E",
"1@	c #0D1F1D",
"2@	c #151F1B",
"3@	c #171D15",
"4@	c #171413",
"5@	c #19191C",
"6@	c #141414",
"7@	c #0E0E0E",
"8@	c #0E0D0D",
"9@	c #171717",
"0@	c #181717",
"a@	c #131313",
"b@	c #161616",
"c@	c #0C0C0C",
". . . . . . . . . . . . . . . . . . . . . . . . . . . . . . . . . . . . . . . . . . . . ",
"+ @ @ @ @ @ @ @ @ @ @ @ @ @ @ @ @ @ @ @ @ @ @ @ @ @ @ @ @ @ @ @ @ @ @ @ @ @ @ @ @ @ @ + ",
"# $ $ $ $ $ $ $ $ $ $ $ $ $ $ $ $ $ $ $ $ $ $ $ $ $ $ $ $ $ $ $ $ $ $ $ $ $ $ $ $ $ $ # ",
"% & & & & & & & & & & & & & & & & & & & & & & & & & & & & & & & & & & & & & & & & & & % ",
"+ @ @ @ @ @ @ @ @ @ @ @ @ @ @ @ @ @ @ @ @ @ @ @ @ @ @ @ @ @ @ @ @ @ @ @ @ @ @ @ @ @ @ + ",
"+ + + + + + + + + + + + + + + + + + + + + + + + + + + + + + + + + + + + + + + + + + + + ",
"* = = = = = = = = = = = = = = = = = = = = = = = = = = = = = = = = = = = = = = = = = = * ",
"- * * * * * * * * * * * * * * * * ; > , ' ) ) ' , > ; * * * * * * * * * * * * * * * * - ",
"- - - - - - - - - - - - - - - ! ~ { ] ^ / ( _ : ^ ] < [ ! - - - - - - - - - - - - - - - ",
"} ! ! ! ! ! ! ! ! ! ! ! ! ; | 1 2 3 4 5 6 7 8 9 0 4 3 a 1 | ; ! ! ! ! ! ! ! ! ! ! ! ! } ",
"b } } } } } } } } } } } } c d e f g h i j k l m i h g f e d c } } } } } } } } } } } } b ",
"b b b b b b b b b b b b n o p q r s t u v w w v u t x y z A o B b b b b b b b b b b b b ",
"C D D D D D D D D D D E F G H I J K L M N O O N M P Q R S T G F U D D D D D D D D D D C ",
"| E E E E E E E E E E V W X Y s Z ` v M  ...N N +.v ` Z s Y @.W #.E E E E E E E E E E | ",
"| | | | | | | | | | , $.%.&.*.=.-.;.v >.>.v ,.,.'.v ).-.=.!.~.{.]., | | | | | | | | | | ",
"^././././././././.(._.:.<.[.j }.|.1.).L L L P P 2.).3.4.5.s [.<.6.7.(././././././././.^.",
"^.^.^.^.^.^.^.^.8.9.0.a.b.c.d.5.e.f.g.` ` h.L ;.` i.-.4.j.d.k.l.m.n.o.^.^.^.^.^.^.^.^.^.",
"p.q.q.q.q.q.q.q.q.r.s.t.u.v.w.t e.-.i.` ` h.L ;.` i.-.4.x.w.v.y.z.A.B.q.q.q.q.q.q.q.q.p.",
"C.p.p.p.p.p.p.p.p.D.E.F.G.H.I.J.K.-.i.` ;.L L ;.` u L.K.M.N.d.G.O.P.Q.p.p.p.p.p.p.p.p.C.",
"C.C.C.C.C.C.C.C.C.1 R.S.T.U.t V.W.h.P >.X.'.v v >.P ` Y.Z.J.w.`.S. +.+C.C.C.C.C.C.C.C.C.",
"++@+@+@+@+@+@+@+@+#+E.$+%+&+4.*+P v =+M +.-+;+=+M ,.v 2.>+,+w.'+$+)+!+@+@+@+@+@+@+@+@+++",
"~+{+{+{+{+{+{+{+{+#+]+^+/+U.|.h.v (+_+:+:+O <+N [+-+;+X.2.|.U.}+|+1+2+{+{+{+{+{+{+{+{+~+",
"~+~+~+~+~+~+~+~+~+3+4+5+6+k ,+L '.M N 7+7+7+7+8+O N  .=+P ,+k 9+0+a+3+~+~+~+~+~+~+~+~+~+",
"b+c+c+c+c+c+c+c+c+c+d+e+f+g+J.P +...:+h+i+j+k+l+h+8+:+[+m+J.g+n+o+p+c+c+c+c+c+c+c+c+c+b+",
"b+b+b+b+b+b+b+b+b+b+q+r+s+t+u+u =+v+:+h+i+j+k+i+h+:+O +.w+x+t+y+r+b+b+b+b+b+b+b+b+b+b+b+",
"z+z+z+z+z+z+z+z+z+z+z+A+B+C+D+E+F+=+N 7+i+G+k+i+7+[++.H+I+J+C+K+L+z+z+z+z+z+z+z+z+z+z+z+",
"M+N+N+N+N+N+N+N+N+N+N+N+O+P+Q+R+u+S+2._+:+7+8+:+_+2.Q T+U+V+P+O+N+N+N+N+N+N+N+N+N+N+N+M+",
"M+M+M+M+M+M+M+M+M+M+M+M+W+X+Y+Z+`+ @.@+@@@X.#@H+$@.@ @%@&@Y+X+W+M+M+M+M+M+M+M+M+M+M+M+M+",
"*@*@*@*@*@*@*@*@*@*@*@*@*@*@=@-@;@>@,@'@)@!@~@{@]@,@>@;@^@=@*@*@*@*@*@*@*@*@*@*@*@*@*@*@",
"/@4+4+4+4+4+4+4+4+4+4+4+4+4+4+(@_@:@<@[@}@|@1@2@3@<@:@4@5@4+4+4+4+4+4+4+4+4+4+4+4+4+4+/@",
"/@/@/@/@/@/@/@/@/@/@/@/@/@/@/@/@/@o 6@P+7@8@8@7@P+6@o /@/@/@/@/@/@/@/@/@/@/@/@/@/@/@/@/@",
"6@o o o o o o o o o o o o o o o o o o 9@9@0@0@9@9@o o o o o o o o o o o o o o o o o o 6@",
"a@b@b@b@b@b@b@b@b@b@b@b@b@b@b@b@b@b@b@b@b@b@b@b@b@b@b@b@b@b@b@b@b@b@b@b@b@b@b@b@b@b@b@a@",
"P+a@a@a@a@a@a@a@a@a@a@a@a@a@a@a@a@a@a@a@a@a@a@a@a@a@a@a@a@a@a@a@a@a@a@a@a@a@a@a@a@a@a@P+",
"P+a@a@a@a@a@a@a@a@a@a@a@a@a@a@a@a@a@a@a@a@a@a@a@a@a@a@a@a@a@a@a@a@a@a@a@a@a@a@a@a@a@a@P+",
"W+N+N+N+N+N+N+N+N+N+N+N+N+N+N+N+N+N+N+N+N+N+N+N+N+N+N+N+N+N+N+N+N+N+N+N+N+N+N+N+N+N+N+W+",
"*@W+W+W+W+W+W+W+W+W+W+W+W+W+W+W+W+W+W+W+W+W+W+W+W+W+W+W+W+W+W+W+W+W+W+W+W+W+W+W+W+W+W+*@",
"c@c@c@c@c@c@c@c@c@c@c@c@c@c@c@c@c@c@c@c@c@c@c@c@c@c@c@c@c@c@c@c@c@c@c@c@c@c@c@c@c@c@c@c@"};
