/* XPM */
static char * stick_prelight_xpm[] = {
"44 38 400 2",
"  	c None",
". 	c #000000",
"+ 	c #505050",
"@ 	c #525252",
"# 	c #696969",
"$ 	c #6C6C6C",
"% 	c #515151",
"& 	c #565656",
"* 	c #4C4C4C",
"= 	c #4E4E4E",
"- 	c #4A4A4A",
"; 	c #484849",
"> 	c #414143",
", 	c #383839",
"' 	c #333031",
") 	c #2C2B2B",
"! 	c #484848",
"~ 	c #3D3B39",
"{ 	c #2E2D2A",
"] 	c #1F2321",
"^ 	c #182120",
"/ 	c #131F21",
"( 	c #101F1F",
"_ 	c #101F1E",
": 	c #131F1F",
"< 	c #464646",
"[ 	c #3E3E3F",
"} 	c #2F302F",
"| 	c #20201E",
"1 	c #141C18",
"2 	c #0C1E1C",
"3 	c #0D2A28",
"4 	c #0A3333",
"5 	c #073535",
"6 	c #073434",
"7 	c #0A3231",
"8 	c #141C17",
"9 	c #444444",
"0 	c #3E3D3E",
"a 	c #1E1F1F",
"b 	c #101714",
"c 	c #071B1B",
"d 	c #052C2E",
"e 	c #094343",
"f 	c #0D6868",
"g 	c #117B7B",
"h 	c #148080",
"i 	c #147F7F",
"j 	c #117A7A",
"k 	c #0D6666",
"l 	c #094445",
"m 	c #052B2D",
"n 	c #3D3D3D",
"o 	c #181C1D",
"p 	c #0F1916",
"q 	c #082423",
"r 	c #0B4B4B",
"s 	c #138787",
"t 	c #1AB0B0",
"u 	c #1ED2D2",
"v 	c #2ADADA",
"w 	c #30DCDC",
"x 	c #29DADA",
"y 	c #19B0B0",
"z 	c #138989",
"A 	c #0B4D4D",
"B 	c #082525",
"C 	c #0F1A17",
"D 	c #3D3B3D",
"E 	c #3F3F3F",
"F 	c #414141",
"G 	c #403F40",
"H 	c #1F1F1E",
"I 	c #0E1818",
"J 	c #092927",
"K 	c #0B4E4D",
"L 	c #148B8B",
"M 	c #1DC5C5",
"N 	c #21DADA",
"O 	c #2FE0E0",
"P 	c #3BE3E3",
"Q 	c #3EE3E3",
"R 	c #3FE3E3",
"S 	c #3DE3E3",
"T 	c #31E0E0",
"U 	c #23DADA",
"V 	c #1DC6C6",
"W 	c #148C8C",
"X 	c #0B4E4E",
"Y 	c #092928",
"Z 	c #1E1F1E",
"` 	c #3E3E3E",
" .	c #404040",
"..	c #2D2B29",
"+.	c #131A17",
"@.	c #08201E",
"#.	c #0A4849",
"$.	c #148585",
"%.	c #1ABCBC",
"&.	c #20D5D5",
"*.	c #25DFDF",
"=.	c #30E1E1",
"-.	c #37E2E2",
";.	c #3AE2E2",
">.	c #3CE2E2",
",.	c #3BE2E2",
"'.	c #33E1E1",
").	c #27DFDF",
"!.	c #0A4748",
"~.	c #09211F",
"{.	c #141A18",
"].	c #2D2B2A",
"^.	c #1D1B18",
"/.	c #063636",
"(.	c #116C6C",
"_.	c #179F9F",
":.	c #1CC7C7",
"<.	c #21D8D8",
"[.	c #26DFDF",
"}.	c #26DEDE",
"|.	c #25DEDE",
"1.	c #2BE0E0",
"2.	c #29E0E0",
"3.	c #21D7D7",
"4.	c #106F6F",
"5.	c #073838",
"6.	c #0E201D",
"7.	c #1E1D19",
"8.	c #393939",
"9.	c #3B3B3B",
"0.	c #38393A",
"a.	c #252729",
"b.	c #151916",
"c.	c #0C2B2A",
"d.	c #0A4E4E",
"e.	c #137E7E",
"f.	c #19A6A6",
"g.	c #1CBFBF",
"h.	c #1ECFCF",
"i.	c #20DADA",
"j.	c #20DBDB",
"k.	c #20DDDD",
"l.	c #23DFDF",
"m.	c #21DEDE",
"n.	c #20D7D7",
"o.	c #1DCDCD",
"p.	c #1CBDBD",
"q.	c #19A7A7",
"r.	c #138383",
"s.	c #0A4F4F",
"t.	c #0C2C2A",
"u.	c #272729",
"v.	c #38383A",
"w.	c #3A3A3A",
"x.	c #343435",
"y.	c #1B1D1E",
"z.	c #101B18",
"A.	c #0D3939",
"B.	c #0E6565",
"C.	c #158F8F",
"D.	c #19ABAB",
"E.	c #1CBBBB",
"F.	c #1EC7C7",
"G.	c #1FD1D1",
"H.	c #20D6D6",
"I.	c #20D8D8",
"J.	c #20DCDC",
"K.	c #1ECECE",
"L.	c #1DC7C7",
"M.	c #1CBCBC",
"N.	c #159191",
"O.	c #0F6767",
"P.	c #0D3B3A",
"Q.	c #101A18",
"R.	c #1B1C1D",
"S.	c #343334",
"T.	c #353535",
"U.	c #363636",
"V.	c #312F30",
"W.	c #161819",
"X.	c #0A1D1B",
"Y.	c #0D4748",
"Z.	c #137F7F",
"`.	c #179B9B",
" +	c #19AFAF",
".+	c #1CBABA",
"++	c #1EC6C6",
"@+	c #20D9D9",
"#+	c #179D9D",
"$+	c #138181",
"%+	c #0D4C4B",
"&+	c #0A1E1E",
"*+	c #151718",
"=+	c #2F2D2D",
"-+	c #333333",
";+	c #302F2F",
">+	c #141717",
",+	c #071F1F",
"'+	c #0C5454",
")+	c #158D8D",
"!+	c #18A5A5",
"~+	c #1AB6B6",
"{+	c #1DC8C8",
"]+	c #1ED0D0",
"^+	c #1FD3D3",
"/+	c #1ECBCB",
"(+	c #1CC2C2",
"_+	c #1AB5B5",
":+	c #18A7A7",
"<+	c #159090",
"[+	c #0C5555",
"}+	c #072020",
"|+	c #131616",
"1+	c #2F2C2C",
"2+	c #2D2C2C",
"3+	c #121616",
"4+	c #082222",
"5+	c #0E5D5D",
"6+	c #169696",
"7+	c #1AAFAF",
"8+	c #1DC4C4",
"9+	c #28DFDF",
"0+	c #29DFDF",
"a+	c #2AE0E0",
"b+	c #28E0E0",
"c+	c #28DEDE",
"d+	c #23DEDE",
"e+	c #1BB4B4",
"f+	c #0E5A5A",
"g+	c #082121",
"h+	c #101414",
"i+	c #2D2B2B",
"j+	c #2D2D2D",
"k+	c #303030",
"l+	c #2B2A2A",
"m+	c #0D2221",
"n+	c #105A5A",
"o+	c #169898",
"p+	c #1CBEBE",
"q+	c #1ED4D4",
"r+	c #21DBDB",
"s+	c #2FE1E1",
"t+	c #35E1E1",
"u+	c #31E1E1",
"v+	c #2BE1E1",
"w+	c #21DDDD",
"x+	c #1ED6D6",
"y+	c #1CC0C0",
"z+	c #179A9A",
"A+	c #105959",
"B+	c #0C2221",
"C+	c #121515",
"D+	c #282828",
"E+	c #2C2C2C",
"F+	c #2F2F2F",
"G+	c #2A2A2A",
"H+	c #171817",
"I+	c #12201E",
"J+	c #115351",
"K+	c #159595",
"L+	c #39E1E1",
"M+	c #40E3E3",
"N+	c #3CE3E3",
"O+	c #39E3E3",
"P+	c #36E1E1",
"Q+	c #30E0E0",
"R+	c #1DC1C1",
"S+	c #159494",
"T+	c #125453",
"U+	c #12201F",
"V+	c #151616",
"W+	c #28282B",
"X+	c #1C1C1E",
"Y+	c #151B19",
"Z+	c #114240",
"`+	c #108080",
" @	c #22DDDD",
".@	c #3EE2E2",
"+@	c #44E4E4",
"@@	c #47E4E4",
"#@	c #48E4E4",
"$@	c #45E4E4",
"%@	c #41E3E3",
"&@	c #3DE2E2",
"*@	c #25DCDC",
"=@	c #1DBEBE",
"-@	c #118080",
";@	c #124241",
">@	c #161B19",
",@	c #1C1C1D",
"'@	c #272727",
")@	c #252424",
"!@	c #181915",
"~@	c #11302E",
"{@	c #0C6363",
"]@	c #1AB3B3",
"^@	c #4CE5E5",
"/@	c #4DE5E5",
"(@	c #4BE5E5",
"_@	c #48E3E3",
":@	c #42E3E3",
"<@	c #28DCDC",
"[@	c #1BB2B2",
"}@	c #11312F",
"|@	c #191A15",
"1@	c #242324",
"2@	c #1B1B19",
"3@	c #111E1B",
"4@	c #0F3D3B",
"5@	c #159696",
"6@	c #1FCCCC",
"7@	c #2EDEDE",
"8@	c #39E2E2",
"9@	c #32DFDF",
"0@	c #20CCCC",
"a@	c #149494",
"b@	c #103D3A",
"c@	c #121D1C",
"d@	c #1B1A19",
"e@	c #262626",
"f@	c #232323",
"g@	c #121413",
"h@	c #102121",
"i@	c #125352",
"j@	c #159393",
"k@	c #1DCFCF",
"l@	c #2EDFDF",
"m@	c #48E5E5",
"n@	c #49E5E5",
"o@	c #4AE5E5",
"p@	c #38E2E2",
"q@	c #20D2D2",
"r@	c #159796",
"s@	c #115150",
"t@	c #112120",
"u@	c #131313",
"v@	c #232223",
"w@	c #202020",
"x@	c #1B1B1B",
"y@	c #101011",
"z@	c #111C1A",
"A@	c #125756",
"B@	c #139292",
"C@	c #1AC1C1",
"D@	c #32E0E0",
"E@	c #1AC5C5",
"F@	c #149999",
"G@	c #125A59",
"H@	c #101C19",
"I@	c #222222",
"J@	c #1B1A1A",
"K@	c #101111",
"L@	c #121C1A",
"M@	c #0F3938",
"N@	c #0C6565",
"O@	c #138D8D",
"P@	c #21D6D6",
"Q@	c #23DDDD",
"R@	c #23DCDC",
"S@	c #21D4D4",
"T@	c #1CB9B9",
"U@	c #138C8D",
"V@	c #0C6868",
"W@	c #103C3A",
"X@	c #131E1A",
"Y@	c #1F1F1F",
"Z@	c #191717",
"`@	c #131213",
" #	c #131A1A",
".#	c #142A26",
"+#	c #153A38",
"@#	c #1C6763",
"##	c #1C8E8D",
"$#	c #169695",
"%#	c #169494",
"&#	c #1C8A88",
"*#	c #1C6461",
"=#	c #153B38",
"-#	c #142B27",
";#	c #131B1A",
">#	c #1A1A1A",
",#	c #1C1C1C",
"'#	c #191919",
")#	c #171313",
"!#	c #151311",
"~#	c #141715",
"{#	c #182824",
"]#	c #163635",
"^#	c #113939",
"/#	c #113837",
"(#	c #163533",
"_#	c #182724",
":#	c #181818",
"<#	c #141414",
"[#	c #100E0E",
"}#	c #0E0B0B",
"|#	c #0E0909",
"1#	c #161616",
"2#	c #101010",
"3#	c #0C0C0C",
". . . . . . . . . . . . . . . . . . . . . . . . . . . . . . . . . . . . . . . . . . . . ",
"+ @ @ @ @ @ @ @ @ @ @ @ @ @ @ @ @ @ @ @ @ @ @ @ @ @ @ @ @ @ @ @ @ @ @ @ @ @ @ @ @ @ @ + ",
"# $ $ $ $ $ $ $ $ $ $ $ $ $ $ $ $ $ $ $ $ $ $ $ $ $ $ $ $ $ $ $ $ $ $ $ $ $ $ $ $ $ $ # ",
"% & & & & & & & & & & & & & & & & & & & & & & & & & & & & & & & & & & & & & & & & & & % ",
"+ @ @ @ @ @ @ @ @ @ @ @ @ @ @ @ @ @ @ @ @ @ @ @ @ @ @ @ @ @ @ @ @ @ @ @ @ @ @ @ @ @ @ + ",
"+ + + + + + + + + + + + + + + + + + + + + + + + + + + + + + + + + + + + + + + + + + + + ",
"* = = = = = = = = = = = = = = = = = = = = = = = = = = = = = = = = = = = = = = = = = = * ",
"- * * * * * * * * * * * * * * * * ; > , ' ) ) ' , > ; * * * * * * * * * * * * * * * * - ",
"- - - - - - - - - - - - - - - ! ~ { ] ^ / ( _ : ^ ] { ~ ! - - - - - - - - - - - - - - - ",
"< ! ! ! ! ! ! ! ! ! ! ! ! ! [ } | 1 2 3 4 5 6 7 3 2 8 | } [ ! ! ! ! ! ! ! ! ! ! ! ! ! < ",
"9 < < < < < < < < < < < < 0 a b c d e f g h i j k l m c b a 0 < < < < < < < < < < < < 9 ",
"9 9 9 9 9 9 9 9 9 9 9 9 n o p q r s t u v w w x u y z A B C o D 9 9 9 9 9 9 9 9 9 9 9 9 ",
"E F F F F F F F F F F G H I J K L M N O P Q R S T U V W X Y I Z E F F F F F F F F F F E ",
"`  . . . . . . . . . ...+.@.#.$.%.&.*.=.-.;.>.,.'.).&.%.$.!.~.{.]. . . . . . . . . . .` ",
"` ` ` ` ` ` ` ` ` ` , ^.2 /.(._.:.<.[.}.|.).1.1.2.).3.:._.4.5.6.7., ` ` ` ` ` ` ` ` ` ` ",
"8.9.9.9.9.9.9.9.9.0.a.b.c.d.e.f.g.h.<.i.j.k.l.l.m.n.o.p.q.r.s.t.b.u.v.9.9.9.9.9.9.9.9.8.",
"8.8.8.8.8.8.8.8.w.x.y.z.A.B.C.D.E.F.G.H.I.i.J.j.I.K.L.M.D.N.O.P.Q.R.S.8.8.8.8.8.8.8.8.8.",
"T.U.U.U.U.U.U.U.U.V.W.X.Y.Z.`. +.+++h.H.I.@+i.@+H.K.V p. +#+$+%+&+*+=+U.U.U.U.U.U.U.U.T.",
"-+T.T.T.T.T.T.T.T.;+>+,+'+)+!+~+g.{+]+n.j.J.J.i.I.^+/+(+_+:+<+[+}+|+1+T.T.T.T.T.T.T.T.-+",
"-+-+-+-+-+-+-+-+-+2+3+4+5+6+7+8+^+i.|.9+0+a+b+c+}.d+@+G.8+e+`.f+g+h+i+-+-+-+-+-+-+-+-+-+",
"j+k+k+k+k+k+k+k+k+l+>+m+n+o+p+q+r+[.s+'.t+t+'.u+s+v+[.w+x+y+z+A+B+C+D+k+k+k+k+k+k+k+k+j+",
"E+F+F+F+F+F+F+F+F+G+H+I+J+K+y+j.*.O L+Q M+M+R N+O+P+Q+).j.R+S+T+U+V+D+F+F+F+F+F+F+F+F+E+",
"E+E+E+E+E+E+E+E+E+W+X+Y+Z+`+g. @a+P+.@+@@@#@@@$@%@&@L+T *@=@-@;@>@,@W+E+E+E+E+E+E+E+E+E+",
"'@G+G+G+G+G+G+G+G+G+)@!@~@{@]@}.'.>.%@#@^@/@^@(@_@:@Q -.<@[@{@}@|@1@G+G+G+G+G+G+G+G+G+'@",
"'@'@'@'@'@'@'@'@'@'@D+2@3@4@5@6@7@8@M+#@(@^@^@(@#@%@N+9@0@a@b@c@d@'@'@'@'@'@'@'@'@'@'@'@",
"e@e@e@e@e@e@e@e@e@e@e@f@g@h@i@j@k@l@-.+@m@n@o@m@+@p@T q@r@s@t@u@v@e@e@e@e@e@e@e@e@e@e@e@",
"w@f@f@f@f@f@f@f@f@f@f@f@x@y@z@A@B@C@<.D@R %@%@S Q+<.E@F@G@H@y@x@f@f@f@f@f@f@f@f@f@f@f@w@",
"w@w@w@w@w@w@w@w@w@w@w@w@I@J@K@L@M@N@O@E.P@Q@R@S@T@U@V@W@X@K@J@I@w@w@w@w@w@w@w@w@w@w@w@w@",
"Y@Y@Y@Y@Y@Y@Y@Y@Y@Y@Y@Y@Y@Y@Z@`@ #.#+#@###$#%#&#*#=#-#;#u@Z@Y@Y@Y@Y@Y@Y@Y@Y@Y@Y@Y@Y@Y@Y@",
">#,#,#,#,#,#,#,#,#,#,#,#,#,#,#'#)#!#~#{#]#^#/#(#_#~#!#)#'#,#,#,#,#,#,#,#,#,#,#,#,#,#,#>#",
">#>#>#>#>#>#>#>#>#>#>#>#>#>#>#>#>#:#<#[#}#|#|#}#[#<#:#>#>#>#>#>#>#>#>#>#>#>#>#>#>#>#>#>#",
"<#:#:#:#:#:#:#:#:#:#:#:#:#:#:#:#:#:#:#:#:#:#:#:#:#:#:#:#:#:#:#:#:#:#:#:#:#:#:#:#:#:#:#<#",
"u@1#1#1#1#1#1#1#1#1#1#1#1#1#1#1#1#1#1#1#1#1#1#1#1#1#1#1#1#1#1#1#1#1#1#1#1#1#1#1#1#1#1#u@",
"2#u@u@u@u@u@u@u@u@u@u@u@u@u@u@u@u@u@u@u@u@u@u@u@u@u@u@u@u@u@u@u@u@u@u@u@u@u@u@u@u@u@u@2#",
"2#u@u@u@u@u@u@u@u@u@u@u@u@u@u@u@u@u@u@u@u@u@u@u@u@u@u@u@u@u@u@u@u@u@u@u@u@u@u@u@u@u@u@2#",
"I@f@f@f@f@f@f@f@f@f@f@f@f@f@f@f@f@f@f@f@f@f@f@f@f@f@f@f@f@f@f@f@f@f@f@f@f@f@f@f@f@f@f@I@",
"Y@I@I@I@I@I@I@I@I@I@I@I@I@I@I@I@I@I@I@I@I@I@I@I@I@I@I@I@I@I@I@I@I@I@I@I@I@I@I@I@I@I@I@Y@",
"3#3#3#3#3#3#3#3#3#3#3#3#3#3#3#3#3#3#3#3#3#3#3#3#3#3#3#3#3#3#3#3#3#3#3#3#3#3#3#3#3#3#3#3#"};
