/* XPM */
static char * stick_toggled_prelight_xpm[] = {
"44 38 370 2",
"  	c None",
". 	c #000000",
"+ 	c #505050",
"@ 	c #525252",
"# 	c #696969",
"$ 	c #6C6C6C",
"% 	c #515151",
"& 	c #565656",
"* 	c #4C4C4C",
"= 	c #4E4E4E",
"- 	c #4B4B4C",
"; 	c #4B4B4B",
"> 	c #4A4A4A",
", 	c #434345",
"' 	c #363637",
") 	c #292A2C",
"! 	c #222223",
"~ 	c #1C1B1C",
"{ 	c #434343",
"] 	c #2F2D2B",
"^ 	c #201D1C",
"/ 	c #181A18",
"( 	c #181B1A",
"_ 	c #161C1C",
": 	c #161D1D",
"< 	c #151D1D",
"[ 	c #201D1B",
"} 	c #464646",
"| 	c #484848",
"1 	c #343435",
"2 	c #20211F",
"3 	c #1C1B19",
"4 	c #181B17",
"5 	c #171D1B",
"6 	c #1C2927",
"7 	c #203231",
"8 	c #203534",
"9 	c #1F3434",
"0 	c #1F3131",
"a 	c #1C2827",
"b 	c #171A16",
"c 	c #444444",
"d 	c #313232",
"e 	c #171819",
"f 	c #131613",
"g 	c #141C1B",
"h 	c #192E2F",
"i 	c #284849",
"j 	c #416363",
"k 	c #507575",
"l 	c #547A7A",
"m 	c #537A7A",
"n 	c #4F7575",
"o 	c #3F6262",
"p 	c #274949",
"q 	c #182F30",
"r 	c #141613",
"s 	c #343434",
"t 	c #141616",
"u 	c #131714",
"v 	c #172322",
"w 	c #2C4747",
"x 	c #4E8181",
"y 	c #68A0A0",
"z 	c #84B2B2",
"A 	c #94BBBB",
"B 	c #98BFBF",
"C 	c #83B2B2",
"D 	c #4F8282",
"E 	c #2D4848",
"F 	c #182423",
"G 	c #131715",
"H 	c #323234",
"I 	c #3F3F3F",
"J 	c #414141",
"K 	c #3B3B3B",
"L 	c #191818",
"M 	c #131716",
"N 	c #192625",
"O 	c #2D4949",
"P 	c #74AAAA",
"Q 	c #89B5B5",
"R 	c #9AC1C1",
"S 	c #A4C6C6",
"T 	c #A7C8C8",
"U 	c #A5C7C7",
"V 	c #9DC2C2",
"W 	c #8BB6B6",
"X 	c #76AAAA",
"Y 	c #4F8181",
"Z 	c #2D4A4A",
"` 	c #192726",
" .	c #141816",
"..	c #181817",
"+.	c #3A3B3B",
"@.	c #3E3E3E",
"#.	c #404040",
"$.	c #272421",
"%.	c #171916",
"&.	c #294242",
"*.	c #4B7C7C",
"=.	c #6CA2A2",
"-.	c #8FB9B9",
";.	c #9FC4C4",
">.	c #A2C5C5",
",.	c #A3C6C6",
"'.	c #90BABA",
").	c #161F1D",
"!.	c #161916",
"~.	c #262422",
"{.	c #1B1814",
"].	c #161C19",
"^.	c #1D3132",
"/.	c #3D6262",
"(.	c #579191",
"_.	c #73A9A9",
":.	c #86B4B4",
"<.	c #8FBABA",
"[.	c #8EB9B9",
"}.	c #93BDBD",
"|.	c #94BDBD",
"1.	c #85B3B3",
"2.	c #589292",
"3.	c #3E6565",
"4.	c #1E3334",
"5.	c #171E1B",
"6.	c #1C1915",
"7.	c #393939",
"8.	c #38393A",
"9.	c #232325",
"0.	c #171814",
"a.	c #1C2726",
"b.	c #2B4747",
"c.	c #467272",
"d.	c #5B9595",
"e.	c #6FA6A6",
"f.	c #7DAFAF",
"g.	c #88B5B5",
"h.	c #8AB6B6",
"i.	c #8DB8B8",
"j.	c #8BB7B7",
"k.	c #84B3B3",
"l.	c #7AADAD",
"m.	c #6CA5A5",
"n.	c #5C9898",
"o.	c #497777",
"p.	c #2C4848",
"q.	c #222325",
"r.	c #3A3A3A",
"s.	c #343436",
"t.	c #191A1A",
"u.	c #223333",
"v.	c #395C5C",
"w.	c #5E9999",
"x.	c #6BA4A4",
"y.	c #77ABAB",
"z.	c #7FB0B0",
"A.	c #76A9A9",
"B.	c #6CA4A4",
"C.	c #5F9B9B",
"D.	c #508282",
"E.	c #395D5D",
"F.	c #223534",
"G.	c #19191A",
"H.	c #333335",
"I.	c #353535",
"J.	c #363636",
"K.	c #302F30",
"L.	c #161717",
"M.	c #151B1A",
"N.	c #284040",
"O.	c #568B8B",
"P.	c #619D9D",
"Q.	c #75AAAA",
"R.	c #87B5B5",
"S.	c #83B3B3",
"T.	c #7CAEAE",
"U.	c #75A9A9",
"V.	c #6EA4A4",
"W.	c #629E9E",
"X.	c #568C8C",
"Y.	c #477474",
"Z.	c #2A4443",
"`.	c #151B1B",
" +	c #161617",
".+	c #2D2D2D",
"++	c #333333",
"@+	c #2F2F2F",
"#+	c #151616",
"$+	c #151D1C",
"%+	c #2D4B4B",
"&+	c #4E8080",
"*+	c #5C9494",
"=+	c #66A0A0",
"-+	c #70A6A6",
";+	c #7EB0B0",
">+	c #88B6B6",
",+	c #80B0B0",
"'+	c #79ABAB",
")+	c #70A7A7",
"!+	c #67A1A1",
"~+	c #5D9696",
"{+	c #2E4C4C",
"]+	c #141515",
"^+	c #2C2C2C",
"/+	c #161616",
"(+	c #161F1E",
"_+	c #325353",
":+	c #538888",
"<+	c #619C9C",
"[+	c #73A7A7",
"}+	c #7FB1B1",
"|+	c #87B6B6",
"1+	c #90BBBB",
"2+	c #92BCBC",
"3+	c #93BCBC",
"4+	c #91BBBB",
"5+	c #8CB8B8",
"6+	c #86B5B5",
"7+	c #548C8C",
"8+	c #315151",
"9+	c #151E1E",
"0+	c #141414",
"a+	c #2B2B2B",
"b+	c #303030",
"c+	c #2A2A2A",
"d+	c #171717",
"e+	c #181F1E",
"f+	c #325151",
"g+	c #538989",
"h+	c #6DA5A5",
"i+	c #81B1B1",
"j+	c #92BBBB",
"k+	c #9BC1C1",
"l+	c #9DC3C3",
"m+	c #9EC3C3",
"n+	c #9AC0C0",
"o+	c #99C0C0",
"p+	c #96BEBE",
"q+	c #89B6B6",
"r+	c #82B2B2",
"s+	c #548B8B",
"t+	c #31504F",
"u+	c #171F1E",
"v+	c #151515",
"w+	c #282828",
"x+	c #1A1A1A",
"y+	c #181E1D",
"z+	c #304A49",
"A+	c #518787",
"B+	c #87B4B4",
"C+	c #A1C5C5",
"D+	c #A6C7C7",
"E+	c #A7C9C9",
"F+	c #A6C9C9",
"G+	c #A1C4C4",
"H+	c #71A7A7",
"I+	c #518686",
"J+	c #304B4A",
"K+	c #181E1C",
"L+	c #28282B",
"M+	c #1F1F20",
"N+	c #283B39",
"O+	c #437575",
"P+	c #6EA6A6",
"Q+	c #ABCBCB",
"R+	c #ADCDCD",
"S+	c #ACCCCC",
"T+	c #A8C9C9",
"U+	c #A4C7C7",
"V+	c #A0C5C5",
"W+	c #6DA6A6",
"X+	c #457576",
"Y+	c #293C3B",
"Z+	c #272727",
"`+	c #1C1C17",
" @	c #202B29",
".@	c #355F60",
"+@	c #659F9F",
"@@	c #AECDCD",
"#@	c #B2CFCF",
"$@	c #B3D0D0",
"%@	c #B1CECE",
"&@	c #A9C9C9",
"*@	c #A6C8C8",
"=@	c #A0C4C4",
"-@	c #8EBABA",
";@	c #649F9F",
">@	c #365F5F",
",@	c #212D29",
"'@	c #1D1C17",
")@	c #262627",
"!@	c #20201E",
"~@	c #191C1A",
"{@	c #243937",
"]@	c #54898A",
"^@	c #97BFBF",
"/@	c #B1CFCF",
"(@	c #B2D0D0",
"_@	c #7EAFAF",
":@	c #1A1D1B",
"<@	c #201F1D",
"[@	c #262626",
"}@	c #181818",
"|@	c #18201E",
"1@	c #324F4E",
"2@	c #538787",
"3@	c #7FB3B3",
"4@	c #99C1C1",
"5@	c #ACCBCB",
"6@	c #AFCDCD",
"7@	c #B0CECE",
"8@	c #AFCECE",
"9@	c #ABCCCC",
"0@	c #A2C6C6",
"a@	c #9BC2C2",
"b@	c #83B6B6",
"c@	c #548788",
"d@	c #314E4D",
"e@	c #19201E",
"f@	c #242426",
"g@	c #202020",
"h@	c #232323",
"i@	c #171C19",
"j@	c #345353",
"k@	c #53898A",
"l@	c #74A8A8",
"m@	c #AACACA",
"n@	c #ABCACA",
"o@	c #568D8D",
"p@	c #355656",
"q@	c #161C18",
"r@	c #222222",
"s@	c #1F1F1F",
"t@	c #243A39",
"u@	c #3A6161",
"v@	c #538383",
"w@	c #73A8A8",
"x@	c #8BB8B8",
"y@	c #72A8A8",
"z@	c #3B6363",
"A@	c #263D3B",
"B@	c #181F1B",
"C@	c #181919",
"D@	c #1D1F1E",
"E@	c #222B27",
"F@	c #3E6360",
"G@	c #4E7E7D",
"H@	c #548483",
"I@	c #518281",
"J@	c #4B7A79",
"K@	c #3E625F",
"L@	c #222C28",
"M@	c #1E201E",
"N@	c #191919",
"O@	c #1C1C1C",
"P@	c #1B1B1B",
"Q@	c #1A1817",
"R@	c #191C19",
"S@	c #232E28",
"T@	c #273937",
"U@	c #253A39",
"V@	c #243838",
"W@	c #263635",
"X@	c #232D28",
"Y@	c #141111",
"Z@	c #111010",
"`@	c #131313",
" #	c #101010",
".#	c #0C0C0C",
". . . . . . . . . . . . . . . . . . . . . . . . . . . . . . . . . . . . . . . . . . . . ",
"+ @ @ @ @ @ @ @ @ @ @ @ @ @ @ @ @ @ @ @ @ @ @ @ @ @ @ @ @ @ @ @ @ @ @ @ @ @ @ @ @ @ @ + ",
"# $ $ $ $ $ $ $ $ $ $ $ $ $ $ $ $ $ $ $ $ $ $ $ $ $ $ $ $ $ $ $ $ $ $ $ $ $ $ $ $ $ $ # ",
"% & & & & & & & & & & & & & & & & & & & & & & & & & & & & & & & & & & & & & & & & & & % ",
"+ @ @ @ @ @ @ @ @ @ @ @ @ @ @ @ @ @ @ @ @ @ @ @ @ @ @ @ @ @ @ @ @ @ @ @ @ @ @ @ @ @ @ + ",
"+ + + + + + + + + + + + + + + + + + + + + + + + + + + + + + + + + + + + + + + + + + + + ",
"* = = = = = = = = = = = = = = = = = = - ; > > ; - = = = = = = = = = = = = = = = = = = * ",
"> * * * * * * * * * * * * * * * * , ' ) ! ~ ~ ! ) ' , * * * * * * * * * * * * * * * * > ",
"> > > > > > > > > > > > > > > { ] ^ / ( _ : < _ ( / [ ] { > > > > > > > > > > > > > > > ",
"} | | | | | | | | | | | | | 1 2 3 4 5 6 7 8 9 0 a 5 b 3 2 1 | | | | | | | | | | | | | } ",
"c } } } } } } } } } } } } d e f g h i j k l m n o p q g r e d } } } } } } } } } } } } c ",
"c c c c c c c c c c c c s t u v w x y z A B B A C y D E F G t H c c c c c c c c c c c c ",
"I J J J J J J J J J J K L M N O x P Q R S T T U V W X Y Z `  ...+.J J J J J J J J J J I ",
"@.#.#.#.#.#.#.#.#.#.#.$.%.< &.*.=.z -.R ;.>.,.>.V '.C =.*.&.).!.~.#.#.#.#.#.#.#.#.#.#.@.",
"@.@.@.@.@.@.@.@.@.@.1 {.].^./.(._.:.-.<.[.'.}.|.}.'.1._.2.3.4.5.6.1 @.@.@.@.@.@.@.@.@.@.",
"7.K K K K K K K K 8.9.0.a.b.c.d.e.f.:.g.g.h.i.i.j.k.l.m.n.o.p.a.0.q.8.K K K K K K K K 7.",
"7.7.7.7.7.7.7.7.r.s.t.!.u.v.Y w.x.y.z.z 1.:.Q g.k.f.A.B.C.D.E.F.!.G.H.7.7.7.7.7.7.7.7.7.",
"I.J.J.J.J.J.J.J.J.K.L.M.N.c.O.P.x.Q.f.C 1.:.g.R.S.T.U.V.W.X.Y.Z.`. +.+J.J.J.J.J.J.J.J.I.",
"++I.I.I.I.I.I.I.I.@+#+$+%+&+*+=+-+y.;+k.>+Q g.R.1.,+'+)+!+~+D {+< ]+^+I.I.I.I.I.I.I.I.++",
"++++++++++++++++++^+/+(+_+:+<+[+}+|+i.1+2+3+4+'.<.5+6+;+U.=+7+8+9+0+a+++++++++++++++++++",
".+b+b+b+b+b+b+b+b+c+d+e+f+g+h+i+h.j+k+V l+m+k+n+o+p+'.q+r+-+s+t+u+v+w+b+b+b+b+b+b+b+b+.+",
"^+@+@+@+@+@+@+@+@+c+x+y+z+A+-+B+<.B C+D+E+F+U S G+m+o+3+q+H+I+J+K+d+w+@+@+@+@+@+@+@+@+^+",
"^+^+^+^+^+^+^+^+^+L+M+4 N+O+P+Q |.l+U Q+R+R+S+Q+T+U+V+R 5+W+X+Y+4 M+L+^+^+^+^+^+^+^+^+^+",
"Z+c+c+c+c+c+c+c+c+c+Z+`+ @.@+@5+V S T+@@#@$@#@%@@@&@*@=@-@;@>@,@'@)@c+c+c+c+c+c+c+c+c+Z+",
"Z+Z+Z+Z+Z+Z+Z+Z+Z+Z+w+!@~@{@]@T.^@>.E+@@/@(@#@/@@@T+U+R _@:+{@:@<@Z+Z+Z+Z+Z+Z+Z+Z+Z+Z+Z+",
"[@[@[@[@[@[@[@[@[@[@[@[@}@|@1@2@3@4@,.5@6@7@7@8@9@0@a@b@c@d@e@}@f@[@[@[@[@[@[@[@[@[@[@[@",
"g@h@h@h@h@h@h@h@h@h@h@h@g@]+i@j@k@l@h.m+E+m@n@T+l+h.A.o@p@q@v+g@h@h@h@h@h@h@h@h@h@h@h@g@",
"g@g@g@g@g@g@g@g@g@g@g@g@r@s@L.5.t@u@v@w@x@1+'.>+y@v@z@A@B@L.s@r@g@g@g@g@g@g@g@g@g@g@g@g@",
"s@s@s@s@s@s@s@s@s@s@s@s@s@s@x+C@D@E@N+F@G@H@I@J@K@N+L@M@N@x+s@s@s@s@s@s@s@s@s@s@s@s@s@s@",
"x+O@O@O@O@O@O@O@O@O@O@O@O@O@O@P@Q@`+R@S@T@U@V@W@X@R@`+Q@P@O@O@O@O@O@O@O@O@O@O@O@O@O@O@x+",
"x+x+x+x+x+x+x+x+x+x+x+x+x+x+x+x+x+x+}@0+Y@Z@Z@Y@0+}@x+x+x+x+x+x+x+x+x+x+x+x+x+x+x+x+x+x+",
"0+}@}@}@}@}@}@}@}@}@}@}@}@}@}@}@}@}@}@}@d+d+d+d+}@}@}@}@}@}@}@}@}@}@}@}@}@}@}@}@}@}@}@0+",
"`@/+/+/+/+/+/+/+/+/+/+/+/+/+/+/+/+/+/+/+/+/+/+/+/+/+/+/+/+/+/+/+/+/+/+/+/+/+/+/+/+/+/+`@",
" #`@`@`@`@`@`@`@`@`@`@`@`@`@`@`@`@`@`@`@`@`@`@`@`@`@`@`@`@`@`@`@`@`@`@`@`@`@`@`@`@`@`@ #",
" #`@`@`@`@`@`@`@`@`@`@`@`@`@`@`@`@`@`@`@`@`@`@`@`@`@`@`@`@`@`@`@`@`@`@`@`@`@`@`@`@`@`@ #",
"r@h@h@h@h@h@h@h@h@h@h@h@h@h@h@h@h@h@h@h@h@h@h@h@h@h@h@h@h@h@h@h@h@h@h@h@h@h@h@h@h@h@h@r@",
"s@r@r@r@r@r@r@r@r@r@r@r@r@r@r@r@r@r@r@r@r@r@r@r@r@r@r@r@r@r@r@r@r@r@r@r@r@r@r@r@r@r@r@s@",
".#.#.#.#.#.#.#.#.#.#.#.#.#.#.#.#.#.#.#.#.#.#.#.#.#.#.#.#.#.#.#.#.#.#.#.#.#.#.#.#.#.#.#.#"};
