/* XPM */
static char * stick_pressed_xpm[] = {
"44 38 360 2",
"  	c None",
". 	c #000000",
"+ 	c #505050",
"@ 	c #525252",
"# 	c #696969",
"$ 	c #6C6C6C",
"% 	c #515151",
"& 	c #565656",
"* 	c #4C4C4C",
"= 	c #4E4E4E",
"- 	c #4A4A4A",
"; 	c #484949",
"> 	c #414143",
", 	c #393A3A",
"' 	c #333334",
") 	c #2F2F2F",
"! 	c #494949",
"~ 	c #3E3B3A",
"{ 	c #2F2B2A",
"] 	c #20201F",
"^ 	c #1A1C1B",
"/ 	c #171A1A",
"( 	c #151818",
"_ 	c #141818",
": 	c #464646",
"< 	c #484848",
"[ 	c #484849",
"} 	c #3F3F40",
"| 	c #302F2F",
"1 	c #211F1C",
"2 	c #171612",
"3 	c #131513",
"4 	c #141A18",
"5 	c #151E1E",
"6 	c #141F1F",
"7 	c #131F1F",
"8 	c #141E1E",
"9 	c #211E1C",
"0 	c #444444",
"a 	c #3E3E3E",
"b 	c #1F1F21",
"c 	c #13110F",
"d 	c #0F1311",
"e 	c #0F1A1B",
"f 	c #182829",
"g 	c #263E3E",
"h 	c #304D4D",
"i 	c #325151",
"j 	c #315050",
"k 	c #2E4C4C",
"l 	c #253D3D",
"m 	c #0E1311",
"n 	c #3E3E3F",
"o 	c #1A1B1B",
"p 	c #121210",
"q 	c #121717",
"r 	c #1C2F2F",
"s 	c #345555",
"t 	c #457171",
"u 	c #528585",
"v 	c #5A9292",
"w 	c #5C9696",
"x 	c #599292",
"y 	c #538686",
"z 	c #457070",
"A 	c #355656",
"B 	c #1D2F30",
"C 	c #121918",
"D 	c #121310",
"E 	c #3D3D3E",
"F 	c #3F3F3F",
"G 	c #414141",
"H 	c #3F4040",
"I 	c #201F1D",
"J 	c #121311",
"K 	c #131A19",
"L 	c #1E3030",
"M 	c #355959",
"N 	c #4E7E7E",
"O 	c #598D8D",
"P 	c #609B9B",
"Q 	c #66A0A0",
"R 	c #68A1A1",
"S 	c #67A0A0",
"T 	c #619B9B",
"U 	c #578E8E",
"V 	c #4F7F7F",
"W 	c #365959",
"X 	c #1E3131",
"Y 	c #131B19",
"Z 	c #121312",
"` 	c #201E1D",
" .	c #404040",
"..	c #2E2B2A",
"+.	c #151512",
"@.	c #111513",
"#.	c #1C2E2E",
"$.	c #4B7979",
"%.	c #558A8A",
"&.	c #5B9292",
"*.	c #619C9C",
"=.	c #649E9E",
"-.	c #669F9F",
";.	c #629C9C",
">.	c #5B9494",
",.	c #4A7878",
"'.	c #1B2D2E",
").	c #121513",
"!.	c #151612",
"~.	c #383839",
"{.	c #1E1914",
"].	c #121613",
"^.	c #142222",
"/.	c #2B4545",
"(.	c #416767",
"_.	c #508181",
":.	c #578D8D",
"<.	c #5B9393",
"[.	c #5D9797",
"}.	c #5C9595",
"|.	c #4F8080",
"1.	c #406767",
"2.	c #2C4747",
"3.	c #152323",
"4.	c #141714",
"5.	c #201A14",
"6.	c #393939",
"7.	c #3B3B3B",
"8.	c #38393A",
"9.	c #252729",
"0.	c #161410",
"a.	c #161D1B",
"b.	c #1E3232",
"c.	c #335252",
"d.	c #446B6B",
"e.	c #4D7D7D",
"f.	c #578C8C",
"g.	c #588E8E",
"h.	c #588F8F",
"i.	c #599090",
"j.	c #538484",
"k.	c #4C7B7B",
"l.	c #446C6C",
"m.	c #355555",
"n.	c #1E3333",
"o.	c #252529",
"p.	c #3A3A3A",
"q.	c #343536",
"r.	c #1C1B1C",
"s.	c #141411",
"t.	c #1A2524",
"u.	c #274141",
"v.	c #3A5C5C",
"w.	c #456E6E",
"x.	c #518282",
"y.	c #558888",
"z.	c #568A8A",
"A.	c #568B8B",
"B.	c #568C8C",
"C.	c #4B7A7A",
"D.	c #456F6F",
"E.	c #3B5D5D",
"F.	c #294242",
"G.	c #141511",
"H.	c #1B1C1C",
"I.	c #333435",
"J.	c #353535",
"K.	c #363636",
"L.	c #303031",
"M.	c #171818",
"N.	c #111613",
"O.	c #1E2E2D",
"P.	c #325252",
"Q.	c #3E6464",
"R.	c #467171",
"S.	c #4F8181",
"T.	c #588D8D",
"U.	c #538585",
"V.	c #477272",
"W.	c #3F6565",
"X.	c #345252",
"Y.	c #111615",
"Z.	c #161717",
"`.	c #2F2D2F",
" +	c #333333",
".+	c #151717",
"++	c #101716",
"@+	c #213635",
"#+	c #395B5B",
"$+	c #426B6B",
"%+	c #497575",
"&+	c #4D7C7C",
"*+	c #508282",
"=+	c #538787",
"-+	c #548888",
";+	c #508383",
">+	c #497676",
",+	c #436C6C",
"'+	c #3A5D5D",
")+	c #213737",
"!+	c #101717",
"~+	c #141615",
"{+	c #2D2C2C",
"]+	c #2C2C2C",
"^+	c #141515",
"/+	c #111918",
"(+	c #253C3C",
"_+	c #3C6161",
":+	c #558787",
"<+	c #5C9494",
"[+	c #5D9595",
"}+	c #5A9090",
"|+	c #4E7F7F",
"1+	c #487575",
"2+	c #3F6464",
"3+	c #243A3A",
"4+	c #111817",
"5+	c #121313",
"6+	c #2B2B2B",
"7+	c #2D2D2D",
"8+	c #303030",
"9+	c #2A2A2A",
"0+	c #151616",
"a+	c #141918",
"b+	c #253A3A",
"c+	c #3D6363",
"d+	c #4C7A7A",
"e+	c #538989",
"f+	c #598F8F",
"g+	c #5D9696",
"h+	c #629D9D",
"i+	c #629E9E",
"j+	c #5F9B9B",
"k+	c #609C9C",
"l+	c #5E9999",
"m+	c #548A8A",
"n+	c #253939",
"o+	c #131817",
"p+	c #131414",
"q+	c #282828",
"r+	c #2A2A2B",
"s+	c #171717",
"t+	c #161917",
"u+	c #233635",
"v+	c #5F9A9A",
"w+	c #68A2A2",
"x+	c #67A1A1",
"y+	c #649F9F",
"z+	c #4E7D7D",
"A+	c #243636",
"B+	c #161816",
"C+	c #161515",
"D+	c #28282B",
"E+	c #1C1C1D",
"F+	c #171814",
"G+	c #1F2C2A",
"H+	c #335353",
"I+	c #5E9797",
"J+	c #6BA3A3",
"K+	c #6DA5A5",
"L+	c #6CA4A4",
"M+	c #69A2A2",
"N+	c #5A9191",
"O+	c #1F2D2B",
"P+	c #272727",
"Q+	c #242525",
"R+	c #191812",
"S+	c #1B221F",
"T+	c #263F3F",
"U+	c #487474",
"V+	c #6EA5A5",
"W+	c #70A7A7",
"X+	c #71A7A7",
"Y+	c #6FA7A7",
"Z+	c #6AA2A2",
"`+	c #253F3F",
" @	c #1C231F",
".@	c #1A1912",
"+@	c #232325",
"@@	c #1B1B19",
"#@	c #161915",
"$@	c #1B2825",
"%@	c #5F9999",
"&@	c #659F9F",
"*@	c #528686",
"=@	c #3C6060",
"-@	c #1C2724",
";@	c #171915",
">@	c #1C1B18",
",@	c #262626",
"'@	c #232323",
")@	c #121211",
"!@	c #151917",
"~@	c #395C5C",
"{@	c #558A8B",
"]@	c #609A9A",
"^@	c #669E9E",
"/@	c #6FA5A5",
"(@	c #659E9E",
"_@	c #3A5E5D",
":@	c #223533",
"<@	c #151817",
"[@	c #202020",
"}@	c #1B1B1D",
"|@	c #101010",
"1@	c #141613",
"2@	c #253A38",
"3@	c #4B7B7B",
"4@	c #629C9D",
"5@	c #67A2A2",
"6@	c #69A3A3",
"7@	c #4C7D7D",
"8@	c #263B3A",
"9@	c #131613",
"0@	c #1B1B1B",
"a@	c #222222",
"b@	c #1A1A1A",
"c@	c #101110",
"d@	c #141713",
"e@	c #1B2723",
"f@	c #264041",
"g@	c #385B5B",
"h@	c #4C7B7C",
"i@	c #578B8B",
"j@	c #4B797A",
"k@	c #274243",
"l@	c #1C2825",
"m@	c #151714",
"n@	c #1F1F1F",
"o@	c #181718",
"p@	c #111211",
"q@	c #161815",
"r@	c #1C201B",
"s@	c #202924",
"t@	c #2F423B",
"u@	c #365855",
"v@	c #375C5B",
"w@	c #365A59",
"x@	c #355552",
"y@	c #2E403A",
"z@	c #111212",
"A@	c #1C1C1C",
"B@	c #19191B",
"C@	c #151312",
"D@	c #12120F",
"E@	c #131411",
"F@	c #191F1A",
"G@	c #1C2624",
"H@	c #1B2726",
"I@	c #1B2625",
"J@	c #1B2523",
"K@	c #191E1A",
"L@	c #181818",
"M@	c #141414",
"N@	c #100F0F",
"O@	c #0E0C0D",
"P@	c #0C0A0A",
"Q@	c #131313",
"R@	c #161616",
"S@	c #0C0C0C",
". . . . . . . . . . . . . . . . . . . . . . . . . . . . . . . . . . . . . . . . . . . . ",
"+ @ @ @ @ @ @ @ @ @ @ @ @ @ @ @ @ @ @ @ @ @ @ @ @ @ @ @ @ @ @ @ @ @ @ @ @ @ @ @ @ @ @ + ",
"# $ $ $ $ $ $ $ $ $ $ $ $ $ $ $ $ $ $ $ $ $ $ $ $ $ $ $ $ $ $ $ $ $ $ $ $ $ $ $ $ $ $ # ",
"% & & & & & & & & & & & & & & & & & & & & & & & & & & & & & & & & & & & & & & & & & & % ",
"+ @ @ @ @ @ @ @ @ @ @ @ @ @ @ @ @ @ @ @ @ @ @ @ @ @ @ @ @ @ @ @ @ @ @ @ @ @ @ @ @ @ @ + ",
"+ + + + + + + + + + + + + + + + + + + + + + + + + + + + + + + + + + + + + + + + + + + + ",
"* = = = = = = = = = = = = = = = = = = = = = = = = = = = = = = = = = = = = = = = = = = * ",
"- * * * * * * * * * * * * * * * * ; > , ' ) ) ' , > ; * * * * * * * * * * * * * * * * - ",
"- - - - - - - - - - - - - - - ! ~ { ] ^ / ( _ / ^ ] { ~ ! - - - - - - - - - - - - - - - ",
": < < < < < < < < < < < < [ } | 1 2 3 4 5 6 7 8 4 3 2 9 | } [ < < < < < < < < < < < < : ",
"0 : : : : : : : : : : : : a b c d e f g h i j k l f e m c b n : : : : : : : : : : : : 0 ",
"0 0 0 0 0 0 0 0 0 0 0 0 a o p q r s t u v w w x y z A B C D o E 0 0 0 0 0 0 0 0 0 0 0 0 ",
"F G G G G G G G G G G H I J K L M N O P Q R R S T U V W X Y Z ` H G G G G G G G G G G F ",
"a  . . . . . . . . . ...+.@.#.A $.%.&.*.=.-.Q -.;.>.%.,.s '.).!... . . . . . . . . . .a ",
"a a a a a a a a a a ~.{.].^./.(._.:.<.<.<.>.[.[.[.}.:.|.1.2.3.4.5.~.a a a a a a a a a a ",
"6.7.7.7.7.7.7.7.7.8.9.0.a.b.c.d.e.y f.g.g.h.v v i.f.j.k.l.m.n.a.0.o.8.7.7.7.7.7.7.7.7.6.",
"6.6.6.6.6.6.6.6.p.q.r.s.t.u.v.w.$.x.y.z.A.f.g.g.B.y |.C.D.E.F.t.G.H.I.6.6.6.6.6.6.6.6.6.",
"J.K.K.K.K.K.K.K.K.L.M.N.O.P.Q.R.$.S.y z.A.f.g.T.A.U.|.C.V.W.X.L Y.Z.`.K.K.K.K.K.K.K.K.J.",
" +J.J.J.J.J.J.J.J.) .+++@+#+$+%+&+*+=+B.g.h.g.T.A.-+;+e.>+,+'+)+!+~+{+J.J.J.J.J.J.J.J. +",
" + + + + + + + + +]+^+/+(+_+R.N :+T.v <+[+[+}.>.&.}+f.y |+1+2+3+4+5+6+ + + + + + + + + +",
"7+8+8+8+8+8+8+8+8+9+0+a+b+c+d+e+f+g+P h+i+i+T j+k+l+<+f+m+&+2+n+o+p+q+8+8+8+8+8+8+8+8+7+",
"]+) ) ) ) ) ) ) ) r+s+t+u+_+&+B.<.v+=.S w+w+x+Q y+i+P g+h.z+_+A+B+C+q+) ) ) ) ) ) ) ) ]+",
"]+]+]+]+]+]+]+]+]+D+E+F+G+H+&+h.I+h+S J+K+K+K+L+M+Q y+T N+d+P.O+F+E+D+]+]+]+]+]+]+]+]+]+",
"P+9+9+9+9+9+9+9+9+9+Q+R+S+T+U+v ;.Q M+V+W+X+W+Y+V+Z+R y+<.U+`+ @.@+@9+9+9+9+9+9+9+9+9+P+",
"P+P+P+P+P+P+P+P+P+P+q+@@#@$@_+u %@&@M+V+W+X+W+Y+V+M+Q T *@=@-@;@>@P+P+P+P+P+P+P+P+P+P+P+",
",@,@,@,@,@,@,@,@,@,@,@'@)@!@u+~@{@]@^@J+V+/@/@V+J+(@P :._@:@<@)@'@,@,@,@,@,@,@,@,@,@,@,@",
"[@'@'@'@'@'@'@'@'@'@'@'@}@|@1@2@_@3@B.4@5@6@J+R ;.B.7@_+8@9@|@0@'@'@'@'@'@'@'@'@'@'@'@[@",
"[@[@[@[@[@[@[@[@[@[@[@[@a@b@c@d@e@f@g@h@:.N+}+i@j@g@k@l@m@c@b@a@[@[@[@[@[@[@[@[@[@[@[@[@",
"n@n@n@n@n@n@n@n@n@n@n@n@n@n@o@p@q@r@s@t@u@v@w@x@y@s@r@q@z@o@n@n@n@n@n@n@n@n@n@n@n@n@n@n@",
"b@A@A@A@A@A@A@A@A@A@A@A@A@A@A@B@C@D@E@F@G@H@I@J@K@E@D@C@B@A@A@A@A@A@A@A@A@A@A@A@A@A@A@b@",
"b@b@b@b@b@b@b@b@b@b@b@b@b@b@b@b@b@L@M@N@O@P@P@O@N@M@L@b@b@b@b@b@b@b@b@b@b@b@b@b@b@b@b@b@",
"M@L@L@L@L@L@L@L@L@L@L@L@L@L@L@L@L@L@L@L@L@L@L@L@L@L@L@L@L@L@L@L@L@L@L@L@L@L@L@L@L@L@L@M@",
"Q@R@R@R@R@R@R@R@R@R@R@R@R@R@R@R@R@R@R@R@R@R@R@R@R@R@R@R@R@R@R@R@R@R@R@R@R@R@R@R@R@R@R@Q@",
"|@Q@Q@Q@Q@Q@Q@Q@Q@Q@Q@Q@Q@Q@Q@Q@Q@Q@Q@Q@Q@Q@Q@Q@Q@Q@Q@Q@Q@Q@Q@Q@Q@Q@Q@Q@Q@Q@Q@Q@Q@Q@Q@|@",
"|@Q@Q@Q@Q@Q@Q@Q@Q@Q@Q@Q@Q@Q@Q@Q@Q@Q@Q@Q@Q@Q@Q@Q@Q@Q@Q@Q@Q@Q@Q@Q@Q@Q@Q@Q@Q@Q@Q@Q@Q@Q@Q@|@",
"a@'@'@'@'@'@'@'@'@'@'@'@'@'@'@'@'@'@'@'@'@'@'@'@'@'@'@'@'@'@'@'@'@'@'@'@'@'@'@'@'@'@'@a@",
"n@a@a@a@a@a@a@a@a@a@a@a@a@a@a@a@a@a@a@a@a@a@a@a@a@a@a@a@a@a@a@a@a@a@a@a@a@a@a@a@a@a@a@n@",
"S@S@S@S@S@S@S@S@S@S@S@S@S@S@S@S@S@S@S@S@S@S@S@S@S@S@S@S@S@S@S@S@S@S@S@S@S@S@S@S@S@S@S@S@"};
