/* XPM */
static char * stick_toggled_pressed_xpm[] = {
"44 38 398 2",
"  	c None",
". 	c #000000",
"+ 	c #505050",
"@ 	c #525252",
"# 	c #696969",
"$ 	c #6C6C6C",
"% 	c #515151",
"& 	c #565656",
"* 	c #4C4C4C",
"= 	c #4E4E4E",
"- 	c #4B4B4B",
"; 	c #4A494A",
"> 	c #494949",
", 	c #4A4A4A",
"' 	c #424343",
") 	c #363537",
"! 	c #29292A",
"~ 	c #212122",
"{ 	c #1C1C1C",
"] 	c #434343",
"^ 	c #2F2D2A",
"/ 	c #1F1D1B",
"( 	c #171A19",
"_ 	c #161C1B",
": 	c #151E1E",
"< 	c #141F1F",
"[ 	c #131F1F",
"} 	c #141E1E",
"| 	c #161D1B",
"1 	c #464646",
"2 	c #484848",
"3 	c #343435",
"4 	c #202120",
"5 	c #1B1C1A",
"6 	c #161C19",
"7 	c #151F1E",
"8 	c #182D2B",
"9 	c #1B3838",
"0 	c #1B3B3B",
"a 	c #1A3A3A",
"b 	c #1A3737",
"c 	c #15201E",
"d 	c #161C18",
"e 	c #444444",
"f 	c #313132",
"g 	c #171919",
"h 	c #131714",
"i 	c #121E1C",
"j 	c #153537",
"k 	c #1F4F51",
"l 	c #366B6B",
"m 	c #458080",
"n 	c #498585",
"o 	c #488484",
"p 	c #447F7F",
"q 	c #356A6A",
"r 	c #1F5151",
"s 	c #143637",
"t 	c #111E1C",
"u 	c #343434",
"v 	c #151617",
"w 	c #121916",
"x 	c #142524",
"y 	c #244C4C",
"z 	c #418D8D",
"A 	c #59ADAD",
"B 	c #77BDBD",
"C 	c #8AC6C6",
"D 	c #8EC9C9",
"E 	c #8DC9C9",
"F 	c #89C6C6",
"G 	c #58ADAD",
"H 	c #428F8F",
"I 	c #254F4E",
"J 	c #152726",
"K 	c #121A17",
"L 	c #323234",
"M 	c #3F3F3F",
"N 	c #414141",
"O 	c #3B3B3B",
"P 	c #191918",
"Q 	c #131918",
"R 	c #162927",
"S 	c #244F4F",
"T 	c #3F8D8D",
"U 	c #64B6B6",
"V 	c #7CC1C1",
"W 	c #90CBCB",
"X 	c #9AD0D0",
"Y 	c #9ED1D1",
"Z 	c #9CD0D0",
"` 	c #92CCCC",
" .	c #7DC1C1",
"..	c #66B6B6",
"+.	c #408D8D",
"@.	c #255050",
"#.	c #162A28",
"$.	c #181918",
"%.	c #3E3E3E",
"&.	c #404040",
"*.	c #262422",
"=.	c #151A17",
"-.	c #13211F",
";.	c #214848",
">.	c #3D8787",
",.	c #5DB1B1",
"'.	c #77BFBF",
").	c #84C4C4",
"!.	c #91CBCB",
"~.	c #96CECE",
"{.	c #99CFCF",
"].	c #9BCFCF",
"^.	c #93CCCC",
"/.	c #85C5C5",
"(.	c #76BFBF",
"_.	c #5CB0B0",
":.	c #3D8686",
"<.	c #214747",
"[.	c #14211F",
"}.	c #161A17",
"|.	c #1B1815",
"1.	c #131E1C",
"2.	c #173536",
"3.	c #326B6B",
"4.	c #49A1A1",
"5.	c #64B8B8",
"6.	c #7BC1C1",
"7.	c #84C5C5",
"8.	c #86C5C5",
"9.	c #89C7C7",
"0.	c #88C7C7",
"a.	c #85C6C6",
"b.	c #79C1C1",
"c.	c #63B7B7",
"d.	c #49A0A0",
"e.	c #336E6E",
"f.	c #183737",
"g.	c #151F1C",
"h.	c #1C1915",
"i.	c #393939",
"j.	c #38393A",
"k.	c #232325",
"l.	c #171916",
"m.	c #182A29",
"n.	c #224C4C",
"o.	c #3B7C7C",
"p.	c #4BA5A5",
"q.	c #60B5B5",
"r.	c #71BCBC",
"s.	c #7AC1C1",
"t.	c #7CC2C2",
"u.	c #7FC2C2",
"v.	c #82C3C3",
"w.	c #81C3C3",
"x.	c #7FC4C4",
"y.	c #79C0C0",
"z.	c #6EBBBB",
"A.	c #5DB3B3",
"B.	c #4CA7A7",
"C.	c #3D8181",
"D.	c #224D4D",
"E.	c #171915",
"F.	c #3A3A3A",
"G.	c #191A1C",
"H.	c #141A18",
"I.	c #1D3737",
"J.	c #2E6363",
"K.	c #428C8C",
"L.	c #4EA9A9",
"M.	c #5CB2B2",
"N.	c #69B9B9",
"O.	c #72BDBD",
"P.	c #78BFBF",
"Q.	c #7ABFBF",
"R.	c #7BC0C0",
"S.	c #78C0C0",
"T.	c #6FBCBC",
"U.	c #69B8B8",
"V.	c #5CB3B3",
"W.	c #4FAAAA",
"X.	c #438E8E",
"Y.	c #2F6464",
"Z.	c #1D3938",
"`.	c #151A18",
" +	c #18191A",
".+	c #333334",
"++	c #353535",
"@+	c #363636",
"#+	c #302F30",
"$+	c #161718",
"%+	c #121C1B",
"&+	c #224645",
"*+	c #397C7C",
"=+	c #479898",
"-+	c #51ACAC",
";+	c #5BB2B2",
">+	c #68B8B8",
",+	c #70BCBC",
"'+	c #77BEBE",
")+	c #79BFBF",
"!+	c #7AC0C0",
"~+	c #68B7B7",
"{+	c #5EB3B3",
"]+	c #53ACAC",
"^+	c #489999",
"/+	c #3A7D7D",
"(+	c #234A49",
"_+	c #131E1D",
":+	c #2D2D2D",
"<+	c #333333",
"[+	c #2F2F2F",
"}+	c #151616",
"|+	c #121E1E",
"1+	c #255150",
"2+	c #408B8B",
"3+	c #4CA2A2",
"4+	c #56AEAE",
"5+	c #5FB3B3",
"6+	c #73BCBC",
"7+	c #6BB8B8",
"8+	c #62B4B4",
"9+	c #58AFAF",
"0+	c #4EA4A4",
"a+	c #265353",
"b+	c #13201F",
"c+	c #141515",
"d+	c #2D2C2C",
"e+	c #2C2C2C",
"f+	c #132121",
"g+	c #2A5B5B",
"h+	c #459696",
"i+	c #50ABAB",
"j+	c #61B6B6",
"k+	c #70BBBB",
"l+	c #7FC3C3",
"m+	c #82C5C5",
"n+	c #86C6C6",
"o+	c #83C4C4",
"p+	c #82C4C4",
"q+	c #6EBABA",
"r+	c #54AEAE",
"s+	c #469999",
"t+	c #295A5A",
"u+	c #142121",
"v+	c #2B2B2B",
"w+	c #303030",
"x+	c #2A2A2A",
"y+	c #161717",
"z+	c #152121",
"A+	c #2A5A5A",
"B+	c #469898",
"C+	c #7DC2C2",
"D+	c #8FCACA",
"E+	c #91CCCC",
"F+	c #8ECACA",
"G+	c #8AC8C8",
"H+	c #83C5C5",
"I+	c #7BC2C2",
"J+	c #73BDBD",
"K+	c #295959",
"L+	c #282828",
"M+	c #1A1A1A",
"N+	c #17201F",
"O+	c #285352",
"P+	c #61B5B5",
"Q+	c #8CC9C9",
"R+	c #97CDCD",
"S+	c #9DD1D1",
"T+	c #97CECE",
"U+	c #8DCACA",
"V+	c #86C7C7",
"W+	c #63B6B6",
"X+	c #295453",
"Y+	c #28282B",
"Z+	c #1F1F20",
"`+	c #171C1A",
" @	c #234543",
".@	c #3C8686",
"+@	c #9BD0D0",
"@@	c #A2D2D2",
"#@	c #A4D4D4",
"$@	c #A3D4D4",
"%@	c #A1D3D3",
"&@	c #95CDCD",
"*@	c #5FB5B5",
"=@	c #3B8686",
"-@	c #244544",
";@	c #181C19",
">@	c #1E1E1F",
",@	c #272727",
"'@	c #1C1D19",
")@	c #1E3230",
"!@	c #2F7172",
"~@	c #58B0B0",
"{@	c #99D0D0",
"]@	c #9FD2D2",
"^@	c #A6D5D5",
"/@	c #ABD7D7",
"(@	c #ACD8D8",
"_@	c #A9D7D7",
":@	c #A8D6D6",
"<@	c #A5D5D5",
"[@	c #A0D2D2",
"}@	c #9CD1D1",
"|@	c #82C6C6",
"1@	c #57B0B0",
"2@	c #2D7171",
"3@	c #1F3330",
"4@	c #1D1D19",
"5@	c #262627",
"6@	c #221F1D",
"7@	c #18211F",
"8@	c #499E9E",
"9@	c #74BFBF",
"0@	c #9ED2D2",
"a@	c #AAD7D7",
"b@	c #ABD8D8",
"c@	c #76C0C0",
"d@	c #489D9D",
"e@	c #19211F",
"f@	c #22201D",
"g@	c #262626",
"h@	c #242424",
"i@	c #171A18",
"j@	c #182825",
"k@	c #326767",
"l@	c #4D9F9F",
"m@	c #77C2C2",
"n@	c #A4D3D3",
"o@	c #A7D6D6",
"p@	c #A8D7D7",
"q@	c #A7D7D7",
"r@	c #A4D5D5",
"s@	c #95CCCC",
"t@	c #7DC4C4",
"u@	c #4F9F9F",
"v@	c #306565",
"w@	c #182726",
"x@	c #202020",
"y@	c #232323",
"z@	c #1F1F1F",
"A@	c #151718",
"B@	c #182724",
"C@	c #306767",
"D@	c #71BEBE",
"E@	c #87C6C6",
"F@	c #99CECE",
"G@	c #A2D3D3",
"H@	c #52A8A8",
"I@	c #326A6A",
"J@	c #172624",
"K@	c #222222",
"L@	c #192927",
"M@	c #255655",
"N@	c #387F7F",
"O@	c #549E9E",
"P@	c #89C9C9",
"Q@	c #8FCBCB",
"R@	c #88C8C8",
"S@	c #70BDBD",
"T@	c #398181",
"U@	c #275958",
"V@	c #1B2B29",
"W@	c #1A1818",
"X@	c #181919",
"Y@	c #1D2625",
"Z@	c #223A37",
"`@	c #2A5251",
" #	c #408281",
".#	c #509B9B",
"+#	c #549F9F",
"@#	c #539E9E",
"##	c #4F9897",
"$#	c #3F8180",
"%#	c #223B38",
"&#	c #1E2726",
"*#	c #181B19",
"=#	c #1B1B1C",
"-#	c #1C1818",
";#	c #1F1D16",
">#	c #1D1F1C",
",#	c #263833",
"'#	c #284C4B",
")#	c #274E4E",
"!#	c #254D4C",
"~#	c #274A46",
"{#	c #263832",
"]#	c #1C1F1C",
"^#	c #181A1A",
"/#	c #181B1A",
"(#	c #181C1C",
"_#	c #141414",
":#	c #181818",
"<#	c #171717",
"[#	c #161616",
"}#	c #131313",
"|#	c #101010",
"1#	c #0C0C0C",
". . . . . . . . . . . . . . . . . . . . . . . . . . . . . . . . . . . . . . . . . . . . ",
"+ @ @ @ @ @ @ @ @ @ @ @ @ @ @ @ @ @ @ @ @ @ @ @ @ @ @ @ @ @ @ @ @ @ @ @ @ @ @ @ @ @ @ + ",
"# $ $ $ $ $ $ $ $ $ $ $ $ $ $ $ $ $ $ $ $ $ $ $ $ $ $ $ $ $ $ $ $ $ $ $ $ $ $ $ $ $ $ # ",
"% & & & & & & & & & & & & & & & & & & & & & & & & & & & & & & & & & & & & & & & & & & % ",
"+ @ @ @ @ @ @ @ @ @ @ @ @ @ @ @ @ @ @ @ @ @ @ @ @ @ @ @ @ @ @ @ @ @ @ @ @ @ @ @ @ @ @ + ",
"+ + + + + + + + + + + + + + + + + + + + + + + + + + + + + + + + + + + + + + + + + + + + ",
"* = = = = = = = = = = = = = = = = = * - ; > > , - * = = = = = = = = = = = = = = = = = * ",
", * * * * * * * * * * * * * * * * ' ) ! ~ { { ~ ! ) ' * * * * * * * * * * * * * * * * , ",
", , , , , , , , , , , , , , , ] ^ / ( _ : < [ } | ( / ^ ] , , , , , , , , , , , , , , , ",
"1 2 2 2 2 2 2 2 2 2 2 2 2 2 3 4 5 6 7 8 9 0 a b 8 c d 5 4 3 2 2 2 2 2 2 2 2 2 2 2 2 2 1 ",
"e 1 1 1 1 1 1 1 1 1 1 1 1 f g h i j k l m n o p q r s t h g f 1 1 1 1 1 1 1 1 1 1 1 1 e ",
"e e e e e e e e e e e e u v w x y z A B C D E F B G H I J K v L e e e e e e e e e e e e ",
"M N N N N N N N N N N O P Q R S T U V W X Y Y Z `  ...+.@.#.Q $.O N N N N N N N N N N M ",
"%.&.&.&.&.&.&.&.&.&.&.*.=.-.;.>.,.'.).!.~.{.].{.^./.(._.:.<.[.}.*.&.&.&.&.&.&.&.&.&.&.%.",
"%.%.%.%.%.%.%.%.%.%.3 |.1.2.3.4.5.6.7.7.7.8.9.9.0.a.b.c.d.e.f.g.h.3 %.%.%.%.%.%.%.%.%.%.",
"i.O O O O O O O O j.k.l.m.n.o.p.q.r.s.t. .u.v.w.x.y.z.A.B.C.D.m.E.k.j.O O O O O O O O i.",
"i.i.i.i.i.i.i.i.F.3 G.H.I.J.K.L.M.N.O.P.Q.R. .V S.T.U.V.W.X.Y.Z.`. +.+i.i.i.i.i.i.i.i.i.",
"++@+@+@+@+@+@+@+@+#+$+%+&+*+=+-+;+>+,+'+)+!+V 6.'.z.~+{+]+^+/+(+_+v :+@+@+@+@+@+@+@+@+++",
"<+++++++++++++++++[+}+|+1+2+3+4+5+U.,+'.6.V V 6.P.6+7+8+9+0+z a+b+c+d+++++++++++++++++<+",
"<+<+<+<+<+<+<+<+<+e+}+f+g+h+i+j+k+y.l+m+a.n+7.o+p+l+S.q+U r+s+t+u+c+v+<+<+<+<+<+<+<+<+<+",
":+w+w+w+w+w+w+w+w+x+y+z+A+B+V.O.C+a.D+E+` ` D+D F+G+H+I+J+q.s+K+z+}+L+w+w+w+w+w+w+w+w+:+",
"e+[+[+[+[+[+[+[+[+x+M+N+O+h+P+y.H+Q+R+Z S+S+].{.T+` U+V+6.W+h+X+N+g L+[+[+[+[+[+[+[+[+e+",
"e+e+e+e+e+e+e+e+e+Y+Z+`+ @.@q.t.0.` +@@@#@#@$@%@S+{.&@D+x.*@=@-@;@>@Y+e+e+e+e+e+e+e+e+e+",
",@x+x+x+x+x+x+x+x+x+,@'@)@!@~@x.!.{@]@^@/@(@_@:@<@[@}@T+|@1@2@3@4@5@x+x+x+x+x+x+x+x+x+,@",
",@,@,@,@,@,@,@,@,@,@L+6@7@;.8@9@F+{@0@^@a@b@a@_@^@]@Z ^.c@d@<.e@f@,@,@,@,@,@,@,@,@,@,@,@",
"g@g@g@g@g@g@g@g@g@g@g@h@i@j@k@l@m@` X n@o@p@p@q@r@+@s@t@u@v@w@$.h@g@g@g@g@g@g@g@g@g@g@g@",
"x@y@y@y@y@y@y@y@y@y@y@y@z@A@B@C@0+D@E@F@G@#@#@G@{.E@9@H@I@J@A@z@y@y@y@y@y@y@y@y@y@y@y@x@",
"x@x@x@x@x@x@x@x@x@x@x@x@K@{ g L@M@N@O@O.P@Q@F+R@S@O@T@U@V@g { K@x@x@x@x@x@x@x@x@x@x@x@x@",
"z@z@z@z@z@z@z@z@z@z@z@z@z@z@W@X@Y@Z@`@ #.#+#@###$#`@%#&#*#W@z@z@z@z@z@z@z@z@z@z@z@z@z@z@",
"M+{ { { { { { { { { { { { { { =#-#;#>#,#'#)#!#~#{#]#;#-#=#{ { { { { { { { { { { { { { M+",
"M+M+M+M+M+M+M+M+M+M+M+M+M+M+M+M+M+M+^#/#(#(#(#(#/#^#M+M+M+M+M+M+M+M+M+M+M+M+M+M+M+M+M+M+",
"_#:#:#:#:#:#:#:#:#:#:#:#:#:#:#:#:#:#<#[#[#_#_#[#[#<#:#:#:#:#:#:#:#:#:#:#:#:#:#:#:#:#:#_#",
"}#[#[#[#[#[#[#[#[#[#[#[#[#[#[#[#[#[#[#[#[#[#[#[#[#[#[#[#[#[#[#[#[#[#[#[#[#[#[#[#[#[#[#}#",
"|#}#}#}#}#}#}#}#}#}#}#}#}#}#}#}#}#}#}#}#}#}#}#}#}#}#}#}#}#}#}#}#}#}#}#}#}#}#}#}#}#}#}#|#",
"|#}#}#}#}#}#}#}#}#}#}#}#}#}#}#}#}#}#}#}#}#}#}#}#}#}#}#}#}#}#}#}#}#}#}#}#}#}#}#}#}#}#}#|#",
"K@y@y@y@y@y@y@y@y@y@y@y@y@y@y@y@y@y@y@y@y@y@y@y@y@y@y@y@y@y@y@y@y@y@y@y@y@y@y@y@y@y@y@K@",
"z@K@K@K@K@K@K@K@K@K@K@K@K@K@K@K@K@K@K@K@K@K@K@K@K@K@K@K@K@K@K@K@K@K@K@K@K@K@K@K@K@K@K@z@",
"1#1#1#1#1#1#1#1#1#1#1#1#1#1#1#1#1#1#1#1#1#1#1#1#1#1#1#1#1#1#1#1#1#1#1#1#1#1#1#1#1#1#1#1#"};
