/* XPM */
static char * stick_toggled_active_xpm[] = {
"44 38 325 2",
"  	c None",
". 	c #000000",
"+ 	c #505050",
"@ 	c #525252",
"# 	c #696969",
"$ 	c #6C6C6C",
"% 	c #515151",
"& 	c #565656",
"* 	c #4C4C4C",
"= 	c #4E4E4E",
"- 	c #4C4C4E",
"; 	c #4B4B4B",
"> 	c #4A4A4A",
", 	c #464648",
"' 	c #3F3F40",
") 	c #363838",
"! 	c #2F2F31",
"~ 	c #2B2B2B",
"{ 	c #49494A",
"] 	c #464848",
"^ 	c #3B3936",
"/ 	c #2D2926",
"( 	c #1F1E1D",
"_ 	c #191918",
": 	c #151616",
"< 	c #121413",
"[ 	c #121313",
"} 	c #151516",
"| 	c #464646",
"1 	c #484848",
"2 	c #494949",
"3 	c #3E3E3F",
"4 	c #31302F",
"5 	c #221F1A",
"6 	c #16110E",
"7 	c #100F0C",
"8 	c #10110E",
"9 	c #0D1311",
"0 	c #0C1211",
"a 	c #0B1111",
"b 	c #0D1211",
"c 	c #221E1A",
"d 	c #312F2F",
"e 	c #444444",
"f 	c #1D1D1F",
"g 	c #120F0B",
"h 	c #0A0D0B",
"i 	c #080D0E",
"j 	c #0D1414",
"k 	c #131F1F",
"l 	c #192929",
"m 	c #1A2B2B",
"n 	c #1A2A2A",
"o 	c #192828",
"p 	c #132020",
"q 	c #3D3D3E",
"r 	c #1D1C1C",
"s 	c #12110E",
"t 	c #0C100D",
"u 	c #0F1818",
"v 	c #1B2C2C",
"w 	c #243B3B",
"x 	c #2D4949",
"y 	c #325050",
"z 	c #335353",
"A 	c #335252",
"B 	c #2C4949",
"C 	c #233B3B",
"D 	c #0F1918",
"E 	c #0D100E",
"F 	c #12110F",
"G 	c #1D1C1D",
"H 	c #3F3F3F",
"I 	c #414141",
"J 	c #404040",
"K 	c #222121",
"L 	c #10100D",
"M 	c #0E100C",
"N 	c #0F1717",
"O 	c #1C2F2F",
"P 	c #2C4747",
"Q 	c #325151",
"R 	c #375959",
"S 	c #3A5E5E",
"T 	c #3B5F5F",
"U 	c #3C6060",
"V 	c #385A5A",
"W 	c #1C2E2E",
"X 	c #101818",
"Y 	c #0E100D",
"Z 	c #10100E",
"` 	c #212121",
" .	c #3E3E3E",
"..	c #302F2F",
"+.	c #15130F",
"@.	c #0D0F0B",
"#.	c #0E1818",
"$.	c #2A4443",
"%.	c #355656",
"&.	c #395C5C",
"*.	c #3B6060",
"=.	c #3C6161",
"-.	c #3D6262",
";.	c #3A5D5D",
">.	c #365757",
",.	c #2A4343",
"'.	c #151410",
").	c #2F2E2F",
"!.	c #383839",
"~.	c #1E1A17",
"{.	c #100F0E",
"].	c #0B1110",
"^.	c #172525",
"/.	c #243A3A",
"(.	c #2F4C4C",
"_.	c #345353",
":.	c #375A5A",
"<.	c #385B5B",
"[.	c #365858",
"}.	c #162525",
"|.	c #0B1211",
"1.	c #11100F",
"2.	c #1F1B17",
"3.	c #393939",
"4.	c #3B3B3B",
"5.	c #38393A",
"6.	c #27282A",
"7.	c #19130D",
"8.	c #10110F",
"9.	c #0D1718",
"0.	c #1D2D2D",
"a.	c #273E3E",
"b.	c #2E4B4B",
"c.	c #325252",
"d.	c #355555",
"e.	c #2E4A4A",
"f.	c #273F3F",
"g.	c #1E2F2F",
"h.	c #0D1819",
"i.	c #101110",
"j.	c #272729",
"k.	c #3A3A3A",
"l.	c #343538",
"m.	c #1C1C1D",
"n.	c #130F0C",
"o.	c #111512",
"p.	c #142222",
"q.	c #203333",
"r.	c #284040",
"s.	c #2D4848",
"t.	c #304E4E",
"u.	c #345454",
"v.	c #304D4D",
"w.	c #284141",
"x.	c #213535",
"y.	c #142223",
"z.	c #14100B",
"A.	c #1B1B1D",
"B.	c #343436",
"C.	c #353535",
"D.	c #363636",
"E.	c #313131",
"F.	c #171717",
"G.	c #0F0E0C",
"H.	c #121918",
"I.	c #233939",
"J.	c #294242",
"K.	c #315050",
"L.	c #314F4F",
"M.	c #2C4848",
"N.	c #233A3A",
"O.	c #131A17",
"P.	c #10100C",
"Q.	c #161617",
"R.	c #2F2F30",
"S.	c #333333",
"T.	c #302F30",
"U.	c #151515",
"V.	c #0B0E0D",
"W.	c #131C1C",
"X.	c #253C3C",
"Y.	c #2A4444",
"Z.	c #253D3D",
"`.	c #1F3434",
" +	c #141E1D",
".+	c #0C0F0D",
"++	c #141415",
"@+	c #2D2D2D",
"#+	c #131414",
"$+	c #0A0F0F",
"%+	c #152020",
"&+	c #223737",
"*+	c #274040",
"=+	c #2B4747",
"-+	c #314E4E",
";+	c #345555",
">+	c #304F4F",
",+	c #2F4B4B",
"'+	c #2C4646",
")+	c #142020",
"!+	c #0B0F0F",
"~+	c #131313",
"{+	c #2C2C2C",
"]+	c #303030",
"^+	c #141414",
"/+	c #0B1010",
"(+	c #162222",
"_+	c #294444",
":+	c #2F4D4D",
"<+	c #375858",
"[+	c #365656",
"}+	c #2F4E4E",
"|+	c #2B4646",
"1+	c #253B3B",
"2+	c #152121",
"3+	c #282828",
"4+	c #2F2F2F",
"5+	c #2A2A2C",
"6+	c #161515",
"7+	c #101210",
"8+	c #172121",
"9+	c #243A3B",
"0+	c #2D4A4A",
"a+	c #335151",
"b+	c #3A5C5C",
"c+	c #395D5D",
"d+	c #172120",
"e+	c #141515",
"f+	c #28282A",
"g+	c #28282B",
"h+	c #1C1C1C",
"i+	c #141410",
"j+	c #17201E",
"k+	c #233839",
"l+	c #3A5F5F",
"m+	c #3C6262",
"n+	c #3D6161",
"o+	c #3B5E5E",
"p+	c #385959",
"q+	c #223838",
"r+	c #17201F",
"s+	c #1B1B1B",
"t+	c #272727",
"u+	c #2A2A2A",
"v+	c #242424",
"w+	c #15150F",
"x+	c #161C19",
"y+	c #1D2F30",
"z+	c #2E4949",
"A+	c #395A5A",
"B+	c #3D6363",
"C+	c #3E6464",
"D+	c #1B2F30",
"E+	c #171D1A",
"F+	c #161510",
"G+	c #222324",
"H+	c #1B1B15",
"I+	c #141915",
"J+	c #152324",
"K+	c #2B4545",
"L+	c #3F6666",
"M+	c #142425",
"N+	c #151A15",
"O+	c #1C1A15",
"P+	c #262626",
"Q+	c #242322",
"R+	c #141511",
"S+	c #243C3C",
"T+	c #315151",
"U+	c #395B5B",
"V+	c #131B17",
"W+	c #141611",
"X+	c #202020",
"Y+	c #232323",
"Z+	c #1A1A19",
"`+	c #12120F",
" @	c #1B2625",
".@	c #3E6262",
"+@	c #3F6464",
"@@	c #3F6565",
"#@	c #3E6363",
"$@	c #345656",
"%@	c #1A2524",
"&@	c #1B1A19",
"*@	c #222222",
"=@	c #181817",
"-@	c #13120E",
";@	c #1A2726",
">@	c #263E3F",
",@	c #284142",
"'@	c #1A2828",
")@	c #12120E",
"!@	c #1F1F1F",
"~@	c #171716",
"{@	c #131513",
"]@	c #18201D",
"^@	c #315051",
"/@	c #273F40",
"(@	c #1E3132",
"_@	c #19211F",
":@	c #141613",
"<@	c #1A1A1A",
"[@	c #131412",
"}@	c #131817",
"|@	c #192220",
"1@	c #25342E",
"2@	c #2B403E",
"3@	c #2B4242",
"4@	c #2A4140",
"5@	c #293E3D",
"6@	c #24332E",
"7@	c #131512",
"8@	c #1C1B17",
"9@	c #181813",
"0@	c #1F2318",
"a@	c #1D261E",
"b@	c #17221F",
"c@	c #17211F",
"d@	c #1C241D",
"e@	c #1D2218",
"f@	c #181818",
"g@	c #171818",
"h@	c #161616",
"i@	c #101010",
"j@	c #0C0C0C",
". . . . . . . . . . . . . . . . . . . . . . . . . . . . . . . . . . . . . . . . . . . . ",
"+ @ @ @ @ @ @ @ @ @ @ @ @ @ @ @ @ @ @ @ @ @ @ @ @ @ @ @ @ @ @ @ @ @ @ @ @ @ @ @ @ @ @ + ",
"# $ $ $ $ $ $ $ $ $ $ $ $ $ $ $ $ $ $ $ $ $ $ $ $ $ $ $ $ $ $ $ $ $ $ $ $ $ $ $ $ $ $ # ",
"% & & & & & & & & & & & & & & & & & & & & & & & & & & & & & & & & & & & & & & & & & & % ",
"+ @ @ @ @ @ @ @ @ @ @ @ @ @ @ @ @ @ @ @ @ @ @ @ @ @ @ @ @ @ @ @ @ @ @ @ @ @ @ @ @ @ @ + ",
"+ + + + + + + + + + + + + + + + + + + + + + + + + + + + + + + + + + + + + + + + + + + + ",
"* = = = = = = = = = = = = = = = = = - * ; ; ; ; * - = = = = = = = = = = = = = = = = = * ",
"> * * * * * * * * * * * * * * * * , ' ) ! ~ ~ ! ) ' , * * * * * * * * * * * * * * * * > ",
"> > > > > > > > > > > > > > { ] ^ / ( _ : < [ } _ ( / ^ ] { > > > > > > > > > > > > > > ",
"| 1 1 1 1 1 1 1 1 1 1 1 1 2 3 4 5 6 7 8 9 0 a b 8 7 6 c d 3 2 1 1 1 1 1 1 1 1 1 1 1 1 | ",
"e | | | | | | | | | | | | 3 f g h i j k l m n o p j i h g f 3 | | | | | | | | | | | | e ",
"e e e e e e e e e e e e q r s t u v w x y z A y B C v D E F G q e e e e e e e e e e e e ",
"H I I I I I I I I I I J K L M N O P Q R S T U T V A P W X Y Z ` J I I I I I I I I I I H ",
" .J J J J J J J J J J ..+.@.#.v $.y %.&.*.=.-.=.;.>.y ,.v #.@.'.).J J J J J J J J J J  .",
" . . . . . . . . . .!.~.{.].^./.(._.>.R :.:.&.&.<.[.z (./.}.|.1.2.!. . . . . . . . . . .",
"3.4.4.4.4.4.4.4.4.5.6.7.8.9.0.a.b.c.d.d.d.d.>.>.>.%.Q e.f.g.h.i.7.j.5.4.4.4.4.4.4.4.4.3.",
"3.3.3.3.3.3.3.3.k.l.m.n.o.p.q.r.s.t.Q _._.u.d.d._.Q v.s.w.x.y.o.z.A.B.3.3.3.3.3.3.3.3.3.",
"C.D.D.D.D.D.D.D.D.E.F.G.H.m I.J.P (.K.A A z u.u.A L.(.M.J.N.v O.P.Q.R.D.D.D.D.D.D.D.D.C.",
"S.C.C.C.C.C.C.C.C.T.U.V.W.q.X.Y.M.(.L.A z z u.u.A L.(.s.,.Z.`. +.+++@+C.C.C.C.C.C.C.C.S.",
"S.S.S.S.S.S.S.S.S.@+#+$+%+&+*+=+(.-+y _.d.d.;+;+_.Q >+,+'+J.I.)+!+~+{+S.S.S.S.S.S.S.S.S.",
"@+]+]+]+]+]+]+]+]+~ ^+/+(+I._+:+A d.[.R R R R R <+[+u.Q }+|+1+2+/+[ 3+]+]+]+]+]+]+]+]+@+",
"{+4+4+4+4+4+4+4+4+5+6+7+8+9+0+a+d.<+b+S S S c+&.&.V <+d.c.0+/.d+7+e+f+4+4+4+4+4+4+4+4+{+",
"{+{+{+{+{+{+{+{+{+g+h+i+j+k+e.z >.V l+m+n+n+=.T o+;.&.p+;+0+q+r+'.s+g+{+{+{+{+{+{+{+{+{+",
"t+u+u+u+u+u+u+u+u+u+v+w+x+y+z+;+A+;.*.B+C+C+C+B+n+U T b+%.x D+E+F+G+u+u+u+u+u+u+u+u+u+t+",
"t+t+t+t+t+t+t+t+t+t+3+H+I+J+K+%.;.*.=.C+L+L+L+L+C+-.=.o+>.K+M+N+O+t+t+t+t+t+t+t+t+t+t+t+",
"P+P+P+P+P+P+P+P+P+P+P+Q+R+O.S+T+U+T =.C+L+L+L+L+C+-.U b+Q w V+W+Q+P+P+P+P+P+P+P+P+P+P+P+",
"X+Y+Y+Y+Y+Y+Y+Y+Y+Y+Y+Y+Z+`+ @X.z &.*..@+@@@@@+@#@*.;.$@1+%@`+&@Y+Y+Y+Y+Y+Y+Y+Y+Y+Y+Y+X+",
"X+X+X+X+X+X+X+X+X+X+X+X+*@=@-@;@>@-+[+o+-.B+B+-.o+>.y ,@'@)@=@*@X+X+X+X+X+X+X+X+X+X+X+X+",
"!@!@!@!@!@!@!@!@!@!@!@!@!@!@~@{@]@y+f.^@R <.V <+^@/@(@_@:@~@!@!@!@!@!@!@!@!@!@!@!@!@!@!@",
"<@h+h+h+h+h+h+h+h+h+h+h+h+h+h+_ [@}@|@1@2@3@4@5@6@|@}@7@_ h+h+h+h+h+h+h+h+h+h+h+h+h+h+<@",
"<@<@<@<@<@<@<@<@<@<@<@<@<@<@<@<@<@8@9@0@a@b@c@d@e@9@8@<@<@<@<@<@<@<@<@<@<@<@<@<@<@<@<@<@",
"^+f@f@f@f@f@f@f@f@f@f@f@f@f@f@f@f@f@f@f@f@g@g@f@f@f@f@f@f@f@f@f@f@f@f@f@f@f@f@f@f@f@f@^+",
"~+h@h@h@h@h@h@h@h@h@h@h@h@h@h@h@h@h@h@h@h@h@h@h@h@h@h@h@h@h@h@h@h@h@h@h@h@h@h@h@h@h@h@~+",
"i@~+~+~+~+~+~+~+~+~+~+~+~+~+~+~+~+~+~+~+~+~+~+~+~+~+~+~+~+~+~+~+~+~+~+~+~+~+~+~+~+~+~+i@",
"i@~+~+~+~+~+~+~+~+~+~+~+~+~+~+~+~+~+~+~+~+~+~+~+~+~+~+~+~+~+~+~+~+~+~+~+~+~+~+~+~+~+~+i@",
"*@Y+Y+Y+Y+Y+Y+Y+Y+Y+Y+Y+Y+Y+Y+Y+Y+Y+Y+Y+Y+Y+Y+Y+Y+Y+Y+Y+Y+Y+Y+Y+Y+Y+Y+Y+Y+Y+Y+Y+Y+Y+Y+*@",
"!@*@*@*@*@*@*@*@*@*@*@*@*@*@*@*@*@*@*@*@*@*@*@*@*@*@*@*@*@*@*@*@*@*@*@*@*@*@*@*@*@*@*@!@",
"j@j@j@j@j@j@j@j@j@j@j@j@j@j@j@j@j@j@j@j@j@j@j@j@j@j@j@j@j@j@j@j@j@j@j@j@j@j@j@j@j@j@j@j@"};
