/* XPM */
static char * title_1_active_xpm[] = {
"6 38 49 1",
" 	c None",
".	c #000000",
"+	c #515151",
"@	c #525252",
"#	c #6A6A6A",
"$	c #6C6C6C",
"%	c #545454",
"&	c #565656",
"*	c #505050",
"=	c #4E4E4E",
"-	c #4B4B4B",
";	c #4C4C4C",
">	c #4A4A4A",
",	c #484848",
"'	c #454545",
")	c #464646",
"!	c #444444",
"~	c #404040",
"{	c #414141",
"]	c #3F3F3F",
"^	c #3E3E3E",
"/	c #3A3A3A",
"(	c #3B3B3B",
"_	c #393939",
":	c #363636",
"<	c #343434",
"[	c #353535",
"}	c #333333",
"|	c #2F2F2F",
"1	c #303030",
"2	c #2D2D2D",
"3	c #2C2C2C",
"4	c #282828",
"5	c #2A2A2A",
"6	c #272727",
"7	c #262626",
"8	c #222222",
"9	c #232323",
"0	c #202020",
"a	c #1F1F1F",
"b	c #1B1B1B",
"c	c #1C1C1C",
"d	c #1A1A1A",
"e	c #161616",
"f	c #181818",
"g	c #141414",
"h	c #111111",
"i	c #131313",
"j	c #0C0C0C",
"......",
"+@@@@+",
"#$$$$#",
"%&&&&%",
"+@@@@+",
"******",
"======",
"-;;;;-",
">>>>>>",
",,,,,,",
"'))))'",
"!!!!!!",
"~{{{{~",
"]~~~~]",
"^^^^^^",
"/((((/",
"______",
"::::::",
"<[[[[<",
"}}}}}}",
"|1111|",
"2||||2",
"333333",
"455554",
"666666",
"777777",
"899998",
"000000",
"aaaaaa",
"bccccb",
"dddddd",
"effffe",
"geeeeg",
"hiiiih",
"hiiiih",
"899998",
"088880",
"jjjjjj"};
