/* XPM */
static char * title_1_inactive_xpm[] = {
"6 38 29 1",
" 	c None",
".	c #050505",
"+	c #2B2B2B",
"@	c #2E2E2E",
"#	c #393939",
"$	c #272727",
"%	c #292929",
"&	c #262626",
"*	c #252525",
"=	c #242424",
"-	c #222222",
";	c #212121",
">	c #202020",
",	c #1F1F1F",
"'	c #1D1D1D",
")	c #1C1C1C",
"!	c #1B1B1B",
"~	c #1A1A1A",
"{	c #181818",
"]	c #171717",
"^	c #161616",
"/	c #151515",
"(	c #131313",
"_	c #121212",
":	c #111111",
"<	c #101010",
"[	c #0E0E0E",
"}	c #0D0D0D",
"|	c #090909",
"......",
"+@@@@+",
"######",
"$%%%%$",
"&&&&&&",
"*&&&&*",
"******",
"======",
"-====-",
"------",
";;;;;;",
">;;;;>",
">>>>>>",
",,,,,,",
"',,,,'",
"''''''",
"))))))",
"!))))!",
"!!!!!!",
"~~~~~~",
"{{{{{{",
"{{{{{{",
"]]]]]]",
"^^^^^^",
"/^^^^/",
"//////",
"((((((",
"_((((_",
"______",
"::::::",
"<::::<",
"<<<<<<",
"[[[[[[",
"}}}}}}",
"}}}}}}",
"]{{{{]",
"^]]]]^",
"||||||"};
