/* XPM */
static char * top_right_inactive_xpm[] = {
"9 38 41 1",
" 	c None",
".	c #070707",
"+	c #101010",
"@	c #2D2D2D",
"#	c #252525",
"$	c #040404",
"%	c #3A3A3A",
"&	c #2C2C2C",
"*	c #121212",
"=	c #161616",
"-	c #131313",
";	c #282828",
">	c #272727",
",	c #262626",
"'	c #1D1D1D",
")	c #060606",
"!	c #242424",
"~	c #1E1E1E",
"{	c #232323",
"]	c #1F1F1F",
"^	c #191919",
"/	c #0A0A0A",
"(	c #1C1C1C",
"_	c #222222",
":	c #1B1B1B",
"<	c #212121",
"[	c #202020",
"}	c #1A1A1A",
"|	c #181818",
"1	c #171717",
"2	c #151515",
"3	c #0B0B0B",
"4	c #141414",
"5	c #111111",
"6	c #2F2F2F",
"7	c #343434",
"8	c #0E0E0E",
"9	c #0F0F0F",
"0	c #0D0D0D",
"a	c #353535",
"b	c #323232",
".+       ",
"@#$.     ",
"%&*=-    ",
";>,,')   ",
",>>>!~*  ",
"#,,,,#-. ",
"#####{*++",
"!!!!!!]^/",
"{{{{{{!(/",
"_______:/",
"<<<<<<_:/",
"[<<<<<<}/",
"[[[[[[[}/",
"]]]]]][^/",
"~~~~~~~^/",
"(''''''|/",
"(((((((|/",
":((((((1/",
":::::::1/",
"}}}}}}}=/",
"|^^^^^^=/",
"1||||||23",
"111111123",
"======143",
"2======43",
"2222222-3",
"-444444*3",
"*------55",
"*******~[",
"555555^6<",
"+55552;7@",
"+++++}>, ",
"8999-,,  ",
"000=___  ",
"881!#    ",
"|,aa     ",
"@bb      ",
"''       "};
