/* XPM */
static char * top_right_active_xpm[] = {
"9 38 61 1",
" 	c None",
".	c #000000",
"+	c #101010",
"@	c #525252",
"#	c #404040",
"$	c #6C6C6C",
"%	c #515151",
"&	c #222222",
"*	c #282828",
"=	c #545454",
"-	c #3B3B3B",
";	c #4C4C4C",
">	c #3E3E3E",
",	c #1F1F1F",
"'	c #505050",
")	c #4E4E4E",
"!	c #4A4A4A",
"~	c #202020",
"{	c #4B4B4B",
"]	c #2F2F2F",
"^	c #070707",
"/	c #3A3A3A",
"(	c #484848",
"_	c #363636",
":	c #050505",
"<	c #454545",
"[	c #464646",
"}	c #353535",
"|	c #444444",
"1	c #343434",
"2	c #414141",
"3	c #333333",
"4	c #3F3F3F",
"5	c #303030",
"6	c #393939",
"7	c #2D2D2D",
"8	c #2C2C2C",
"9	c #090909",
"0	c #2A2A2A",
"a	c #272727",
"b	c #262626",
"c	c #232323",
"d	c #0C0C0C",
"e	c #0E0E0E",
"f	c #242424",
"g	c #2B2B2B",
"h	c #323232",
"i	c #1B1B1B",
"j	c #1C1C1C",
"k	c #292929",
"l	c #212121",
"m	c #1A1A1A",
"n	c #161616",
"o	c #181818",
"p	c #252525",
"q	c #141414",
"r	c #111111",
"s	c #1E1E1E",
"t	c #373737",
"u	c #313131",
"v	c #2E2E2E",
".+       ",
"@#..     ",
"$%&*&    ",
"==@@-.   ",
"%@@=;>,  ",
"''''%)&. ",
")))))!~++",
"{;;;;{#]^",
"!!!!!!{/^",
"((((((!_:",
"<[[[[[[}^",
"||||||<1^",
"#2222223^",
"4######3^",
">>>>>>45^",
"/------]^",
"666666/7^",
"_______8^",
"1}}}}}}89",
"333333109",
"]555555*9",
"7]]]]]]a9",
"8888888a9",
"*000000b9",
"aaaaaa*cd",
"bbbbbbb~e",
"&cccccc&f",
"~~~~~~&,1",
",,,,,,,gh",
"ijjjjjkhl",
"mmmmmma* ",
"noooopp& ",
"qnnn&5}  ",
"rnsb}tk  ",
"qssg_    ",
"uhh2     ",
"vuu      ",
"q        "};
