/* XPM */
static char * top_left_inactive_xpm[] = {
"9 38 39 1",
" 	c None",
".	c #101010",
"+	c #050505",
"@	c #000000",
"#	c #212121",
"$	c #2E2E2E",
"%	c #131313",
"&	c #171717",
"*	c #151515",
"=	c #2A2A2A",
"-	c #393939",
";	c #030303",
">	c #1F1F1F",
",	c #272727",
"'	c #262626",
")	c #121212",
"!	c #202020",
"~	c #252525",
"{	c #242424",
"]	c #080808",
"^	c #181818",
"/	c #222222",
"(	c #1D1D1D",
"_	c #1C1C1C",
":	c #1B1B1B",
"<	c #090909",
"[	c #1A1A1A",
"}	c #161616",
"|	c #0B0B0B",
"1	c #191919",
"2	c #111111",
"3	c #282828",
"4	c #141414",
"5	c #232323",
"6	c #0E0E0E",
"7	c #343434",
"8	c #333333",
"9	c #323232",
"0	c #2B2B2B",
"       .+",
"     @@#$",
"    %&*=-",
"   ;>,',,",
"  )!',,,'",
" @*~''''~",
"..%{~~~~~",
"]^>{{{{{{",
"]>{{{{{{/",
"](///////",
"](/######",
"]_######!",
"]_!!!!!!!",
"]:>>>>>>>",
"<:>>>>>>(",
"<[(((((((",
"<^_______",
"<^______:",
"<&:::::::",
"<&[[[[[[[",
"<}[^^^^^^",
"|}^^^^^^^",
"|*&&&&&&&",
"|*&}}}}}}",
"|%}}}}}}*",
"|%*******",
"|)%%%%%%%",
"%)%%%%%%)",
"#^)))))))",
"#=1222222",
" ,342222.",
" {,{.....",
"  ~5*}%%6",
"   //^}}%",
"    //{>4",
"     78~:",
"      990",
"        ["};
