/* XPM */
static char * top_left_active_xpm[] = {
"9 38 59 1",
" 	c None",
".	c #101010",
"+	c #000000",
"@	c #404040",
"#	c #525252",
"$	c #222222",
"%	c #282828",
"&	c #515151",
"*	c #6C6C6C",
"=	c #3B3B3B",
"-	c #545454",
";	c #1F1F1F",
">	c #3E3E3E",
",	c #4C4C4C",
"'	c #4E4E4E",
")	c #505050",
"!	c #202020",
"~	c #4A4A4A",
"{	c #070707",
"]	c #2F2F2F",
"^	c #4B4B4B",
"/	c #3A3A3A",
"(	c #050505",
"_	c #363636",
":	c #484848",
"<	c #353535",
"[	c #464646",
"}	c #454545",
"|	c #343434",
"1	c #444444",
"2	c #333333",
"3	c #414141",
"4	c #3F3F3F",
"5	c #303030",
"6	c #2D2D2D",
"7	c #393939",
"8	c #2C2C2C",
"9	c #090909",
"0	c #2A2A2A",
"a	c #272727",
"b	c #262626",
"c	c #0C0C0C",
"d	c #232323",
"e	c #0E0E0E",
"f	c #1C1C1C",
"g	c #1B1B1B",
"h	c #1A1A1A",
"i	c #313131",
"j	c #212121",
"k	c #181818",
"l	c #161616",
"m	c #141414",
"n	c #2B2B2B",
"o	c #131313",
"p	c #111111",
"q	c #1E1E1E",
"r	c #434343",
"s	c #474747",
"t	c #424242",
"       .+",
"     ++@#",
"    $%$&*",
"   +=##--",
"  ;>,-##&",
" +$'&))))",
"..!~'''''",
"{]@^,,,,^",
"{/^~~~~~~",
"(_~::::::",
"{<[[[[[[}",
"{|}111111",
"{2333333@",
"{2@@@@@@4",
"{54>>>>>>",
"{]======/",
"{6/777777",
"{8_______",
"98<<<<<<|",
"90|222222",
"9%555555]",
"9a]]]]]]6",
"9a8888888",
"9b000000%",
"cd%aaaaaa",
"c!bbbbbbb",
"e;dddddd$",
"$f$!!!!!!",
"@g;;;;;;;",
"<6ffffffg",
" <dhhhhhh",
" i2jkkkkl",
"  i5!lllm",
"   8nhoop",
"    8nqop",
"     rsa$",
"      tt5",
"        ="};
