<svg width="18" xmlns="http://www.w3.org/2000/svg" viewBox="0 0 18 22" height="22"><path d="M8.145 3v7.175l-3.944-3-1.336 1.064L7.77 12 2.79 15.761l1.56 1.175 3.795-3.052V21l7.065-5.239-4.682-3.702 4.532-3.65L8.145 3zm1.934 3.473l2.309 1.995-2.309 1.766V6.473zm-.074 7.47l2.457 1.759-2.308 1.589-.15-3.348z" fill-rule="evenodd" opacity=".3"/><path d="M8.145 2v7.175l-3.944-3-1.336 1.064L7.77 11 2.79 14.761l1.56 1.175 3.795-3.052V20l7.065-5.239-4.682-3.702 4.532-3.65L8.145 2zm1.934 3.473l2.309 1.995-2.309 1.766V5.473zm-.074 7.47l2.457 1.759-2.308 1.589-.15-3.348z" fill-rule="evenodd" fill="#dcdcdc"/></svg>